<svg width="3840" height="1080" viewBox="0 0 3840 1080" fill="none" xmlns="http://www.w3.org/2000/svg">
<rect width="1920" height="1080" fill="#E5C79B"/>
<rect width="1920" height="1080" fill="url(#paint0_linear_258_485)" fill-opacity="0.75"/>
<rect width="227" height="1080" fill="#AD9777"/>
<rect x="1370" width="133" height="1080" fill="#AEB9BF" fill-opacity="0.5"/>
<rect x="1575" width="48" height="1080" fill="#AD9777"/>
<rect x="1061" width="46" height="1080" fill="#9E8764"/>
<rect x="1324" y="139" width="150" height="1097" transform="rotate(90 1324 139)" fill="#FFBB9D" fill-opacity="0.25"/>
<rect x="1324" width="46" height="1080" fill="#C2A67C"/>
<rect x="405" width="37" height="1080" fill="#C9AF89"/>
<rect x="1920" y="540" width="321" height="1920" transform="rotate(90 1920 540)" fill="#E5C79B" fill-opacity="0.25"/>
<rect x="1662" width="86" height="1080" fill="#E0A689" fill-opacity="0.5"/>
<rect x="759" width="188" height="1080" fill="#C0936B" fill-opacity="0.75"/>
<rect x="1834" width="86" height="1080" fill="#C0936B"/>
<rect x="442" width="93" height="1080" fill="#C18E75"/>
<rect x="371" width="34" height="1080" fill="#C18E75" fill-opacity="0.5"/>
<rect x="986" width="75" height="1080" fill="#C2A67C"/>
<rect width="1920" height="1080" fill="url(#paint1_linear_258_485)" fill-opacity="0.5"/>
<rect width="1920" height="1080" fill="url(#paint2_linear_258_485)" fill-opacity="0.6"/>
<rect width="1920" height="1080" fill="#786954" fill-opacity="0.35"/>
<rect x="1920" width="1920" height="1080" fill="#E5C79B"/>
<rect x="1920" width="1920" height="1080" fill="url(#paint3_linear_258_485)" fill-opacity="0.75"/>
<rect x="1920" width="227" height="1080" fill="#8C8373"/>
<rect x="3290" width="133" height="1080" fill="#AEB9BF" fill-opacity="0.5"/>
<rect x="3495" width="48" height="1080" fill="#AD9777"/>
<rect x="2981" width="46" height="1080" fill="#9E8764"/>
<rect x="3244" y="139" width="150" height="1097" transform="rotate(90 3244 139)" fill="#FFBB9D" fill-opacity="0.25"/>
<rect x="3244" width="46" height="1080" fill="#C2A67C"/>
<rect x="2325" width="37" height="1080" fill="#C9AF89"/>
<rect x="3840" y="540" width="321" height="1920" transform="rotate(90 3840 540)" fill="#E5C79B" fill-opacity="0.25"/>
<rect x="3582" width="86" height="1080" fill="#E0A689" fill-opacity="0.5"/>
<rect x="2679" width="188" height="1080" fill="#C0936B" fill-opacity="0.75"/>
<rect x="3754" width="86" height="1080" fill="#C0936B"/>
<rect x="2362" width="93" height="1080" fill="#C18E75"/>
<rect x="2291" width="34" height="1080" fill="#C18E75" fill-opacity="0.5"/>
<rect x="2906" width="75" height="1080" fill="#C2A67C"/>
<rect x="1920" width="1920" height="1080" fill="url(#paint4_linear_258_485)" fill-opacity="0.5"/>
<rect x="1920" width="1920" height="1080" fill="url(#paint5_linear_258_485)" fill-opacity="0.6"/>
<rect x="1920" width="1920" height="1080" fill="#786954" fill-opacity="0.35"/>
<defs>
<linearGradient id="paint0_linear_258_485" x1="150" y1="-1.40839e-05" x2="1770.5" y2="1020.5" gradientUnits="userSpaceOnUse">
<stop offset="0.0288462" stop-color="#786954" stop-opacity="0.5"/>
<stop offset="0.3125" stop-color="#EC9A72" stop-opacity="0.5"/>
<stop offset="0.673077" stop-color="#AEB9BF" stop-opacity="0.25"/>
</linearGradient>
<linearGradient id="paint1_linear_258_485" x1="150" y1="-1.40839e-05" x2="1770.5" y2="1020.5" gradientUnits="userSpaceOnUse">
<stop offset="0.0288462" stop-color="#786954" stop-opacity="0.5"/>
<stop offset="0.3125" stop-color="#EC9A72" stop-opacity="0.5"/>
<stop offset="0.634615" stop-color="#AEB9BF" stop-opacity="0.25"/>
<stop offset="0.826923" stop-color="#EC9A72" stop-opacity="0.4"/>
<stop offset="1" stop-color="#786954" stop-opacity="0.5"/>
</linearGradient>
<linearGradient id="paint2_linear_258_485" x1="0" y1="540" x2="1920" y2="540" gradientUnits="userSpaceOnUse">
<stop stop-color="#896351"/>
<stop offset="1" stop-color="#67747B"/>
</linearGradient>
<linearGradient id="paint3_linear_258_485" x1="2070" y1="-1.40839e-05" x2="3690.5" y2="1020.5" gradientUnits="userSpaceOnUse">
<stop offset="0.0288462" stop-color="#786954" stop-opacity="0.5"/>
<stop offset="0.3125" stop-color="#EC9A72" stop-opacity="0.5"/>
<stop offset="0.673077" stop-color="#AEB9BF" stop-opacity="0.25"/>
</linearGradient>
<linearGradient id="paint4_linear_258_485" x1="2070" y1="-1.40839e-05" x2="3690.5" y2="1020.5" gradientUnits="userSpaceOnUse">
<stop offset="0.0288462" stop-color="#786954" stop-opacity="0.5"/>
<stop offset="0.3125" stop-color="#EC9A72" stop-opacity="0.5"/>
<stop offset="0.634615" stop-color="#AEB9BF" stop-opacity="0.25"/>
<stop offset="0.826923" stop-color="#EC9A72" stop-opacity="0.4"/>
<stop offset="1" stop-color="#786954" stop-opacity="0.5"/>
</linearGradient>
<linearGradient id="paint5_linear_258_485" x1="1920" y1="540" x2="3840" y2="540" gradientUnits="userSpaceOnUse">
<stop stop-color="#896351"/>
<stop offset="1" stop-color="#67747B"/>
</linearGradient>
</defs>
</svg>
