<svg width="409" height="1830" viewBox="0 0 409 1830" fill="none" xmlns="http://www.w3.org/2000/svg">
<path d="M409.5 0L0 261.5V1829.5L409.5 1769V0Z" fill="#40464A"/>
<path d="M27.5 274V792L55.5 780.082V303.474L363.5 298V268L27.5 274Z" fill="#51595D"/>
<path d="M363.5 648.986V268L27.5 274V792L363.5 648.986Z" fill="#51595D"/>
<path d="M363 817H27V1294.5L363 1211V817Z" fill="#51595D"/>
<path d="M363 1318H27V1797L363 1741V1318Z" fill="#51595D"/>
<path d="M363 268L27.5 274L363 81V268Z" fill="#333638"/>
<path d="M363 816.5H27L363 685V816.5Z" fill="#333638"/>
<path d="M363 1331L27 1317.5L363 1244V1331Z" fill="#333638"/>
<g filter="url(#filter0_d_2041_1962)">
<path d="M66.6626 431.838C66.5817 409.975 84.0703 392.097 105.93 391.697L179.142 390.357C201.799 389.942 220.275 408.412 219.868 431.069L218.19 524.334C217.792 546.507 199.429 564.124 177.259 563.603L106.058 561.933C84.3958 561.424 67.0769 543.76 66.9967 522.092L66.6626 431.838Z" fill="#FF7D7E"/>
<g filter="url(#filter1_d_2041_1962)">
<path d="M56.1946 417.322L78.7894 400.876C126.093 389.66 156.775 388.926 207.03 395.881L236.934 414.269C219.435 409.22 216.351 410.726 213.054 414.203C195.66 404.144 185.514 408.478 182.44 412.833C162.152 404.692 151.261 406.407 148.297 410.302C132.697 400.008 114.497 407.721 110.069 412.289C95.005 404.103 88.9428 413.058 85.7723 417.212C76.5753 410.647 63.3738 415.168 56.1946 417.322Z" fill="#DA4546"/>
</g>
<mask id="mask0_2041_1962" style="mask-type:alpha" maskUnits="userSpaceOnUse" x="56" y="391" width="181" height="27">
<path d="M56.1949 417.322L78.7896 400.876C126.093 389.66 156.775 388.926 207.03 395.881L236.934 414.269C219.436 409.22 216.352 410.726 213.054 414.203C195.66 404.144 185.514 408.478 182.44 412.833C162.152 404.692 151.261 406.407 148.297 410.302C132.697 400.008 114.498 407.721 110.069 412.289C95.0052 404.103 88.943 413.058 85.7726 417.212C76.5756 410.647 63.3741 415.168 56.1949 417.322Z" fill="#DA4546"/>
</mask>
<g mask="url(#mask0_2041_1962)">
<path d="M69.2636 413.597C69.4828 406.927 80.118 405.608 78.9664 398.614" stroke="#290505" stroke-opacity="0.46" stroke-width="8"/>
<path d="M62.6554 404.477C64.4203 406.826 78.3985 401.873 82.0219 403.722C87.1725 406.35 89.3822 403.964 89.8422 403.979C90.3022 403.994 101.461 400.744 108.279 403.472C113.734 405.655 116.992 404.593 117.94 403.79C121.54 401.682 131.283 398.553 141.456 402.893C144.29 406.325 147.85 404.495 149.276 403.15C152.566 401.126 161.515 397.877 170.988 401.082C180.461 404.287 182.32 401.918 182.065 400.333C185.665 398.226 195.498 395.155 206.032 399.73C216.565 404.305 215.634 401.808 213.852 399.987C214.195 398.885 222.057 402.535 223.512 400.305" stroke="#290505" stroke-opacity="0.46" stroke-width="4.5"/>
<path d="M54.6435 410.056C56.8528 412.893 73.7058 407.344 77.6809 409.701C82.6498 412.646 89.6665 409.328 90.1266 409.343C90.5866 409.359 98.0656 405.988 104.884 408.716C110.338 410.898 114.977 409.882 115.924 409.079C119.524 406.971 129.287 403.218 139.46 407.558C142.295 410.99 149.995 409.296 151.421 407.951C154.711 405.927 161.799 403.242 171.272 406.447C180.746 409.651 186.765 406.795 186.51 405.21C187.521 402.461 196.255 400.165 206.788 404.74C215.088 408.346 215.943 406.433 218.289 405.119C218.632 404.017 231.555 407.81 233.018 405.347" stroke="#290505" stroke-opacity="0.46" stroke-width="4.5"/>
<path d="M94.674 411.094L90.9632 397.895" stroke="#290505" stroke-opacity="0.46" stroke-width="8"/>
<path d="M127.914 408.569L124.627 396.498" stroke="#290505" stroke-opacity="0.46" stroke-width="8"/>
<line y1="-4" x2="13.3105" y2="-4" transform="matrix(-0.244914 -0.969545 0.997422 -0.0717642 164.32 407.819)" stroke="#290505" stroke-opacity="0.46" stroke-width="8"/>
<path d="M196.612 406.098L192.874 393.734" stroke="#290505" stroke-opacity="0.46" stroke-width="8"/>
<path d="M69.2636 413.597C69.4828 406.927 80.118 405.608 78.9664 398.614" stroke="#D66E6E" stroke-opacity="0.46" stroke-width="2"/>
<path d="M62.6554 404.477C64.4203 406.826 78.0468 401.366 82.0219 403.722C86.9907 406.667 89.3822 403.964 89.8422 403.979C90.3022 403.994 101.461 400.744 108.279 403.472C113.734 405.655 116.992 404.593 117.94 403.79C121.54 401.682 131.283 398.553 141.456 402.893C144.29 406.325 147.85 404.495 149.276 403.15C152.566 401.126 161.515 397.877 170.988 401.082C180.461 404.287 182.32 401.918 182.065 400.333C185.665 398.226 195.498 395.155 206.032 399.73C216.565 404.305 215.634 401.808 213.852 399.987C214.195 398.885 222.532 402.1 223.512 400.305" stroke="#D66E6E" stroke-opacity="0.46" stroke-width="2"/>
<path d="M54.6416 410.114C56.4077 412.428 73.7059 407.344 77.681 409.701C82.6498 412.646 89.6666 409.328 90.1266 409.344C90.5867 409.359 98.0657 405.988 104.884 408.716C110.338 410.898 114.977 409.882 115.924 409.079C119.524 406.971 129.288 403.218 139.46 407.558C142.295 410.99 149.995 409.296 151.421 407.951C154.711 405.927 161.799 403.242 171.273 406.447C180.746 409.651 186.765 406.795 186.51 405.21C187.522 402.461 195.783 400.52 206.316 405.095C216.85 409.67 216.871 406.208 219.217 404.894C219.56 403.792 231.57 407.36 233.018 405.347" stroke="#D66E6E" stroke-opacity="0.46" stroke-width="2"/>
<path d="M94.674 411.094L90.9632 397.895" stroke="#D66E6E" stroke-opacity="0.46" stroke-width="2"/>
<path d="M127.914 408.569L124.627 396.498" stroke="#D66E6E" stroke-opacity="0.46" stroke-width="2"/>
<line y1="-1" x2="13.3105" y2="-1" transform="matrix(-0.244914 -0.969545 0.997422 -0.0717642 161.541 408.285)" stroke="#D66E6E" stroke-opacity="0.46" stroke-width="2"/>
<path d="M196.612 406.098L192.874 393.734" stroke="#D66E6E" stroke-opacity="0.46" stroke-width="2"/>
<path d="M73.7769 406.865C127.217 392.823 145.458 390.238 211.568 398.804" stroke="#451010" stroke-opacity="0.67" stroke-width="4"/>
</g>
<path d="M66.1964 389.713C65.6524 386.973 66.3187 384.154 68.4594 382.496C96.3623 360.89 203.63 359.914 218.626 378.6C232.226 395.546 155.386 390.908 135.143 389.412C131.939 389.176 128.762 389.281 125.622 389.768L76.8971 397.317C71.978 398.08 67.1804 394.67 66.1964 389.713Z" fill="#E64A4B"/>
<path d="M67.4417 395.518C67.4294 392.186 69.6216 389.348 72.8271 388.569C122.867 376.42 149.16 374.341 209.609 381.154C215.023 381.765 218.637 387.323 216.911 392.371C215.637 396.093 211.841 398.238 207.867 397.582C164.293 390.393 121.181 393.015 77.2031 403.249C72.3455 404.379 67.4604 400.554 67.4417 395.518Z" fill="#C9393A"/>
<path opacity="0.22" d="M80.1138 447.575C80.0627 433.768 91.2141 422.534 105.021 422.483L112.396 422.456C126.203 422.405 137.437 433.556 137.488 447.363L137.722 510.604C137.773 524.411 126.622 535.645 112.815 535.696L105.44 535.723C91.6332 535.774 80.3989 524.623 80.3478 510.816L80.1138 447.575Z" fill="white"/>
<path d="M173.932 484.312C169.201 490.79 158.845 488.734 157.085 480.968L148.39 442.614C146.919 436.125 152.78 430.305 159.453 431.63L191.513 437.994C198.187 439.319 201.251 446.91 197.298 452.323L173.932 484.312Z" fill="#E64A4B"/>
<path d="M190.871 438.314C197.545 439.639 200.609 447.23 196.656 452.643L173.291 484.632C171.336 487.309 168.419 488.526 165.547 488.488C165.328 465.721 167.442 453.969 176.741 435.509L190.871 438.314Z" fill="#C9393A"/>
<path d="M202.712 487.122C200.834 493.705 192.052 494.975 188.301 489.206L172.659 465.152C169.477 460.26 172.408 453.756 178.168 452.923L201.643 449.528C207.403 448.695 212.138 454.091 210.545 459.673L202.712 487.122Z" fill="#E64A4B"/>
<ellipse cx="186.629" cy="464.745" rx="1.1765" ry="1.72244" transform="rotate(-0.212056 186.629 464.745)" fill="#5C1818"/>
<ellipse cx="186.629" cy="464.745" rx="1.1765" ry="1.72244" transform="rotate(-0.212056 186.629 464.745)" fill="#5C1818"/>
<ellipse cx="194.84" cy="458.975" rx="1.1765" ry="1.72244" transform="rotate(-0.212056 194.84 458.975)" fill="#5C1818"/>
<ellipse cx="192.548" cy="475.054" rx="1.1765" ry="1.72244" transform="rotate(-0.212056 192.548 475.054)" fill="#5C1818"/>
<ellipse cx="161.855" cy="444.174" rx="1.1765" ry="1.72244" transform="rotate(-0.212056 161.855 444.174)" fill="#5C1818"/>
<ellipse cx="177.157" cy="447.562" rx="1.1765" ry="1.72244" transform="rotate(-0.212056 177.157 447.562)" fill="#5C1818"/>
<ellipse cx="169.026" cy="475.141" rx="1.1765" ry="1.72244" transform="rotate(-0.212056 169.026 475.141)" fill="#5C1818"/>
<ellipse cx="159.562" cy="460.253" rx="1.1765" ry="1.72244" transform="rotate(-0.212056 159.562 460.253)" fill="#5C1818"/>
</g>
<g filter="url(#filter2_d_2041_1962)">
<path d="M73.6626 616.838C73.5817 594.975 91.0703 577.097 112.93 576.697L186.142 575.357C208.799 574.942 227.275 593.412 226.868 616.069L225.19 709.334C224.792 731.507 206.429 749.124 184.259 748.603L113.058 746.933C91.3958 746.424 74.0769 728.76 73.9967 707.092L73.6626 616.838Z" fill="#FF7D7E"/>
<g filter="url(#filter3_d_2041_1962)">
<path d="M63.1946 602.322L85.7894 585.876C133.093 574.66 163.775 573.926 214.03 580.881L243.934 599.269C226.435 594.22 223.351 595.726 220.054 599.203C202.66 589.144 192.514 593.478 189.44 597.833C169.152 589.692 158.261 591.407 155.297 595.302C139.697 585.008 121.497 592.721 117.069 597.289C102.005 589.103 95.9428 598.058 92.7723 602.212C83.5753 595.647 70.3738 600.168 63.1946 602.322Z" fill="#DA4546"/>
</g>
<mask id="mask1_2041_1962" style="mask-type:alpha" maskUnits="userSpaceOnUse" x="63" y="576" width="181" height="27">
<path d="M63.1949 602.322L85.7896 585.876C133.093 574.66 163.775 573.926 214.03 580.881L243.934 599.269C226.436 594.22 223.352 595.726 220.054 599.203C202.66 589.144 192.514 593.478 189.44 597.833C169.152 589.692 158.261 591.407 155.297 595.302C139.697 585.008 121.498 592.721 117.069 597.289C102.005 589.103 95.943 598.058 92.7726 602.212C83.5756 595.647 70.3741 600.168 63.1949 602.322Z" fill="#DA4546"/>
</mask>
<g mask="url(#mask1_2041_1962)">
<path d="M76.2636 598.597C76.4828 591.927 87.118 590.608 85.9664 583.614" stroke="#290505" stroke-opacity="0.46" stroke-width="8"/>
<path d="M69.6554 589.477C71.4203 591.826 85.3985 586.873 89.0219 588.722C94.1725 591.35 96.3822 588.964 96.8422 588.979C97.3022 588.994 108.461 585.744 115.279 588.472C120.734 590.655 123.992 589.593 124.94 588.79C128.54 586.682 138.283 583.553 148.456 587.893C151.29 591.325 154.85 589.495 156.276 588.15C159.566 586.126 168.515 582.877 177.988 586.082C187.461 589.287 189.32 586.918 189.065 585.333C192.665 583.226 202.498 580.155 213.032 584.73C223.565 589.305 222.634 586.808 220.852 584.987C221.195 583.885 229.057 587.535 230.512 585.305" stroke="#290505" stroke-opacity="0.46" stroke-width="4.5"/>
<path d="M61.6435 595.056C63.8528 597.893 80.7058 592.344 84.6809 594.701C89.6498 597.646 96.6665 594.328 97.1266 594.343C97.5866 594.359 105.066 590.988 111.884 593.716C117.338 595.898 121.977 594.882 122.924 594.079C126.524 591.971 136.287 588.218 146.46 592.558C149.295 595.99 156.995 594.296 158.421 592.951C161.711 590.927 168.799 588.242 178.272 591.447C187.746 594.651 193.765 591.795 193.51 590.21C194.521 587.461 203.255 585.165 213.788 589.74C222.088 593.346 222.943 591.433 225.289 590.119C225.632 589.017 238.555 592.81 240.018 590.347" stroke="#290505" stroke-opacity="0.46" stroke-width="4.5"/>
<path d="M101.674 596.094L97.9632 582.895" stroke="#290505" stroke-opacity="0.46" stroke-width="8"/>
<path d="M134.914 593.569L131.627 581.498" stroke="#290505" stroke-opacity="0.46" stroke-width="8"/>
<line y1="-4" x2="13.3105" y2="-4" transform="matrix(-0.244914 -0.969545 0.997422 -0.0717642 171.32 592.819)" stroke="#290505" stroke-opacity="0.46" stroke-width="8"/>
<path d="M203.612 591.098L199.874 578.734" stroke="#290505" stroke-opacity="0.46" stroke-width="8"/>
<path d="M76.2636 598.597C76.4828 591.927 87.118 590.608 85.9664 583.614" stroke="#D66E6E" stroke-opacity="0.46" stroke-width="2"/>
<path d="M69.6554 589.477C71.4203 591.826 85.0468 586.366 89.0219 588.722C93.9907 591.667 96.3822 588.964 96.8422 588.979C97.3022 588.994 108.461 585.744 115.279 588.472C120.734 590.655 123.992 589.593 124.94 588.79C128.54 586.682 138.283 583.553 148.456 587.893C151.29 591.325 154.85 589.495 156.276 588.15C159.566 586.126 168.515 582.877 177.988 586.082C187.461 589.287 189.32 586.918 189.065 585.333C192.665 583.226 202.498 580.155 213.032 584.73C223.565 589.305 222.634 586.808 220.852 584.987C221.195 583.885 229.532 587.1 230.512 585.305" stroke="#D66E6E" stroke-opacity="0.46" stroke-width="2"/>
<path d="M61.6416 595.114C63.4077 597.428 80.7059 592.344 84.681 594.701C89.6498 597.646 96.6666 594.328 97.1266 594.344C97.5867 594.359 105.066 590.988 111.884 593.716C117.338 595.898 121.977 594.882 122.924 594.079C126.524 591.971 136.288 588.218 146.46 592.558C149.295 595.99 156.995 594.296 158.421 592.951C161.711 590.927 168.799 588.242 178.273 591.447C187.746 594.651 193.765 591.795 193.51 590.21C194.522 587.461 202.783 585.52 213.316 590.095C223.85 594.67 223.871 591.208 226.217 589.894C226.56 588.792 238.57 592.36 240.018 590.347" stroke="#D66E6E" stroke-opacity="0.46" stroke-width="2"/>
<path d="M101.674 596.094L97.9632 582.895" stroke="#D66E6E" stroke-opacity="0.46" stroke-width="2"/>
<path d="M134.914 593.569L131.627 581.498" stroke="#D66E6E" stroke-opacity="0.46" stroke-width="2"/>
<line y1="-1" x2="13.3105" y2="-1" transform="matrix(-0.244914 -0.969545 0.997422 -0.0717642 168.541 593.285)" stroke="#D66E6E" stroke-opacity="0.46" stroke-width="2"/>
<path d="M203.612 591.098L199.874 578.734" stroke="#D66E6E" stroke-opacity="0.46" stroke-width="2"/>
<path d="M80.7769 591.865C134.217 577.823 152.458 575.238 218.568 583.804" stroke="#451010" stroke-opacity="0.67" stroke-width="4"/>
</g>
<path d="M73.1964 574.713C72.6524 571.973 73.3187 569.154 75.4594 567.496C103.362 545.89 210.63 544.914 225.626 563.6C239.226 580.546 162.386 575.908 142.143 574.412C138.939 574.176 135.762 574.281 132.622 574.768L83.8971 582.317C78.978 583.08 74.1804 579.67 73.1964 574.713Z" fill="#E64A4B"/>
<path d="M74.4417 580.518C74.4294 577.186 76.6216 574.348 79.8271 573.569C129.867 561.42 156.16 559.341 216.609 566.154C222.023 566.765 225.637 572.323 223.911 577.371C222.637 581.093 218.841 583.238 214.867 582.582C171.293 575.393 128.181 578.015 84.2031 588.249C79.3455 589.379 74.4604 585.554 74.4417 580.518Z" fill="#C9393A"/>
<path opacity="0.22" d="M87.1138 632.575C87.0627 618.768 98.2141 607.534 112.021 607.483L119.396 607.456C133.203 607.405 144.437 618.556 144.488 632.363L144.722 695.604C144.773 709.411 133.622 720.645 119.815 720.696L112.44 720.723C98.6332 720.774 87.3989 709.623 87.3478 695.816L87.1138 632.575Z" fill="white"/>
<path d="M180.932 669.312C176.201 675.79 165.845 673.734 164.085 665.968L155.39 627.614C153.919 621.125 159.78 615.305 166.453 616.63L198.513 622.994C205.187 624.319 208.251 631.91 204.298 637.323L180.932 669.312Z" fill="#E64A4B"/>
<path d="M197.871 623.314C204.545 624.639 207.609 632.23 203.656 637.643L180.291 669.632C178.336 672.309 175.419 673.526 172.547 673.488C172.328 650.721 174.442 638.969 183.741 620.509L197.871 623.314Z" fill="#C9393A"/>
<path d="M209.712 672.122C207.834 678.705 199.052 679.975 195.301 674.206L179.659 650.152C176.477 645.26 179.408 638.756 185.168 637.923L208.643 634.528C214.403 633.695 219.138 639.091 217.545 644.673L209.712 672.122Z" fill="#E64A4B"/>
<ellipse cx="193.629" cy="649.745" rx="1.1765" ry="1.72244" transform="rotate(-0.212056 193.629 649.745)" fill="#5C1818"/>
<ellipse cx="193.629" cy="649.745" rx="1.1765" ry="1.72244" transform="rotate(-0.212056 193.629 649.745)" fill="#5C1818"/>
<ellipse cx="201.84" cy="643.975" rx="1.1765" ry="1.72244" transform="rotate(-0.212056 201.84 643.975)" fill="#5C1818"/>
<ellipse cx="199.548" cy="660.054" rx="1.1765" ry="1.72244" transform="rotate(-0.212056 199.548 660.054)" fill="#5C1818"/>
<ellipse cx="168.855" cy="629.174" rx="1.1765" ry="1.72244" transform="rotate(-0.212056 168.855 629.174)" fill="#5C1818"/>
<ellipse cx="184.157" cy="632.562" rx="1.1765" ry="1.72244" transform="rotate(-0.212056 184.157 632.562)" fill="#5C1818"/>
<ellipse cx="176.026" cy="660.141" rx="1.1765" ry="1.72244" transform="rotate(-0.212056 176.026 660.141)" fill="#5C1818"/>
<ellipse cx="166.562" cy="645.253" rx="1.1765" ry="1.72244" transform="rotate(-0.212056 166.562 645.253)" fill="#5C1818"/>
</g>
<g filter="url(#filter4_d_2041_1962)">
<path d="M130.663 404.838C130.582 382.975 148.07 365.097 169.93 364.697L243.142 363.357C265.799 362.942 284.275 381.412 283.868 404.069L282.19 497.334C281.792 519.507 263.429 537.124 241.259 536.603L170.058 534.933C148.396 534.424 131.077 516.76 130.997 495.092L130.663 404.838Z" fill="#FF7D7E"/>
<g filter="url(#filter5_d_2041_1962)">
<path d="M120.195 390.322L142.789 373.876C190.093 362.66 220.775 361.926 271.03 368.881L300.934 387.269C283.435 382.22 280.351 383.726 277.054 387.203C259.66 377.144 249.514 381.478 246.44 385.833C226.152 377.692 215.261 379.407 212.297 383.302C196.697 373.008 178.497 380.721 174.069 385.289C159.005 377.103 152.943 386.058 149.772 390.212C140.575 383.647 127.374 388.168 120.195 390.322Z" fill="#DA4546"/>
</g>
<mask id="mask2_2041_1962" style="mask-type:alpha" maskUnits="userSpaceOnUse" x="120" y="364" width="181" height="27">
<path d="M120.195 390.322L142.79 373.876C190.093 362.66 220.775 361.926 271.03 368.881L300.934 387.269C283.436 382.22 280.352 383.726 277.054 387.203C259.66 377.144 249.514 381.478 246.44 385.833C226.152 377.692 215.261 379.407 212.297 383.302C196.697 373.008 178.498 380.721 174.069 385.289C159.005 377.103 152.943 386.058 149.773 390.212C140.576 383.647 127.374 388.168 120.195 390.322Z" fill="#DA4546"/>
</mask>
<g mask="url(#mask2_2041_1962)">
<path d="M133.264 386.597C133.483 379.927 144.118 378.608 142.966 371.614" stroke="#290505" stroke-opacity="0.46" stroke-width="8"/>
<path d="M126.655 377.477C128.42 379.826 142.399 374.873 146.022 376.722C151.173 379.35 153.382 376.964 153.842 376.979C154.302 376.994 165.461 373.744 172.279 376.472C177.734 378.655 180.992 377.593 181.94 376.79C185.54 374.682 195.283 371.553 205.456 375.893C208.29 379.325 211.85 377.495 213.276 376.15C216.566 374.126 225.515 370.877 234.988 374.082C244.461 377.287 246.32 374.918 246.065 373.333C249.665 371.226 259.498 368.155 270.032 372.73C280.565 377.305 279.634 374.808 277.852 372.987C278.195 371.885 286.057 375.535 287.512 373.305" stroke="#290505" stroke-opacity="0.46" stroke-width="4.5"/>
<path d="M118.643 383.056C120.853 385.893 137.706 380.344 141.681 382.701C146.65 385.646 153.667 382.328 154.127 382.343C154.587 382.359 162.066 378.988 168.884 381.716C174.338 383.898 178.977 382.882 179.924 382.079C183.524 379.971 193.287 376.218 203.46 380.558C206.295 383.99 213.995 382.296 215.421 380.951C218.711 378.927 225.799 376.242 235.272 379.447C244.746 382.651 250.765 379.795 250.51 378.21C251.521 375.461 260.255 373.165 270.788 377.74C279.088 381.346 279.943 379.433 282.289 378.119C282.632 377.017 295.555 380.81 297.018 378.347" stroke="#290505" stroke-opacity="0.46" stroke-width="4.5"/>
<path d="M158.674 384.094L154.963 370.895" stroke="#290505" stroke-opacity="0.46" stroke-width="8"/>
<path d="M191.914 381.569L188.627 369.498" stroke="#290505" stroke-opacity="0.46" stroke-width="8"/>
<line y1="-4" x2="13.3105" y2="-4" transform="matrix(-0.244914 -0.969545 0.997422 -0.0717642 228.32 380.819)" stroke="#290505" stroke-opacity="0.46" stroke-width="8"/>
<path d="M260.612 379.098L256.874 366.734" stroke="#290505" stroke-opacity="0.46" stroke-width="8"/>
<path d="M133.264 386.597C133.483 379.927 144.118 378.608 142.966 371.614" stroke="#D66E6E" stroke-opacity="0.46" stroke-width="2"/>
<path d="M126.655 377.477C128.42 379.826 142.047 374.366 146.022 376.722C150.991 379.667 153.382 376.964 153.842 376.979C154.302 376.994 165.461 373.744 172.279 376.472C177.734 378.655 180.992 377.593 181.94 376.79C185.54 374.682 195.283 371.553 205.456 375.893C208.29 379.325 211.85 377.495 213.276 376.15C216.566 374.126 225.515 370.877 234.988 374.082C244.461 377.287 246.32 374.918 246.065 373.333C249.665 371.226 259.498 368.155 270.032 372.73C280.565 377.305 279.634 374.808 277.852 372.987C278.195 371.885 286.532 375.1 287.512 373.305" stroke="#D66E6E" stroke-opacity="0.46" stroke-width="2"/>
<path d="M118.642 383.114C120.408 385.428 137.706 380.344 141.681 382.701C146.65 385.646 153.667 382.328 154.127 382.344C154.587 382.359 162.066 378.988 168.884 381.716C174.338 383.898 178.977 382.882 179.924 382.079C183.524 379.971 193.288 376.218 203.46 380.558C206.295 383.99 213.995 382.296 215.421 380.951C218.711 378.927 225.799 376.242 235.273 379.447C244.746 382.651 250.765 379.795 250.51 378.21C251.522 375.461 259.783 373.52 270.316 378.095C280.85 382.67 280.871 379.208 283.217 377.894C283.56 376.792 295.57 380.36 297.018 378.347" stroke="#D66E6E" stroke-opacity="0.46" stroke-width="2"/>
<path d="M158.674 384.094L154.963 370.895" stroke="#D66E6E" stroke-opacity="0.46" stroke-width="2"/>
<path d="M191.914 381.569L188.627 369.498" stroke="#D66E6E" stroke-opacity="0.46" stroke-width="2"/>
<line y1="-1" x2="13.3105" y2="-1" transform="matrix(-0.244914 -0.969545 0.997422 -0.0717642 225.541 381.285)" stroke="#D66E6E" stroke-opacity="0.46" stroke-width="2"/>
<path d="M260.612 379.098L256.874 366.734" stroke="#D66E6E" stroke-opacity="0.46" stroke-width="2"/>
<path d="M137.777 379.865C191.217 365.823 209.458 363.238 275.568 371.804" stroke="#451010" stroke-opacity="0.67" stroke-width="4"/>
</g>
<path d="M130.196 362.713C129.652 359.973 130.319 357.154 132.459 355.496C160.362 333.89 267.63 332.914 282.626 351.6C296.226 368.546 219.386 363.908 199.143 362.412C195.939 362.176 192.762 362.281 189.622 362.768L140.897 370.317C135.978 371.08 131.18 367.67 130.196 362.713Z" fill="#E64A4B"/>
<path d="M131.442 368.518C131.429 365.186 133.622 362.348 136.827 361.569C186.867 349.42 213.16 347.341 273.609 354.154C279.023 354.765 282.637 360.323 280.911 365.371C279.637 369.093 275.841 371.238 271.867 370.582C228.293 363.393 185.181 366.015 141.203 376.249C136.345 377.379 131.46 373.554 131.442 368.518Z" fill="#C9393A"/>
<path opacity="0.22" d="M144.114 420.575C144.063 406.768 155.214 395.534 169.021 395.483L176.396 395.456C190.203 395.405 201.437 406.556 201.488 420.363L201.722 483.604C201.773 497.411 190.622 508.645 176.815 508.696L169.44 508.723C155.633 508.774 144.399 497.623 144.348 483.816L144.114 420.575Z" fill="white"/>
<path d="M237.932 457.312C233.201 463.79 222.845 461.734 221.085 453.968L212.39 415.614C210.919 409.125 216.78 403.305 223.453 404.63L255.513 410.994C262.187 412.319 265.251 419.91 261.298 425.323L237.932 457.312Z" fill="#E64A4B"/>
<path d="M254.871 411.314C261.545 412.639 264.609 420.23 260.656 425.643L237.291 457.632C235.336 460.309 232.419 461.526 229.547 461.488C229.328 438.721 231.442 426.969 240.741 408.509L254.871 411.314Z" fill="#C9393A"/>
<path d="M266.712 460.122C264.834 466.705 256.052 467.975 252.301 462.206L236.659 438.152C233.477 433.26 236.408 426.756 242.168 425.923L265.643 422.528C271.403 421.695 276.138 427.091 274.545 432.673L266.712 460.122Z" fill="#E64A4B"/>
<ellipse cx="250.629" cy="437.745" rx="1.1765" ry="1.72244" transform="rotate(-0.212056 250.629 437.745)" fill="#5C1818"/>
<ellipse cx="250.629" cy="437.745" rx="1.1765" ry="1.72244" transform="rotate(-0.212056 250.629 437.745)" fill="#5C1818"/>
<ellipse cx="258.84" cy="431.975" rx="1.1765" ry="1.72244" transform="rotate(-0.212056 258.84 431.975)" fill="#5C1818"/>
<ellipse cx="256.548" cy="448.054" rx="1.1765" ry="1.72244" transform="rotate(-0.212056 256.548 448.054)" fill="#5C1818"/>
<ellipse cx="225.855" cy="417.174" rx="1.1765" ry="1.72244" transform="rotate(-0.212056 225.855 417.174)" fill="#5C1818"/>
<ellipse cx="241.157" cy="420.562" rx="1.1765" ry="1.72244" transform="rotate(-0.212056 241.157 420.562)" fill="#5C1818"/>
<ellipse cx="233.026" cy="448.141" rx="1.1765" ry="1.72244" transform="rotate(-0.212056 233.026 448.141)" fill="#5C1818"/>
<ellipse cx="223.562" cy="433.253" rx="1.1765" ry="1.72244" transform="rotate(-0.212056 223.562 433.253)" fill="#5C1818"/>
</g>
<g filter="url(#filter6_d_2041_1962)">
<path d="M205.663 382.838C205.582 360.975 223.07 343.097 244.93 342.697L318.142 341.357C340.799 340.942 359.275 359.412 358.868 382.069L357.19 475.334C356.792 497.507 338.429 515.124 316.259 514.603L245.058 512.933C223.396 512.424 206.077 494.76 205.997 473.092L205.663 382.838Z" fill="#FF7D7E"/>
<g filter="url(#filter7_d_2041_1962)">
<path d="M195.195 368.322L217.789 351.876C265.093 340.66 295.775 339.926 346.03 346.881L375.934 365.269C358.435 360.22 355.351 361.726 352.054 365.203C334.66 355.144 324.514 359.478 321.44 363.833C301.152 355.692 290.261 357.407 287.297 361.302C271.697 351.008 253.497 358.721 249.069 363.289C234.005 355.103 227.943 364.058 224.772 368.212C215.575 361.647 202.374 366.168 195.195 368.322Z" fill="#DA4546"/>
</g>
<mask id="mask3_2041_1962" style="mask-type:alpha" maskUnits="userSpaceOnUse" x="195" y="342" width="181" height="27">
<path d="M195.195 368.322L217.79 351.876C265.093 340.66 295.775 339.926 346.03 346.881L375.934 365.269C358.436 360.22 355.352 361.726 352.054 365.203C334.66 355.144 324.514 359.478 321.44 363.833C301.152 355.692 290.261 357.407 287.297 361.302C271.697 351.008 253.498 358.721 249.069 363.289C234.005 355.103 227.943 364.058 224.773 368.212C215.576 361.647 202.374 366.168 195.195 368.322Z" fill="#DA4546"/>
</mask>
<g mask="url(#mask3_2041_1962)">
<path d="M208.264 364.597C208.483 357.927 219.118 356.608 217.966 349.614" stroke="#290505" stroke-opacity="0.46" stroke-width="8"/>
<path d="M201.655 355.477C203.42 357.826 217.399 352.873 221.022 354.722C226.173 357.35 228.382 354.964 228.842 354.979C229.302 354.994 240.461 351.744 247.279 354.472C252.734 356.655 255.992 355.593 256.94 354.79C260.54 352.682 270.283 349.553 280.456 353.893C283.29 357.325 286.85 355.495 288.276 354.15C291.566 352.126 300.515 348.877 309.988 352.082C319.461 355.287 321.32 352.918 321.065 351.333C324.665 349.226 334.498 346.155 345.032 350.73C355.565 355.305 354.634 352.808 352.852 350.987C353.195 349.885 361.057 353.535 362.512 351.305" stroke="#290505" stroke-opacity="0.46" stroke-width="4.5"/>
<path d="M193.643 361.056C195.853 363.893 212.706 358.344 216.681 360.701C221.65 363.646 228.667 360.328 229.127 360.343C229.587 360.359 237.066 356.988 243.884 359.716C249.338 361.898 253.977 360.882 254.924 360.079C258.524 357.971 268.287 354.218 278.46 358.558C281.295 361.99 288.995 360.296 290.421 358.951C293.711 356.927 300.799 354.242 310.272 357.447C319.746 360.651 325.765 357.795 325.51 356.21C326.521 353.461 335.255 351.165 345.788 355.74C354.088 359.346 354.943 357.433 357.289 356.119C357.632 355.017 370.555 358.81 372.018 356.347" stroke="#290505" stroke-opacity="0.46" stroke-width="4.5"/>
<path d="M233.674 362.094L229.963 348.895" stroke="#290505" stroke-opacity="0.46" stroke-width="8"/>
<path d="M266.914 359.569L263.627 347.498" stroke="#290505" stroke-opacity="0.46" stroke-width="8"/>
<line y1="-4" x2="13.3105" y2="-4" transform="matrix(-0.244914 -0.969545 0.997422 -0.0717642 303.32 358.819)" stroke="#290505" stroke-opacity="0.46" stroke-width="8"/>
<path d="M335.612 357.098L331.874 344.734" stroke="#290505" stroke-opacity="0.46" stroke-width="8"/>
<path d="M208.264 364.597C208.483 357.927 219.118 356.608 217.966 349.614" stroke="#D66E6E" stroke-opacity="0.46" stroke-width="2"/>
<path d="M201.655 355.477C203.42 357.826 217.047 352.366 221.022 354.722C225.991 357.667 228.382 354.964 228.842 354.979C229.302 354.994 240.461 351.744 247.279 354.472C252.734 356.655 255.992 355.593 256.94 354.79C260.54 352.682 270.283 349.553 280.456 353.893C283.29 357.325 286.85 355.495 288.276 354.15C291.566 352.126 300.515 348.877 309.988 352.082C319.461 355.287 321.32 352.918 321.065 351.333C324.665 349.226 334.498 346.155 345.032 350.73C355.565 355.305 354.634 352.808 352.852 350.987C353.195 349.885 361.532 353.1 362.512 351.305" stroke="#D66E6E" stroke-opacity="0.46" stroke-width="2"/>
<path d="M193.642 361.114C195.408 363.428 212.706 358.344 216.681 360.701C221.65 363.646 228.667 360.328 229.127 360.344C229.587 360.359 237.066 356.988 243.884 359.716C249.338 361.898 253.977 360.882 254.924 360.079C258.524 357.971 268.288 354.218 278.46 358.558C281.295 361.99 288.995 360.296 290.421 358.951C293.711 356.927 300.799 354.242 310.273 357.447C319.746 360.651 325.765 357.795 325.51 356.21C326.522 353.461 334.783 351.52 345.316 356.095C355.85 360.67 355.871 357.208 358.217 355.894C358.56 354.792 370.57 358.36 372.018 356.347" stroke="#D66E6E" stroke-opacity="0.46" stroke-width="2"/>
<path d="M233.674 362.094L229.963 348.895" stroke="#D66E6E" stroke-opacity="0.46" stroke-width="2"/>
<path d="M266.914 359.569L263.627 347.498" stroke="#D66E6E" stroke-opacity="0.46" stroke-width="2"/>
<line y1="-1" x2="13.3105" y2="-1" transform="matrix(-0.244914 -0.969545 0.997422 -0.0717642 300.541 359.285)" stroke="#D66E6E" stroke-opacity="0.46" stroke-width="2"/>
<path d="M335.612 357.098L331.874 344.734" stroke="#D66E6E" stroke-opacity="0.46" stroke-width="2"/>
<path d="M212.777 357.865C266.217 343.823 284.458 341.238 350.568 349.804" stroke="#451010" stroke-opacity="0.67" stroke-width="4"/>
</g>
<path d="M205.196 340.713C204.652 337.973 205.319 335.154 207.459 333.496C235.362 311.89 342.63 310.914 357.626 329.6C371.226 346.546 294.386 341.908 274.143 340.412C270.939 340.176 267.762 340.281 264.622 340.768L215.897 348.317C210.978 349.08 206.18 345.67 205.196 340.713Z" fill="#E64A4B"/>
<path d="M206.442 346.518C206.429 343.186 208.622 340.348 211.827 339.569C261.867 327.42 288.16 325.341 348.609 332.154C354.023 332.765 357.637 338.323 355.911 343.371C354.637 347.093 350.841 349.238 346.867 348.582C303.293 341.393 260.181 344.015 216.203 354.249C211.345 355.379 206.46 351.554 206.442 346.518Z" fill="#C9393A"/>
<path opacity="0.22" d="M219.114 398.575C219.063 384.768 230.214 373.534 244.021 373.483L251.396 373.456C265.203 373.405 276.437 384.556 276.488 398.363L276.722 461.604C276.773 475.411 265.622 486.645 251.815 486.696L244.44 486.723C230.633 486.774 219.399 475.623 219.348 461.816L219.114 398.575Z" fill="white"/>
<path d="M312.932 435.312C308.201 441.79 297.845 439.734 296.085 431.968L287.39 393.614C285.919 387.125 291.78 381.305 298.453 382.63L330.513 388.994C337.187 390.319 340.251 397.91 336.298 403.323L312.932 435.312Z" fill="#E64A4B"/>
<path d="M329.871 389.314C336.545 390.639 339.609 398.23 335.656 403.643L312.291 435.632C310.336 438.309 307.419 439.526 304.547 439.488C304.328 416.721 306.442 404.969 315.741 386.509L329.871 389.314Z" fill="#C9393A"/>
<path d="M341.712 438.122C339.834 444.705 331.052 445.975 327.301 440.206L311.659 416.152C308.477 411.26 311.408 404.756 317.168 403.923L340.643 400.528C346.403 399.695 351.138 405.091 349.545 410.673L341.712 438.122Z" fill="#E64A4B"/>
<ellipse cx="325.629" cy="415.745" rx="1.1765" ry="1.72244" transform="rotate(-0.212056 325.629 415.745)" fill="#5C1818"/>
<ellipse cx="325.629" cy="415.745" rx="1.1765" ry="1.72244" transform="rotate(-0.212056 325.629 415.745)" fill="#5C1818"/>
<ellipse cx="333.84" cy="409.975" rx="1.1765" ry="1.72244" transform="rotate(-0.212056 333.84 409.975)" fill="#5C1818"/>
<ellipse cx="331.548" cy="426.054" rx="1.1765" ry="1.72244" transform="rotate(-0.212056 331.548 426.054)" fill="#5C1818"/>
<ellipse cx="300.854" cy="395.174" rx="1.1765" ry="1.72244" transform="rotate(-0.212056 300.854 395.174)" fill="#5C1818"/>
<ellipse cx="316.156" cy="398.562" rx="1.1765" ry="1.72244" transform="rotate(-0.212056 316.156 398.562)" fill="#5C1818"/>
<ellipse cx="308.026" cy="426.141" rx="1.1765" ry="1.72244" transform="rotate(-0.212056 308.026 426.141)" fill="#5C1818"/>
<ellipse cx="298.562" cy="411.253" rx="1.1765" ry="1.72244" transform="rotate(-0.212056 298.562 411.253)" fill="#5C1818"/>
</g>
<g filter="url(#filter8_d_2041_1962)">
<path d="M143.663 581.838C143.582 559.975 161.07 542.097 182.93 541.697L256.142 540.357C278.799 539.942 297.275 558.412 296.868 581.069L295.19 674.334C294.792 696.507 276.429 714.124 254.259 713.603L183.058 711.933C161.396 711.424 144.077 693.76 143.997 672.092L143.663 581.838Z" fill="#FF7D7E"/>
<g filter="url(#filter9_d_2041_1962)">
<path d="M133.195 567.322L155.789 550.876C203.093 539.66 233.775 538.926 284.03 545.881L313.934 564.269C296.435 559.22 293.351 560.726 290.054 564.203C272.66 554.144 262.514 558.478 259.44 562.833C239.152 554.692 228.261 556.407 225.297 560.302C209.697 550.008 191.497 557.721 187.069 562.289C172.005 554.103 165.943 563.058 162.772 567.212C153.575 560.647 140.374 565.168 133.195 567.322Z" fill="#DA4546"/>
</g>
<mask id="mask4_2041_1962" style="mask-type:alpha" maskUnits="userSpaceOnUse" x="133" y="541" width="181" height="27">
<path d="M133.195 567.322L155.79 550.876C203.093 539.66 233.775 538.926 284.03 545.881L313.934 564.269C296.436 559.22 293.352 560.726 290.054 564.203C272.66 554.144 262.514 558.478 259.44 562.833C239.152 554.692 228.261 556.407 225.297 560.302C209.697 550.008 191.498 557.721 187.069 562.289C172.005 554.103 165.943 563.058 162.773 567.212C153.576 560.647 140.374 565.168 133.195 567.322Z" fill="#DA4546"/>
</mask>
<g mask="url(#mask4_2041_1962)">
<path d="M146.264 563.597C146.483 556.927 157.118 555.608 155.966 548.614" stroke="#290505" stroke-opacity="0.46" stroke-width="8"/>
<path d="M139.655 554.477C141.42 556.826 155.399 551.873 159.022 553.722C164.173 556.35 166.382 553.964 166.842 553.979C167.302 553.994 178.461 550.744 185.279 553.472C190.734 555.655 193.992 554.593 194.94 553.79C198.54 551.682 208.283 548.553 218.456 552.893C221.29 556.325 224.85 554.495 226.276 553.15C229.566 551.126 238.515 547.877 247.988 551.082C257.461 554.287 259.32 551.918 259.065 550.333C262.665 548.226 272.498 545.155 283.032 549.73C293.565 554.305 292.634 551.808 290.852 549.987C291.195 548.885 299.057 552.535 300.512 550.305" stroke="#290505" stroke-opacity="0.46" stroke-width="4.5"/>
<path d="M131.643 560.056C133.853 562.893 150.706 557.344 154.681 559.701C159.65 562.646 166.667 559.328 167.127 559.343C167.587 559.359 175.066 555.988 181.884 558.716C187.338 560.898 191.977 559.882 192.924 559.079C196.524 556.971 206.287 553.218 216.46 557.558C219.295 560.99 226.995 559.296 228.421 557.951C231.711 555.927 238.799 553.242 248.272 556.447C257.746 559.651 263.765 556.795 263.51 555.21C264.521 552.461 273.255 550.165 283.788 554.74C292.088 558.346 292.943 556.433 295.289 555.119C295.632 554.017 308.555 557.81 310.018 555.347" stroke="#290505" stroke-opacity="0.46" stroke-width="4.5"/>
<path d="M171.674 561.094L167.963 547.895" stroke="#290505" stroke-opacity="0.46" stroke-width="8"/>
<path d="M204.914 558.569L201.627 546.498" stroke="#290505" stroke-opacity="0.46" stroke-width="8"/>
<line y1="-4" x2="13.3105" y2="-4" transform="matrix(-0.244914 -0.969545 0.997422 -0.0717642 241.32 557.819)" stroke="#290505" stroke-opacity="0.46" stroke-width="8"/>
<path d="M273.612 556.098L269.874 543.734" stroke="#290505" stroke-opacity="0.46" stroke-width="8"/>
<path d="M146.264 563.597C146.483 556.927 157.118 555.608 155.966 548.614" stroke="#D66E6E" stroke-opacity="0.46" stroke-width="2"/>
<path d="M139.655 554.477C141.42 556.826 155.047 551.366 159.022 553.722C163.991 556.667 166.382 553.964 166.842 553.979C167.302 553.994 178.461 550.744 185.279 553.472C190.734 555.655 193.992 554.593 194.94 553.79C198.54 551.682 208.283 548.553 218.456 552.893C221.29 556.325 224.85 554.495 226.276 553.15C229.566 551.126 238.515 547.877 247.988 551.082C257.461 554.287 259.32 551.918 259.065 550.333C262.665 548.226 272.498 545.155 283.032 549.73C293.565 554.305 292.634 551.808 290.852 549.987C291.195 548.885 299.532 552.1 300.512 550.305" stroke="#D66E6E" stroke-opacity="0.46" stroke-width="2"/>
<path d="M131.642 560.114C133.408 562.428 150.706 557.344 154.681 559.701C159.65 562.646 166.667 559.328 167.127 559.344C167.587 559.359 175.066 555.988 181.884 558.716C187.338 560.898 191.977 559.882 192.924 559.079C196.524 556.971 206.288 553.218 216.46 557.558C219.295 560.99 226.995 559.296 228.421 557.951C231.711 555.927 238.799 553.242 248.273 556.447C257.746 559.651 263.765 556.795 263.51 555.21C264.522 552.461 272.783 550.52 283.316 555.095C293.85 559.67 293.871 556.208 296.217 554.894C296.56 553.792 308.57 557.36 310.018 555.347" stroke="#D66E6E" stroke-opacity="0.46" stroke-width="2"/>
<path d="M171.674 561.094L167.963 547.895" stroke="#D66E6E" stroke-opacity="0.46" stroke-width="2"/>
<path d="M204.914 558.569L201.627 546.498" stroke="#D66E6E" stroke-opacity="0.46" stroke-width="2"/>
<line y1="-1" x2="13.3105" y2="-1" transform="matrix(-0.244914 -0.969545 0.997422 -0.0717642 238.541 558.285)" stroke="#D66E6E" stroke-opacity="0.46" stroke-width="2"/>
<path d="M273.612 556.098L269.874 543.734" stroke="#D66E6E" stroke-opacity="0.46" stroke-width="2"/>
<path d="M150.777 556.865C204.217 542.823 222.458 540.238 288.568 548.804" stroke="#451010" stroke-opacity="0.67" stroke-width="4"/>
</g>
<path d="M143.196 539.713C142.652 536.973 143.319 534.154 145.459 532.496C173.362 510.89 280.63 509.914 295.626 528.6C309.226 545.546 232.386 540.908 212.143 539.412C208.939 539.176 205.762 539.281 202.622 539.768L153.897 547.317C148.978 548.08 144.18 544.67 143.196 539.713Z" fill="#E64A4B"/>
<path d="M144.442 545.518C144.429 542.186 146.622 539.348 149.827 538.569C199.867 526.42 226.16 524.341 286.609 531.154C292.023 531.765 295.637 537.323 293.911 542.371C292.637 546.093 288.841 548.238 284.867 547.582C241.293 540.393 198.181 543.015 154.203 553.249C149.345 554.379 144.46 550.554 144.442 545.518Z" fill="#C9393A"/>
<path opacity="0.22" d="M157.114 597.575C157.063 583.768 168.214 572.534 182.021 572.483L189.396 572.456C203.203 572.405 214.437 583.556 214.488 597.363L214.722 660.604C214.773 674.411 203.622 685.645 189.815 685.696L182.44 685.723C168.633 685.774 157.399 674.623 157.348 660.816L157.114 597.575Z" fill="white"/>
<path d="M250.932 634.312C246.201 640.79 235.845 638.734 234.085 630.968L225.39 592.614C223.919 586.125 229.78 580.305 236.453 581.63L268.513 587.994C275.187 589.319 278.251 596.91 274.298 602.323L250.932 634.312Z" fill="#E64A4B"/>
<path d="M267.871 588.314C274.545 589.639 277.609 597.23 273.656 602.643L250.291 634.632C248.336 637.309 245.419 638.526 242.547 638.488C242.328 615.721 244.442 603.969 253.741 585.509L267.871 588.314Z" fill="#C9393A"/>
<path d="M279.712 637.122C277.834 643.705 269.052 644.975 265.301 639.206L249.659 615.152C246.477 610.26 249.408 603.756 255.168 602.923L278.643 599.528C284.403 598.695 289.138 604.091 287.545 609.673L279.712 637.122Z" fill="#E64A4B"/>
<ellipse cx="263.629" cy="614.745" rx="1.1765" ry="1.72244" transform="rotate(-0.212056 263.629 614.745)" fill="#5C1818"/>
<ellipse cx="263.629" cy="614.745" rx="1.1765" ry="1.72244" transform="rotate(-0.212056 263.629 614.745)" fill="#5C1818"/>
<ellipse cx="271.84" cy="608.975" rx="1.1765" ry="1.72244" transform="rotate(-0.212056 271.84 608.975)" fill="#5C1818"/>
<ellipse cx="269.548" cy="625.054" rx="1.1765" ry="1.72244" transform="rotate(-0.212056 269.548 625.054)" fill="#5C1818"/>
<ellipse cx="238.855" cy="594.174" rx="1.1765" ry="1.72244" transform="rotate(-0.212056 238.855 594.174)" fill="#5C1818"/>
<ellipse cx="254.157" cy="597.562" rx="1.1765" ry="1.72244" transform="rotate(-0.212056 254.157 597.562)" fill="#5C1818"/>
<ellipse cx="246.026" cy="625.141" rx="1.1765" ry="1.72244" transform="rotate(-0.212056 246.026 625.141)" fill="#5C1818"/>
<ellipse cx="236.562" cy="610.253" rx="1.1765" ry="1.72244" transform="rotate(-0.212056 236.562 610.253)" fill="#5C1818"/>
</g>
<g filter="url(#filter10_d_2041_1962)">
<path d="M207.663 562.838C207.582 540.975 225.07 523.097 246.93 522.697L320.142 521.357C342.799 520.942 361.275 539.412 360.868 562.069L359.19 655.334C358.792 677.507 340.429 695.124 318.259 694.603L247.058 692.933C225.396 692.424 208.077 674.76 207.997 653.092L207.663 562.838Z" fill="#FF7D7E"/>
<g filter="url(#filter11_d_2041_1962)">
<path d="M197.195 548.322L219.789 531.876C267.093 520.66 297.775 519.926 348.03 526.881L377.934 545.269C360.435 540.22 357.351 541.726 354.054 545.203C336.66 535.144 326.514 539.478 323.44 543.833C303.152 535.692 292.261 537.407 289.297 541.302C273.697 531.008 255.497 538.721 251.069 543.289C236.005 535.103 229.943 544.058 226.772 548.212C217.575 541.647 204.374 546.168 197.195 548.322Z" fill="#DA4546"/>
</g>
<mask id="mask5_2041_1962" style="mask-type:alpha" maskUnits="userSpaceOnUse" x="197" y="522" width="181" height="27">
<path d="M197.195 548.322L219.79 531.876C267.093 520.66 297.775 519.926 348.03 526.881L377.934 545.269C360.436 540.22 357.352 541.726 354.054 545.203C336.66 535.144 326.514 539.478 323.44 543.833C303.152 535.692 292.261 537.407 289.297 541.302C273.697 531.008 255.498 538.721 251.069 543.289C236.005 535.103 229.943 544.058 226.773 548.212C217.576 541.647 204.374 546.168 197.195 548.322Z" fill="#DA4546"/>
</mask>
<g mask="url(#mask5_2041_1962)">
<path d="M210.264 544.597C210.483 537.927 221.118 536.608 219.966 529.614" stroke="#290505" stroke-opacity="0.46" stroke-width="8"/>
<path d="M203.655 535.477C205.42 537.826 219.399 532.873 223.022 534.722C228.173 537.35 230.382 534.964 230.842 534.979C231.302 534.994 242.461 531.744 249.279 534.472C254.734 536.655 257.992 535.593 258.94 534.79C262.54 532.682 272.283 529.553 282.456 533.893C285.29 537.325 288.85 535.495 290.276 534.15C293.566 532.126 302.515 528.877 311.988 532.082C321.461 535.287 323.32 532.918 323.065 531.333C326.665 529.226 336.498 526.155 347.032 530.73C357.565 535.305 356.634 532.808 354.852 530.987C355.195 529.885 363.057 533.535 364.512 531.305" stroke="#290505" stroke-opacity="0.46" stroke-width="4.5"/>
<path d="M195.643 541.056C197.853 543.893 214.706 538.344 218.681 540.701C223.65 543.646 230.667 540.328 231.127 540.343C231.587 540.359 239.066 536.988 245.884 539.716C251.338 541.898 255.977 540.882 256.924 540.079C260.524 537.971 270.287 534.218 280.46 538.558C283.295 541.99 290.995 540.296 292.421 538.951C295.711 536.927 302.799 534.242 312.272 537.447C321.746 540.651 327.765 537.795 327.51 536.21C328.521 533.461 337.255 531.165 347.788 535.74C356.088 539.346 356.943 537.433 359.289 536.119C359.632 535.017 372.555 538.81 374.018 536.347" stroke="#290505" stroke-opacity="0.46" stroke-width="4.5"/>
<path d="M235.674 542.094L231.963 528.895" stroke="#290505" stroke-opacity="0.46" stroke-width="8"/>
<path d="M268.914 539.569L265.627 527.498" stroke="#290505" stroke-opacity="0.46" stroke-width="8"/>
<line y1="-4" x2="13.3105" y2="-4" transform="matrix(-0.244914 -0.969545 0.997422 -0.0717642 305.32 538.819)" stroke="#290505" stroke-opacity="0.46" stroke-width="8"/>
<path d="M337.612 537.098L333.874 524.734" stroke="#290505" stroke-opacity="0.46" stroke-width="8"/>
<path d="M210.264 544.597C210.483 537.927 221.118 536.608 219.966 529.614" stroke="#D66E6E" stroke-opacity="0.46" stroke-width="2"/>
<path d="M203.655 535.477C205.42 537.826 219.047 532.366 223.022 534.722C227.991 537.667 230.382 534.964 230.842 534.979C231.302 534.994 242.461 531.744 249.279 534.472C254.734 536.655 257.992 535.593 258.94 534.79C262.54 532.682 272.283 529.553 282.456 533.893C285.29 537.325 288.85 535.495 290.276 534.15C293.566 532.126 302.515 528.877 311.988 532.082C321.461 535.287 323.32 532.918 323.065 531.333C326.665 529.226 336.498 526.155 347.032 530.73C357.565 535.305 356.634 532.808 354.852 530.987C355.195 529.885 363.532 533.1 364.512 531.305" stroke="#D66E6E" stroke-opacity="0.46" stroke-width="2"/>
<path d="M195.642 541.114C197.408 543.428 214.706 538.344 218.681 540.701C223.65 543.646 230.667 540.328 231.127 540.344C231.587 540.359 239.066 536.988 245.884 539.716C251.338 541.898 255.977 540.882 256.924 540.079C260.524 537.971 270.288 534.218 280.46 538.558C283.295 541.99 290.995 540.296 292.421 538.951C295.711 536.927 302.799 534.242 312.273 537.447C321.746 540.651 327.765 537.795 327.51 536.21C328.522 533.461 336.783 531.52 347.316 536.095C357.85 540.67 357.871 537.208 360.217 535.894C360.56 534.792 372.57 538.36 374.018 536.347" stroke="#D66E6E" stroke-opacity="0.46" stroke-width="2"/>
<path d="M235.674 542.094L231.963 528.895" stroke="#D66E6E" stroke-opacity="0.46" stroke-width="2"/>
<path d="M268.914 539.569L265.627 527.498" stroke="#D66E6E" stroke-opacity="0.46" stroke-width="2"/>
<line y1="-1" x2="13.3105" y2="-1" transform="matrix(-0.244914 -0.969545 0.997422 -0.0717642 302.541 539.285)" stroke="#D66E6E" stroke-opacity="0.46" stroke-width="2"/>
<path d="M337.612 537.098L333.874 524.734" stroke="#D66E6E" stroke-opacity="0.46" stroke-width="2"/>
<path d="M214.777 537.865C268.217 523.823 286.458 521.238 352.568 529.804" stroke="#451010" stroke-opacity="0.67" stroke-width="4"/>
</g>
<path d="M207.196 520.713C206.652 517.973 207.319 515.154 209.459 513.496C237.362 491.89 344.63 490.914 359.626 509.6C373.226 526.546 296.386 521.908 276.143 520.412C272.939 520.176 269.762 520.281 266.622 520.768L217.897 528.317C212.978 529.08 208.18 525.67 207.196 520.713Z" fill="#E64A4B"/>
<path d="M208.442 526.518C208.429 523.186 210.622 520.348 213.827 519.569C263.867 507.42 290.16 505.341 350.609 512.154C356.023 512.765 359.637 518.323 357.911 523.371C356.637 527.093 352.841 529.238 348.867 528.582C305.293 521.393 262.181 524.015 218.203 534.249C213.345 535.379 208.46 531.554 208.442 526.518Z" fill="#C9393A"/>
<path opacity="0.22" d="M221.114 578.575C221.063 564.768 232.214 553.534 246.021 553.483L253.396 553.456C267.203 553.405 278.437 564.556 278.488 578.363L278.722 641.604C278.773 655.411 267.622 666.645 253.815 666.696L246.44 666.723C232.633 666.774 221.399 655.623 221.348 641.816L221.114 578.575Z" fill="white"/>
<path d="M314.932 615.312C310.201 621.79 299.845 619.734 298.085 611.968L289.39 573.614C287.919 567.125 293.78 561.305 300.453 562.63L332.513 568.994C339.187 570.319 342.251 577.91 338.298 583.323L314.932 615.312Z" fill="#E64A4B"/>
<path d="M331.871 569.314C338.545 570.639 341.609 578.23 337.656 583.643L314.291 615.632C312.336 618.309 309.419 619.526 306.547 619.488C306.328 596.721 308.442 584.969 317.741 566.509L331.871 569.314Z" fill="#C9393A"/>
<path d="M343.712 618.122C341.834 624.705 333.052 625.975 329.301 620.206L313.659 596.152C310.477 591.26 313.408 584.756 319.168 583.923L342.643 580.528C348.403 579.695 353.138 585.091 351.545 590.673L343.712 618.122Z" fill="#E64A4B"/>
<ellipse cx="327.629" cy="595.745" rx="1.1765" ry="1.72244" transform="rotate(-0.212056 327.629 595.745)" fill="#5C1818"/>
<ellipse cx="327.629" cy="595.745" rx="1.1765" ry="1.72244" transform="rotate(-0.212056 327.629 595.745)" fill="#5C1818"/>
<ellipse cx="335.84" cy="589.975" rx="1.1765" ry="1.72244" transform="rotate(-0.212056 335.84 589.975)" fill="#5C1818"/>
<ellipse cx="333.548" cy="606.054" rx="1.1765" ry="1.72244" transform="rotate(-0.212056 333.548 606.054)" fill="#5C1818"/>
<ellipse cx="302.854" cy="575.174" rx="1.1765" ry="1.72244" transform="rotate(-0.212056 302.854 575.174)" fill="#5C1818"/>
<ellipse cx="318.156" cy="578.562" rx="1.1765" ry="1.72244" transform="rotate(-0.212056 318.156 578.562)" fill="#5C1818"/>
<ellipse cx="310.026" cy="606.141" rx="1.1765" ry="1.72244" transform="rotate(-0.212056 310.026 606.141)" fill="#5C1818"/>
<ellipse cx="300.562" cy="591.253" rx="1.1765" ry="1.72244" transform="rotate(-0.212056 300.562 591.253)" fill="#5C1818"/>
</g>
<g filter="url(#filter12_d_2041_1962)">
<path d="M158.734 1103.4L175.486 1258C113.986 1271.5 86.4861 1281.5 53.9861 1288L80.6174 1103.4C67.3086 1049.01 67.3569 1024.8 69.0446 1019.5C74.8309 1009.08 93.1545 999.73 101.593 996.354V986.951L97.2532 984.781V947.893L104.486 945H136.311L144.268 947.893V984.781L139.205 986.951V996.354C161.627 1005.03 171.753 1018.78 173.923 1026.73C175.659 1033.1 164.52 1080.5 158.734 1103.4Z" fill="#CBC162"/>
<path d="M144.268 984.782L139.205 986.228H101.593L97.9765 984.782V948.617L104.486 945.723H137.035L144.268 948.617V984.782Z" fill="#397B40" stroke="#397B40" stroke-width="4"/>
<path d="M105.933 1013.71C96.4562 1004.77 89.8394 1004.58 74.1076 1018.78L85.6804 1109.91L62.9861 1279.5C79.7141 1282.06 86.4861 1273 112.986 1269.5L105.933 1013.71Z" fill="#E4DEA5" fill-opacity="0.74"/>
<path d="M158.734 1133.78L170.307 1234.32C153.802 1224.83 86.7113 1224.81 64.7048 1236.49L73.6008 1170.07C100.906 1163.29 127.648 1126.74 158.734 1133.78Z" fill="#397B40" stroke="#397B40" stroke-width="4"/>
<path d="M111.986 1229.5C103.486 1230 77.9861 1233.5 68.9861 1237L78.4861 1166.5C81.3793 1165.78 107.486 1149 109.486 1148L111.986 1229.5Z" fill="#66A96D"/>
<line x1="1" y1="-1" x2="33.5462" y2="-1" transform="matrix(-0.00251216 -0.999997 -0.999992 0.00396866 141.375 982.439)" stroke="#225A32" stroke-width="2" stroke-linecap="round"/>
<line x1="1" y1="-1" x2="33.5462" y2="-1" transform="matrix(-0.00251216 -0.999997 -0.999992 0.00396866 134.142 982.468)" stroke="#225A32" stroke-width="2" stroke-linecap="round"/>
<line x1="1" y1="-1" x2="33.5462" y2="-1" transform="matrix(-0.00251216 -0.999997 -0.999992 0.00396866 126.909 982.497)" stroke="#225A32" stroke-width="2" stroke-linecap="round"/>
<line x1="1" y1="-1" x2="33.5462" y2="-1" transform="matrix(-0.00251216 -0.999997 -0.999992 0.00396866 119.676 982.525)" stroke="#225A32" stroke-width="2" stroke-linecap="round"/>
<line x1="1" y1="-1" x2="33.5462" y2="-1" transform="matrix(-0.00251216 -0.999997 -0.999992 0.00396866 112.443 982.554)" stroke="#225A32" stroke-width="2" stroke-linecap="round"/>
<line x1="1" y1="-1" x2="33.5462" y2="-1" transform="matrix(-0.00251216 -0.999997 -0.999992 0.00396866 105.21 982.583)" stroke="#225A32" stroke-width="2" stroke-linecap="round"/>
<line x1="1" y1="-1" x2="33.5462" y2="-1" transform="matrix(-0.00251216 -0.999997 -0.999992 0.00396866 97.9769 982.612)" stroke="#225A32" stroke-width="2" stroke-linecap="round"/>
</g>
<g filter="url(#filter13_d_2041_1962)">
<path d="M236.734 1084.4L253 1238.5C191.5 1252 166 1261.5 133.5 1268L158.617 1084.4C145.309 1030.01 145.357 1005.8 147.045 1000.5C152.831 990.084 171.155 980.73 179.593 977.354V967.951L175.253 965.781V928.893L182.486 926H214.311L222.268 928.893V965.781L217.205 967.951V977.354C239.627 986.034 249.753 999.777 251.923 1007.73C253.659 1014.1 242.52 1061.5 236.734 1084.4Z" fill="#CBC162"/>
<path d="M222.268 965.782L217.205 967.228H179.593L175.977 965.782V929.617L182.486 926.723H215.035L222.268 929.617V965.782Z" fill="#397B40" stroke="#397B40" stroke-width="4"/>
<path d="M183.933 994.714C174.456 985.77 167.839 985.575 152.108 999.777L163.68 1090.91L140.986 1260.5C157.714 1263.06 164.486 1254 190.986 1250.5L183.933 994.714Z" fill="#E4DEA5" fill-opacity="0.74"/>
<path d="M236.734 1114.78L248.307 1215.32C231.802 1205.83 164.711 1205.81 142.705 1217.49L151.601 1151.07C178.906 1144.29 205.648 1107.74 236.734 1114.78Z" fill="#397B40" stroke="#397B40" stroke-width="4"/>
<path d="M189.986 1210.5C181.486 1211 155.986 1214.5 146.986 1218L156.486 1147.5C159.379 1146.78 185.486 1130 187.486 1129L189.986 1210.5Z" fill="#66A96D"/>
<line x1="1" y1="-1" x2="33.5462" y2="-1" transform="matrix(-0.00251216 -0.999997 -0.999992 0.00396866 219.375 963.439)" stroke="#225A32" stroke-width="2" stroke-linecap="round"/>
<line x1="1" y1="-1" x2="33.5462" y2="-1" transform="matrix(-0.00251216 -0.999997 -0.999992 0.00396866 212.142 963.468)" stroke="#225A32" stroke-width="2" stroke-linecap="round"/>
<line x1="1" y1="-1" x2="33.5462" y2="-1" transform="matrix(-0.00251216 -0.999997 -0.999992 0.00396866 204.909 963.497)" stroke="#225A32" stroke-width="2" stroke-linecap="round"/>
<line x1="1" y1="-1" x2="33.5462" y2="-1" transform="matrix(-0.00251216 -0.999997 -0.999992 0.00396866 197.676 963.525)" stroke="#225A32" stroke-width="2" stroke-linecap="round"/>
<line x1="1" y1="-1" x2="33.5462" y2="-1" transform="matrix(-0.00251216 -0.999997 -0.999992 0.00396866 190.443 963.554)" stroke="#225A32" stroke-width="2" stroke-linecap="round"/>
<line x1="1" y1="-1" x2="33.5462" y2="-1" transform="matrix(-0.00251216 -0.999997 -0.999992 0.00396866 183.21 963.583)" stroke="#225A32" stroke-width="2" stroke-linecap="round"/>
<line x1="1" y1="-1" x2="33.5462" y2="-1" transform="matrix(-0.00251216 -0.999997 -0.999992 0.00396866 175.977 963.612)" stroke="#225A32" stroke-width="2" stroke-linecap="round"/>
</g>
<g filter="url(#filter14_d_2041_1962)">
<path d="M320.734 1062.4L337.486 1217C275.986 1230.5 249.5 1240.5 217 1247L242.617 1062.4C229.309 1008.01 229.357 983.804 231.045 978.5C236.831 968.084 255.155 958.73 263.593 955.354V945.951L259.253 943.781V906.893L266.486 904H298.311L306.268 906.893V943.781L301.205 945.951V955.354C323.627 964.034 333.753 977.777 335.923 985.733C337.659 992.098 326.52 1039.5 320.734 1062.4Z" fill="#CBC162"/>
<path d="M320.734 1062.4L337.486 1217C275.986 1230.5 249.5 1240.5 217 1247L242.617 1062.4C229.309 1008.01 229.357 983.804 231.045 978.5C236.831 968.084 255.155 958.73 263.593 955.354V945.951L259.253 943.781V906.893L266.486 904H298.311L306.268 906.893V943.781L301.205 945.951V955.354C323.627 964.034 333.753 977.777 335.923 985.733C337.659 992.098 326.52 1039.5 320.734 1062.4Z" fill="#CBC162"/>
<path d="M306.268 943.782L301.205 945.228H263.593L259.977 943.782V907.617L266.486 904.723H299.035L306.268 907.617V943.782Z" fill="#397B40" stroke="#397B40" stroke-width="4"/>
<path d="M267.933 972.714C258.456 963.77 251.839 963.575 236.108 977.777L247.68 1068.91L224.986 1238.5C241.714 1241.06 248.486 1232 274.986 1228.5L267.933 972.714Z" fill="#E4DEA5" fill-opacity="0.74"/>
<path d="M320.734 1092.78L332.306 1193.32C315.802 1183.83 248.711 1183.81 226.705 1195.49L235.601 1129.07C262.906 1122.29 289.648 1085.74 320.734 1092.78Z" fill="#397B40" stroke="#397B40" stroke-width="4"/>
<path d="M273.986 1188.5C265.486 1189 239.986 1192.5 230.986 1196L240.486 1125.5C243.379 1124.78 269.486 1108 271.486 1107L273.986 1188.5Z" fill="#66A96D"/>
<line x1="1" y1="-1" x2="33.5462" y2="-1" transform="matrix(-0.00251216 -0.999997 -0.999992 0.00396866 303.375 941.439)" stroke="#225A32" stroke-width="2" stroke-linecap="round"/>
<line x1="1" y1="-1" x2="33.5462" y2="-1" transform="matrix(-0.00251216 -0.999997 -0.999992 0.00396866 296.142 941.468)" stroke="#225A32" stroke-width="2" stroke-linecap="round"/>
<line x1="1" y1="-1" x2="33.5462" y2="-1" transform="matrix(-0.00251216 -0.999997 -0.999992 0.00396866 288.909 941.497)" stroke="#225A32" stroke-width="2" stroke-linecap="round"/>
<line x1="1" y1="-1" x2="33.5462" y2="-1" transform="matrix(-0.00251216 -0.999997 -0.999992 0.00396866 281.676 941.525)" stroke="#225A32" stroke-width="2" stroke-linecap="round"/>
<line x1="1" y1="-1" x2="33.5462" y2="-1" transform="matrix(-0.00251216 -0.999997 -0.999992 0.00396866 274.443 941.554)" stroke="#225A32" stroke-width="2" stroke-linecap="round"/>
<line x1="1" y1="-1" x2="33.5462" y2="-1" transform="matrix(-0.00251216 -0.999997 -0.999992 0.00396866 267.21 941.583)" stroke="#225A32" stroke-width="2" stroke-linecap="round"/>
<line x1="1" y1="-1" x2="33.5462" y2="-1" transform="matrix(-0.00251216 -0.999997 -0.999992 0.00396866 259.977 941.612)" stroke="#225A32" stroke-width="2" stroke-linecap="round"/>
</g>
<path d="M231.529 1508.39L231.574 1736.48L284.749 1746.1L337.778 1736.67L337.414 1509.44L284.749 1498.15L231.529 1508.39Z" fill="#FF7D7E"/>
<path d="M286.262 1668.82L285.724 1746.35L338.554 1736.85L338.272 1668.84C337.31 1670.86 332.848 1672.94 318.191 1664.72C305.614 1657.66 295.6 1660.14 286.262 1668.82Z" fill="#E5C79B"/>
<path d="M283.833 1498.15L285.705 1745.34L338.554 1736.85L338.554 1509.65L283.833 1498.15Z" fill="#CD5152"/>
<path d="M238.32 1542.92C238.309 1540.52 240.006 1538.45 242.362 1537.99L271.511 1532.31C274.598 1531.71 277.468 1534.07 277.468 1537.22L277.468 1654.79C277.468 1657.56 275.23 1659.79 272.468 1659.79L243.801 1659.79C241.048 1659.79 238.813 1657.57 238.801 1654.82L238.32 1542.92Z" fill="#FFA0A0"/>
<path d="M242.871 1645.02C240.185 1647.18 236.12 1645.17 236.258 1641.75L236.942 1624.87C237.058 1622.01 240.139 1620.26 242.759 1621.55L255.343 1627.78C257.962 1629.07 258.384 1632.56 256.139 1634.37L242.871 1645.02Z" fill="#E64A4B"/>
<path d="M255.041 1627.84C257.66 1629.13 258.082 1632.62 255.837 1634.43L242.57 1645.08C241.459 1645.97 240.114 1646.15 238.927 1645.81C241.382 1636.35 243.573 1631.71 249.494 1625.09L255.041 1627.84Z" fill="#C9393A"/>
<ellipse cx="250.325" cy="1638.32" rx="0.505177" ry="0.739595" transform="rotate(14.8801 250.325 1638.32)" fill="#5C1818"/>
<ellipse cx="242.352" cy="1627.02" rx="0.505177" ry="0.739595" transform="rotate(14.8801 242.352 1627.02)" fill="#5C1818"/>
<ellipse cx="248.319" cy="1630.14" rx="0.505177" ry="0.739595" transform="rotate(14.8801 248.319 1630.14)" fill="#5C1818"/>
<ellipse cx="241.862" cy="1640.67" rx="0.505177" ry="0.739595" transform="rotate(14.8801 241.862 1640.67)" fill="#5C1818"/>
<ellipse cx="239.602" cy="1633.43" rx="0.505177" ry="0.739595" transform="rotate(14.8801 239.602 1633.43)" fill="#5C1818"/>
<path d="M276.42 1576.39C276.362 1579.83 272.218 1581.67 269.678 1579.38L257.133 1568.07C255.011 1566.15 255.629 1562.66 258.299 1561.47L271.13 1555.77C273.801 1554.59 276.755 1556.49 276.707 1559.37L276.42 1576.39Z" fill="#E64A4B"/>
<path d="M270.984 1556.05C273.654 1554.86 276.609 1556.77 276.56 1559.64L276.274 1576.66C276.25 1578.08 275.527 1579.23 274.509 1579.93C268.798 1571.99 266.632 1567.34 265.328 1558.56L270.984 1556.05Z" fill="#C9393A"/>
<ellipse cx="276.035" cy="1566.37" rx="0.505177" ry="0.739595" transform="rotate(-35.3919 276.035 1566.37)" fill="#5C1818"/>
<ellipse cx="262.246" cy="1565.28" rx="0.505177" ry="0.739595" transform="rotate(-35.3919 262.246 1565.28)" fill="#5C1818"/>
<ellipse cx="268.457" cy="1562.69" rx="0.505177" ry="0.739595" transform="rotate(-35.3919 268.457 1562.69)" fill="#5C1818"/>
<ellipse cx="272.428" cy="1574.38" rx="0.505177" ry="0.739595" transform="rotate(-35.3919 272.428 1574.38)" fill="#5C1818"/>
<ellipse cx="265.421" cy="1571.5" rx="0.505177" ry="0.739595" transform="rotate(-35.3919 265.421 1571.5)" fill="#5C1818"/>
<path d="M265.063 1610.61C265.005 1614.05 260.861 1615.89 258.321 1613.6L245.777 1602.29C243.654 1600.37 244.272 1596.88 246.942 1595.69L259.773 1589.99C262.444 1588.81 265.398 1590.71 265.35 1593.59L265.063 1610.61Z" fill="#E64A4B"/>
<path d="M259.627 1590.27C262.298 1589.08 265.252 1590.99 265.204 1593.86L264.917 1610.88C264.893 1612.3 264.171 1613.45 263.153 1614.15C257.442 1606.21 255.276 1601.56 253.972 1592.78L259.627 1590.27Z" fill="#C9393A"/>
<ellipse cx="264.678" cy="1600.59" rx="0.505177" ry="0.739595" transform="rotate(-35.3919 264.678 1600.59)" fill="#5C1818"/>
<ellipse cx="250.889" cy="1599.5" rx="0.505177" ry="0.739595" transform="rotate(-35.3919 250.889 1599.5)" fill="#5C1818"/>
<ellipse cx="257.1" cy="1596.91" rx="0.505177" ry="0.739595" transform="rotate(-35.3919 257.1 1596.91)" fill="#5C1818"/>
<ellipse cx="261.071" cy="1608.6" rx="0.505177" ry="0.739595" transform="rotate(-35.3919 261.071 1608.6)" fill="#5C1818"/>
<ellipse cx="254.064" cy="1605.72" rx="0.505177" ry="0.739595" transform="rotate(-35.3919 254.064 1605.72)" fill="#5C1818"/>
<path d="M260.95 1565.78C263.435 1565.73 265.487 1567.71 265.534 1570.19C265.562 1571.65 264.891 1572.96 263.83 1573.8C265.681 1575.63 266.948 1577.92 267.37 1580.52C268.609 1588.15 262.101 1595.56 252.833 1597.07C243.566 1598.57 235.049 1593.6 233.809 1585.97C233.279 1582.71 234.166 1579.48 236.08 1576.75C234.624 1576.02 233.61 1574.54 233.577 1572.8C233.531 1570.31 235.507 1568.26 237.992 1568.21C240.04 1568.18 241.793 1569.51 242.372 1571.37C244.171 1570.45 246.183 1569.78 248.345 1569.43C251.221 1568.96 254.026 1569.12 256.563 1569.78C256.807 1567.57 258.662 1565.82 260.95 1565.78Z" fill="#FEB998"/>
<ellipse cx="244.745" cy="1581.59" rx="2" ry="2.5" transform="rotate(-4.31186 244.745 1581.59)" fill="#543A1B"/>
<ellipse cx="255.864" cy="1580.49" rx="2" ry="2.5" transform="rotate(-4.31186 255.864 1580.49)" fill="#543A1B"/>
<ellipse cx="250.592" cy="1585.34" rx="2" ry="2.5" transform="rotate(80.1818 250.592 1585.34)" fill="#543A1B"/>
<path d="M278.006 1609.68C280.416 1610.29 281.881 1612.73 281.278 1615.14C280.923 1616.56 279.934 1617.65 278.69 1618.18C279.999 1620.43 280.624 1622.97 280.353 1625.59C279.556 1633.28 271.339 1638.73 262 1637.76C252.661 1636.8 245.737 1629.78 246.534 1622.09C246.874 1618.8 248.572 1615.92 251.135 1613.77C249.918 1612.7 249.328 1610.99 249.75 1609.31C250.354 1606.9 252.798 1605.43 255.209 1606.04C257.196 1606.53 258.539 1608.28 258.612 1610.23C260.589 1609.81 262.707 1609.69 264.885 1609.91C267.784 1610.21 270.451 1611.1 272.726 1612.4C273.539 1610.33 275.786 1609.13 278.006 1609.68Z" fill="#FEB998"/>
<ellipse cx="258.234" cy="1620.71" rx="2" ry="2.5" transform="rotate(10.8276 258.234 1620.71)" fill="#543A1B"/>
<ellipse cx="269.255" cy="1622.55" rx="2" ry="2.5" transform="rotate(10.8276 269.255 1622.55)" fill="#543A1B"/>
<ellipse cx="262.899" cy="1625.86" rx="2" ry="2.5" transform="rotate(95.3212 262.899 1625.86)" fill="#543A1B"/>
<path d="M258.041 1683.86C247.597 1681.65 235.611 1696.61 231.423 1704.36L231.026 1736.37L285.224 1746.35L338.554 1736.85L338.263 1668.34C337.976 1670.85 333.461 1673.63 317.691 1664.73C301.92 1655.82 290.174 1664.08 286.272 1669.32C281.213 1675.08 268.484 1686.06 258.041 1683.86Z" fill="#FEEACD"/>
<path d="M166.529 1500.39L166.574 1728.48L219.749 1738.1L272.778 1728.67L272.414 1501.44L219.749 1490.15L166.529 1500.39Z" fill="#FF7D7E"/>
<path d="M221.262 1660.82L220.724 1738.35L273.554 1728.85L273.272 1660.84C272.31 1662.86 267.848 1664.94 253.191 1656.72C240.614 1649.66 230.6 1652.14 221.262 1660.82Z" fill="#E5C79B"/>
<path d="M218.833 1490.15L220.705 1737.34L273.554 1728.85L273.554 1501.65L218.833 1490.15Z" fill="#CD5152"/>
<path d="M173.32 1534.92C173.309 1532.52 175.006 1530.45 177.362 1529.99L206.511 1524.31C209.598 1523.71 212.468 1526.07 212.468 1529.22L212.468 1646.79C212.468 1649.56 210.23 1651.79 207.468 1651.79L178.801 1651.79C176.048 1651.79 173.813 1649.57 173.801 1646.82L173.32 1534.92Z" fill="#FFA0A0"/>
<path d="M177.871 1637.02C175.185 1639.18 171.12 1637.17 171.258 1633.75L171.942 1616.87C172.058 1614.01 175.139 1612.26 177.759 1613.55L190.343 1619.78C192.962 1621.07 193.384 1624.56 191.139 1626.37L177.871 1637.02Z" fill="#E64A4B"/>
<path d="M190.041 1619.84C192.66 1621.13 193.082 1624.62 190.837 1626.43L177.57 1637.08C176.459 1637.97 175.114 1638.15 173.927 1637.81C176.382 1628.35 178.573 1623.71 184.494 1617.09L190.041 1619.84Z" fill="#C9393A"/>
<ellipse cx="185.325" cy="1630.32" rx="0.505177" ry="0.739595" transform="rotate(14.8801 185.325 1630.32)" fill="#5C1818"/>
<ellipse cx="177.352" cy="1619.02" rx="0.505177" ry="0.739595" transform="rotate(14.8801 177.352 1619.02)" fill="#5C1818"/>
<ellipse cx="183.319" cy="1622.14" rx="0.505177" ry="0.739595" transform="rotate(14.8801 183.319 1622.14)" fill="#5C1818"/>
<ellipse cx="176.862" cy="1632.67" rx="0.505177" ry="0.739595" transform="rotate(14.8801 176.862 1632.67)" fill="#5C1818"/>
<ellipse cx="174.602" cy="1625.43" rx="0.505177" ry="0.739595" transform="rotate(14.8801 174.602 1625.43)" fill="#5C1818"/>
<path d="M211.42 1568.39C211.362 1571.83 207.218 1573.67 204.678 1571.38L192.133 1560.07C190.011 1558.15 190.629 1554.66 193.299 1553.47L206.13 1547.77C208.801 1546.59 211.755 1548.49 211.707 1551.37L211.42 1568.39Z" fill="#E64A4B"/>
<path d="M205.984 1548.05C208.654 1546.86 211.609 1548.77 211.56 1551.64L211.274 1568.66C211.25 1570.08 210.527 1571.23 209.509 1571.93C203.798 1563.99 201.632 1559.34 200.328 1550.56L205.984 1548.05Z" fill="#C9393A"/>
<ellipse cx="211.035" cy="1558.37" rx="0.505177" ry="0.739595" transform="rotate(-35.3919 211.035 1558.37)" fill="#5C1818"/>
<ellipse cx="197.246" cy="1557.28" rx="0.505177" ry="0.739595" transform="rotate(-35.3919 197.246 1557.28)" fill="#5C1818"/>
<ellipse cx="203.457" cy="1554.69" rx="0.505177" ry="0.739595" transform="rotate(-35.3919 203.457 1554.69)" fill="#5C1818"/>
<ellipse cx="207.428" cy="1566.38" rx="0.505177" ry="0.739595" transform="rotate(-35.3919 207.428 1566.38)" fill="#5C1818"/>
<ellipse cx="200.421" cy="1563.5" rx="0.505177" ry="0.739595" transform="rotate(-35.3919 200.421 1563.5)" fill="#5C1818"/>
<path d="M200.063 1602.61C200.005 1606.05 195.861 1607.89 193.321 1605.6L180.777 1594.29C178.654 1592.37 179.272 1588.88 181.942 1587.69L194.773 1581.99C197.444 1580.81 200.398 1582.71 200.35 1585.59L200.063 1602.61Z" fill="#E64A4B"/>
<path d="M194.627 1582.27C197.298 1581.08 200.252 1582.99 200.204 1585.86L199.917 1602.88C199.893 1604.3 199.171 1605.45 198.153 1606.15C192.442 1598.21 190.276 1593.56 188.972 1584.78L194.627 1582.27Z" fill="#C9393A"/>
<ellipse cx="199.678" cy="1592.59" rx="0.505177" ry="0.739595" transform="rotate(-35.3919 199.678 1592.59)" fill="#5C1818"/>
<ellipse cx="185.889" cy="1591.5" rx="0.505177" ry="0.739595" transform="rotate(-35.3919 185.889 1591.5)" fill="#5C1818"/>
<ellipse cx="192.1" cy="1588.91" rx="0.505177" ry="0.739595" transform="rotate(-35.3919 192.1 1588.91)" fill="#5C1818"/>
<ellipse cx="196.071" cy="1600.6" rx="0.505177" ry="0.739595" transform="rotate(-35.3919 196.071 1600.6)" fill="#5C1818"/>
<ellipse cx="189.064" cy="1597.72" rx="0.505177" ry="0.739595" transform="rotate(-35.3919 189.064 1597.72)" fill="#5C1818"/>
<path d="M195.95 1557.78C198.435 1557.73 200.487 1559.71 200.534 1562.19C200.562 1563.65 199.891 1564.96 198.83 1565.8C200.681 1567.63 201.948 1569.92 202.37 1572.52C203.609 1580.15 197.101 1587.56 187.833 1589.07C178.566 1590.57 170.049 1585.6 168.809 1577.97C168.279 1574.71 169.166 1571.48 171.08 1568.75C169.624 1568.02 168.61 1566.54 168.577 1564.8C168.531 1562.31 170.507 1560.26 172.992 1560.21C175.04 1560.18 176.793 1561.51 177.372 1563.37C179.171 1562.45 181.183 1561.78 183.345 1561.43C186.221 1560.96 189.026 1561.12 191.563 1561.78C191.807 1559.57 193.662 1557.82 195.95 1557.78Z" fill="#FEB998"/>
<ellipse cx="179.745" cy="1573.59" rx="2" ry="2.5" transform="rotate(-4.31186 179.745 1573.59)" fill="#543A1B"/>
<ellipse cx="190.864" cy="1572.49" rx="2" ry="2.5" transform="rotate(-4.31186 190.864 1572.49)" fill="#543A1B"/>
<ellipse cx="185.592" cy="1577.34" rx="2" ry="2.5" transform="rotate(80.1818 185.592 1577.34)" fill="#543A1B"/>
<path d="M213.006 1601.68C215.416 1602.29 216.881 1604.73 216.278 1607.14C215.923 1608.56 214.934 1609.65 213.69 1610.18C214.999 1612.43 215.624 1614.97 215.353 1617.59C214.556 1625.28 206.339 1630.73 197 1629.76C187.661 1628.8 180.737 1621.78 181.534 1614.09C181.874 1610.8 183.572 1607.92 186.135 1605.77C184.918 1604.7 184.328 1602.99 184.75 1601.31C185.354 1598.9 187.798 1597.43 190.209 1598.04C192.196 1598.53 193.539 1600.28 193.612 1602.23C195.589 1601.81 197.707 1601.69 199.885 1601.91C202.784 1602.21 205.451 1603.1 207.726 1604.4C208.539 1602.33 210.786 1601.13 213.006 1601.68Z" fill="#FEB998"/>
<ellipse cx="193.234" cy="1612.71" rx="2" ry="2.5" transform="rotate(10.8276 193.234 1612.71)" fill="#543A1B"/>
<ellipse cx="204.255" cy="1614.55" rx="2" ry="2.5" transform="rotate(10.8276 204.255 1614.55)" fill="#543A1B"/>
<ellipse cx="197.899" cy="1617.86" rx="2" ry="2.5" transform="rotate(95.3212 197.899 1617.86)" fill="#543A1B"/>
<path d="M193.041 1675.86C182.597 1673.65 170.611 1688.61 166.423 1696.36L166.026 1728.37L220.224 1738.35L273.554 1728.85L273.263 1660.34C272.976 1662.85 268.461 1665.63 252.691 1656.73C236.92 1647.82 225.174 1656.08 221.272 1661.32C216.213 1667.08 203.484 1678.06 193.041 1675.86Z" fill="#FEEACD"/>
<path d="M88.5294 1510.39L88.5735 1738.48L141.749 1748.1L194.778 1738.67L194.414 1511.44L141.749 1500.15L88.5294 1510.39Z" fill="#FF7D7E"/>
<path d="M143.262 1670.82L142.724 1748.35L195.554 1738.85L195.272 1670.84C194.31 1672.86 189.848 1674.94 175.191 1666.72C162.614 1659.66 152.6 1662.14 143.262 1670.82Z" fill="#E5C79B"/>
<path d="M140.833 1500.15L142.705 1747.35L195.554 1738.85L195.554 1511.65L140.833 1500.15Z" fill="#CD5152"/>
<path d="M95.3196 1544.92C95.3093 1542.52 97.0064 1540.45 99.3625 1539.99L128.511 1534.31C131.598 1533.71 134.468 1536.07 134.468 1539.22L134.468 1656.79C134.468 1659.56 132.23 1661.79 129.468 1661.79L100.801 1661.79C98.0476 1661.79 95.8125 1659.57 95.8007 1656.82L95.3196 1544.92Z" fill="#FFA0A0"/>
<path d="M99.8715 1647.02C97.1849 1649.18 93.1201 1647.17 93.2585 1643.75L93.9421 1626.87C94.0577 1624.01 97.1394 1622.26 99.7588 1623.55L112.343 1629.78C114.962 1631.07 115.384 1634.56 113.139 1636.37L99.8715 1647.02Z" fill="#E64A4B"/>
<path d="M112.041 1629.84C114.66 1631.13 115.082 1634.63 112.837 1636.43L99.5697 1647.08C98.4595 1647.97 97.1139 1648.15 95.9268 1647.81C98.3822 1638.35 100.573 1633.71 106.494 1627.09L112.041 1629.84Z" fill="#C9393A"/>
<ellipse cx="107.325" cy="1640.32" rx="0.505177" ry="0.739595" transform="rotate(14.8801 107.325 1640.32)" fill="#5C1818"/>
<ellipse cx="99.3515" cy="1629.02" rx="0.505177" ry="0.739595" transform="rotate(14.8801 99.3515 1629.02)" fill="#5C1818"/>
<ellipse cx="105.319" cy="1632.14" rx="0.505177" ry="0.739595" transform="rotate(14.8801 105.319 1632.14)" fill="#5C1818"/>
<ellipse cx="98.8623" cy="1642.67" rx="0.505177" ry="0.739595" transform="rotate(14.8801 98.8623 1642.67)" fill="#5C1818"/>
<ellipse cx="96.6024" cy="1635.44" rx="0.505177" ry="0.739595" transform="rotate(14.8801 96.6024 1635.44)" fill="#5C1818"/>
<path d="M133.42 1578.39C133.362 1581.83 129.218 1583.67 126.678 1581.38L114.133 1570.07C112.011 1568.15 112.629 1564.66 115.299 1563.47L128.13 1557.77C130.801 1556.59 133.755 1558.49 133.707 1561.37L133.42 1578.39Z" fill="#E64A4B"/>
<path d="M127.984 1558.05C130.654 1556.86 133.609 1558.77 133.56 1561.64L133.274 1578.66C133.25 1580.08 132.527 1581.23 131.509 1581.93C125.798 1573.99 123.632 1569.34 122.328 1560.56L127.984 1558.05Z" fill="#C9393A"/>
<ellipse cx="133.035" cy="1568.37" rx="0.505177" ry="0.739595" transform="rotate(-35.3919 133.035 1568.37)" fill="#5C1818"/>
<ellipse cx="119.246" cy="1567.28" rx="0.505177" ry="0.739595" transform="rotate(-35.3919 119.246 1567.28)" fill="#5C1818"/>
<ellipse cx="125.457" cy="1564.69" rx="0.505177" ry="0.739595" transform="rotate(-35.3919 125.457 1564.69)" fill="#5C1818"/>
<ellipse cx="129.428" cy="1576.38" rx="0.505177" ry="0.739595" transform="rotate(-35.3919 129.428 1576.38)" fill="#5C1818"/>
<ellipse cx="122.421" cy="1573.5" rx="0.505177" ry="0.739595" transform="rotate(-35.3919 122.421 1573.5)" fill="#5C1818"/>
<path d="M122.063 1612.61C122.005 1616.05 117.861 1617.89 115.321 1615.6L102.777 1604.29C100.654 1602.37 101.272 1598.88 103.942 1597.69L116.773 1591.99C119.444 1590.81 122.398 1592.72 122.35 1595.59L122.063 1612.61Z" fill="#E64A4B"/>
<path d="M116.627 1592.27C119.298 1591.08 122.252 1592.99 122.204 1595.87L121.917 1612.88C121.893 1614.3 121.171 1615.45 120.153 1616.15C114.442 1608.21 112.276 1603.56 110.972 1594.78L116.627 1592.27Z" fill="#C9393A"/>
<ellipse cx="121.678" cy="1602.59" rx="0.505177" ry="0.739595" transform="rotate(-35.3919 121.678 1602.59)" fill="#5C1818"/>
<ellipse cx="107.889" cy="1601.5" rx="0.505177" ry="0.739595" transform="rotate(-35.3919 107.889 1601.5)" fill="#5C1818"/>
<ellipse cx="114.1" cy="1598.91" rx="0.505177" ry="0.739595" transform="rotate(-35.3919 114.1 1598.91)" fill="#5C1818"/>
<ellipse cx="118.071" cy="1610.6" rx="0.505177" ry="0.739595" transform="rotate(-35.3919 118.071 1610.6)" fill="#5C1818"/>
<ellipse cx="111.064" cy="1607.72" rx="0.505177" ry="0.739595" transform="rotate(-35.3919 111.064 1607.72)" fill="#5C1818"/>
<path d="M117.95 1567.78C120.435 1567.73 122.487 1569.71 122.534 1572.2C122.562 1573.65 121.891 1574.96 120.83 1575.81C122.681 1577.64 123.948 1579.92 124.37 1582.52C125.609 1590.15 119.101 1597.56 109.833 1599.07C100.566 1600.57 92.0489 1595.6 90.8093 1587.97C90.2791 1584.71 91.1658 1581.48 93.0801 1578.75C91.624 1578.02 90.6102 1576.54 90.5775 1574.8C90.5306 1572.31 92.507 1570.26 94.9918 1570.21C97.0397 1570.18 98.7927 1571.51 99.3725 1573.37C101.171 1572.45 103.183 1571.78 105.345 1571.43C108.221 1570.96 111.026 1571.12 113.563 1571.78C113.807 1569.57 115.662 1567.82 117.95 1567.78Z" fill="#FEB998"/>
<ellipse cx="101.745" cy="1583.59" rx="2" ry="2.5" transform="rotate(-4.31186 101.745 1583.59)" fill="#543A1B"/>
<ellipse cx="112.864" cy="1582.49" rx="2" ry="2.5" transform="rotate(-4.31186 112.864 1582.49)" fill="#543A1B"/>
<ellipse cx="107.592" cy="1587.34" rx="2" ry="2.5" transform="rotate(80.1818 107.592 1587.34)" fill="#543A1B"/>
<path d="M135.006 1611.68C137.416 1612.29 138.881 1614.73 138.278 1617.14C137.923 1618.56 136.934 1619.65 135.69 1620.18C136.999 1622.43 137.624 1624.97 137.353 1627.59C136.556 1635.28 128.339 1640.73 119 1639.76C109.661 1638.8 102.737 1631.78 103.534 1624.09C103.874 1620.8 105.572 1617.92 108.135 1615.77C106.918 1614.7 106.328 1612.99 106.75 1611.31C107.354 1608.9 109.798 1607.43 112.209 1608.04C114.196 1608.53 115.539 1610.28 115.612 1612.23C117.589 1611.81 119.707 1611.69 121.885 1611.91C124.784 1612.21 127.451 1613.1 129.726 1614.4C130.539 1612.33 132.786 1611.13 135.006 1611.68Z" fill="#FEB998"/>
<ellipse cx="115.235" cy="1622.71" rx="2" ry="2.5" transform="rotate(10.8276 115.235 1622.71)" fill="#543A1B"/>
<ellipse cx="126.255" cy="1624.55" rx="2" ry="2.5" transform="rotate(10.8276 126.255 1624.55)" fill="#543A1B"/>
<ellipse cx="119.899" cy="1627.86" rx="2" ry="2.5" transform="rotate(95.3212 119.899 1627.86)" fill="#543A1B"/>
<path d="M115.041 1685.86C104.597 1683.65 92.6106 1698.62 88.4226 1706.36L88.0261 1738.38L142.224 1748.36L195.554 1738.85L195.263 1670.34C194.976 1672.85 190.461 1675.63 174.691 1666.73C158.92 1657.82 147.174 1666.08 143.272 1671.32C138.213 1677.08 125.484 1688.06 115.041 1685.86Z" fill="#FEEACD"/>
<path d="M252.427 1490.93L252.471 1719.03L305.646 1728.65L358.675 1719.22L348.23 1500.7L306.73 1486.2L252.427 1490.93Z" fill="#6FA975"/>
<path d="M307.16 1651.37L306.621 1728.9L359.451 1719.4L359.169 1651.39C358.207 1653.41 353.746 1655.49 339.088 1647.27C326.511 1640.21 316.498 1642.69 307.16 1651.37Z" fill="#E5C79B"/>
<path d="M306.602 1486.2L306.602 1727.9L359.451 1719.4L358.181 1492.88L306.602 1486.2Z" fill="#397B40"/>
<path d="M259.219 1525.99C259.208 1523.37 261.227 1521.18 263.844 1520.98L288.855 1519.1C291.756 1518.88 294.23 1521.18 294.23 1524.09L294.23 1637.34C294.23 1640.11 291.992 1642.34 289.23 1642.34L264.698 1642.34C261.945 1642.34 259.71 1640.12 259.698 1637.37L259.219 1525.99Z" fill="#92CA98"/>
<rect x="274.75" y="1537.14" width="20.4475" height="27.2633" rx="2" transform="rotate(-15.3576 274.75 1537.14)" fill="#543A1B"/>
<rect x="276.131" y="1539.54" width="8.68628" height="6.00566" rx="2" transform="rotate(-15.1443 276.131 1539.54)" fill="#87562A"/>
<rect x="285.784" y="1536.93" width="8.68628" height="6.00566" rx="2" transform="rotate(-15.1443 285.784 1536.93)" fill="#87562A"/>
<rect x="278.221" y="1547.26" width="8.68628" height="6.00566" rx="2" transform="rotate(-15.1443 278.221 1547.26)" fill="#87562A"/>
<rect x="287.874" y="1544.65" width="8.68628" height="6.00566" rx="2" transform="rotate(-15.1443 287.874 1544.65)" fill="#87562A"/>
<rect x="280.311" y="1554.99" width="8.68628" height="6.00566" rx="2" transform="rotate(-15.1443 280.311 1554.99)" fill="#87562A"/>
<rect x="289.964" y="1552.37" width="8.68628" height="6.00566" rx="2" transform="rotate(-15.1443 289.964 1552.37)" fill="#87562A"/>
<rect x="268.94" y="1569.77" width="20.4475" height="27.2633" rx="2" transform="rotate(4.43529 268.94 1569.77)" fill="#543A1B"/>
<rect x="269.426" y="1572.5" width="8.68628" height="6.00566" rx="2" transform="rotate(4.64858 269.426 1572.5)" fill="#87562A"/>
<rect x="279.393" y="1573.31" width="8.68628" height="6.00566" rx="2" transform="rotate(4.64858 279.393 1573.31)" fill="#87562A"/>
<rect x="268.777" y="1580.48" width="8.68628" height="6.00566" rx="2" transform="rotate(4.64858 268.777 1580.48)" fill="#87562A"/>
<rect x="278.744" y="1581.29" width="8.68628" height="6.00566" rx="2" transform="rotate(4.64858 278.744 1581.29)" fill="#87562A"/>
<rect x="268.129" y="1588.45" width="8.68628" height="6.00566" rx="2" transform="rotate(4.64858 268.129 1588.45)" fill="#87562A"/>
<rect x="278.096" y="1589.26" width="8.68628" height="6.00566" rx="2" transform="rotate(4.64858 278.096 1589.26)" fill="#87562A"/>
<rect x="253.75" y="1611.14" width="20.4475" height="27.2633" rx="2" transform="rotate(-15.3576 253.75 1611.14)" fill="#543A1B"/>
<rect x="255.131" y="1613.54" width="8.68628" height="6.00566" rx="2" transform="rotate(-15.1443 255.131 1613.54)" fill="#87562A"/>
<rect x="264.784" y="1610.93" width="8.68628" height="6.00566" rx="2" transform="rotate(-15.1443 264.784 1610.93)" fill="#87562A"/>
<rect x="257.222" y="1621.26" width="8.68628" height="6.00566" rx="2" transform="rotate(-15.1443 257.222 1621.26)" fill="#87562A"/>
<rect x="266.874" y="1618.65" width="8.68628" height="6.00566" rx="2" transform="rotate(-15.1443 266.874 1618.65)" fill="#87562A"/>
<rect x="259.312" y="1628.99" width="8.68628" height="6.00566" rx="2" transform="rotate(-15.1443 259.312 1628.99)" fill="#87562A"/>
<rect x="268.964" y="1626.37" width="8.68628" height="6.00566" rx="2" transform="rotate(-15.1443 268.964 1626.37)" fill="#87562A"/>
<path d="M281.847 1548.33C284.332 1548.28 286.384 1550.26 286.431 1552.74C286.459 1554.2 285.788 1555.51 284.728 1556.35C286.579 1558.18 287.845 1560.47 288.267 1563.07C289.506 1570.7 282.998 1578.11 273.731 1579.61C264.463 1581.12 255.946 1576.15 254.706 1568.52C254.176 1565.26 255.063 1562.03 256.977 1559.3C255.521 1558.57 254.507 1557.09 254.475 1555.35C254.428 1552.86 256.404 1550.81 258.889 1550.76C260.937 1550.73 262.69 1552.06 263.27 1553.92C265.068 1553 267.08 1552.33 269.242 1551.98C272.118 1551.51 274.923 1551.67 277.46 1552.33C277.704 1550.12 279.56 1548.37 281.847 1548.33Z" fill="#FEB998"/>
<ellipse cx="265.642" cy="1564.14" rx="2" ry="2.5" transform="rotate(-4.31186 265.642 1564.14)" fill="#543A1B"/>
<ellipse cx="276.761" cy="1563.04" rx="2" ry="2.5" transform="rotate(-4.31186 276.761 1563.04)" fill="#543A1B"/>
<ellipse cx="271.489" cy="1567.89" rx="2" ry="2.5" transform="rotate(80.1818 271.489 1567.89)" fill="#543A1B"/>
<path d="M298.903 1592.23C301.314 1592.84 302.779 1595.28 302.175 1597.69C301.821 1599.11 300.831 1600.2 299.588 1600.73C300.896 1602.98 301.521 1605.52 301.25 1608.14C300.453 1615.83 292.236 1621.28 282.897 1620.31C273.559 1619.35 266.634 1612.33 267.431 1604.64C267.772 1601.35 269.47 1598.47 272.032 1596.32C270.816 1595.25 270.226 1593.54 270.648 1591.86C271.251 1589.45 273.695 1587.98 276.106 1588.59C278.093 1589.08 279.436 1590.83 279.51 1592.78C281.486 1592.36 283.604 1592.24 285.783 1592.46C288.681 1592.76 291.348 1593.65 293.623 1594.95C294.437 1592.88 296.683 1591.68 298.903 1592.23Z" fill="#FEB998"/>
<ellipse cx="279.132" cy="1603.26" rx="2" ry="2.5" transform="rotate(10.8276 279.132 1603.26)" fill="#543A1B"/>
<ellipse cx="290.152" cy="1605.1" rx="2" ry="2.5" transform="rotate(10.8276 290.152 1605.1)" fill="#543A1B"/>
<ellipse cx="283.797" cy="1608.41" rx="2" ry="2.5" transform="rotate(95.3212 283.797 1608.41)" fill="#543A1B"/>
<path d="M278.938 1666.41C268.495 1664.2 256.508 1679.16 252.32 1686.91L251.923 1718.92L306.121 1728.9L359.451 1719.4L359.16 1650.89C358.874 1653.4 354.359 1656.18 338.588 1647.28C322.817 1638.37 311.071 1646.63 307.169 1651.87C302.11 1657.63 289.381 1668.61 278.938 1666.41Z" fill="#FEEACD"/>
<path d="M170.427 1490.93L170.471 1719.03L223.646 1728.65L276.675 1719.22L266.23 1500.69L224.73 1486.19L170.427 1490.93Z" fill="#6FA975"/>
<path d="M225.16 1651.37L224.621 1728.89L277.451 1719.4L277.169 1651.39C276.207 1653.41 271.746 1655.49 257.088 1647.27C244.511 1640.21 234.498 1642.69 225.16 1651.37Z" fill="#E5C79B"/>
<path d="M224.602 1486.19L224.602 1727.89L277.451 1719.4L276.181 1492.88L224.602 1486.19Z" fill="#397B40"/>
<path d="M177.219 1525.99C177.208 1523.37 179.227 1521.18 181.844 1520.98L206.855 1519.1C209.756 1518.88 212.23 1521.18 212.23 1524.09L212.23 1637.34C212.23 1640.1 209.992 1642.34 207.23 1642.34L182.698 1642.34C179.945 1642.34 177.71 1640.12 177.698 1637.36L177.219 1525.99Z" fill="#92CA98"/>
<rect x="192.75" y="1537.14" width="20.4475" height="27.2633" rx="2" transform="rotate(-15.3576 192.75 1537.14)" fill="#543A1B"/>
<rect x="194.131" y="1539.54" width="8.68628" height="6.00566" rx="2" transform="rotate(-15.1443 194.131 1539.54)" fill="#87562A"/>
<rect x="203.784" y="1536.93" width="8.68628" height="6.00566" rx="2" transform="rotate(-15.1443 203.784 1536.93)" fill="#87562A"/>
<rect x="196.221" y="1547.26" width="8.68628" height="6.00566" rx="2" transform="rotate(-15.1443 196.221 1547.26)" fill="#87562A"/>
<rect x="205.874" y="1544.65" width="8.68628" height="6.00566" rx="2" transform="rotate(-15.1443 205.874 1544.65)" fill="#87562A"/>
<rect x="198.311" y="1554.99" width="8.68628" height="6.00566" rx="2" transform="rotate(-15.1443 198.311 1554.99)" fill="#87562A"/>
<rect x="207.964" y="1552.37" width="8.68628" height="6.00566" rx="2" transform="rotate(-15.1443 207.964 1552.37)" fill="#87562A"/>
<rect x="186.94" y="1569.77" width="20.4475" height="27.2633" rx="2" transform="rotate(4.43529 186.94 1569.77)" fill="#543A1B"/>
<rect x="187.426" y="1572.5" width="8.68628" height="6.00566" rx="2" transform="rotate(4.64858 187.426 1572.5)" fill="#87562A"/>
<rect x="197.393" y="1573.31" width="8.68628" height="6.00566" rx="2" transform="rotate(4.64858 197.393 1573.31)" fill="#87562A"/>
<rect x="186.777" y="1580.47" width="8.68628" height="6.00566" rx="2" transform="rotate(4.64858 186.777 1580.47)" fill="#87562A"/>
<rect x="196.744" y="1581.28" width="8.68628" height="6.00566" rx="2" transform="rotate(4.64858 196.744 1581.28)" fill="#87562A"/>
<rect x="186.129" y="1588.45" width="8.68628" height="6.00566" rx="2" transform="rotate(4.64858 186.129 1588.45)" fill="#87562A"/>
<rect x="196.096" y="1589.26" width="8.68628" height="6.00566" rx="2" transform="rotate(4.64858 196.096 1589.26)" fill="#87562A"/>
<rect x="171.75" y="1611.14" width="20.4475" height="27.2633" rx="2" transform="rotate(-15.3576 171.75 1611.14)" fill="#543A1B"/>
<rect x="173.131" y="1613.54" width="8.68628" height="6.00566" rx="2" transform="rotate(-15.1443 173.131 1613.54)" fill="#87562A"/>
<rect x="182.784" y="1610.93" width="8.68628" height="6.00566" rx="2" transform="rotate(-15.1443 182.784 1610.93)" fill="#87562A"/>
<rect x="175.222" y="1621.26" width="8.68628" height="6.00566" rx="2" transform="rotate(-15.1443 175.222 1621.26)" fill="#87562A"/>
<rect x="184.874" y="1618.65" width="8.68628" height="6.00566" rx="2" transform="rotate(-15.1443 184.874 1618.65)" fill="#87562A"/>
<rect x="177.312" y="1628.99" width="8.68628" height="6.00566" rx="2" transform="rotate(-15.1443 177.312 1628.99)" fill="#87562A"/>
<rect x="186.964" y="1626.37" width="8.68628" height="6.00566" rx="2" transform="rotate(-15.1443 186.964 1626.37)" fill="#87562A"/>
<path d="M199.847 1548.33C202.332 1548.28 204.384 1550.26 204.431 1552.74C204.459 1554.2 203.788 1555.51 202.728 1556.35C204.579 1558.18 205.845 1560.47 206.267 1563.07C207.506 1570.7 200.998 1578.11 191.731 1579.61C182.463 1581.12 173.946 1576.15 172.706 1568.52C172.176 1565.26 173.063 1562.03 174.977 1559.29C173.521 1558.57 172.507 1557.08 172.475 1555.35C172.428 1552.86 174.404 1550.81 176.889 1550.76C178.937 1550.72 180.69 1552.06 181.27 1553.92C183.068 1553 185.08 1552.33 187.242 1551.98C190.118 1551.51 192.923 1551.66 195.46 1552.33C195.704 1550.12 197.56 1548.37 199.847 1548.33Z" fill="#FEB998"/>
<ellipse cx="183.642" cy="1564.14" rx="2" ry="2.5" transform="rotate(-4.31186 183.642 1564.14)" fill="#543A1B"/>
<ellipse cx="194.761" cy="1563.04" rx="2" ry="2.5" transform="rotate(-4.31186 194.761 1563.04)" fill="#543A1B"/>
<ellipse cx="189.489" cy="1567.88" rx="2" ry="2.5" transform="rotate(80.1818 189.489 1567.88)" fill="#543A1B"/>
<path d="M216.903 1592.23C219.314 1592.84 220.779 1595.28 220.175 1597.69C219.821 1599.11 218.831 1600.19 217.588 1600.73C218.896 1602.98 219.521 1605.52 219.25 1608.14C218.453 1615.83 210.236 1621.28 200.897 1620.31C191.559 1619.34 184.634 1612.33 185.431 1604.63C185.772 1601.35 187.47 1598.46 190.032 1596.32C188.816 1595.24 188.226 1593.54 188.648 1591.86C189.251 1589.45 191.695 1587.98 194.106 1588.59C196.093 1589.08 197.436 1590.83 197.51 1592.78C199.486 1592.36 201.604 1592.24 203.783 1592.46C206.681 1592.76 209.348 1593.64 211.623 1594.95C212.437 1592.87 214.683 1591.68 216.903 1592.23Z" fill="#FEB998"/>
<ellipse cx="197.132" cy="1603.26" rx="2" ry="2.5" transform="rotate(10.8276 197.132 1603.26)" fill="#543A1B"/>
<ellipse cx="208.152" cy="1605.1" rx="2" ry="2.5" transform="rotate(10.8276 208.152 1605.1)" fill="#543A1B"/>
<ellipse cx="201.797" cy="1608.4" rx="2" ry="2.5" transform="rotate(95.3212 201.797 1608.4)" fill="#543A1B"/>
<path d="M196.938 1666.41C186.495 1664.2 174.508 1679.16 170.32 1686.91L169.923 1718.92L224.121 1728.9L277.451 1719.4L277.16 1650.89C276.874 1653.4 272.359 1656.18 256.588 1647.28C240.817 1638.37 229.071 1646.63 225.169 1651.87C220.11 1657.63 207.381 1668.61 196.938 1666.41Z" fill="#FEEACD"/>
<g filter="url(#filter15_d_2041_1962)">
<path d="M362.5 1621.5V1739.5L291.5 1752.5L74.5 1788.5V1640L128.5 1629.55V1700.98L131.436 1700.46L227.436 1683.46L229.5 1683.1V1610L291.5 1598L362.5 1621.5Z" fill="#FEEACD"/>
</g>
<path d="M292 1598V1752.5L363 1740.5V1621.5L292 1598Z" fill="#E5C79B"/>
<path d="M17 786.5L381.5 642V674L17 818.5V786.5Z" fill="#40464A"/>
<defs>
<filter id="filter0_d_2041_1962" x="35.6947" y="353.883" width="203.739" height="221.231" filterUnits="userSpaceOnUse" color-interpolation-filters="sRGB">
<feFlood flood-opacity="0" result="BackgroundImageFix"/>
<feColorMatrix in="SourceAlpha" type="matrix" values="0 0 0 0 0 0 0 0 0 0 0 0 0 0 0 0 0 0 127 0" result="hardAlpha"/>
<feOffset dx="-9"/>
<feGaussianBlur stdDeviation="5.75"/>
<feComposite in2="hardAlpha" operator="out"/>
<feColorMatrix type="matrix" values="0 0 0 0 0 0 0 0 0 0 0 0 0 0 0 0 0 0 0.25 0"/>
<feBlend mode="normal" in2="BackgroundImageFix" result="effect1_dropShadow_2041_1962"/>
<feBlend mode="normal" in="SourceGraphic" in2="effect1_dropShadow_2041_1962" result="shape"/>
</filter>
<filter id="filter1_d_2041_1962" x="52.1947" y="391.394" width="188.739" height="33.928" filterUnits="userSpaceOnUse" color-interpolation-filters="sRGB">
<feFlood flood-opacity="0" result="BackgroundImageFix"/>
<feColorMatrix in="SourceAlpha" type="matrix" values="0 0 0 0 0 0 0 0 0 0 0 0 0 0 0 0 0 0 127 0" result="hardAlpha"/>
<feOffset dy="4"/>
<feGaussianBlur stdDeviation="2"/>
<feComposite in2="hardAlpha" operator="out"/>
<feColorMatrix type="matrix" values="0 0 0 0 0 0 0 0 0 0 0 0 0 0 0 0 0 0 0.25 0"/>
<feBlend mode="normal" in2="BackgroundImageFix" result="effect1_dropShadow_2041_1962"/>
<feBlend mode="normal" in="SourceGraphic" in2="effect1_dropShadow_2041_1962" result="shape"/>
</filter>
<filter id="filter2_d_2041_1962" x="42.6947" y="538.883" width="203.739" height="221.231" filterUnits="userSpaceOnUse" color-interpolation-filters="sRGB">
<feFlood flood-opacity="0" result="BackgroundImageFix"/>
<feColorMatrix in="SourceAlpha" type="matrix" values="0 0 0 0 0 0 0 0 0 0 0 0 0 0 0 0 0 0 127 0" result="hardAlpha"/>
<feOffset dx="-9"/>
<feGaussianBlur stdDeviation="5.75"/>
<feComposite in2="hardAlpha" operator="out"/>
<feColorMatrix type="matrix" values="0 0 0 0 0 0 0 0 0 0 0 0 0 0 0 0 0 0 0.25 0"/>
<feBlend mode="normal" in2="BackgroundImageFix" result="effect1_dropShadow_2041_1962"/>
<feBlend mode="normal" in="SourceGraphic" in2="effect1_dropShadow_2041_1962" result="shape"/>
</filter>
<filter id="filter3_d_2041_1962" x="59.1947" y="576.394" width="188.739" height="33.928" filterUnits="userSpaceOnUse" color-interpolation-filters="sRGB">
<feFlood flood-opacity="0" result="BackgroundImageFix"/>
<feColorMatrix in="SourceAlpha" type="matrix" values="0 0 0 0 0 0 0 0 0 0 0 0 0 0 0 0 0 0 127 0" result="hardAlpha"/>
<feOffset dy="4"/>
<feGaussianBlur stdDeviation="2"/>
<feComposite in2="hardAlpha" operator="out"/>
<feColorMatrix type="matrix" values="0 0 0 0 0 0 0 0 0 0 0 0 0 0 0 0 0 0 0.25 0"/>
<feBlend mode="normal" in2="BackgroundImageFix" result="effect1_dropShadow_2041_1962"/>
<feBlend mode="normal" in="SourceGraphic" in2="effect1_dropShadow_2041_1962" result="shape"/>
</filter>
<filter id="filter4_d_2041_1962" x="99.6947" y="326.883" width="203.739" height="221.231" filterUnits="userSpaceOnUse" color-interpolation-filters="sRGB">
<feFlood flood-opacity="0" result="BackgroundImageFix"/>
<feColorMatrix in="SourceAlpha" type="matrix" values="0 0 0 0 0 0 0 0 0 0 0 0 0 0 0 0 0 0 127 0" result="hardAlpha"/>
<feOffset dx="-9"/>
<feGaussianBlur stdDeviation="5.75"/>
<feComposite in2="hardAlpha" operator="out"/>
<feColorMatrix type="matrix" values="0 0 0 0 0 0 0 0 0 0 0 0 0 0 0 0 0 0 0.25 0"/>
<feBlend mode="normal" in2="BackgroundImageFix" result="effect1_dropShadow_2041_1962"/>
<feBlend mode="normal" in="SourceGraphic" in2="effect1_dropShadow_2041_1962" result="shape"/>
</filter>
<filter id="filter5_d_2041_1962" x="116.195" y="364.394" width="188.739" height="33.928" filterUnits="userSpaceOnUse" color-interpolation-filters="sRGB">
<feFlood flood-opacity="0" result="BackgroundImageFix"/>
<feColorMatrix in="SourceAlpha" type="matrix" values="0 0 0 0 0 0 0 0 0 0 0 0 0 0 0 0 0 0 127 0" result="hardAlpha"/>
<feOffset dy="4"/>
<feGaussianBlur stdDeviation="2"/>
<feComposite in2="hardAlpha" operator="out"/>
<feColorMatrix type="matrix" values="0 0 0 0 0 0 0 0 0 0 0 0 0 0 0 0 0 0 0.25 0"/>
<feBlend mode="normal" in2="BackgroundImageFix" result="effect1_dropShadow_2041_1962"/>
<feBlend mode="normal" in="SourceGraphic" in2="effect1_dropShadow_2041_1962" result="shape"/>
</filter>
<filter id="filter6_d_2041_1962" x="174.695" y="304.883" width="203.739" height="221.231" filterUnits="userSpaceOnUse" color-interpolation-filters="sRGB">
<feFlood flood-opacity="0" result="BackgroundImageFix"/>
<feColorMatrix in="SourceAlpha" type="matrix" values="0 0 0 0 0 0 0 0 0 0 0 0 0 0 0 0 0 0 127 0" result="hardAlpha"/>
<feOffset dx="-9"/>
<feGaussianBlur stdDeviation="5.75"/>
<feComposite in2="hardAlpha" operator="out"/>
<feColorMatrix type="matrix" values="0 0 0 0 0 0 0 0 0 0 0 0 0 0 0 0 0 0 0.25 0"/>
<feBlend mode="normal" in2="BackgroundImageFix" result="effect1_dropShadow_2041_1962"/>
<feBlend mode="normal" in="SourceGraphic" in2="effect1_dropShadow_2041_1962" result="shape"/>
</filter>
<filter id="filter7_d_2041_1962" x="191.195" y="342.394" width="188.739" height="33.928" filterUnits="userSpaceOnUse" color-interpolation-filters="sRGB">
<feFlood flood-opacity="0" result="BackgroundImageFix"/>
<feColorMatrix in="SourceAlpha" type="matrix" values="0 0 0 0 0 0 0 0 0 0 0 0 0 0 0 0 0 0 127 0" result="hardAlpha"/>
<feOffset dy="4"/>
<feGaussianBlur stdDeviation="2"/>
<feComposite in2="hardAlpha" operator="out"/>
<feColorMatrix type="matrix" values="0 0 0 0 0 0 0 0 0 0 0 0 0 0 0 0 0 0 0.25 0"/>
<feBlend mode="normal" in2="BackgroundImageFix" result="effect1_dropShadow_2041_1962"/>
<feBlend mode="normal" in="SourceGraphic" in2="effect1_dropShadow_2041_1962" result="shape"/>
</filter>
<filter id="filter8_d_2041_1962" x="112.695" y="503.883" width="203.739" height="221.231" filterUnits="userSpaceOnUse" color-interpolation-filters="sRGB">
<feFlood flood-opacity="0" result="BackgroundImageFix"/>
<feColorMatrix in="SourceAlpha" type="matrix" values="0 0 0 0 0 0 0 0 0 0 0 0 0 0 0 0 0 0 127 0" result="hardAlpha"/>
<feOffset dx="-9"/>
<feGaussianBlur stdDeviation="5.75"/>
<feComposite in2="hardAlpha" operator="out"/>
<feColorMatrix type="matrix" values="0 0 0 0 0 0 0 0 0 0 0 0 0 0 0 0 0 0 0.25 0"/>
<feBlend mode="normal" in2="BackgroundImageFix" result="effect1_dropShadow_2041_1962"/>
<feBlend mode="normal" in="SourceGraphic" in2="effect1_dropShadow_2041_1962" result="shape"/>
</filter>
<filter id="filter9_d_2041_1962" x="129.195" y="541.394" width="188.739" height="33.928" filterUnits="userSpaceOnUse" color-interpolation-filters="sRGB">
<feFlood flood-opacity="0" result="BackgroundImageFix"/>
<feColorMatrix in="SourceAlpha" type="matrix" values="0 0 0 0 0 0 0 0 0 0 0 0 0 0 0 0 0 0 127 0" result="hardAlpha"/>
<feOffset dy="4"/>
<feGaussianBlur stdDeviation="2"/>
<feComposite in2="hardAlpha" operator="out"/>
<feColorMatrix type="matrix" values="0 0 0 0 0 0 0 0 0 0 0 0 0 0 0 0 0 0 0.25 0"/>
<feBlend mode="normal" in2="BackgroundImageFix" result="effect1_dropShadow_2041_1962"/>
<feBlend mode="normal" in="SourceGraphic" in2="effect1_dropShadow_2041_1962" result="shape"/>
</filter>
<filter id="filter10_d_2041_1962" x="176.695" y="484.883" width="203.739" height="221.231" filterUnits="userSpaceOnUse" color-interpolation-filters="sRGB">
<feFlood flood-opacity="0" result="BackgroundImageFix"/>
<feColorMatrix in="SourceAlpha" type="matrix" values="0 0 0 0 0 0 0 0 0 0 0 0 0 0 0 0 0 0 127 0" result="hardAlpha"/>
<feOffset dx="-9"/>
<feGaussianBlur stdDeviation="5.75"/>
<feComposite in2="hardAlpha" operator="out"/>
<feColorMatrix type="matrix" values="0 0 0 0 0 0 0 0 0 0 0 0 0 0 0 0 0 0 0.25 0"/>
<feBlend mode="normal" in2="BackgroundImageFix" result="effect1_dropShadow_2041_1962"/>
<feBlend mode="normal" in="SourceGraphic" in2="effect1_dropShadow_2041_1962" result="shape"/>
</filter>
<filter id="filter11_d_2041_1962" x="193.195" y="522.394" width="188.739" height="33.928" filterUnits="userSpaceOnUse" color-interpolation-filters="sRGB">
<feFlood flood-opacity="0" result="BackgroundImageFix"/>
<feColorMatrix in="SourceAlpha" type="matrix" values="0 0 0 0 0 0 0 0 0 0 0 0 0 0 0 0 0 0 127 0" result="hardAlpha"/>
<feOffset dy="4"/>
<feGaussianBlur stdDeviation="2"/>
<feComposite in2="hardAlpha" operator="out"/>
<feColorMatrix type="matrix" values="0 0 0 0 0 0 0 0 0 0 0 0 0 0 0 0 0 0 0.25 0"/>
<feBlend mode="normal" in2="BackgroundImageFix" result="effect1_dropShadow_2041_1962"/>
<feBlend mode="normal" in="SourceGraphic" in2="effect1_dropShadow_2041_1962" result="shape"/>
</filter>
<filter id="filter12_d_2041_1962" x="31.4861" y="932.223" width="144.5" height="367.277" filterUnits="userSpaceOnUse" color-interpolation-filters="sRGB">
<feFlood flood-opacity="0" result="BackgroundImageFix"/>
<feColorMatrix in="SourceAlpha" type="matrix" values="0 0 0 0 0 0 0 0 0 0 0 0 0 0 0 0 0 0 127 0" result="hardAlpha"/>
<feOffset dx="-11"/>
<feGaussianBlur stdDeviation="5.75"/>
<feComposite in2="hardAlpha" operator="out"/>
<feColorMatrix type="matrix" values="0 0 0 0 0 0 0 0 0 0 0 0 0 0 0 0 0 0 0.25 0"/>
<feBlend mode="normal" in2="BackgroundImageFix" result="effect1_dropShadow_2041_1962"/>
<feBlend mode="normal" in="SourceGraphic" in2="effect1_dropShadow_2041_1962" result="shape"/>
</filter>
<filter id="filter13_d_2041_1962" x="111" y="913.223" width="142.5" height="366.277" filterUnits="userSpaceOnUse" color-interpolation-filters="sRGB">
<feFlood flood-opacity="0" result="BackgroundImageFix"/>
<feColorMatrix in="SourceAlpha" type="matrix" values="0 0 0 0 0 0 0 0 0 0 0 0 0 0 0 0 0 0 127 0" result="hardAlpha"/>
<feOffset dx="-11"/>
<feGaussianBlur stdDeviation="5.75"/>
<feComposite in2="hardAlpha" operator="out"/>
<feColorMatrix type="matrix" values="0 0 0 0 0 0 0 0 0 0 0 0 0 0 0 0 0 0 0.25 0"/>
<feBlend mode="normal" in2="BackgroundImageFix" result="effect1_dropShadow_2041_1962"/>
<feBlend mode="normal" in="SourceGraphic" in2="effect1_dropShadow_2041_1962" result="shape"/>
</filter>
<filter id="filter14_d_2041_1962" x="194.5" y="891.223" width="143.486" height="367.277" filterUnits="userSpaceOnUse" color-interpolation-filters="sRGB">
<feFlood flood-opacity="0" result="BackgroundImageFix"/>
<feColorMatrix in="SourceAlpha" type="matrix" values="0 0 0 0 0 0 0 0 0 0 0 0 0 0 0 0 0 0 127 0" result="hardAlpha"/>
<feOffset dx="-11"/>
<feGaussianBlur stdDeviation="5.75"/>
<feComposite in2="hardAlpha" operator="out"/>
<feColorMatrix type="matrix" values="0 0 0 0 0 0 0 0 0 0 0 0 0 0 0 0 0 0 0.25 0"/>
<feBlend mode="normal" in2="BackgroundImageFix" result="effect1_dropShadow_2041_1962"/>
<feBlend mode="normal" in="SourceGraphic" in2="effect1_dropShadow_2041_1962" result="shape"/>
</filter>
<filter id="filter15_d_2041_1962" x="72.5" y="1591" width="296" height="198.5" filterUnits="userSpaceOnUse" color-interpolation-filters="sRGB">
<feFlood flood-opacity="0" result="BackgroundImageFix"/>
<feColorMatrix in="SourceAlpha" type="matrix" values="0 0 0 0 0 0 0 0 0 0 0 0 0 0 0 0 0 0 127 0" result="hardAlpha"/>
<feOffset dx="2" dy="-3"/>
<feGaussianBlur stdDeviation="2"/>
<feComposite in2="hardAlpha" operator="out"/>
<feColorMatrix type="matrix" values="0 0 0 0 0 0 0 0 0 0 0 0 0 0 0 0 0 0 0.25 0"/>
<feBlend mode="normal" in2="BackgroundImageFix" result="effect1_dropShadow_2041_1962"/>
<feBlend mode="normal" in="SourceGraphic" in2="effect1_dropShadow_2041_1962" result="shape"/>
</filter>
</defs>
</svg>
