<svg width="111" height="127" viewBox="0 0 111 127" fill="none" xmlns="http://www.w3.org/2000/svg">
<rect x="18" y="107" width="16" height="20" fill="#404649"/>
<rect x="18" y="107" width="8" height="20" fill="#333638"/>
<path d="M0 7.5L4.20202 0H111V102.554L108.798 110H0V7.5Z" fill="#333638"/>
<rect x="5" width="106" height="102" fill="#404649"/>
<rect x="13" y="8" width="90" height="86" fill="#BF3C3D"/>
<rect x="13" y="52" width="90" height="42" fill="#E64A4B"/>
<path d="M56.2185 33.2095C61.4298 33.0116 64.8788 34.001 67.6003 35.6196C70.2906 37.2197 72.2535 39.4347 74.45 41.5513C76.7562 43.7737 80.0578 49.1059 82.4441 54.9595C83.6411 57.8957 84.618 60.9865 85.1257 63.9116C85.6323 66.8302 85.678 69.6232 84.9763 71.9409C83.3946 77.1649 78.8831 80.4565 73.8904 82.436C68.8991 84.415 63.331 85.1228 59.4265 85.1255C55.4537 85.3035 48.9896 84.8127 43.2478 82.8354C37.5254 80.8649 32.3574 77.3559 31.3015 71.396C30.0121 64.1171 32.9828 54.7092 37.8386 47.0933C40.2729 43.2754 43.1991 39.8771 46.3416 37.3979C49.4798 34.9222 52.8683 33.3367 56.2185 33.2095ZM58.1052 44.0913C56.7593 44.0913 56.1871 45.0911 56.073 45.6235L56.0623 45.6753V47.7036C55.5395 47.8599 54.9056 48.0954 54.2996 48.397C53.5529 48.7686 52.7744 49.2749 52.3347 49.9097C52.0113 50.3767 51.5295 50.9014 51.2458 51.7524C50.9583 52.6153 50.8648 53.7973 51.113 55.7007C51.336 57.4081 52.601 58.6861 53.8816 59.564C55.1762 60.4514 56.5893 61.0024 57.3044 61.229C58.5207 61.6145 59.4679 62.6033 59.824 63.6714C60.0995 64.4991 59.5105 65.1345 59.2312 65.4146C58.995 65.6082 57.8214 66.114 55.6179 65.3247C55.3493 65.1848 54.9427 64.9855 54.5398 64.8179C54.3283 64.7299 54.1098 64.6468 53.9099 64.5854C53.7217 64.5277 53.5058 64.4752 53.3142 64.4751C52.9944 64.4751 52.442 64.518 51.9333 64.8179C51.3945 65.1357 50.965 65.7064 50.8679 66.6274C50.7126 68.1037 51.6831 68.9548 52.2546 69.2271C52.8791 69.6668 54.3569 70.4365 56.0623 70.5688V72.3149L56.0662 72.3452C56.1056 72.6601 56.2677 73.0909 56.6238 73.438C56.9953 73.7997 57.547 74.0407 58.2937 74.0015C59.0187 73.9633 59.5345 73.7097 59.8679 73.3511C60.1906 73.0038 60.3102 72.5912 60.3103 72.2837V70.4849C61.0422 70.2939 62.0293 69.9423 62.9402 69.3403C64.0338 68.6174 65.0509 67.5107 65.3376 65.8735C65.5976 64.3882 65.6712 63.1559 65.4353 62.0483C65.1962 60.9258 64.6491 59.9722 63.7458 59.0259C63.0071 58.2519 61.9273 57.5717 60.9109 57.0415C59.9082 56.5185 58.9262 56.1209 58.3054 55.9067C58.0351 55.7751 57.6203 55.5173 57.2712 55.1753C56.9082 54.8196 56.677 54.4351 56.655 54.063C56.606 53.2257 57.1649 52.7298 57.4285 52.5942C57.921 52.3903 59.4878 52.1469 61.3464 53.2261L61.4207 53.269L61.5046 53.2847C61.9864 53.375 62.7339 53.4082 63.3718 53.1577C63.7001 53.0288 64.0219 52.8156 64.2468 52.4761C64.4741 52.133 64.5716 51.7065 64.532 51.2104C64.3859 49.3853 63.1478 48.5525 62.4265 48.3452C62.1387 48.2036 61.6987 48.0081 61.2507 47.8511C61.0151 47.7685 60.7687 47.6932 60.5359 47.6431C60.489 47.633 60.4408 47.6231 60.3923 47.6147V45.8003L60.3601 45.7153C60.2539 45.432 60.0247 45.0383 59.6648 44.7095C59.2973 44.3739 58.7754 44.0914 58.1052 44.0913Z" fill="white"/>
<path d="M65.0891 32.5724C63.0101 31.1431 53.395 31.1919 50.6339 32.6537C49.1992 30.84 46.0374 26.6604 44.868 24.4515C44.1371 23.071 44.2689 21.1797 44.868 20.5535C45.4672 19.9273 47.418 18.1984 49.1721 19.1729C51.3647 20.3911 53.5574 20.6347 55.5876 20.3099C57.6178 19.985 59.4044 18.5233 59.9729 18.1984C60.5414 17.8736 62.4092 17.8736 63.3837 18.7669C64.5765 19.8603 64.9267 20.9595 64.9267 22.0152C64.9267 23.071 64.277 25.3178 63.9522 26.8066C65.5763 23.8018 66.4696 23.7206 66.7133 23.3958C66.9569 23.0709 68.7435 22.7461 69.6368 22.9085C70.53 23.0709 70.9361 23.2334 71.748 23.5581L71.7482 23.5582C72.3979 23.8181 72.1543 24.4515 72.1543 24.6951C71.3963 25.4801 69.6368 26.8066 68.9059 27.6187C68.175 28.4307 66.0365 31.1377 65.0891 32.5724Z" fill="white"/>
</svg>
