<svg width="247" height="110" viewBox="0 0 247 110" fill="none" xmlns="http://www.w3.org/2000/svg">
<path d="M0 7.42694L7.65983 0H246.272V102.298L238.612 109.725H0V7.42694Z" fill="#333638"/>
<rect x="7.65979" width="238.957" height="102.41" fill="#404649"/>
<rect x="18.6323" y="9.75391" width="217.012" height="82.9035" fill="#BF3C3D"/>
<rect x="18.6323" y="51.2056" width="217.012" height="41.4517" fill="#E64A4B"/>
<path d="M44.6784 72.2676V29.2988H59.4245V34.9873H51.2214V46.4131H58.8386V52.126H51.2214V72.2676H44.6784ZM66.6609 72.2676V29.2988H73.2038V72.2676H66.6609ZM82.2956 72.2676V29.2988H87.4226L96.529 55.0801L96.0652 43.3613V29.2988H101.949V72.2676H97.3103L87.9597 45.583L88.3259 56.8623V72.2676H82.2956ZM108.38 72.2676L114.508 29.2988H123.15L129.669 72.2676H123.565L122.54 64.6016H115.606L114.678 72.2676H108.38ZM116.241 59.3525H121.856L118.975 37.7705H118.878L116.241 59.3525ZM136.075 72.2676V29.2988H141.202L150.308 55.0801L149.844 43.3613V29.2988H155.728V72.2676H151.09L141.739 45.583L142.105 56.8623V72.2676H136.075ZM173.511 72.7559C171.428 72.7559 169.695 72.2757 168.311 71.3154C166.928 70.3551 165.886 68.9554 165.186 67.1162C164.503 65.2607 164.161 63.0228 164.161 60.4023V41.6768C164.161 39.7074 164.324 37.9333 164.649 36.3545C164.975 34.7757 165.504 33.4248 166.236 32.3018C166.968 31.1787 167.945 30.3161 169.166 29.7139C170.386 29.1117 171.892 28.8105 173.682 28.8105C175.31 28.8105 176.693 29.0791 177.833 29.6162C178.988 30.137 179.924 30.8939 180.64 31.8867C181.373 32.8796 181.902 34.084 182.227 35.5C182.569 36.8997 182.74 38.4785 182.74 40.2363V46.1445H176.417V40.6514C176.417 38.5355 176.238 36.9811 175.88 35.9883C175.522 34.9792 174.805 34.4746 173.731 34.4746C172.543 34.4746 171.745 35.0199 171.339 36.1104C170.948 37.1846 170.753 38.6901 170.753 40.627V60.6953C170.753 62.1927 170.834 63.4215 170.997 64.3818C171.176 65.3258 171.469 66.0257 171.876 66.4814C172.283 66.9209 172.852 67.1406 173.585 67.1406C174.691 67.1406 175.44 66.6198 175.831 65.5781C176.221 64.5365 176.417 62.8844 176.417 60.6221V54.4697H182.838V60.5488C182.838 63.2669 182.52 65.5374 181.885 67.3604C181.251 69.167 180.242 70.5179 178.858 71.4131C177.491 72.3083 175.709 72.7559 173.511 72.7559ZM190.88 72.2676V29.2988H205.284V34.9385H197.423V47.4385H204.893V52.9561H197.423V66.6279H205.577V72.2676H190.88Z" fill="#FEF8EB"/>
</svg>
