<svg width="111" height="127" viewBox="0 0 111 127" fill="none" xmlns="http://www.w3.org/2000/svg">
<rect x="18" y="107.896" width="16" height="19.1035" fill="#404649"/>
<rect x="18" y="107.896" width="8" height="19.1035" fill="#333638"/>
<path d="M0 7.5L4.20202 0H111V102.554L108.798 110H0V7.5Z" fill="#333638"/>
<rect x="5" width="106" height="102" fill="#404649"/>
<rect x="13" y="8" width="90" height="86" fill="#2D7034"/>
<rect x="13" y="52" width="90" height="42" fill="#397B41"/>
<path d="M71.7131 26.5732C74.4756 25.9484 77.7604 25.678 80.717 26.583C88.0278 28.8211 93.5887 35.1671 94.1057 45.3584V45.3594C94.2132 47.5246 93.4161 50.8645 91.0852 54.7119C90.8293 54.4943 90.5604 54.2917 90.2795 54.1055C91.1757 52.6128 91.8286 51.2123 92.2786 49.9453C92.244 50.0427 89.875 49.2616 89.8381 49.3604C89.1201 49.8097 87.8331 51.0405 86.2209 52.7266C86.0228 52.7127 85.823 52.7031 85.6213 52.7031H81.2131V48.4131C81.2131 43.7944 77.4686 40.0498 72.8499 40.0498C68.2315 40.0502 64.4875 43.7946 64.4875 48.4131V52.9727H59.9446C55.3566 52.9729 51.637 56.6923 51.637 61.2803C51.6371 65.8682 55.3567 69.5877 59.9446 69.5879H64.4875V73.9688C64.4876 75.4714 64.8865 76.88 65.5803 78.0986L60.4407 82.877C60.4258 83.0082 60.432 83.1053 60.4504 83.1738C60.4592 83.1992 60.4687 83.2238 60.4768 83.248L59.5383 83.5938C59.5344 83.584 59.5313 83.5733 59.5276 83.5635V83.5645C59.5185 83.5373 59.5085 83.5089 59.4983 83.4795C59.3992 83.1941 59.2516 82.8233 59.0618 82.4053C58.44 81.8264 53.8408 76.2525 51.2385 74.0918C46.8197 70.423 40.7532 65.5501 37.2004 63.1816C34.3347 61.2711 30.4772 58.0827 28.1174 53.6162C25.744 49.1236 24.9056 43.3692 28.0422 36.415C31.2041 29.4054 37.0019 26.8105 42.3792 26.3184C45.0613 26.0729 47.6461 26.3485 49.7659 26.8564C51.8672 27.36 53.5728 28.1069 54.4573 28.8506C54.6689 29.0286 54.8731 29.1942 55.0667 29.3535C55.3148 29.0393 61.0337 32.995 61.3127 32.6738C61.642 32.2947 61.9857 31.9144 62.3401 31.5479C63.4086 30.4427 64.5797 29.4164 65.6135 28.8037C66.6432 28.1935 68.9496 27.1984 71.7131 26.5732ZM49.5325 27.8291C47.506 27.3435 45.0312 27.0801 42.47 27.3145C40.0672 27.5344 37.5939 28.1897 35.3381 29.5098C37.1313 28.4609 40.1378 34.8562 42.0549 34.5137L29.093 36.5293C29.0467 36.6276 28.9986 36.726 28.9534 36.8262C25.9489 43.4872 26.7661 48.9172 29.0012 53.1484C31.2232 57.3543 34.8654 60.4073 37.6545 62.2812C40.3944 56.207 37.3356 35.3568 42.0549 34.5137C42.7591 35.1058 55.114 30.687 55.6223 31.0957C55.1206 30.6925 54.5337 30.2217 53.8137 29.6162C53.1048 29.0202 51.577 28.319 49.5325 27.8291ZM80.4241 27.5391C77.7027 26.706 74.6138 26.9426 71.9338 27.5488C70.9336 27.7751 69.9994 28.0507 69.1731 28.3359C68.5406 28.5543 68.2982 29.4453 67.804 29.6592L66.6155 29.3975C66.4255 29.494 66.2601 29.583 66.1233 29.6641C65.2014 30.2104 64.1023 31.1639 63.0588 32.2432C62.3854 32.9397 61.7462 33.677 61.2043 34.3711C61.543 34.1704 67.1924 29.9238 67.804 29.6592C68.9556 30.0117 80.9873 31.3153 82.0374 31.877C82.1004 33.1455 90.5947 47.3326 89.8381 49.3604L93.1116 45.9053C93.1122 45.8737 93.1152 45.8425 93.1155 45.8115L93.1077 45.4092C92.7663 38.6795 90.1576 33.7576 86.3264 30.6523C85.463 29.9525 83.0113 32.3979 82.0374 31.877L80.7424 27.6426C80.6364 27.608 80.5309 27.5718 80.4241 27.5391Z" fill="white"/>
<path d="M59.825 67.368H67.1291V73.6486C67.1291 76.9679 69.8199 79.6586 73.1391 79.6586C76.4584 79.6586 79.1491 76.9679 79.1491 73.6486V67.368H85.8038C89.0496 67.368 91.6808 64.7367 91.6808 61.4909C91.6808 58.2452 89.0496 55.6139 85.8038 55.6139H78.2824V47.937C78.2824 44.8571 75.7857 42.3604 72.7058 42.3604C69.6259 42.3604 67.1291 44.8571 67.1291 47.937V55.6139H59.825C56.5792 55.6139 53.948 58.2452 53.948 61.4909C53.948 64.7367 56.5792 67.368 59.825 67.368Z" fill="white"/>
</svg>
