<svg width="231" height="110" viewBox="0 0 231 110" fill="none" xmlns="http://www.w3.org/2000/svg">
<path d="M0 7.42694L7.65983 0H231V102.298L223.34 109.725H0V7.42694Z" fill="#333638"/>
<rect x="8" width="223" height="102" fill="#404649"/>
<rect x="19" y="10" width="201" height="83" fill="#2D7034"/>
<rect x="19" y="51" width="201" height="42" fill="#397B41"/>
<path d="M52.9884 72V29.0312H59.5313V46.4141H65.3907V29.0312H71.9337V72H65.3907V52.0293H59.5313V72H52.9884ZM80.879 72V29.0312H95.2833V34.6709H87.422V47.1709H94.8927V52.6885H87.422V66.3604H95.5763V72H80.879ZM100.371 72L106.499 29.0312H115.142L121.66 72H115.557L114.531 64.334H107.598L106.67 72H100.371ZM108.233 59.085H113.848L110.967 37.5029H110.869L108.233 59.085ZM128.067 72V29.0312H134.609V66.4336H142.886V72H128.067ZM150.44 72V34.6953H145.41V29.0312H161.792V34.6953H156.958V72H150.44ZM167.979 72V29.0312H174.522V46.4141H180.381V29.0312H186.924V72H180.381V52.0293H174.522V72H167.979Z" fill="#FEF8EB"/>
</svg>
