<svg width="458" height="110" viewBox="0 0 458 110" fill="none" xmlns="http://www.w3.org/2000/svg">
<path d="M2.19345e-05 7.42695L7.65985 0H457.66V102.298L450 109.725H2.19345e-05V7.42695Z" fill="#333638"/>
<rect x="7.65985" width="450" height="102" fill="#404649"/>
<rect x="17.6599" y="9" width="429" height="83" fill="#FF884D"/>
<rect x="17.6599" y="51" width="429" height="41" fill="#FFA172"/>
<path d="M45.8981 72V29.0312H52.4411V72H45.8981ZM61.0329 72V29.0312H66.1599L75.2663 54.8125L74.8024 43.0938V29.0312H80.6862V72H76.0475L66.697 45.3154L67.0632 56.5947V72H61.0329ZM91.402 72V34.6953H86.3727V29.0312H102.755V34.6953H97.9206V72H91.402ZM108.441 72V29.0312H122.845V34.6709H114.984V47.1709H122.455V52.6885H114.984V66.3604H123.138V72H108.441ZM129.972 72V29.0312H140.788C143.034 29.0312 144.71 29.4707 145.817 30.3496C146.924 31.2285 147.648 32.5143 147.99 34.207C148.348 35.8997 148.527 37.9668 148.527 40.4082C148.527 42.931 148.267 44.9167 147.746 46.3652C147.241 47.7975 146.2 48.7578 144.621 49.2461C145.369 49.3763 145.996 49.6855 146.501 50.1738C147.005 50.6458 147.412 51.3457 147.721 52.2734C148.031 53.1849 148.25 54.3649 148.381 55.8135C148.527 57.2458 148.6 59.0036 148.6 61.0869C148.6 61.2497 148.6 61.7054 148.6 62.4541C148.6 63.2028 148.6 64.0898 148.6 65.1152C148.617 66.1243 148.633 67.1335 148.649 68.1426C148.665 69.1517 148.69 70.0143 148.722 70.7305C148.755 71.4466 148.796 71.8698 148.844 72H142.301C142.253 71.9186 142.212 71.5036 142.179 70.7549C142.163 69.9899 142.139 69.0215 142.106 67.8496C142.09 66.6777 142.074 65.4163 142.057 64.0654C142.057 62.7145 142.057 61.388 142.057 60.0859C142.057 58.7676 142.057 57.6038 142.057 56.5947C142.057 55.3089 141.96 54.3405 141.764 53.6895C141.585 53.0221 141.244 52.5583 140.739 52.2979C140.251 52.0374 139.543 51.8828 138.615 51.834L136.515 51.7119V72H129.972ZM136.54 46.6338H139.152C139.95 46.6338 140.552 46.4548 140.959 46.0967C141.382 45.7386 141.667 45.0794 141.813 44.1191C141.976 43.1589 142.057 41.7754 142.057 39.9688V39.7002C142.057 38.1865 141.984 37.0228 141.838 36.209C141.691 35.3952 141.382 34.8337 140.91 34.5244C140.454 34.2152 139.738 34.0605 138.761 34.0605H136.54V46.6338ZM153.652 72L159.78 29.0312H168.423L174.941 72H168.838L167.812 64.334H160.879L159.951 72H153.652ZM161.513 59.085H167.129L164.248 37.5029H164.15L161.513 59.085ZM189.661 72.4883C187.577 72.4883 185.844 72.0081 184.461 71.0479C183.077 70.0876 182.036 68.6878 181.336 66.8486C180.652 64.9932 180.31 62.7552 180.31 60.1348V41.4092C180.31 39.4398 180.473 37.6657 180.799 36.0869C181.124 34.5081 181.653 33.1572 182.385 32.0342C183.118 30.9111 184.094 30.0485 185.315 29.4463C186.536 28.8441 188.041 28.543 189.832 28.543C191.459 28.543 192.843 28.8115 193.982 29.3486C195.138 29.8695 196.074 30.6263 196.79 31.6191C197.522 32.612 198.051 33.8164 198.377 35.2324C198.718 36.6322 198.889 38.2109 198.889 39.9688V45.877H192.566V40.3838C192.566 38.2679 192.387 36.7135 192.029 35.7207C191.671 34.7116 190.955 34.207 189.881 34.207C188.692 34.207 187.895 34.7523 187.488 35.8428C187.097 36.917 186.902 38.4225 186.902 40.3594V60.4277C186.902 61.9251 186.983 63.154 187.146 64.1143C187.325 65.0583 187.618 65.7581 188.025 66.2139C188.432 66.6533 189.002 66.873 189.734 66.873C190.841 66.873 191.59 66.3522 191.98 65.3105C192.371 64.2689 192.566 62.6169 192.566 60.3545V54.2021H198.987V60.2812C198.987 62.9993 198.67 65.2699 198.035 67.0928C197.4 68.8994 196.391 70.2503 195.008 71.1455C193.64 72.0407 191.858 72.4883 189.661 72.4883ZM208.775 72V34.6953H203.746V29.0312H220.128V34.6953H215.294V72H208.775ZM225.961 72V29.0312H232.504V72H225.961ZM245.466 72L238.8 29.0312H245.026L247.834 48.4404L249.567 62.1123H249.738L251.227 48.4404L253.571 29.0312H259.674L253.547 72H245.466ZM265.8 72V29.0312H280.205V34.6709H272.343V47.1709H279.814V52.6885H272.343V66.3604H280.498V72H265.8ZM298.316 72V29.0312H306.446L312.549 60.4277L318.287 29.0312H326.466V72H320.631V55.9844L320.875 41.2871L315.089 71.8047H309.888L303.858 41.2871L304.102 55.9844V72H298.316ZM334.935 72V29.0312H349.34V34.6709H341.478V47.1709H348.949V52.6885H341.478V66.3604H349.633V72H334.935ZM356.466 72V29.0312H366.11C368.291 29.0312 370.041 29.4707 371.359 30.3496C372.677 31.2122 373.63 32.4655 374.216 34.1094C374.818 35.7533 375.119 37.7389 375.119 40.0664L375.143 59.4512C375.143 62.2669 374.834 64.6107 374.216 66.4824C373.613 68.3379 372.637 69.7214 371.286 70.6328C369.935 71.5443 368.136 72 365.89 72H356.466ZM363.009 66.9219H365.158C365.923 66.9219 366.558 66.7673 367.062 66.458C367.583 66.1488 367.966 65.6035 368.21 64.8223C368.47 64.0247 368.6 62.9017 368.6 61.4531L368.576 40.2373C368.576 38.04 368.307 36.4613 367.77 35.501C367.233 34.5407 366.289 34.0605 364.938 34.0605H363.009V66.9219ZM383.222 72V29.0312H389.765V72H383.222ZM395.818 72L401.946 29.0312H410.589L417.107 72H411.004L409.978 64.334H403.045L402.117 72H395.818ZM403.679 59.085H409.295L406.414 37.5029H406.316L403.679 59.085Z" fill="#FEF8EB"/>
</svg>
