<svg width="111" height="110" viewBox="0 0 111 110" fill="none" xmlns="http://www.w3.org/2000/svg">
<path d="M0 7.5L4.20202 0H111V102.554L108.798 110H0V7.5Z" fill="#333638"/>
<rect x="5" width="106" height="102" fill="#404649"/>
<rect x="13" y="8" width="90" height="86" fill="#FF884D"/>
<rect x="13" y="52" width="90" height="42" fill="#FFA172"/>
<path d="M43.3607 21.8154L48.9486 31.708L49.5814 32.8271H30.1488L30.4359 31.8633C32.7265 24.1645 39.5025 21.7061 42.6439 21.4375L43.1244 21.3965L43.3607 21.8154Z" fill="white" stroke="white" stroke-width="1.5"/>
<path d="M62.4021 21.2837L62.6169 21.6655L68.281 31.7085L68.9109 32.8267H54.2039L53.988 32.4487L48.2488 22.4058L47.6082 21.2837H62.4021Z" fill="white" stroke="white" stroke-width="1.5"/>
<path d="M70.415 21.2549C71.5921 21.2455 72.9756 21.245 73.708 21.2842C75.2474 21.3666 78.9751 22.1968 82.085 24.8623C85.1817 27.5166 86.3642 30.6286 86.5674 31.9639L86.6982 32.8271H73.5352L73.3193 32.4492L67.5801 22.4053L66.9531 21.3076L68.2178 21.2842V21.2832H68.2637C68.2937 21.2827 68.3379 21.2812 68.3945 21.2803C68.5079 21.2783 68.6717 21.2764 68.8721 21.2734C69.2727 21.2675 69.8217 21.2596 70.415 21.2549Z" fill="white" stroke="white" stroke-width="1.5"/>
<mask id="path-8-outside-1_1514_30" maskUnits="userSpaceOnUse" x="28.0001" y="35.0889" width="61" height="45" fill="black">
<rect fill="white" x="28.0001" y="35.0889" width="61" height="45"/>
<path d="M87.0812 65.6348L87.0773 65.666C86.579 69.6769 82.8766 77.816 72.1173 78.5625L72.0997 78.5635H43.9913C43.2569 78.5634 42.0681 78.3484 40.7091 77.9062C39.3404 77.4609 37.764 76.7741 36.255 75.8037C33.2391 73.8642 30.44 70.7544 30.2023 66.1582C29.9748 61.761 29.9748 54.6106 30.0314 48.5713C30.0597 45.5493 30.1024 42.8012 30.1378 40.8086C30.1555 39.8123 30.1712 39.0038 30.1827 38.4453C30.1885 38.1666 30.1932 37.9499 30.1964 37.8027C30.198 37.7292 30.1995 37.6726 30.2003 37.6348C30.2007 37.6159 30.2011 37.6014 30.2013 37.5918V37.5771L30.213 37.0889H87.0812V65.6348ZM54.338 46.2812C52.8184 45.5053 51.6308 45.5346 50.7667 46.0332C49.9343 46.5136 49.5256 47.3612 49.3927 47.9814L49.382 48.0332V64.8496C49.382 65.6401 49.5399 66.2795 49.8282 66.7812C50.1189 67.2867 50.5263 67.6247 50.9728 67.834C51.8438 68.2419 52.8459 68.156 53.4913 67.9736L53.545 67.959L53.5939 67.9326C55.5974 66.849 58.7418 65.1176 61.6661 63.4453C64.5771 61.7807 67.3093 60.1526 68.4581 59.2832C69.0714 58.8191 69.4684 58.3168 69.672 57.7891C69.8771 57.2571 69.8704 56.736 69.7404 56.2666C69.4873 55.3542 68.7699 54.6339 68.2159 54.2461L68.2013 54.2354L68.1857 54.2256L64.9816 52.3311C61.2763 50.1525 56.481 47.3756 54.338 46.2812Z"/>
</mask>
<path d="M87.0812 65.6348L87.0773 65.666C86.579 69.6769 82.8766 77.816 72.1173 78.5625L72.0997 78.5635H43.9913C43.2569 78.5634 42.0681 78.3484 40.7091 77.9062C39.3404 77.4609 37.764 76.7741 36.255 75.8037C33.2391 73.8642 30.44 70.7544 30.2023 66.1582C29.9748 61.761 29.9748 54.6106 30.0314 48.5713C30.0597 45.5493 30.1024 42.8012 30.1378 40.8086C30.1555 39.8123 30.1712 39.0038 30.1827 38.4453C30.1885 38.1666 30.1932 37.9499 30.1964 37.8027C30.198 37.7292 30.1995 37.6726 30.2003 37.6348C30.2007 37.6159 30.2011 37.6014 30.2013 37.5918V37.5771L30.213 37.0889H87.0812V65.6348ZM54.338 46.2812C52.8184 45.5053 51.6308 45.5346 50.7667 46.0332C49.9343 46.5136 49.5256 47.3612 49.3927 47.9814L49.382 48.0332V64.8496C49.382 65.6401 49.5399 66.2795 49.8282 66.7812C50.1189 67.2867 50.5263 67.6247 50.9728 67.834C51.8438 68.2419 52.8459 68.156 53.4913 67.9736L53.545 67.959L53.5939 67.9326C55.5974 66.849 58.7418 65.1176 61.6661 63.4453C64.5771 61.7807 67.3093 60.1526 68.4581 59.2832C69.0714 58.8191 69.4684 58.3168 69.672 57.7891C69.8771 57.2571 69.8704 56.736 69.7404 56.2666C69.4873 55.3542 68.7699 54.6339 68.2159 54.2461L68.2013 54.2354L68.1857 54.2256L64.9816 52.3311C61.2763 50.1525 56.481 47.3756 54.338 46.2812Z" fill="white"/>
<path d="M87.0812 65.6348L88.5696 65.8208L88.5812 65.7282V65.6348H87.0812ZM87.0773 65.666L85.5889 65.48L85.5887 65.4811L87.0773 65.666ZM72.1173 78.5625L72.2005 80.0602L72.2108 80.0596L72.2211 80.0589L72.1173 78.5625ZM72.0997 78.5635V80.0635H72.1414L72.1829 80.0612L72.0997 78.5635ZM43.9913 78.5635L43.9912 80.0635H43.9913V78.5635ZM40.7091 77.9062L40.245 79.3326L40.245 79.3326L40.7091 77.9062ZM36.255 75.8037L35.4437 77.0653L35.4437 77.0654L36.255 75.8037ZM30.2023 66.1582L28.7043 66.2357L28.7043 66.2357L30.2023 66.1582ZM30.0314 48.5713L28.5314 48.5572V48.5572L30.0314 48.5713ZM30.1378 40.8086L28.6381 40.7819V40.7819L30.1378 40.8086ZM30.1827 38.4453L28.6831 38.4144V38.4144L30.1827 38.4453ZM30.1964 37.8027L28.6968 37.77V37.77L30.1964 37.8027ZM30.2003 37.6348L31.6999 37.6683L31.6999 37.6683L30.2003 37.6348ZM30.2013 37.5918L31.7009 37.6258L31.7013 37.6088V37.5918H30.2013ZM30.2013 37.5771L28.7017 37.5412L28.7013 37.5592V37.5771H30.2013ZM30.213 37.0889V35.5889H28.7486L28.7134 37.0529L30.213 37.0889ZM87.0812 37.0889H88.5812V35.5889H87.0812V37.0889ZM54.338 46.2812L55.0202 44.9454L55.0202 44.9453L54.338 46.2812ZM50.7667 46.0332L50.017 44.734L50.017 44.734L50.7667 46.0332ZM49.3927 47.9814L47.926 47.6671L47.924 47.6766L49.3927 47.9814ZM49.382 48.0332L47.9133 47.7284L47.882 47.8792V48.0332H49.382ZM49.382 64.8496H47.882V64.8497L49.382 64.8496ZM49.8282 66.7812L48.5277 67.5286L48.5279 67.5289L49.8282 66.7812ZM50.9728 67.834L50.3362 69.1922L50.3366 69.1924L50.9728 67.834ZM53.4913 67.9736L53.0966 66.5264L53.0835 66.5302L53.4913 67.9736ZM53.545 67.959L53.9397 69.4061L54.1061 69.3608L54.2578 69.2788L53.545 67.959ZM53.5939 67.9326L54.3066 69.2525L54.3075 69.252L53.5939 67.9326ZM61.6661 63.4453L62.4108 64.7474L62.4108 64.7474L61.6661 63.4453ZM68.4581 59.2832L69.3633 60.4793L69.3633 60.4793L68.4581 59.2832ZM69.672 57.7891L71.0715 58.329L71.0716 58.3287L69.672 57.7891ZM69.7404 56.2666L71.1859 55.8661L71.1858 55.8656L69.7404 56.2666ZM68.2159 54.2461L67.3289 55.4557L67.3422 55.4654L67.3556 55.4749L68.2159 54.2461ZM68.2013 54.2354L69.0883 53.0257L69.0435 52.9928L68.9963 52.9634L68.2013 54.2354ZM68.1857 54.2256L68.9807 52.9536L68.965 52.9438L68.9491 52.9344L68.1857 54.2256ZM64.9816 52.3311L65.745 51.0399L65.7418 51.038L64.9816 52.3311ZM87.0812 65.6348L85.5928 65.4487L85.5889 65.48L87.0773 65.666L88.5657 65.8521L88.5696 65.8208L87.0812 65.6348ZM87.0773 65.666L85.5887 65.4811C85.1497 69.0147 81.8445 76.384 72.0135 77.0661L72.1173 78.5625L72.2211 80.0589C83.9087 79.248 88.0083 70.339 88.5658 65.8509L87.0773 65.666ZM72.1173 78.5625L72.0341 77.0648L72.0165 77.0658L72.0997 78.5635L72.1829 80.0612L72.2005 80.0602L72.1173 78.5625ZM72.0997 78.5635V77.0635H43.9913V78.5635V80.0635H72.0997V78.5635ZM43.9913 78.5635L43.9915 77.0635C43.4781 77.0634 42.4579 76.8979 41.1732 76.4799L40.7091 77.9062L40.245 79.3326C41.6782 79.799 43.0356 80.0634 43.9912 80.0635L43.9913 78.5635ZM40.7091 77.9062L41.1732 76.4799C39.9073 76.0679 38.4511 75.4326 37.0663 74.5421L36.255 75.8037L35.4437 77.0654C37.0768 78.1156 38.7734 78.8538 40.245 79.3326L40.7091 77.9062ZM36.255 75.8037L37.0663 74.5421C34.2912 72.7574 31.9044 70.027 31.7003 66.0807L30.2023 66.1582L28.7043 66.2357C28.9757 71.4817 32.187 74.9711 35.4437 77.0653L36.255 75.8037ZM30.2023 66.1582L31.7003 66.0807C31.4756 61.7359 31.4746 54.6293 31.5313 48.5854L30.0314 48.5713L28.5314 48.5572C28.4749 54.5919 28.4741 61.7862 28.7043 66.2357L30.2023 66.1582ZM30.0314 48.5713L31.5313 48.5854C31.5596 45.5687 31.6022 42.825 31.6376 40.8352L30.1378 40.8086L28.6381 40.7819C28.6026 42.7774 28.5598 45.5299 28.5314 48.5572L30.0314 48.5713ZM30.1378 40.8086L31.6376 40.8352C31.6553 39.8402 31.6709 39.0332 31.6824 38.4762L30.1827 38.4453L28.6831 38.4144C28.6715 38.9745 28.6558 39.7844 28.6381 40.7819L30.1378 40.8086ZM30.1827 38.4453L31.6824 38.4762C31.6881 38.1985 31.6928 37.9824 31.6961 37.8354L30.1964 37.8027L28.6968 37.77C28.6936 37.9173 28.6888 38.1348 28.6831 38.4144L30.1827 38.4453ZM30.1964 37.8027L31.6961 37.8354C31.6978 37.7546 31.6988 37.7206 31.6999 37.6683L30.2003 37.6348L28.7007 37.6012C28.7002 37.6246 28.6982 37.7038 28.6968 37.77L30.1964 37.8027ZM30.2003 37.6348L31.6999 37.6683C31.7004 37.6494 31.7007 37.6368 31.7009 37.6258L30.2013 37.5918L28.7017 37.5578C28.7015 37.566 28.7011 37.5824 28.7007 37.6012L30.2003 37.6348ZM30.2013 37.5918H31.7013V37.5771H30.2013H28.7013V37.5918H30.2013ZM30.2013 37.5771L31.7009 37.6131L31.7126 37.1249L30.213 37.0889L28.7134 37.0529L28.7017 37.5412L30.2013 37.5771ZM30.213 37.0889V38.5889H87.0812V37.0889V35.5889H30.213V37.0889ZM87.0812 37.0889H85.5812V65.6348H87.0812H88.5812V37.0889H87.0812ZM54.338 46.2812L55.0202 44.9453C53.2024 44.0171 51.4531 43.9053 50.017 44.734L50.7667 46.0332L51.5164 47.3324C51.8086 47.1638 52.4344 46.9935 53.6559 47.6172L54.338 46.2812ZM50.7667 46.0332L50.017 44.734C48.7084 45.4892 48.1176 46.7729 47.926 47.6672L49.3927 47.9814L50.8594 48.2957C50.9336 47.9495 51.1602 47.538 51.5165 47.3324L50.7667 46.0332ZM49.3927 47.9814L47.924 47.6766L47.9133 47.7284L49.382 48.0332L50.8507 48.338L50.8614 48.2863L49.3927 47.9814ZM49.382 48.0332H47.882V64.8496H49.382H50.882V48.0332H49.382ZM49.382 64.8496L47.882 64.8497C47.882 65.8368 48.0795 66.7486 48.5277 67.5286L49.8282 66.7812L51.1288 66.0339C51.0003 65.8103 50.882 65.4434 50.882 64.8495L49.382 64.8496ZM49.8282 66.7812L48.5279 67.5289C48.9851 68.3243 49.6362 68.8641 50.3362 69.1922L50.9728 67.834L51.6094 66.4758C51.4164 66.3853 51.2526 66.2491 51.1286 66.0336L49.8282 66.7812ZM50.9728 67.834L50.3366 69.1924C51.6503 69.8077 53.0545 69.6558 53.8992 69.4171L53.4913 67.9736L53.0835 66.5302C52.6374 66.6562 52.0372 66.6762 51.609 66.4756L50.9728 67.834ZM53.4913 67.9736L53.886 69.4208L53.9397 69.4061L53.545 67.959L53.1504 66.5118L53.0967 66.5265L53.4913 67.9736ZM53.545 67.959L54.2578 69.2788L54.3066 69.2525L53.5939 67.9326L52.8811 66.6128L52.8323 66.6391L53.545 67.959ZM53.5939 67.9326L54.3075 69.252C56.3188 68.1641 59.4738 66.427 62.4108 64.7474L61.6661 63.4453L60.9215 62.1432C58.0097 63.8083 54.876 65.5338 52.8802 66.6132L53.5939 67.9326ZM61.6661 63.4453L62.4108 64.7474C65.2935 63.0989 68.1209 61.4195 69.3633 60.4793L68.4581 59.2832L67.553 58.0871C66.4977 58.8857 63.8607 60.4624 60.9215 62.1432L61.6661 63.4453ZM68.4581 59.2832L69.3633 60.4793C70.1406 59.891 70.7439 59.178 71.0715 58.329L69.672 57.7891L68.2725 57.2492C68.1929 57.4555 68.0021 57.7472 67.5529 58.0871L68.4581 59.2832ZM69.672 57.7891L71.0716 58.3287C71.4063 57.4606 71.3911 56.6067 71.1859 55.8661L69.7404 56.2666L68.2948 56.6671C68.3497 56.8654 68.348 57.0535 68.2724 57.2494L69.672 57.7891ZM69.7404 56.2666L71.1858 55.8656C70.8036 54.4881 69.7811 53.5109 69.0763 53.0173L68.2159 54.2461L67.3556 55.4749C67.5326 55.5987 67.7458 55.7843 67.9299 56.0093C68.1147 56.2353 68.2376 56.461 68.2949 56.6676L69.7404 56.2666ZM68.2159 54.2461L69.103 53.0365L69.0883 53.0257L68.2013 54.2354L67.3142 55.445L67.3289 55.4557L68.2159 54.2461ZM68.2013 54.2354L68.9963 52.9634L68.9807 52.9536L68.1857 54.2256L67.3907 55.4976L67.4063 55.5073L68.2013 54.2354ZM68.1857 54.2256L68.9491 52.9344L65.745 51.0399L64.9816 52.3311L64.2181 53.6222L67.4222 55.5168L68.1857 54.2256ZM64.9816 52.3311L65.7418 51.038C62.0501 48.8674 57.2117 46.0644 55.0202 44.9454L54.338 46.2812L53.6558 47.6171C55.7504 48.6867 60.5024 51.4375 64.2213 53.6241L64.9816 52.3311Z" fill="white" mask="url(#path-8-outside-1_1514_30)"/>
</svg>
