<svg width="606" height="801" viewBox="0 0 606 801" fill="none" xmlns="http://www.w3.org/2000/svg">
<path d="M157.317 787.058C145.151 746.304 103 577 103 577C103 577 149.13 591.534 179.593 591.534C210.056 591.534 280.12 594.283 312.759 590.355C345.398 586.427 385 577 385 577C385 577 345.894 754.762 333.293 787.058C330.683 793.748 312.871 799.262 297.663 800.13C277.241 801.296 229.011 801.284 199.899 800.13C170.787 798.977 158.729 791.79 157.317 787.058Z" fill="url(#paint0_linear_3001_3)"/>
<path d="M385 576C385 585.389 321.872 597 244 597C166.128 597 103 585.389 103 576C103 566.611 166.128 559 244 559C321.872 559 385 566.611 385 576Z" fill="#874721"/>
<path d="M367 576.5C367 582.299 312.826 587 246 587C179.174 587 125 582.299 125 576.5C125 570.701 179.174 566 246 566C312.826 566 367 570.701 367 576.5Z" fill="#552F1A"/>
<path d="M100.49 172.191H145.492L171.27 162.778L193.553 154.149L180.009 181.605L173.455 180.428L204.476 193.372L202.728 202.786L168.212 191.411L165.59 207.493L159.474 216.514L165.59 247.108L129.764 284.371L121.025 333.008L110.976 369.486L62.0418 414.201L39.3223 381.645V369.486L8.73828 323.594L0 263.975L8.73828 229.85L25.7779 216.514L42.8176 183.566H69.9063L100.49 172.191Z" fill="#232524"/>
<path d="M246.857 167.485L256.469 172.191L273.945 169.838L301.471 173.368L333.802 185.135L350.405 203.178L353.027 229.066V276.918L342.541 313.788L322.443 358.111L297.102 389.49L254.721 415.378L225.885 361.249L201.854 293.784L196.611 236.518L201.854 203.178L204.913 185.135L220.642 167.485L241.177 164.347L246.857 167.485Z" fill="#232524"/>
<path d="M340.793 178.467L329.87 183.958L337.298 187.881L360.017 178.467L380.989 187.881L413.321 204.355L436.477 210.631L502.888 213.768L526.045 240.048L534.783 255.738L561.435 296.922L603.379 316.534L606 260.837V240.048L567.552 197.687V183.958L548.327 157.286L531.725 149.442L480.606 129.438L436.914 123.554L373.125 138.459L352.59 157.286V175.329H347.784L340.793 170.23V178.467Z" fill="#232524"/>
<path d="M159.474 13.336L163.843 3.92236L227.195 0L256.469 13.336L277.877 32.1633L285.742 68.6412V111.395L281.81 148.657L268.265 173.368H256.469L240.74 164.347V138.067L227.195 128.261V111.395L208.408 84.7229L187.436 37.2624L174.766 9.02142L159.474 13.336Z" fill="#232524"/>
<path d="M214.088 22.7497L194.427 6.66801L234.186 9.41365L238.992 16.4739H246.857V27.4565H257.342L261.712 36.0857H268.265L257.342 62.7577H268.265L263.896 75.7015V83.9384L275.693 79.2316V90.2142L266.081 98.4511L275.693 100.805L261.712 109.041H270.887L275.693 116.886L261.712 129.438H275.693L263.896 147.481H268.702L263.896 155.718L261.712 169.446L254.284 173.76V169.446C254.867 164.085 254.983 153.364 250.789 153.364C246.594 153.364 249.041 149.442 250.789 147.481V124.339L242.05 119.632L238.992 107.08L231.128 94.921L242.05 100.805V90.2142H231.128L220.205 71.7791L242.05 79.2316V75.7015L228.069 69.0335L214.088 57.6586L238.992 65.1111L220.205 46.676L202.728 48.6372L218.02 36.0857L198.359 22.7497H214.088Z" fill="#7E7E4A"/>
<path d="M256.906 126.3V94.921L251.226 67.0723L243.798 38.8313L235.06 24.7108L224.574 11.3748L241.177 40.7925L253.847 94.921V105.904L255.158 121.201L256.906 126.3Z" fill="#262602"/>
<path d="M316.763 139.636L281.373 170.23L291.422 173.76L308.461 155.718L336.861 139.636L342.541 144.735L359.58 131.007L390.164 135.321L439.099 124.339L501.141 135.321L547.453 155.718L563.182 163.954L578.037 184.743L582.407 202.786L601.194 232.988V212.592L588.523 170.23L563.182 124.339L527.792 99.6278L505.51 74.1325L459.197 60.4043L402.835 54.913L354.774 78.8394L336.861 106.688V131.007L316.763 139.636Z" fill="#232524"/>
<path d="M364.386 90.9987L349.968 114.141V123.946L383.611 101.197L411.136 94.5288L450.022 93.3521L482.353 98.8434L513.811 112.179L531.725 123.946L534.783 128.653L526.045 122.378L505.947 111.787L477.984 101.197L445.652 98.0589L411.136 101.197L389.727 105.511L377.494 111.787L356.085 123.946L380.989 131.399L407.641 123.946L428.613 120.416L450.022 116.886H465.751L482.353 123.946L479.295 114.141L513.811 131.399L509.005 123.946L534.783 141.205V136.498L546.143 148.657L557.939 150.618L578.037 165.523L567.552 153.364L557.939 136.498H543.958V123.946L527.355 116.886V108.649L513.811 103.55L520.802 96.49L501.578 90.9987H487.596V85.5074C484.538 85.6381 476.761 85.8212 470.12 85.5074C463.479 85.1936 467.353 78.8394 470.12 75.7015H457.886L443.031 71.7791H428.613V64.7189L402.835 80.0161L399.34 71.7791L380.989 90.9987V80.0161L368.319 96.49L364.386 90.9987Z" fill="#7E7E4A"/>
<path d="M393.66 141.205L368.756 166.7L375.746 169.838L386.232 172.584L393.66 169.838L400.65 175.329L412.01 178.467V169.838L418.127 172.584L412.01 182.39L436.04 187.096L430.361 175.329L444.779 187.096L460.071 195.726V187.096L467.935 182.39L476.673 195.726H488.907L484.101 184.743L495.024 192.98L511.627 212.984L509.005 195.726L519.928 212.984L531.288 227.104L537.404 219.26L553.57 256.914V232.596L558.813 274.957L563.619 251.031L572.794 284.371V260.052L586.339 284.371L582.844 264.367L596.388 267.112L563.619 227.104L591.145 239.656L566.241 200.432L553.57 195.726L558.813 184.743L544.395 163.562H514.685L524.734 160.032L498.519 157.679L524.734 151.011L503.325 146.696L460.071 157.679L476.673 141.205L454.828 143.95L450.459 134.537L436.04 143.95V131.791L405.456 151.011L412.01 136.89L383.174 157.679L393.66 141.205Z" fill="#7E7E4A"/>
<path d="M428.176 159.248L387.106 161.601L377.931 164.739L411.136 163.562H430.361L466.624 170.23L489.781 176.114L514.248 184.351L518.617 189.842L538.278 212.984L552.696 226.32L562.309 236.518L574.979 251.423L561.872 232.988L541.337 211.415L520.802 185.92L543.521 198.471L562.309 209.846L574.979 222.79L564.493 208.669L531.725 188.665L509.442 178.467L493.276 172.584L469.683 167.092L447.4 163.562L428.176 159.248Z" fill="#232524"/>
<path d="M241.614 173.368H252.536L259.964 179.644L264.333 196.902L268.265 223.182L268.702 278.487L264.333 309.866L268.265 338.499L274.382 280.448L276.567 241.617L274.382 194.941L268.265 175.329H279.188L290.548 181.997L301.471 184.743V194.941L322.006 198.863L327.686 209.846L312.831 203.57L303.218 206.708L319.384 211.807L335.55 223.182V236.518L322.006 221.221L303.218 217.691L307.588 227.104L327.686 234.557L335.55 247.501V259.66L319.384 241.617L303.218 234.557L332.929 263.582V280.448L312.831 272.604L322.006 286.332V299.668L307.588 280.448L312.831 304.375L319.384 316.926L316.763 323.987L287.49 292.608L303.218 319.28L299.286 323.987L307.588 330.262V338.499L303.218 336.538V343.991L295.791 332.616L279.188 319.28L295.791 342.029V351.443L285.305 348.697L295.791 356.934V364.387H287.49L290.548 372.624H279.188V361.249L268.265 348.697L264.333 385.175H255.595L259.964 364.387H252.536V356.934H239.429L248.167 343.991L252.536 332.616L244.235 336.538L231.128 342.029L244.235 319.28H235.06L255.595 290.647L231.128 309.866L228.506 307.12L244.235 290.647L231.128 292.608L248.167 276.918L238.992 275.349L231.128 286.332L225.885 276.918V268.289L241.614 254.561L239.429 247.501L225.885 254.561L217.146 259.66L221.516 247.501L235.06 231.811L217.146 241.617L225.885 227.104L235.06 217.691L219.331 221.221V213.768L235.06 206.708L231.128 198.863H219.331L225.885 194.157L219.331 187.096H231.128V179.644H241.614V173.368Z" fill="#7E7E4A"/>
<path d="M93.0627 182.39L134.133 178.075H162.532L140.249 182.39L149.862 193.372L131.074 187.489L143.308 212.984L120.151 204.355L137.191 224.751L134.133 242.009L131.074 231.811L117.967 220.829L104.422 212.984L120.151 242.009L131.074 253.384V271.427L125.831 257.307L93.0627 227.497L109.229 250.246L93.0627 244.755L112.287 263.975L117.967 280.056V293.392L115.345 288.685L112.287 280.056L93.0627 257.307L99.6164 280.056L104.422 298.099L109.229 331.439L104.422 313.396L87.8198 293.392L99.6164 315.357V340.461L93.0627 313.396L69.9063 294.961L85.6352 315.357V325.163L93.0627 345.952V356.934L69.9063 319.28L79.5184 356.934L76.0231 372.624L67.7217 340.461L63.7895 362.426V378.115L55.4881 368.701L63.7895 315.357L50.2451 345.952V315.357L36.7008 322.418L51.9928 294.961L26.6518 313.396L51.9928 280.056L41.5069 287.116L67.7217 250.246L51.9928 266.72L22.7195 287.116V280.056C29.8558 272.996 49.2839 252.051 69.9063 224.751L36.7008 248.285L22.7195 263.975V248.285L36.7008 242.009L63.7895 218.083L32.3316 224.751L55.4881 204.355L63.7895 193.372L76.0231 187.489L93.0627 182.39Z" fill="#7E7E4A"/>
<path d="M87.3828 206.708L122.773 181.997L100.49 201.609L90.4412 218.867L80.3922 250.246L62.0418 296.922L72.9647 256.13L87.3828 206.708Z" fill="#232524"/>
<path d="M252.1 440.873V395.766L221.079 345.167L225.885 430L221.516 495L217.146 535.402L221.079 552.268V586.758L236.5 587H252L246.857 545.992V526.38L252.1 501.669L246.857 474.213L252.1 440.873Z" fill="#232524"/>
<defs>
<linearGradient id="paint0_linear_3001_3" x1="361.5" y1="680" x2="101.785" y2="724.174" gradientUnits="userSpaceOnUse">
<stop stop-color="#93522C"/>
<stop offset="0.9706" stop-color="#2D190E"/>
</linearGradient>
</defs>
</svg>
