<svg width="391" height="625" viewBox="0 0 391 625" fill="none" xmlns="http://www.w3.org/2000/svg">
<path d="M391 0.899369C260.585 -1.12428 8.48309 0.899486 0 0.899486V625H391V0.899369Z" fill="#1E1E1E"/>
<path d="M32.513 85.2046L17.2795 103.827L13.261 607.641L375.328 611.678V277.417L369.276 267.059C366.086 261.599 363.473 255.819 361.48 249.812L360.883 248.011C358.207 239.947 356.843 231.502 356.843 223.002C356.843 212.292 354.677 201.694 350.478 191.85L332.459 149.612C326.23 135.011 318.431 121.138 309.203 108.238L300.178 95.624C284.887 74.2527 264.5 57.0801 240.887 45.6811C223.765 37.416 205.289 32.3518 186.361 30.7362L177.422 29.9732C161.54 28.6175 145.552 29.254 129.827 31.868L122.364 33.1085C106.005 35.8279 90.2194 41.2999 75.6718 49.2941C59.1328 58.3827 44.482 70.5729 32.513 85.2046Z" fill="#9A7E72"/>
<path d="M263.483 452.847C274.753 455.022 297.22 455.669 297.22 455.669L269.507 474.616L228.541 507.672L208.861 529.843C208.861 529.843 200.025 549.999 197.213 549.596C194.402 549.193 182.755 547.984 182.755 547.984C182.755 547.984 159.594 531.993 151.026 524.2C142.458 516.406 140.828 510.818 137.37 500.819C135.111 494.285 133.931 490.398 133.756 483.484C133.519 474.13 134.815 468.476 138.977 460.103C143.344 451.317 147.383 446.72 155.444 441.156C165.669 434.099 173.632 433.647 185.968 432.288C198.942 430.858 206.517 432.076 219.303 434.706C237.565 438.463 245.177 449.314 263.483 452.847Z" fill="#652313"/>
<path d="M200.427 570.962L196.411 569.349C196.411 569.349 193.931 555.709 196.411 547.58C198.704 540.065 202.816 537.125 207.255 530.649C213.034 522.219 216.067 517.264 222.919 509.687C229.11 502.841 233.15 499.526 240.189 493.562C249.01 486.088 254.486 482.551 263.885 475.825C274.83 467.992 281.208 463.946 292.401 456.475C301.928 450.116 309.944 446.417 320.113 441.156C332.287 434.859 336.973 432.979 349.834 428.256C362.696 423.533 375.328 423.555 375.328 423.555V433.244C375.328 433.244 361.101 434.092 352.646 436.319C337.842 440.217 330.571 445.538 316.9 452.444C292.32 464.861 278.763 472.681 256.656 489.128C246.442 496.726 240.182 500.506 231.353 509.687C224.14 517.188 220.588 521.936 214.886 530.649C209.491 538.893 205.612 543.36 202.837 552.821C200.826 559.677 200.427 570.962 200.427 570.962Z" fill="#1A1A18"/>
<path d="M272.721 502.027C267.563 507.766 263.082 516.943 263.082 516.943L267.098 518.555C267.098 518.555 270.1 512.839 272.721 509.687C275.567 506.264 277.703 504.833 281.155 502.027C284.032 499.689 288.786 496.384 288.786 496.384C288.786 496.384 286.604 499.71 285.573 502.027C284.238 505.029 283.163 510.09 283.163 510.09H288.786C288.786 510.09 290.039 506.168 290.794 503.64C291.963 499.725 293.442 497.826 295.614 494.368C298.492 489.786 300.399 488.561 304.851 485.499C310.558 481.576 313.469 478.816 319.712 475.825C324.815 473.379 327.914 472.489 333.367 470.987C337.698 469.794 340.162 469.172 344.613 468.568C352.385 467.514 364.694 468.568 364.694 468.568L366.301 464.537L351.842 462.521C351.842 462.521 357.168 460.425 360.678 459.7C364.211 458.969 369.514 458.893 369.514 458.893V456.072C369.514 456.072 363.871 455.77 360.277 456.072C352.504 456.724 348.407 458.865 340.998 461.312C331.508 464.446 326.237 466.501 317.302 470.987C307.607 475.855 302.487 479.26 293.606 485.499C285.573 491.143 279.172 494.85 272.721 502.027Z" fill="#1A1A18"/>
<path d="M300.433 433.497C294.026 435.035 283.565 433.497 283.565 433.497V438.737C283.565 438.737 292.705 439.72 298.425 438.737C302.29 438.073 304.432 437.399 308.064 435.916C312.749 434.002 315.317 432.583 319.31 429.466C322.812 426.732 325.072 425.228 327.343 421.403C328.566 419.343 329.753 415.76 329.753 415.76L327.343 412.535C327.343 412.535 323.552 418.262 320.515 421.403C317.802 424.209 316.135 425.698 312.884 427.853C308.432 430.804 305.622 432.252 300.433 433.497Z" fill="#1A1A18"/>
<path d="M254.648 437.125C255.088 435.614 255.756 434.779 257.057 433.9C259.269 432.405 261.313 433.195 263.885 433.9C266.325 434.569 268.429 434.829 269.508 437.125C270.311 438.833 270.261 440.231 269.508 441.962C268.464 444.364 266.464 445.181 263.885 445.591C261.14 446.027 259.076 445.493 257.057 443.575C255.111 441.725 253.895 439.707 254.648 437.125Z" fill="#1A1A18"/>
<path d="M246.614 264.992C242.177 256.588 241.393 241.208 241.393 241.208C241.393 241.208 237.484 258.426 241.393 268.217C244.464 275.908 249.081 278.626 254.647 284.745C259.957 290.582 263.537 293.265 269.106 298.854C274.674 304.443 278.247 307.191 283.163 313.366C289.796 321.698 291.816 327.565 297.22 336.748C301.831 344.582 306.156 348.221 308.867 356.904C310.811 363.128 311.99 366.948 311.277 373.432C310.868 377.151 310.992 379.629 308.867 382.703C305.414 387.7 300.368 387.25 294.409 388.347C288.701 389.398 285.003 390.335 279.548 388.347C274.712 386.585 274.001 381.873 269.106 380.285C264.629 378.832 260.585 377.16 257.057 380.285C251.724 385.008 273.054 388.054 269.106 393.991C266.842 397.395 263.49 397.355 259.467 398.022C254.476 398.85 251.521 397.645 246.614 396.41C241.896 395.222 238.663 395.151 234.967 391.975C230.273 387.942 229.729 383.549 228.541 377.463C227.515 372.21 227.614 369.028 228.541 363.757C229.377 359.001 232.557 352.066 232.557 352.066C232.557 352.066 223.164 352.483 221.312 356.904C220.278 359.371 221.312 361.08 221.312 363.757C221.312 369.109 220.382 372.192 221.312 377.463C222.09 381.875 222.87 384.37 224.926 388.347C227.747 393.804 230 396.844 234.967 400.441C239.01 403.368 241.758 404.556 246.614 405.681C252.269 406.992 255.762 406.707 261.475 405.681C267.239 404.646 269.767 401.476 275.532 400.441C281.245 399.415 284.628 401.114 290.392 400.441C296.816 399.691 300.84 399.626 306.458 396.41C311.564 393.485 314.201 390.942 317.302 385.928C319.191 382.872 320.916 377.463 320.916 377.463C320.916 377.463 328.764 376.638 332.162 373.432C336.959 368.905 336.024 363.507 335.777 356.904C335.461 348.489 333.893 342.882 328.146 336.748C322.472 330.692 308.867 327.879 308.867 327.879L314.892 330.701C314.892 330.701 321.82 336.321 324.531 341.182C326.711 345.092 328.146 352.066 328.146 352.066C328.146 352.066 330.277 359.724 328.146 363.757C326.423 367.015 320.916 369.804 320.916 369.804C320.916 369.804 321.464 363.867 320.916 360.129C319.711 351.909 315.518 348.317 311.277 341.182C304.334 329.501 298.992 323.879 290.392 313.366C279.753 300.362 272.728 293.993 261.475 281.52C255.661 275.075 250.671 272.674 246.614 264.992Z" fill="#1A1A18"/>
<path d="M28.549 551.677C22.2207 541.367 13.6863 523.055 13.6863 523.055L13.261 564.445L12.4573 608.111L83.5848 608.852C83.5848 608.852 68.1672 598.583 60.2779 591.586C52.9469 585.085 49.9233 580.306 43.811 572.64C37.4993 564.723 33.8475 560.31 28.549 551.677Z" fill="#232220"/>
<path d="M274.327 593.133C263.543 601.951 243.924 610.467 243.924 610.467L375.73 612.485L375.328 510.09C375.328 510.09 363.501 511.495 357.063 510.09C349.318 508.4 345.352 505.564 338.99 500.818C331.233 495.032 322.523 482.275 322.523 482.275C322.523 482.275 323.784 498.079 322.523 508.075C321.157 518.91 319.272 524.918 315.294 535.084C310.571 547.153 306.541 553.419 299.229 564.109L299.002 564.44C290.704 576.57 285.778 583.771 274.327 593.133Z" fill="#232220"/>
<path d="M189.583 373.111C180.802 393.312 187.972 432.166 187.972 432.166C187.972 432.166 194.52 431.781 198.816 431.813C203.741 431.848 211.668 433.299 211.668 433.299C211.668 433.299 204.582 401.786 208.46 382.786C210.182 374.348 210.089 369.771 214.886 362.63C218.234 357.645 220.353 357.215 225.73 354.567C233.052 350.962 247.82 352.148 247.82 352.148L274.327 356.18C274.327 356.18 258.723 344.696 247.016 342.07C236.914 339.804 230.415 339.056 220.509 342.07C212.091 344.632 207.618 347.692 201.23 353.761C194.407 360.245 193.341 364.466 189.583 373.111Z" fill="#232220"/>
<path d="M61.4626 559.674C70.0927 582.291 100.061 608.852 100.061 608.852L151.9 609.256C151.9 609.256 130.405 595.48 121.306 583.055C112.059 570.429 103.758 561.47 106.044 545.968C107.399 536.775 110.444 531.645 116.486 524.603C124.599 515.148 140.417 509.284 140.417 509.284C140.417 509.284 135.626 495.966 134.555 486.306C133.393 475.832 138.977 460.103 138.977 460.103C138.977 460.103 125.962 454.824 116.486 454.863C103.292 454.917 95.6976 458.578 84.3556 465.344C73.9525 471.549 67.5631 475.816 61.4626 486.306C55.1506 497.16 55.2927 505.199 54.6349 517.75C53.7665 534.317 55.5509 544.182 61.4626 559.674Z" fill="#232220"/>
<path d="M122.913 123.496C115.397 125.107 101.626 120.271 103.233 123.496C104.839 126.721 104.179 129.253 106.446 131.962C109.705 135.857 113.737 135.047 118.495 136.799C124.688 139.08 127.992 141.42 134.56 142.04C137.371 142.305 139.402 143.552 141.789 142.04C146.152 139.276 140.151 133.905 137.371 129.543C135.04 125.884 134.031 122.044 129.74 121.48C126.985 121.118 125.631 122.913 122.913 123.496Z" fill="#652313"/>
<path d="M57.4465 121.48C53.3916 125.536 51.7619 131.28 55.0367 135.993C58.4001 140.833 64.3573 136.435 69.8971 138.411C75.7269 140.491 78.1604 143.429 83.5525 146.474C99.3864 155.415 108.212 160.902 125.322 167.033C133.642 170.014 138.771 170.285 147.01 173.483C153.621 176.049 157.338 177.588 163.477 181.142C169.621 184.699 178.338 191.623 178.338 191.623C178.338 191.623 173.887 176.78 167.092 170.258C160.755 164.176 154.811 164.198 147.01 160.18C135.149 154.071 128.535 150.567 116.888 144.055C105.96 137.945 100.313 133.648 89.1754 127.93C80.8659 123.664 76.7624 116.807 67.4873 117.852C63.3458 118.319 60.3986 118.528 57.4465 121.48Z" fill="#232220"/>
<path d="M103.062 303.815C101.637 308.151 103.062 315.506 103.062 315.506H126.759L142.021 305.831C142.021 305.831 141.969 302.754 141.217 300.993C140.339 298.937 139.198 298.122 137.603 296.559C134.675 293.692 132.679 292.113 128.767 290.915C123.347 289.256 119.529 289.914 114.308 292.125C111.382 293.364 109.707 294.286 107.48 296.559C105.16 298.926 104.099 300.661 103.062 303.815Z" fill="#1A1A18"/>
<path d="M116.843 307.32C115.094 309.436 113.48 312.063 115.236 314.173C115.739 314.777 116.143 315.026 116.843 315.382C118.662 316.307 120.028 315.492 122.064 315.382C125.386 315.202 128.502 316.844 130.498 314.173C131.391 312.978 131.758 312.037 131.703 310.545C131.654 309.2 131.268 308.421 130.498 307.32C128.842 304.95 126.554 304.498 123.671 304.498C120.787 304.498 118.684 305.092 116.843 307.32Z" fill="#9A7E72"/>
<path d="M46.6022 299.257C45.5991 297.309 44.594 294.017 44.594 294.017C43.9991 286.379 56.2876 291.647 63.8723 290.792C79.7707 288.999 89.2244 294.289 104.839 290.792C115.159 288.48 119.807 283.363 130.142 281.117C144.705 277.952 153.673 278.248 168.297 281.117C174.534 282.34 178.518 282.256 183.96 285.551C188.898 288.541 189.543 292.916 194.403 296.032C196.767 297.548 200.829 299.257 200.829 299.257C200.829 299.257 195.144 290.305 190.386 285.551C184.649 279.819 180.711 277.186 173.518 273.457C160.805 266.868 151.943 267.381 137.773 265.395C122.84 263.302 114.261 264.372 99.2159 263.379C83.515 262.343 74.5479 262.901 59.0528 260.154C47.5896 258.123 40.0515 259.018 30.1353 252.898C23.9876 249.104 15.6722 240.277 15.6722 240.277L15.2704 306.483C15.2704 306.483 24.7568 310.709 30.1353 312.963C36.5052 315.633 39.7367 320.135 46.6022 319.413C52.0441 318.841 55.3497 316.746 60.6801 315.506C65.5696 314.368 71.905 312.963 71.905 312.963C71.905 312.963 51.758 309.269 46.6022 299.257Z" fill="#232220"/>
<path d="M47.0038 138.008C34.7306 126.629 17.2795 103.827 17.2795 103.827L16.0741 208.958C16.0741 208.958 45.7094 207.887 63.8723 208.958C83.274 210.102 94.139 211.585 113.273 215.005C125.115 217.121 132.234 216.955 143.395 221.455C154.704 226.013 161.357 229.262 169.903 237.983C179.262 247.532 181.066 255.704 186.772 267.814C191.254 277.328 192.34 283.288 196.812 292.807C198.607 296.628 201.632 302.482 201.632 302.482C201.632 302.482 188.991 307.315 180.747 310.142C167.561 314.662 159.901 316.021 146.207 318.607C133.384 321.029 124.857 318.224 113.273 324.251C107.007 327.511 104.068 330.405 98.8143 335.135C85.7576 346.891 84.6022 358.88 72.7083 371.819L72.623 371.912C62.4996 382.925 56.5605 389.386 43.7908 397.216C32.8765 403.908 13.6684 410.116 13.6684 410.116V436.722C13.6684 436.722 27.1404 438.787 35.3565 436.722C43.2507 434.738 46.6378 430.866 53.8316 427.047C68.3494 419.34 77.9036 417.121 90.7817 406.891C105.616 395.107 109.542 383.997 122.109 369.804C134.347 355.982 139.409 346.105 154.239 335.135C169.092 324.148 178.908 319.047 196.812 314.576C210.262 311.217 232.156 311.351 232.156 311.351C232.156 311.351 221.066 307.434 215.689 302.482C209.723 296.988 207.726 292.34 204.845 284.745C201.079 274.817 203.642 268.165 201.632 257.736C198.992 244.041 198.128 235.779 191.591 223.47C185.299 211.623 180.412 205.169 169.903 196.864C156.584 186.339 145.662 186.176 129.74 180.336C116.556 175.501 108.455 174.711 95.6013 169.049C75.0023 159.975 63.5279 153.329 47.0038 138.008Z" fill="#2F3032"/>
<path d="M45.397 319.01C38.489 322.934 29.3317 331.507 29.3317 331.507C29.3317 331.507 21.7192 342.918 24.1105 350.05C25.2622 353.485 26.6321 355.303 29.3317 357.71C33.3394 361.283 36.8409 362.115 42.184 362.547C49.013 363.1 52.9514 360.838 59.0525 357.71C68.141 353.049 69.9392 345.943 77.9292 339.569C84.7405 334.136 87.8954 328.895 96.4042 327.072C101.159 326.054 104.506 329.255 108.855 327.072C113.675 324.654 112.857 324.022 117.289 322.451C126.37 319.232 134.676 320.451 144.198 319.01C153.507 317.601 162.022 317.977 171.108 315.506C178.96 313.37 178.254 312.128 185.968 309.536C192.224 307.434 203.64 302.482 203.64 302.482C203.64 302.482 201.164 298.911 198.82 297.644C194.954 295.555 191.966 297.644 187.575 297.644C179.889 297.644 175.54 296.854 167.895 297.644C159.264 298.537 154.239 299.19 146.207 302.482C139.109 305.391 136.584 310.047 129.338 312.56C120.56 315.605 114.898 313.818 105.642 314.576C82.1295 316.499 65.9279 307.349 45.397 319.01Z" fill="#652313"/>
<path d="M109.658 71.8963C93.8147 64.3968 83.5494 63.7467 66.6838 58.9964C48.1134 53.7659 18.8896 46.4996 18.8896 46.4996V69.0744C18.8896 69.0744 31.9815 70.1123 40.1761 71.8963C59.7399 76.1553 69.0157 83.9815 87.167 92.4555C105.739 101.126 116.941 104.701 134.158 115.837C147.502 124.467 154.962 129.666 166.288 140.83C175.502 149.911 180.649 155.288 187.575 166.227C193.557 175.676 200.025 192.027 200.025 192.027C200.025 192.027 197.046 173.161 192.796 161.793C187.964 148.864 183.625 142.197 175.928 130.752C163.631 112.469 155.239 102.62 137.773 89.2305C127.532 81.3804 121.313 77.4128 109.658 71.8963Z" fill="#232220"/>
<path d="M316.097 317.398C311.465 320.304 307.261 328.282 307.261 328.282C307.261 328.282 313.076 329.956 316.097 328.282C317.363 327.58 317.652 326.581 318.908 325.863C322.18 323.994 324.827 325.288 328.548 325.863C337.296 327.216 341.021 331.991 348.228 337.151C360.597 346.008 375.539 364.966 375.539 364.966V337.151C375.539 337.151 360.91 327.984 351.039 323.041C343.814 319.424 340.206 315.283 332.162 314.576C325.817 314.018 321.498 314.009 316.097 317.398Z" fill="#232220"/>
<path d="M290.41 260.369C290.255 264.174 288.038 268.777 291.615 270.044C292.946 270.516 293.842 270.305 295.23 270.044C297.298 269.655 298.023 268.194 300.049 267.625C302.919 266.821 304.745 268.144 307.68 267.625C310.465 267.134 312.01 266.537 314.508 265.207C319.114 262.754 325.69 260.934 324.147 255.935C323.773 254.723 323.236 254.173 322.541 253.113C320.65 250.229 319.551 248.288 316.516 246.663C314.1 245.369 312.417 245.296 309.688 245.051C305.27 244.654 302.38 244.612 298.443 246.663C295.193 248.356 293.205 249.802 291.615 253.113C290.372 255.701 290.527 257.499 290.41 260.369Z" fill="#1A1A18"/>
<path d="M300.704 258.679C298.194 260.949 295.545 263.969 297.491 266.741C299.389 269.444 302.69 267.359 305.926 266.741C309.245 266.108 312.627 266.633 313.958 263.516C314.7 261.78 314.882 260.325 313.958 258.679C312.856 256.715 310.961 256.577 308.737 256.26C305.495 255.798 303.138 256.479 300.704 258.679Z" fill="#9A7E72"/>
<path d="M376.342 279.101C380.563 271.066 374.688 261.549 366.301 258.139C359.316 255.298 354.872 261.013 347.424 262.17C338.092 263.619 332.518 262.011 323.326 264.186C315.161 266.117 311.186 269.129 303.245 271.845C297.798 273.707 293.892 272.952 289.188 276.279C285.182 279.112 281.155 285.954 281.155 285.954C281.155 285.954 285.72 282.123 289.188 280.714C296.021 277.937 300.766 279.675 308.064 280.714C315.338 281.749 313.433 285.954 326.138 285.954H358.67C371.375 285.954 372.891 285.67 376.342 279.101Z" fill="#232220"/>
<path d="M241.795 113.821C244.554 106.981 245.024 96.6744 252.238 98.0992C256.591 98.9589 258.327 102.159 260.27 106.162C262.881 111.54 261.402 115.607 260.27 121.48C259.148 127.307 257.832 130.589 254.648 135.59C251.658 140.283 250.454 147.143 245.008 146.071C240.31 145.145 240.02 140.174 238.582 135.59C236.012 127.392 238.583 121.787 241.795 113.821Z" fill="#652313"/>
<path d="M357.867 220.245C358.139 211.712 362.192 204.176 355.859 198.477C354.336 197.107 352.274 192.063 350.236 192.237C347.218 192.494 350.395 200.441 348.629 202.911C346.943 205.27 344.836 205.501 343.006 207.749C337.504 214.508 343.177 221.721 340.195 229.92C336.793 239.273 332.641 243.734 325.736 250.883C320.297 256.514 317.19 259.336 310.073 262.573C303.236 265.682 297.629 263.126 291.196 267.008C287.107 269.474 284.635 271.264 282.36 275.473C280.51 278.897 281.155 285.954 281.155 285.954C281.155 285.954 286.073 278.169 291.196 275.473C295.547 273.184 298.626 273.524 303.245 271.845C310.568 269.182 314.389 266.949 321.318 263.38C330.007 258.904 335.559 257.223 343.006 250.883C348.768 245.978 352.931 243.361 355.859 236.37C358.309 230.52 357.664 226.588 357.867 220.245Z" fill="#652313"/>
<path d="M287.581 65.4463C282.663 61.1039 271.516 60.6089 271.516 60.6089C271.516 60.6089 274.272 98.1069 269.909 121.48C268.543 128.799 268.417 133.181 265.492 140.024C262.026 148.131 254.677 149.986 252.639 158.568C250.812 166.263 254.647 178.724 254.647 178.724C254.647 178.724 263.78 165.578 269.909 157.358C275.869 149.366 280.907 146.018 285.573 137.202C289.182 130.384 290.567 126.156 292.401 118.658C295.211 107.166 294.244 100.257 294.409 88.4243C294.453 85.276 294.046 82.673 293.606 79.5556C292.709 73.2088 292.376 69.6804 287.581 65.4463Z" fill="#232220"/>
<path d="M327.343 172.274C331.454 163.579 333.769 148.49 333.769 148.49C333.769 148.49 341.621 164.335 345.015 175.096C347.691 183.578 352.706 188.722 350.236 197.267C349.082 201.262 349.124 205.999 345.015 206.539C342.502 206.869 341.497 204.493 338.99 204.12C329.983 202.781 330.949 216.455 323.327 221.455C317.913 225.006 313.752 224.815 308.065 227.905C296.796 234.025 288.866 237.56 282.762 248.867C279.19 255.483 277.541 267.411 277.541 267.411C277.541 267.411 272.599 251.518 274.729 241.611C276.609 232.866 280.601 228.879 285.573 221.455C293.992 208.885 302.579 205.002 312.081 193.236C318.442 185.359 323.012 181.434 327.343 172.274Z" fill="#232220"/>
<path d="M294.81 125.108C297.276 111.158 295.361 89.2938 295.361 89.2938C295.361 89.2938 308.459 102.29 314.892 112.612C318.724 118.76 321.864 122.038 323.326 129.14C324.437 134.536 324.715 137.918 323.326 143.249C321.445 150.474 316.977 153.02 312.482 158.971C304.093 170.076 296.76 174.167 288.786 185.577C277.788 201.313 269.957 210.857 267.499 229.92C265.843 242.769 266.711 250.534 270.311 262.976C273.109 272.648 281.155 285.954 281.155 285.954C281.155 285.954 268.831 274.674 262.68 265.798C255.39 255.279 251.001 248.876 248.221 236.37C245.659 224.846 245.201 217.547 248.221 206.136C251.806 192.587 259.67 187.51 267.499 175.902C275.503 164.036 283.128 159.227 288.786 146.071C292.15 138.248 293.328 133.497 294.81 125.108Z" fill="#2F3032"/>
<path d="M226.533 67.4619C230.665 57.7435 241.393 44.8871 241.393 44.8871L263.483 56.5776C263.483 56.5776 247.863 71.0541 241.393 82.7806C234.923 94.5071 230.549 129.946 230.549 129.946L226.533 177.917C226.533 177.917 221.635 152.501 220.508 136.799C219.382 121.097 219.146 107.984 220.508 96.4867C221.871 84.9895 222.401 77.1804 226.533 67.4619Z" fill="#2F3032"/>
</svg>
