<svg width="439" height="2261" viewBox="0 0 439 2261" fill="none" xmlns="http://www.w3.org/2000/svg">
<path d="M21.7284 128L439.224 38V278L21.7284 368V128Z" fill="#51595D"/>
<path d="M21.7284 382.5L439.224 312.5V552.5L21.7284 612V382.5Z" fill="#51595D"/>
<path d="M439.368 100V38L21.7284 128.5L439.368 100Z" fill="#333638"/>
<path d="M439.368 361.5V310L21.7284 383L439.368 361.5Z" fill="#333638"/>
<path d="M0 94.5L440 0V38.5L0 133L0 94.5Z" fill="#40464A"/>
<path d="M0 614.5L439.224 552.5V591L0 653L0 614.5Z" fill="#40464A"/>
<path d="M0 94H21.7284V637H0V94Z" fill="#40464A"/>
<path d="M0 652L439.224 590.5V1181H0L0 652Z" fill="#40464A"/>
<path d="M0 652L439.224 590.5V1181H0L0 652Z" fill="url(#paint0_linear_2040_1897)" fill-opacity="0.2"/>
<rect y="1181" width="439.139" height="1080" fill="#3C4145"/>
<rect x="121.837" y="206.61" width="37.5329" height="30.7001" transform="rotate(1.87705 121.837 206.61)" fill="#0B2A0B"/>
<rect x="123.287" y="208.158" width="34.5329" height="27.7001" transform="rotate(1.87705 123.287 208.158)" stroke="#C4DDE3" stroke-opacity="0.7" stroke-width="3"/>
<path d="M100.739 317.633L144.445 220.656C150.688 206.805 169.487 204.698 178.641 216.824L243.11 302.222C252.474 314.627 244.73 332.505 229.276 334.159L121.102 345.737C105.736 347.381 94.3898 331.721 100.739 317.633Z" fill="#0B2A0B" stroke="#C4DDE3" stroke-opacity="0.7" stroke-width="3"/>
<rect x="120.354" y="209.701" width="42.6559" height="31" transform="rotate(1.0177 120.354 209.701)" fill="#0B2A0B"/>
<path d="M64.2679 315.627L104.312 220.736C110.387 206.341 129.882 204.159 138.99 216.854L199.35 300.999C208.283 313.452 200.465 330.912 185.227 332.543L84.8228 343.289C69.6698 344.911 58.3428 329.667 64.2679 315.627Z" fill="#0B2A0B" stroke="#C4DDE3" stroke-opacity="0.7" stroke-width="3"/>
<path d="M84.0744 321.877L112.747 256.851C115.819 249.884 125.242 248.77 129.854 254.829L173.152 311.709C177.853 317.886 174.032 326.83 166.319 327.703L94.3489 335.848C86.6803 336.716 80.9607 328.938 84.0744 321.877Z" fill="#D23734" stroke="#FFF2F2"/>
<circle cx="140.578" cy="311.676" r="9.5" transform="rotate(-6.10912 140.578 311.676)" fill="#FFBF57"/>
<circle cx="154.498" cy="310.186" r="9.5" transform="rotate(-6.10912 154.498 310.186)" fill="#FFBF57"/>
<rect x="123.589" y="279.803" width="13" height="18" rx="6.5" transform="rotate(-6.10912 123.589 279.803)" fill="#D9D9D9"/>
<rect x="138.504" y="278.207" width="6" height="18" rx="3" transform="rotate(-6.10912 138.504 278.207)" fill="#D9D9D9"/>
<rect x="114.641" y="280.761" width="7" height="18" rx="3.5" transform="rotate(-6.10912 114.641 280.761)" fill="#D9D9D9"/>
<circle cx="126.657" cy="313.166" r="9.5" transform="rotate(-6.10912 126.657 313.166)" fill="#FFBF57"/>
<path d="M93.5991 323.63L101.965 302.806C103.189 299.759 106.985 299.332 108.85 302.031L121.674 320.587C123.573 323.334 122.049 327.236 118.948 327.568L97.7573 329.836C94.6745 330.166 92.3607 326.713 93.5991 323.63Z" fill="#FFF9EA"/>
<path d="M104.861 300.423L112.056 299.653L105.754 327.653L94.7633 328.829L104.861 300.423Z" fill="#FFF9EA"/>
<path d="M99.1828 322.922L107.549 302.098C108.773 299.051 112.568 298.624 114.434 301.323L127.258 319.879C129.156 322.626 127.632 326.528 124.532 326.86L103.341 329.128C100.258 329.458 97.9444 326.005 99.1828 322.922Z" fill="#FFFDF9"/>
<path d="M107.951 317.019C107.822 315.81 108.612 314.735 109.716 314.617L117.31 313.804C118.413 313.686 119.413 314.57 119.542 315.778L120.783 327.372L109.192 328.612L107.951 317.019Z" fill="#0B2A0B"/>
<rect x="250.549" y="192.61" width="37.5329" height="30.7001" transform="rotate(1.87705 250.549 192.61)" fill="#0B2A0B"/>
<rect x="252" y="194.158" width="34.5329" height="27.7001" transform="rotate(1.87705 252 194.158)" stroke="#C4DDE3" stroke-opacity="0.7" stroke-width="3"/>
<path d="M229.451 303.633L273.157 206.656C279.4 192.805 298.199 190.698 307.353 202.824L371.822 288.222C381.186 300.627 373.442 318.505 357.988 320.159L249.814 331.737C234.448 333.381 223.102 317.721 229.451 303.633Z" fill="#0B2A0B" stroke="#C4DDE3" stroke-opacity="0.7" stroke-width="3"/>
<rect x="249.066" y="195.701" width="42.6559" height="31" transform="rotate(1.0177 249.066 195.701)" fill="#0B2A0B"/>
<path d="M192.98 301.627L233.024 206.736C239.099 192.341 258.594 190.159 267.702 202.854L328.062 286.999C336.995 299.452 329.178 316.912 313.939 318.543L213.535 329.289C198.382 330.911 187.055 315.667 192.98 301.627Z" fill="#0B2A0B" stroke="#C4DDE3" stroke-opacity="0.7" stroke-width="3"/>
<path d="M212.786 307.877L241.459 242.851C244.531 235.884 253.954 234.77 258.566 240.829L301.864 297.709C306.565 303.886 302.744 312.83 295.031 313.703L223.061 321.848C215.392 322.716 209.673 314.938 212.786 307.877Z" fill="#D23734" stroke="#FFF2F2"/>
<circle cx="269.29" cy="297.676" r="9.5" transform="rotate(-6.10912 269.29 297.676)" fill="#FFBF57"/>
<circle cx="283.21" cy="296.186" r="9.5" transform="rotate(-6.10912 283.21 296.186)" fill="#FFBF57"/>
<rect x="252.302" y="265.803" width="13" height="18" rx="6.5" transform="rotate(-6.10912 252.302 265.803)" fill="#D9D9D9"/>
<rect x="267.216" y="264.207" width="6" height="18" rx="3" transform="rotate(-6.10912 267.216 264.207)" fill="#D9D9D9"/>
<rect x="243.353" y="266.761" width="7" height="18" rx="3.5" transform="rotate(-6.10912 243.353 266.761)" fill="#D9D9D9"/>
<circle cx="255.369" cy="299.166" r="9.5" transform="rotate(-6.10912 255.369 299.166)" fill="#FFBF57"/>
<path d="M222.311 309.63L230.677 288.806C231.901 285.759 235.697 285.332 237.562 288.031L250.387 306.587C252.285 309.334 250.761 313.236 247.66 313.568L226.469 315.836C223.386 316.166 221.073 312.713 222.311 309.63Z" fill="#FFF9EA"/>
<path d="M233.573 286.423L240.768 285.653L234.467 313.653L223.475 314.829L233.573 286.423Z" fill="#FFF9EA"/>
<path d="M227.895 308.922L236.261 288.098C237.485 285.051 241.28 284.624 243.146 287.323L255.97 305.879C257.869 308.626 256.344 312.528 253.244 312.86L232.053 315.128C228.97 315.458 226.656 312.005 227.895 308.922Z" fill="#FFFDF9"/>
<path d="M236.663 303.019C236.534 301.81 237.324 300.735 238.428 300.617L246.022 299.804C247.125 299.686 248.125 300.57 248.254 301.778L249.495 313.372L237.904 314.612L236.663 303.019Z" fill="#0B2A0B"/>
<rect x="373.837" y="177.61" width="37.5329" height="30.7001" transform="rotate(1.87705 373.837 177.61)" fill="#0B2A0B"/>
<rect x="375.287" y="179.158" width="34.5329" height="27.7001" transform="rotate(1.87705 375.287 179.158)" stroke="#C4DDE3" stroke-opacity="0.7" stroke-width="3"/>
<path d="M352.739 288.633L396.445 191.656C402.688 177.805 421.487 175.698 430.641 187.824L495.11 273.222C504.474 285.627 496.73 303.505 481.276 305.159L373.102 316.737C357.736 318.381 346.39 302.721 352.739 288.633Z" fill="#0B2A0B" stroke="#C4DDE3" stroke-opacity="0.7" stroke-width="3"/>
<rect x="372.354" y="180.701" width="42.6559" height="31" transform="rotate(1.0177 372.354 180.701)" fill="#0B2A0B"/>
<path d="M316.268 286.627L356.312 191.736C362.387 177.341 381.882 175.159 390.99 187.854L451.35 271.999C460.283 284.452 452.465 301.912 437.227 303.543L336.823 314.289C321.67 315.911 310.343 300.667 316.268 286.627Z" fill="#0B2A0B" stroke="#C4DDE3" stroke-opacity="0.7" stroke-width="3"/>
<path d="M336.074 292.877L364.747 227.851C367.819 220.884 377.242 219.77 381.854 225.829L425.152 282.709C429.853 288.886 426.032 297.83 418.319 298.703L346.349 306.848C338.68 307.716 332.961 299.938 336.074 292.877Z" fill="#D23734" stroke="#FFF2F2"/>
<circle cx="392.578" cy="282.676" r="9.5" transform="rotate(-6.10912 392.578 282.676)" fill="#FFBF57"/>
<circle cx="406.498" cy="281.186" r="9.5" transform="rotate(-6.10912 406.498 281.186)" fill="#FFBF57"/>
<rect x="375.589" y="250.803" width="13" height="18" rx="6.5" transform="rotate(-6.10912 375.589 250.803)" fill="#D9D9D9"/>
<rect x="390.504" y="249.207" width="6" height="18" rx="3" transform="rotate(-6.10912 390.504 249.207)" fill="#D9D9D9"/>
<rect x="366.641" y="251.761" width="7" height="18" rx="3.5" transform="rotate(-6.10912 366.641 251.761)" fill="#D9D9D9"/>
<circle cx="378.658" cy="284.166" r="9.5" transform="rotate(-6.10912 378.658 284.166)" fill="#FFBF57"/>
<path d="M345.599 294.63L353.965 273.806C355.189 270.759 358.984 270.332 360.85 273.031L373.674 291.587C375.573 294.334 374.048 298.236 370.948 298.568L349.757 300.836C346.674 301.166 344.361 297.713 345.599 294.63Z" fill="#FFF9EA"/>
<path d="M356.861 271.423L364.056 270.653L357.754 298.653L346.763 299.829L356.861 271.423Z" fill="#FFF9EA"/>
<path d="M351.183 293.922L359.549 273.098C360.773 270.051 364.568 269.624 366.434 272.323L379.258 290.879C381.157 293.626 379.632 297.528 376.532 297.86L355.341 300.128C352.258 300.458 349.945 297.005 351.183 293.922Z" fill="#FFFDF9"/>
<path d="M359.951 288.019C359.822 286.81 360.612 285.735 361.716 285.617L369.31 284.804C370.413 284.686 371.413 285.57 371.542 286.778L372.783 298.372L361.192 299.612L359.951 288.019Z" fill="#0B2A0B"/>
<path d="M0 348.5L440 272V310.5L0 387L0 348.5Z" fill="#40464A"/>
<defs>
<linearGradient id="paint0_linear_2040_1897" x1="349.594" y1="747.5" x2="102.666" y2="2308.19" gradientUnits="userSpaceOnUse">
<stop stop-opacity="0"/>
<stop offset="0.580348" stop-color="#333638"/>
</linearGradient>
</defs>
</svg>
