<svg width="380" height="110" viewBox="0 0 380 110" fill="none" xmlns="http://www.w3.org/2000/svg">
<path d="M0 7.42694L7.65983 0H379.162V102.298L371.502 109.725H0V7.42694Z" fill="#333638"/>
<rect x="7.31506" width="371.847" height="102.41" fill="#404649"/>
<rect x="18.2876" y="9.14355" width="348.682" height="82.9035" fill="#3648A4"/>
<rect x="18.2876" y="50.5952" width="348.682" height="41.4517" fill="#3F5EC5"/>
<path d="M52.7929 73.4883C51.0025 73.4883 49.5051 73.2116 48.3007 72.6582C47.1125 72.0885 46.1685 71.2666 45.4687 70.1924C44.7851 69.1019 44.2968 67.7835 44.0038 66.2373C43.7108 64.6748 43.5644 62.9007 43.5644 60.915V57.082H49.7655V61.4033C49.7655 63.7145 49.9608 65.3747 50.3515 66.3838C50.7421 67.3929 51.5152 67.8975 52.6708 67.8975C53.4521 67.8975 54.038 67.7184 54.4286 67.3604C54.8355 66.986 55.1041 66.4001 55.2343 65.6025C55.3808 64.7887 55.454 63.7308 55.454 62.4287C55.454 60.8174 55.1122 59.3444 54.4286 58.0098C53.7613 56.6751 52.744 55.2917 51.3769 53.8594L48.203 50.5879C47.3241 49.6764 46.5266 48.708 45.8105 47.6826C45.1106 46.6572 44.5491 45.5179 44.1259 44.2646C43.719 42.9951 43.5155 41.5791 43.5155 40.0166C43.5155 37.7542 43.7922 35.8418 44.3456 34.2793C44.899 32.7168 45.8349 31.5368 47.1532 30.7393C48.4716 29.9255 50.2782 29.5186 52.5732 29.5186C54.2984 29.5186 55.7144 29.7871 56.8212 30.3242C57.9442 30.8451 58.815 31.6182 59.4335 32.6436C60.0683 33.6527 60.5159 34.8896 60.7763 36.3545C61.0367 37.8031 61.1669 39.4632 61.1669 41.335V43.9961H55.1366V40.9199C55.1366 39.6178 55.0634 38.5355 54.9169 37.6729C54.7867 36.8102 54.5344 36.1673 54.1601 35.7441C53.7857 35.3047 53.2405 35.085 52.5243 35.085C51.8407 35.085 51.2873 35.2396 50.8642 35.5488C50.441 35.8418 50.1317 36.3057 49.9364 36.9404C49.7574 37.5589 49.6679 38.3646 49.6679 39.3574C49.6679 40.2526 49.7818 41.0257 50.0097 41.6768C50.2375 42.3278 50.5875 42.9544 51.0595 43.5566C51.5315 44.1589 52.1174 44.8343 52.8173 45.583L56.3573 49.416C58.05 51.2389 59.3684 53.1351 60.3124 55.1045C61.2564 57.0739 61.7284 59.2712 61.7284 61.6963C61.7284 64.2679 61.4517 66.4326 60.8983 68.1904C60.345 69.932 59.4172 71.2503 58.1151 72.1455C56.8131 73.0407 55.039 73.4883 52.7929 73.4883ZM77.5224 73.4883C75.2926 73.4883 73.4778 73.0732 72.078 72.2432C70.6783 71.3968 69.6529 70.1273 69.0019 68.4346C68.3508 66.7256 68.0253 64.569 68.0253 61.9648V30.0312H74.5683V61.8428C74.5683 63.0472 74.6171 64.1051 74.7148 65.0166C74.8287 65.9281 75.0891 66.6361 75.496 67.1406C75.9029 67.6452 76.5702 67.8975 77.498 67.8975C78.4257 67.8975 79.093 67.6533 79.4999 67.165C79.9231 66.6605 80.1835 65.9525 80.2812 65.041C80.3788 64.1296 80.4276 63.0635 80.4276 61.8428V30.0312H86.9706V61.9648C86.9706 64.569 86.6451 66.7256 85.994 68.4346C85.3593 70.1273 84.342 71.3968 82.9423 72.2432C81.5588 73.0732 79.7522 73.4883 77.5224 73.4883ZM102.935 73.4883C101.145 73.4883 99.6477 73.2116 98.4433 72.6582C97.2551 72.0885 96.3111 71.2666 95.6112 70.1924C94.9276 69.1019 94.4394 67.7835 94.1464 66.2373C93.8534 64.6748 93.7069 62.9007 93.7069 60.915V57.082H99.9081V61.4033C99.9081 63.7145 100.103 65.3747 100.494 66.3838C100.885 67.3929 101.658 67.8975 102.813 67.8975C103.595 67.8975 104.181 67.7184 104.571 67.3604C104.978 66.986 105.247 66.4001 105.377 65.6025C105.523 64.7887 105.597 63.7308 105.597 62.4287C105.597 60.8174 105.255 59.3444 104.571 58.0098C103.904 56.6751 102.887 55.2917 101.519 53.8594L98.3456 50.5879C97.4667 49.6764 96.6692 48.708 95.953 47.6826C95.2532 46.6572 94.6916 45.5179 94.2685 44.2646C93.8616 42.9951 93.6581 41.5791 93.6581 40.0166C93.6581 37.7542 93.9348 35.8418 94.4882 34.2793C95.0416 32.7168 95.9774 31.5368 97.2958 30.7393C98.6142 29.9255 100.421 29.5186 102.716 29.5186C104.441 29.5186 105.857 29.7871 106.964 30.3242C108.087 30.8451 108.958 31.6182 109.576 32.6436C110.211 33.6527 110.658 34.8896 110.919 36.3545C111.179 37.8031 111.309 39.4632 111.309 41.335V43.9961H105.279V40.9199C105.279 39.6178 105.206 38.5355 105.059 37.6729C104.929 36.8102 104.677 36.1673 104.303 35.7441C103.928 35.3047 103.383 35.085 102.667 35.085C101.983 35.085 101.43 35.2396 101.007 35.5488C100.584 35.8418 100.274 36.3057 100.079 36.9404C99.9 37.5589 99.8105 38.3646 99.8105 39.3574C99.8105 40.2526 99.9244 41.0257 100.152 41.6768C100.38 42.3278 100.73 42.9544 101.202 43.5566C101.674 44.1589 102.26 44.8343 102.96 45.583L106.5 49.416C108.193 51.2389 109.511 53.1351 110.455 55.1045C111.399 57.0739 111.871 59.2712 111.871 61.6963C111.871 64.2679 111.594 66.4326 111.041 68.1904C110.488 69.932 109.56 71.2503 108.258 72.1455C106.956 73.0407 105.182 73.4883 102.935 73.4883ZM120.731 73V35.6953H115.702V30.0312H132.084V35.6953H127.25V73H120.731ZM134.011 73L140.139 30.0312H148.781L155.3 73H149.196L148.171 65.334H141.237L140.309 73H134.011ZM141.872 60.085H147.487L144.606 38.5029H144.509L141.872 60.085ZM161.352 73V30.0312H167.895V73H161.352ZM176.487 73V30.0312H181.614L190.721 55.8125L190.257 44.0938V30.0312H196.141V73H191.502L182.151 46.3154L182.517 57.5947V73H176.487ZM202.071 73L208.199 30.0312H216.842L223.36 73H217.257L216.231 65.334H209.298L208.37 73H202.071ZM209.933 60.085H215.548L212.667 38.5029H212.569L209.933 60.085ZM229.267 73V30.0312H238.568C240.733 30.0312 242.458 30.3649 243.744 31.0322C245.03 31.6833 245.958 32.7249 246.527 34.1572C247.113 35.5732 247.406 37.4368 247.406 39.748V41.0664C247.406 43.2962 247.113 45.1354 246.527 46.584C245.958 48.0163 244.997 49.0173 243.646 49.5869C244.769 49.9613 245.665 50.6367 246.332 51.6133C247.016 52.5736 247.504 53.7536 247.797 55.1533C248.09 56.5368 248.236 58.0586 248.236 59.7188V60.8174C248.22 63.682 247.886 66.0176 247.235 67.8242C246.584 69.6146 245.567 70.9248 244.184 71.7549C242.8 72.585 240.993 73 238.764 73H229.267ZM235.809 67.9219H238.129C238.991 67.9219 239.675 67.7347 240.18 67.3604C240.7 66.9697 241.075 66.3268 241.303 65.4316C241.531 64.5365 241.644 63.3158 241.644 61.7695V58.3027C241.644 56.2194 241.441 54.7057 241.034 53.7617C240.643 52.8014 239.822 52.3213 238.568 52.3213H235.809V67.9219ZM235.809 47.4141H238.226C238.796 47.4141 239.26 47.3327 239.618 47.1699C239.976 47.0072 240.253 46.7305 240.448 46.3398C240.643 45.9329 240.774 45.3714 240.839 44.6553C240.92 43.9391 240.961 43.0277 240.961 41.9209V39.333C240.961 38.1774 240.855 37.2985 240.643 36.6963C240.432 36.0941 240.106 35.6872 239.667 35.4756C239.244 35.264 238.69 35.1582 238.007 35.1582H235.809V47.4141ZM255.436 73V30.0312H261.979V73H255.436ZM270.571 73V30.0312H277.114V67.4336H285.391V73H270.571ZM291.077 73V30.0312H297.62V73H291.077ZM308.458 73V35.6953H303.429V30.0312H319.81V35.6953H314.976V73H308.458ZM329.892 73V55.8369L322.689 30.0312H328.939L333.187 46.0957H333.285L337.069 30.0312H343.295L336.434 55.8369V73H329.892Z" fill="#FEF8EB"/>
</svg>
