<svg width="111" height="130" viewBox="0 0 111 130" fill="none" xmlns="http://www.w3.org/2000/svg">
<rect x="18" y="110" width="16" height="20" fill="#404649"/>
<rect x="18" y="110" width="8" height="20" fill="#333638"/>
<path d="M0 7.5L4.20202 0H111V102.554L108.798 110H0V7.5Z" fill="#333638"/>
<rect x="5" width="106" height="102" fill="#404649"/>
<rect x="13" y="8" width="90" height="86" fill="#3648A4"/>
<rect x="13" y="52" width="90" height="42" fill="#3F5EC5"/>
<path d="M83.6188 39.8413L70.0304 48.0473L76.6481 60.4005C88.7895 60.6828 90.5307 54.871 89.8836 51.9297L83.6188 39.8413Z" fill="white"/>
<path d="M67.0306 56.7832V61.548C71.3247 61.548 80.4955 61.4774 82.8249 61.195C85.1544 60.9127 87.6779 59.0185 88.6485 58.1068C86.325 62.6068 81.3249 72.1893 79.9131 74.5188C78.5013 76.8482 75.7366 77.4894 74.5307 77.5188H67.0306L66.8541 82.813L59.7069 69.6658L67.0306 56.7832Z" fill="white"/>
<path d="M37.03 32.5176L50.7949 40.7236L58.0304 28.7234C55.6303 23.6409 52.1159 21.1468 50.9714 20.4291C49.8269 19.7114 48.1184 19.635 47.2655 19.7233C45.9949 19.6527 44.8537 20.5762 44.4419 21.0468L37.03 32.5176Z" fill="white"/>
<path d="M34.2065 61.4593C37.0301 61.8122 54.8539 61.6358 54.8539 61.6358L54.7657 77.6948H43.6478C39.4831 77.9066 36.736 75.4889 35.883 74.2536L27.1476 58.0181C29.53 60.3122 31.3829 61.1063 34.2065 61.4593Z" fill="white"/>
<path d="M26.0004 52.1059C25.9298 59.7295 34.5594 61.4589 39.0594 60.5766L44.7065 51.4L48.7654 53.4294L41.6183 39.9292L26.4415 40.1057L30.5887 43.3704L26.0004 52.1059Z" fill="white"/>
<path d="M74.3541 39.3119H59.7951L63.6775 36.6647C62.5598 34.1647 59.4421 28.8999 57.148 24.9293C54.9145 21.0636 51.5008 19.341 50.2655 19.0174H68.5305C70.3658 18.8057 72.4717 20.5763 73.2953 21.4881C74.1188 22.3998 77.4424 28.8999 77.4424 28.8999L82.0307 26.694L74.3541 39.3119Z" fill="white"/>
</svg>
