<svg width="2470" height="398" viewBox="0 0 2470 398" fill="none" xmlns="http://www.w3.org/2000/svg">
<path d="M2481 81.3253H0L34.2966 0H2481V81.3253Z" fill="#282821"/>
<path d="M1292.91 398L1265 141.338H1352L1324.92 398H1292.91Z" fill="#191915"/>
<path d="M188.906 398L161 141.338H248L220.915 398H188.906Z" fill="#191915"/>
<path d="M2298.91 398L2271 141.338H2358L2330.92 398H2298.91Z" fill="#191915"/>
<path d="M1308 397.566L1294 141.771H1324.5L1308 397.566Z" fill="#282821"/>
<path d="M204 397.133L190 141.338H220.5L204 397.133Z" fill="#282821"/>
<path d="M2314 397.133L2300 141.338H2330.5L2314 397.133Z" fill="#282821"/>
<path d="M0 141.338V81.2793L2470 81.2796V141.338H0Z" fill="#191915"/>
</svg>
