<svg width="182" height="625" viewBox="0 0 182 625" fill="none" xmlns="http://www.w3.org/2000/svg">
<path d="M0 15L14.4444 0H154.074V610L139.63 625H0V15Z" fill="#333638"/>
<rect x="14.4445" width="139.63" height="610" fill="#404649"/>
<rect x="154.074" y="73" width="27.9259" height="20" fill="#51595D"/>
<rect x="154.074" y="83" width="27.9259" height="10" fill="#404649"/>
<rect x="154.074" y="308" width="27.9259" height="20" fill="#51595D"/>
<rect x="154.074" y="318" width="27.9259" height="10" fill="#404649"/>
<rect x="26" width="116.519" height="610" fill="#2D7034"/>
<rect x="48.1482" width="75.1111" height="610" fill="#397B41"/>
<path d="M82.6634 105V52.7734H75.6224V44.8438H98.557V52.7734H91.7894V105H82.6634ZM74.6654 196V135.844H89.807C92.9515 135.844 95.2985 136.459 96.848 137.689C98.3975 138.92 99.4115 140.72 99.89 143.09C100.391 145.46 100.642 148.354 100.642 151.771C100.642 155.303 100.277 158.083 99.5482 160.111C98.8418 162.117 97.3835 163.461 95.1732 164.145C96.2214 164.327 97.0986 164.76 97.805 165.443C98.5114 166.104 99.0811 167.084 99.514 168.383C99.947 169.659 100.255 171.311 100.437 173.339C100.642 175.344 100.744 177.805 100.744 180.722C100.744 180.95 100.744 181.588 100.744 182.636C100.744 183.684 100.744 184.926 100.744 186.361C100.767 187.774 100.79 189.187 100.813 190.6C100.836 192.012 100.87 193.22 100.915 194.223C100.961 195.225 101.018 195.818 101.086 196H91.9261C91.8578 195.886 91.8008 195.305 91.7552 194.257C91.7324 193.186 91.6983 191.83 91.6527 190.189C91.6299 188.549 91.6071 186.783 91.5843 184.892C91.5843 183 91.5843 181.143 91.5843 179.32C91.5843 177.475 91.5843 175.845 91.5843 174.433C91.5843 172.632 91.4476 171.277 91.1742 170.365C90.9235 169.431 90.445 168.782 89.7386 168.417C89.055 168.052 88.0638 167.836 86.765 167.768L83.8255 167.597V196H74.6654ZM83.8597 160.487H87.5169C88.6335 160.487 89.4766 160.237 90.0462 159.735C90.6387 159.234 91.0374 158.311 91.2425 156.967C91.4704 155.622 91.5843 153.686 91.5843 151.156V150.78C91.5843 148.661 91.4818 147.032 91.2767 145.893C91.0716 144.753 90.6387 143.967 89.9779 143.534C89.3399 143.101 88.3372 142.885 86.9701 142.885H83.8597V160.487ZM72.2044 287L80.7835 226.844H92.8831L102.009 287H93.4642L92.0287 276.268H82.3216L81.0228 287H72.2044ZM83.2103 268.919H91.0716L87.0384 238.704H86.9017L83.2103 268.919ZM87.3802 378.684C84.4636 378.684 82.0368 378.011 80.0999 376.667C78.1631 375.323 76.7048 373.363 75.7249 370.788C74.7679 368.19 74.2894 365.057 74.2894 361.389V335.173C74.2894 332.416 74.5173 329.932 74.973 327.722C75.4287 325.511 76.1693 323.62 77.1947 322.048C78.2201 320.476 79.5872 319.268 81.2962 318.425C83.0052 317.582 85.113 317.16 87.6195 317.16C89.8981 317.16 91.835 317.536 93.43 318.288C95.0479 319.017 96.3581 320.077 97.3607 321.467C98.3861 322.857 99.1266 324.543 99.5824 326.525C100.061 328.485 100.3 330.695 100.3 333.156V341.428H91.4476V333.737C91.4476 330.775 91.197 328.599 90.6956 327.209C90.1943 325.796 89.1917 325.09 87.6878 325.09C86.0244 325.09 84.9079 325.853 84.3382 327.38C83.7914 328.884 83.5179 330.992 83.5179 333.703V361.799C83.5179 363.895 83.6318 365.616 83.8597 366.96C84.1104 368.282 84.5205 369.261 85.0902 369.899C85.6598 370.515 86.4574 370.822 87.4828 370.822C89.0322 370.822 90.0804 370.093 90.6273 368.635C91.1742 367.176 91.4476 364.864 91.4476 361.696V353.083H100.437V361.594C100.437 365.399 99.9925 368.578 99.1039 371.13C98.2152 373.659 96.8024 375.55 94.8656 376.804C92.9515 378.057 90.4564 378.684 87.3802 378.684ZM74.8363 469V408.844H83.9964V436.529L93.1566 408.844H102.624L92.6439 438.512L103.41 469H93.7376L84.0648 440.904V469H74.8363ZM87.6195 560.684C85.113 560.684 83.0166 560.296 81.3304 559.521C79.667 558.724 78.3454 557.573 77.3656 556.069C76.4085 554.543 75.7249 552.697 75.3148 550.532C74.9046 548.345 74.6996 545.861 74.6996 543.081V537.715H83.3812V543.765C83.3812 547 83.6546 549.325 84.2015 550.737C84.7484 552.15 85.8307 552.856 87.4486 552.856C88.5423 552.856 89.3626 552.606 89.9095 552.104C90.4792 551.58 90.8552 550.76 91.0374 549.644C91.2425 548.504 91.3451 547.023 91.3451 545.2C91.3451 542.944 90.8665 540.882 89.9095 539.014C88.9753 537.145 87.5511 535.208 85.6371 533.203L81.1937 528.623C79.9632 527.347 78.8467 525.991 77.8441 524.556C76.8643 523.12 76.0781 521.525 75.4857 519.771C74.916 517.993 74.6312 516.011 74.6312 513.823C74.6312 510.656 75.0186 507.979 75.7933 505.791C76.568 503.604 77.8783 501.951 79.724 500.835C81.5697 499.696 84.099 499.126 87.3119 499.126C89.7272 499.126 91.7096 499.502 93.2591 500.254C94.8314 500.983 96.0505 502.065 96.9164 503.501C97.805 504.914 98.4317 506.646 98.7962 508.696C99.1608 510.724 99.3431 513.049 99.3431 515.669V519.395H90.9007V515.088C90.9007 513.265 90.7982 511.75 90.5931 510.542C90.4108 509.334 90.0576 508.434 89.5335 507.842C89.0095 507.227 88.2461 506.919 87.2435 506.919C86.2865 506.919 85.5117 507.135 84.9193 507.568C84.3268 507.979 83.8939 508.628 83.6205 509.517C83.3698 510.382 83.2445 511.51 83.2445 512.9C83.2445 514.154 83.404 515.236 83.723 516.147C84.042 517.059 84.5319 517.936 85.1927 518.779C85.8535 519.622 86.6738 520.568 87.6537 521.616L92.6097 526.982C94.9795 529.535 96.8252 532.189 98.1468 534.946C99.4684 537.703 100.129 540.78 100.129 544.175C100.129 547.775 99.7419 550.806 98.9671 553.267C98.1924 555.705 96.8936 557.55 95.0706 558.804C93.2477 560.057 90.764 560.684 87.6195 560.684Z" fill="#FEF8EB"/>
</svg>
