<svg width="2356" height="952" viewBox="0 0 2356 952" fill="none" xmlns="http://www.w3.org/2000/svg">
<path d="M887.093 0L1198.53 86.4734V235.122L887.093 148.648V0Z" fill="#63686B"/>
<path d="M887.093 0L1198.53 86.4734V235.122L887.093 148.648V0Z" fill="url(#paint0_linear_563_40)"/>
<path d="M1092.41 135.069L1348.48 177.234V325.882L1092.41 283.718V135.069Z" fill="#63686B"/>
<path d="M1092.41 135.069L1348.48 177.234V325.882L1092.41 283.718V135.069Z" fill="url(#paint1_linear_563_40)"/>
<path d="M1301.57 269.426L1510.74 283.004V431.653L1301.57 418.074V269.426Z" fill="#63686B"/>
<path d="M1301.57 269.426L1510.74 283.004V431.653L1301.57 418.074V269.426Z" fill="url(#paint2_linear_563_40)"/>
<path d="M1510.74 406.639L1664.53 385.199V533.848L1510.74 555.287V406.639Z" fill="#63686B"/>
<path d="M1510.74 406.639L1664.53 385.199V533.848L1510.74 555.287V406.639Z" fill="url(#paint3_linear_563_40)"/>
<path d="M1718.36 543.853L1820.64 485.251V633.899L1718.36 692.501V543.853Z" fill="#63686B"/>
<path d="M1718.36 543.853L1820.64 485.251V633.899L1718.36 692.501V543.853Z" fill="url(#paint4_linear_563_40)"/>
<path d="M1929.06 679.638L1979.82 588.162V736.811L1929.06 828.286V679.638Z" fill="#63686B"/>
<path d="M1929.06 679.638L1979.82 588.162V736.811L1929.06 828.286V679.638Z" fill="url(#paint5_linear_563_40)"/>
<path d="M1664.53 385.2L1507.66 381.627L1302.34 406.64H1512.27L1664.53 385.2Z" fill="#63686B"/>
<path d="M1664.53 385.2L1507.66 381.627L1302.34 406.64H1512.27L1664.53 385.2Z" fill="url(#paint6_linear_563_40)"/>
<path d="M1820.64 485.252L1664.53 482.393L1512.27 543.854H1719.13L1820.64 485.252Z" fill="#63686B"/>
<path d="M1820.64 485.252L1664.53 482.393L1512.27 543.854H1719.13L1820.64 485.252Z" fill="url(#paint7_linear_563_40)"/>
<path d="M1979.82 588.161L1820.64 586.017L1719.13 678.922H1931.37L1979.82 588.161Z" fill="#63686B"/>
<path d="M1979.82 588.161L1820.64 586.017L1719.13 678.922H1931.37L1979.82 588.161Z" fill="url(#paint8_linear_563_40)"/>
<path d="M2142.84 692.503L1979.82 691.074L1930.6 818.282H2142.84V692.503Z" fill="#63686B"/>
<path d="M2142.84 692.503L1979.82 691.074L1930.6 818.282H2142.84V692.503Z" fill="url(#paint9_linear_563_40)"/>
<path d="M2291.41 797H2143V952H2356L2291.41 797Z" fill="#63686B"/>
<path d="M2291.41 797H2143V952H2356L2291.41 797Z" fill="url(#paint10_linear_563_40)"/>
<path d="M887.092 0H0V952H2142.84V817.566H1931.37V678.923H1719.13V543.853H1512.27V406.639H1302.34V269.425H1092.41V133.641H887.092V0Z" fill="#5E6162"/>
<path d="M869.04 16.4102H0V952H2124.79V833.976H1913.32V695.333H1701.08V560.263H1494.22V421.481H1284.29V285.835H1074.36V150.051H869.04V16.4102Z" fill="#2C2C2C"/>
<mask id="mask0_563_40" style="mask-type:alpha" maskUnits="userSpaceOnUse" x="0" y="22" width="2115" height="930">
<path d="M860.947 22.1533H0V952H2114.47V844.008H1905.22V703.22H1692.99V566.721H1486.9V427.363H1277.74V292.293H1067.03V156.509H860.947V22.1533Z" fill="#333638"/>
</mask>
<g mask="url(#mask0_563_40)">
<path d="M860.947 22.1533H0V952H2114.47V844.008H1905.22V703.22H1692.99V566.721H1486.9V427.363H1277.74V292.293H1067.03V156.509H860.947V22.1533Z" fill="#333638"/>
<path d="M860.947 22.1533H0V952H2114.47V844.008H1905.22V703.22H1692.99V566.721H1486.9V427.363H1277.74V292.293H1067.03V156.509H860.947V22.1533Z" fill="url(#paint11_linear_563_40)" fill-opacity="0.5"/>
<path d="M860.947 22.1533H0V952H2114.47V844.008H1905.22V703.22H1692.99V566.721H1486.9V427.363H1277.74V292.293H1067.03V156.509H860.947V22.1533Z" fill="url(#paint12_linear_563_40)" fill-opacity="0.5"/>
<rect y="643" width="1924" height="180" fill="#303233"/>
<rect y="19" width="1510" height="345" fill="#303233"/>
</g>
<defs>
<linearGradient id="paint0_linear_563_40" x1="1027.82" y1="-29.3009" x2="992.533" y2="257.948" gradientUnits="userSpaceOnUse">
<stop stop-color="#202020" stop-opacity="0"/>
<stop offset="1" stop-color="#40464A"/>
</linearGradient>
<linearGradient id="paint1_linear_563_40" x1="1233.13" y1="105.768" x2="1197.85" y2="393.017" gradientUnits="userSpaceOnUse">
<stop stop-color="#202020" stop-opacity="0"/>
<stop offset="1" stop-color="#40464A"/>
</linearGradient>
<linearGradient id="paint2_linear_563_40" x1="1376.66" y1="205.636" x2="1481.45" y2="512.072" gradientUnits="userSpaceOnUse">
<stop stop-color="#202020" stop-opacity="0"/>
<stop offset="1" stop-color="#40464A"/>
</linearGradient>
<linearGradient id="paint3_linear_563_40" x1="1574.57" y1="355.512" x2="1616.56" y2="663.115" gradientUnits="userSpaceOnUse">
<stop stop-color="#202020" stop-opacity="0"/>
<stop offset="1" stop-color="#40464A"/>
</linearGradient>
<linearGradient id="paint4_linear_563_40" x1="1859.09" y1="514.552" x2="1823.8" y2="801.801" gradientUnits="userSpaceOnUse">
<stop stop-color="#202020" stop-opacity="0"/>
<stop offset="1" stop-color="#40464A"/>
</linearGradient>
<linearGradient id="paint5_linear_563_40" x1="2069.79" y1="650.337" x2="2034.5" y2="937.586" gradientUnits="userSpaceOnUse">
<stop stop-color="#202020" stop-opacity="0"/>
<stop offset="1" stop-color="#40464A"/>
</linearGradient>
<linearGradient id="paint6_linear_563_40" x1="1348.89" y1="212.579" x2="1699.78" y2="377.005" gradientUnits="userSpaceOnUse">
<stop stop-color="#40464A"/>
<stop offset="1" stop-color="#202020" stop-opacity="0"/>
</linearGradient>
<linearGradient id="paint7_linear_563_40" x1="1789.83" y1="591.032" x2="1540.28" y2="462.359" gradientUnits="userSpaceOnUse">
<stop stop-color="#202020" stop-opacity="0"/>
<stop offset="1" stop-color="#40464A"/>
</linearGradient>
<linearGradient id="paint8_linear_563_40" x1="2023.62" y1="690.563" x2="1685.5" y2="591.705" gradientUnits="userSpaceOnUse">
<stop stop-color="#202020" stop-opacity="0"/>
<stop offset="1" stop-color="#40464A"/>
</linearGradient>
<linearGradient id="paint9_linear_563_40" x1="2256.25" y1="769.842" x2="1800.8" y2="756.097" gradientUnits="userSpaceOnUse">
<stop offset="0.0320536" stop-color="#202020" stop-opacity="0"/>
<stop offset="1" stop-color="#40464A"/>
</linearGradient>
<linearGradient id="paint10_linear_563_40" x1="2386.02" y1="922.698" x2="1979.43" y2="894.592" gradientUnits="userSpaceOnUse">
<stop stop-color="#202020" stop-opacity="0"/>
<stop offset="1" stop-color="#40464A"/>
</linearGradient>
<linearGradient id="paint11_linear_563_40" x1="1705.35" y1="22.1969" x2="779.473" y2="1578.83" gradientUnits="userSpaceOnUse">
<stop stop-color="#353738"/>
<stop offset="0.448763" stop-color="#3D4041"/>
<stop offset="0.847903" stop-color="#27292A"/>
</linearGradient>
<linearGradient id="paint12_linear_563_40" x1="2070.2" y1="1414.77" x2="583.302" y2="415.695" gradientUnits="userSpaceOnUse">
<stop offset="0.152097" stop-color="#27292A"/>
<stop offset="0.551237" stop-color="#3D4041"/>
<stop offset="1" stop-color="#353738"/>
</linearGradient>
</defs>
</svg>
