<svg width="169" height="193" viewBox="0 0 169 193" fill="none" xmlns="http://www.w3.org/2000/svg">
<mask id="mask0_1455_749" style="mask-type:alpha" maskUnits="userSpaceOnUse" x="14" y="11" width="141" height="170">
<rect x="14.3584" y="11.2383" width="140.535" height="169.47" fill="#37828F"/>
</mask>
<g mask="url(#mask0_1455_749)">
<rect x="14.3584" y="11.2383" width="140.535" height="169.47" fill="#285C68"/>
<rect x="19.1653" y="15.9712" width="130.963" height="159.711" fill="#37828F"/>
<rect x="-31.9629" y="43.9976" width="73.1086" height="254.21" transform="rotate(-48.2786 -31.9629 43.9976)" fill="#285C68"/>
</g>
<rect width="42.2353" height="13.7879" transform="matrix(-0.807667 -0.589638 -0.564525 0.825416 41.8956 181.338)" fill="#A3A688" fill-opacity="0.5"/>
<rect width="42.2353" height="13.7879" transform="matrix(0.807667 -0.589638 0.564525 0.825416 4.78613 24.9036)" fill="#A3A688" fill-opacity="0.5"/>
<rect width="42.2353" height="13.7879" transform="matrix(-0.807667 -0.589638 -0.564525 0.825416 166.767 24.9036)" fill="#A3A688" fill-opacity="0.5"/>
<rect width="42.2353" height="13.7879" transform="matrix(0.807667 -0.589638 0.564525 0.825416 126.612 181.338)" fill="#A3A688" fill-opacity="0.5"/>
<path d="M60.9052 43.2127L58.1954 52.8508H46.0011L44.6462 65.7016L31.7746 67.6293L35.8393 78.5524L26.3549 84.3353L32.452 92.6883L25 101.684L34.4844 108.109L28.3873 118.39L38.5491 122.245L36.5168 131.883L49.3884 133.168L50.7433 143.449L64.2925 139.594L69.0346 148.589L78.519 144.092L85.9711 151.802L94.1005 143.449L104.262 151.16L108.327 141.521L118.489 143.449L120.521 131.883H130.683V119.675L140.168 114.535L135.425 106.182L145.587 98.4712L136.103 89.4756L142.2 79.195L130.683 72.7696L134.07 63.1315L120.521 59.9188L119.166 50.2807L106.295 52.8508L100.875 40L89.3583 47.0679L79.874 40L73.0994 47.0679L60.9052 43.2127Z" fill="#FAF5E9"/>
<path d="M95.2671 100.679L129.238 122.742L131.603 124.278L129.383 126.001L98.3012 150.11L95.3064 152.432L95.0755 148.641L94.4696 138.715L54.3173 137.793L52.9934 137.763L52.4997 136.533L46.3309 121.174L30.2174 123.295L28.8379 119.644L57.0826 100.884L58.9231 99.6617L59.9599 101.621L68.7712 118.263L92.9726 114.436L92.1871 102.479L91.9257 98.5087L95.2671 100.679Z" fill="#FAF5E9" stroke="#FAF5E9" stroke-width="4"/>
<path d="M47.6037 118.987L31.0358 120.943L58.1937 102.548L67.6746 120.458L95.086 116.12L94.1827 102.346L128.151 124.405L97.0651 148.518L96.3491 136.749L54.3501 135.79L47.6037 118.987Z" fill="#FF8345" stroke="#E16628" stroke-width="3"/>
<path d="M46.2031 64C47.757 64 49.19 64.202 50.4502 64.668L50.4512 64.667C50.4545 64.6682 50.4576 64.6697 50.4609 64.6709C50.4666 64.673 50.4729 64.6746 50.4785 64.6768L50.4775 64.6777C51.7155 65.124 52.7995 65.7979 53.6602 66.7373H53.6611C54.516 67.6556 55.1137 68.7501 55.4746 69.9775C55.4761 69.9823 55.478 69.9874 55.4795 69.9922C55.4812 69.998 55.4837 70.004 55.4854 70.0098H55.4844C55.8412 71.181 56.0058 72.4511 56.0059 73.7998V79.833H46.5586V74.083C46.5586 72.8991 46.44 72.2131 46.3281 71.8701C46.3042 71.8688 46.2766 71.8662 46.2451 71.8662C46.1112 71.8662 46.0235 71.8788 45.9717 71.8896C45.8196 72.2644 45.6787 72.9462 45.6787 74.0664V87.7666C45.6787 88.6945 45.7434 89.3712 45.8398 89.8369C45.8787 89.9944 45.9193 90.0949 45.9482 90.1562C45.9891 90.1612 46.0449 90.167 46.1182 90.167C46.188 90.167 46.2413 90.1611 46.2803 90.1562C46.411 89.8135 46.5586 89.0677 46.5586 87.7168V81.5166H56.0898V87.667C56.0898 89.7043 55.7916 91.5485 55.1006 93.1211L55.0977 93.127C54.3668 94.7752 53.1764 96.0418 51.5742 96.8633L51.5732 96.8623C50.0174 97.6671 48.1372 98 46.0557 98C44.0279 98 42.1779 97.6312 40.6113 96.7695C39.045 95.908 37.8588 94.6373 37.0801 93.0156L37.0752 93.0049L37.0693 92.9932C36.3283 91.3992 36 89.5677 36 87.5664V74.7832C36 73.3027 36.1544 71.9185 36.4854 70.6465C36.83 69.322 37.4063 68.1291 38.2432 67.1123C39.1195 66.0475 40.2585 65.2721 41.584 64.7539C42.9356 64.2256 44.497 64 46.2031 64ZM99.0322 64C100.586 64 102.019 64.202 103.279 64.668L103.28 64.667C103.284 64.6682 103.287 64.6697 103.29 64.6709C103.296 64.673 103.302 64.6746 103.308 64.6768L103.307 64.6777C104.545 65.124 105.629 65.7979 106.489 66.7373H106.49C107.345 67.6556 107.943 68.7501 108.304 69.9775H108.305C108.306 69.9823 108.307 69.9874 108.309 69.9922C108.31 69.998 108.313 70.004 108.314 70.0098H108.313C108.67 71.181 108.835 72.4511 108.835 73.7998V79.833H99.3877V74.083C99.3877 72.8991 99.2691 72.2131 99.1572 71.8701C99.1333 71.8688 99.1057 71.8662 99.0742 71.8662C98.9402 71.8662 98.8526 71.8788 98.8008 71.8896C98.6487 72.2645 98.5078 72.9462 98.5078 74.0664V87.7666C98.5078 88.6945 98.5725 89.3712 98.6689 89.8369C98.7078 89.9944 98.7484 90.0949 98.7773 90.1562C98.8183 90.1612 98.8747 90.167 98.9482 90.167C99.0178 90.167 99.0705 90.161 99.1094 90.1562C99.2401 89.8135 99.3877 89.0677 99.3877 87.7168V81.5166H108.919V87.667C108.919 89.7043 108.621 91.5485 107.93 93.1211L107.928 93.127C107.197 94.7752 106.006 96.0418 104.403 96.8633L104.402 96.8623C102.846 97.6671 100.966 98 98.8848 98C96.857 98 95.007 97.6312 93.4404 96.7695C91.8742 95.908 90.6879 94.6373 89.9092 93.0156L89.9043 93.0049L89.8994 92.9932C89.1583 91.3992 88.8291 89.5677 88.8291 87.5664V74.7832C88.8291 73.3027 88.9835 71.9185 89.3145 70.6465C89.6591 69.322 90.2354 68.1291 91.0723 67.1123C91.9486 66.0475 93.0876 65.2721 94.4131 64.7539C95.7647 64.2256 97.326 64 99.0322 64ZM68.2246 64.333V89.8662H75.3545V97.667H58.5879V64.333H68.2246ZM85.8896 64.333V97.667H76.2529V64.333H85.8896ZM121.054 64.333V69.8516L122.845 65.5625L123.358 64.333H133.538L132.357 67.1152L126.555 80.7812L132.827 94.8525L134.081 97.667H123.736L123.214 96.4639L121.096 91.5889V97.667H111.417V64.333H121.054Z" fill="#FF8345" stroke="#FAF5E9" stroke-width="4"/>
<path d="M46.2031 65.25C47.6614 65.25 48.9432 65.4409 50.0293 65.8447L50.0303 65.8438C50.0319 65.8443 50.0335 65.8461 50.0352 65.8467C50.0369 65.8473 50.0393 65.847 50.041 65.8477L50.04 65.8486C51.129 66.2391 52.0425 66.8154 52.752 67.5947H52.751C53.4633 68.3617 53.9704 69.284 54.2803 70.3457C54.6007 71.3854 54.7558 72.5395 54.7559 73.7998V78.583H47.8086V74.083C47.8086 72.6641 47.6525 71.737 47.4131 71.2109L47.4111 71.2061C47.3182 70.9987 47.1934 70.8682 47.0361 70.7803C46.8688 70.6869 46.6181 70.6162 46.2451 70.6162C45.8207 70.6162 45.5244 70.6946 45.3193 70.8057C45.1242 70.9114 44.9733 71.0671 44.8623 71.3027C44.5924 71.8948 44.4287 72.7964 44.4287 74.0664V87.7666C44.4287 88.7603 44.498 89.5414 44.623 90.126C44.7548 90.6661 44.9471 90.9776 45.1406 91.1514C45.3133 91.2961 45.6066 91.4169 46.1182 91.417C46.5044 91.417 46.7714 91.3443 46.9551 91.2432C47.13 91.1467 47.2702 91.0027 47.376 90.7793C47.6383 90.225 47.8086 89.237 47.8086 87.7168V82.7666H54.8398V87.667C54.8398 89.5906 54.5569 91.2507 53.9561 92.6182L53.9551 92.6211C53.3392 94.0098 52.3495 95.061 51.0039 95.751L51.0029 95.75C49.6833 96.4337 48.019 96.75 46.0557 96.75C44.1735 96.75 42.5462 96.4067 41.2139 95.6738C39.8817 94.941 38.8759 93.8674 38.207 92.4746L38.2031 92.4658C37.5573 91.0765 37.25 89.4348 37.25 87.5664V74.7832C37.25 73.3878 37.395 72.1115 37.6943 70.9609C37.9989 69.7906 38.5008 68.7667 39.209 67.9062C39.9319 67.028 40.8849 66.3691 42.0391 65.918C43.2031 65.463 44.5994 65.25 46.2031 65.25ZM99.0322 65.25C100.49 65.25 101.772 65.4409 102.858 65.8447L102.859 65.8438C102.861 65.8443 102.863 65.8461 102.864 65.8467C102.866 65.8473 102.868 65.847 102.87 65.8477L102.869 65.8486C103.958 66.2391 104.872 66.8154 105.581 67.5947H105.58C106.292 68.3617 106.8 69.284 107.109 70.3457C107.43 71.3854 107.585 72.5395 107.585 73.7998V78.583H100.638V74.083C100.638 72.664 100.482 71.737 100.242 71.2109L100.24 71.2061C100.147 70.9987 100.023 70.8682 99.8652 70.7803C99.6979 70.6868 99.4473 70.6162 99.0742 70.6162C98.6498 70.6162 98.3535 70.6946 98.1484 70.8057C97.9533 70.9114 97.8024 71.0671 97.6914 71.3027C97.4216 71.8948 97.2578 72.7964 97.2578 74.0664V87.7666C97.2578 88.7591 97.3265 89.5397 97.4512 90.124C97.5829 90.6654 97.776 90.9774 97.9697 91.1514C98.1425 91.2962 98.4363 91.417 98.9482 91.417C99.3342 91.4169 99.6006 91.3443 99.7842 91.2432C99.9591 91.1468 100.099 91.0027 100.205 90.7793C100.467 90.225 100.638 89.237 100.638 87.7168V82.7666H107.669V87.667C107.669 89.5906 107.386 91.2507 106.785 92.6182L106.784 92.6211C106.168 94.0098 105.179 95.061 103.833 95.751L103.832 95.75C102.512 96.4337 100.848 96.75 98.8848 96.75C97.0026 96.75 95.3753 96.4067 94.043 95.6738C92.7108 94.941 91.705 93.8674 91.0361 92.4746L91.0322 92.4658C90.3864 91.0765 90.0791 89.4348 90.0791 87.5664V74.7832C90.0791 73.3878 90.225 72.1115 90.5244 70.9609C90.8289 69.7907 91.3299 68.7667 92.0381 67.9062C92.761 67.028 93.714 66.3692 94.8682 65.918C96.0322 65.463 97.4285 65.25 99.0322 65.25ZM66.9746 65.583V91.1162H74.1045V96.417H59.8379V65.583H66.9746ZM84.6396 65.583V96.417H77.5029V65.583H84.6396ZM119.804 65.583V76.0889L123.998 66.0439L124.19 65.583H131.649L131.207 66.626L125.192 80.793L131.685 95.3613L132.155 96.417H124.556L124.359 95.9658L119.846 85.5762V96.417H112.667V65.583H119.804Z" fill="#FF8345" stroke="#E16628" stroke-width="1.5"/>
</svg>
