<svg width="789" height="330" viewBox="0 0 789 330" fill="none" xmlns="http://www.w3.org/2000/svg">
<mask id="mask0_1787_2" style="mask-type:alpha" maskUnits="userSpaceOnUse" x="0" y="0" width="789" height="330">
<rect width="789" height="330" fill="#1C8085"/>
</mask>
<g mask="url(#mask0_1787_2)">
<rect width="789" height="330" fill="url(#paint0_linear_1787_2)"/>
<rect x="189.453" y="-234" width="789" height="87.0624" transform="rotate(40.9629 189.453 -234)" fill="#2C8084"/>
<rect x="45.738" y="-84.9731" width="789" height="136.886" transform="rotate(40.9629 45.738 -84.9731)" fill="#2C8084"/>
</g>
<rect x="572" width="19" height="369" transform="rotate(90 572 0)" fill="#285C68"/>
<path d="M389.653 88.6067C392.109 86.6257 394.968 85.3369 398.079 85.1569C401.216 84.9753 404.096 85.9532 406.479 87.628C411.066 90.8512 413.824 96.5604 414.949 102.712C415.757 107.133 416.16 110.596 416.323 113.184C416.389 114.239 416.419 115.225 416.412 116.116C418.787 119.746 421.829 126.016 422.302 133.212C422.577 137.411 422.164 140.79 421.328 143.435C421.271 143.616 421.208 143.796 421.145 143.978C423.718 144.533 426.756 145.834 429.092 148.676C432.591 152.933 432.969 157.556 432.154 160.843L433.851 174.017C434.626 176.387 435.773 180.967 435.909 185.781C435.93 186.519 435.925 187.233 435.903 187.921C436.813 188.264 437.728 188.758 438.593 189.447C440.26 190.775 441.41 192.56 442.093 194.58C443.4 198.446 443.526 202.47 442.232 206.455C440.967 210.348 438.475 213.819 435.171 216.933C430.225 221.594 424.793 222.71 420.742 221.741L395.559 226.595L395.299 226.645L395.037 226.672L373.194 228.92C370.051 229.413 365.314 229.505 360.274 228.436C355.068 227.332 349.115 224.897 344.353 219.931C335.363 210.557 335.435 201.963 334.599 195.475C334.071 191.376 334.331 185.977 334.771 180.998C335.222 175.895 335.915 170.7 336.429 166.85L336.482 166.45L336.647 165.148C336.945 162.676 337.031 161.131 337.044 160.226C334.197 155.958 330.31 148.217 330.005 140.065C329.847 135.86 330.498 131.369 331.338 127.822C331.762 126.032 332.266 124.344 332.812 122.94C332.987 122.487 333.185 122.024 333.402 121.57C333.214 119.345 333.097 116.52 333.191 113.544C333.317 109.568 333.831 104.776 335.387 100.728C336.584 97.6131 338.713 94.9935 341.961 93.7841C344.979 92.6609 347.904 93.1637 349.971 93.8332C353.463 94.9642 356.709 97.3267 358.415 98.6303L359.048 99.1179L359.115 99.1692L359.181 99.2228L359.18 99.2229C361.226 100.825 364.293 103.853 366.715 106.342C368.927 105.511 371.615 104.6 374.149 103.984C376.033 103.526 377.757 103.225 379.25 103.039C379.896 101.594 380.69 100.007 381.622 98.3969C383.503 95.1478 386.167 91.4177 389.653 88.6067Z" fill="white" stroke="#2C8084" stroke-width="12"/>
<path d="M340.987 102.881C338.593 109.112 339.053 118.885 339.582 122.993C338.205 124.119 335.737 132.816 336.001 139.84C336.283 147.365 340.461 154.893 342.892 158.109C342.892 158.109 343.454 159.549 342.429 167.243L342.376 167.643C341.345 175.376 339.674 187.909 340.55 194.708C341.442 201.626 341.296 208.074 348.683 215.778C356.07 223.481 367.604 223.779 372.447 222.966L394.423 220.703L421.164 215.549C422.595 216.314 426.576 216.788 431.057 212.566C436.657 207.289 438.254 201.958 436.409 196.502C434.933 192.136 430.638 193.069 428.675 194.082C429.14 193.262 430.039 190.489 429.911 185.95C429.783 181.411 428.569 177.012 427.978 175.38L426.029 160.256C426.633 159.039 427.165 155.782 424.457 152.486C421.748 149.191 416.961 149.383 414.925 149.835L413.754 144.754C414.806 144.049 416.789 140.833 416.314 133.605C415.84 126.377 412.1 120.102 410.29 117.867C410.52 116.699 410.593 112.248 409.047 103.792C407.114 93.2212 400.142 87.8557 393.419 93.2776C388.04 97.6152 384.518 105.434 383.429 108.801C382.469 108.735 379.552 108.845 375.566 109.814C371.58 110.783 366.984 112.628 365.184 113.43C362.975 111.057 357.924 105.824 355.389 103.872L355.388 103.872C352.219 101.434 343.98 95.0925 340.987 102.881Z" fill="white"/>
<path d="M378.819 163.058C371.576 163.185 355.561 162.526 341.836 157.741L342.731 164.683C357.511 169.837 368.325 169.25 377.602 169.264C386.88 169.279 393.7 167.694 395.951 166.9L395.184 160.949C392.747 161.599 386.062 162.931 378.819 163.058Z" fill="#2C8084"/>
<path d="M400.879 158.199C403.087 157.074 408.193 153.929 410.958 150.346C413.64 146.871 413.98 145.342 413.808 144.971L413.791 144.94C413.797 144.949 413.803 144.96 413.808 144.971L416.413 149.644C413.934 149.963 412.446 150.155 410.718 152.394C408.99 154.633 409.027 158.83 409.261 160.648C408.333 161.272 405.722 162.919 402.702 164.518C399.681 166.117 400.228 160.972 400.879 158.199Z" fill="#2C8084"/>
<path d="M369.383 201.256C371.847 199.544 375.141 198.804 378.964 199.88L379.335 199.989L379.493 200.039L379.644 200.108C381.689 201.052 386.118 204.118 389.753 209.547C391.889 212.738 393.214 215.36 393.421 217.743C393.656 220.451 392.437 222.361 390.929 223.931C389.339 225.584 386.718 227.218 383.638 228.178C380.523 229.149 376.755 229.487 372.912 228.297C368.258 226.856 366.246 222.085 365.385 218.267C364.487 214.284 364.536 210.059 364.953 207.921C365.416 205.542 366.936 202.957 369.383 201.256Z" fill="white" stroke="#2C8084" stroke-width="5"/>
<path d="M411.257 162.892C412.845 163.809 415.475 164.652 418.844 164.218C421.048 163.934 422.653 163.315 423.779 162.601C424.428 162.189 424.94 161.728 425.305 161.264C426.255 161.506 427.511 162.196 427.972 163.713C428.895 166.754 428.727 169.416 428.169 174.084C427.886 176.456 427.578 184.366 427.035 192.387C426.761 196.435 426.426 200.546 426.002 204.088C425.575 207.665 425.069 210.55 424.483 212.21C423.245 215.717 422.017 217.5 420.639 218.58C419.236 219.679 417.537 220.171 414.981 220.791C412.871 221.302 410.216 220.677 407.96 219.306C405.681 217.921 404.167 216 403.945 214.275C403.668 212.132 403.614 207.351 403.857 201.359C404.098 195.398 404.63 188.33 405.498 181.655C406.696 172.437 409.55 165.843 411.257 162.892Z" fill="#2C8084" stroke="white" stroke-width="2.5"/>
<ellipse cx="397.058" cy="162.462" rx="7.9949" ry="2.26693" transform="rotate(-16.7307 397.058 162.462)" fill="#2C8084"/>
<ellipse cx="397.567" cy="162.827" rx="6.5" ry="6" transform="rotate(-7.34245 397.567 162.827)" fill="#2C8084"/>
<path d="M400.019 163.855C399.622 163.906 398.781 163.642 398.67 162.776C398.558 161.911 399.303 161.427 399.699 161.376C400.096 161.325 400.939 161.604 401.05 162.47L401.19 163.552C401.283 164.273 401.363 165.839 400.943 166.333C400.523 166.827 399.854 167.268 399.054 167.509L398.808 167.074L398.563 166.64C398.761 166.614 399.263 166.44 399.683 165.946C400.103 165.452 400.074 164.287 400.019 163.855Z" fill="white"/>
<path d="M350.892 108.467C354.034 111.712 355.739 115.257 357.144 117.357C357.289 118.479 350.177 120.537 347.945 120.824C345.643 121.121 345.909 118.235 345.961 114.235C346.013 110.236 346.964 104.41 350.892 108.467Z" fill="#2C8084"/>
<path d="M398.335 102.354C397.012 106.175 396.598 109.422 396.557 110.568C399.641 113.365 403.196 112.184 404.588 111.244C404.809 108.554 404.911 102.305 403.556 98.8293C401.861 94.4848 399.99 97.5777 398.335 102.354Z" fill="#2C8084"/>
<path d="M393.86 138.938L386.981 140.329L389.908 143.48L387.012 148.391L389.123 149.127L391.588 144.776L394.578 148.424L396.434 147.177L392.388 143.161L393.86 138.938Z" fill="#2C8084"/>
<ellipse cx="372.857" cy="139.292" rx="6" ry="6.5" transform="rotate(-7.34245 372.857 139.292)" fill="#2C8084"/>
<ellipse cx="402.835" cy="134.253" rx="5.5" ry="6.5" transform="rotate(-7.34245 402.835 134.253)" fill="#2C8084"/>
<path d="M364.346 136.212L364.046 129.187L370.038 129.501C369.348 129.932 367.687 131.06 366.563 132.122C365.439 133.185 364.616 135.291 364.346 136.212Z" fill="#2C8084"/>
<path d="M408.579 127.967L406.413 122.197L401.148 125.074C401.957 125.164 403.251 124.968 404.724 125.439C406.197 125.91 407.936 127.255 408.579 127.967Z" fill="#2C8084"/>
<path d="M356.028 164.447C354.036 156.107 349.403 148.218 347.336 145.317C349.24 144.958 353.511 143.36 355.36 139.834C357.671 135.427 355.209 131.195 348.265 130.154C341.322 129.113 335.731 132.633 331.587 136.964C328.273 140.428 329.28 146.126 330.197 148.541C329.712 155.715 329.606 172.163 333.065 180.565C337.387 191.068 341.898 194.072 352.647 189.642C363.396 185.212 358.519 174.873 356.028 164.447Z" fill="white" stroke="#2C8084" stroke-width="3"/>
<path d="M354.507 257.391C353.43 257.391 352.507 257.012 351.737 256.254C350.968 255.497 350.589 254.573 350.601 253.484C350.589 252.419 350.968 251.508 351.737 250.75C352.507 249.992 353.43 249.614 354.507 249.614C355.549 249.614 356.454 249.992 357.224 250.75C358.005 251.508 358.402 252.419 358.413 253.484C358.402 254.206 358.212 254.863 357.845 255.455C357.49 256.047 357.017 256.521 356.425 256.876C355.845 257.219 355.206 257.391 354.507 257.391ZM371.009 257.391C369.932 257.391 369.009 257.012 368.239 256.254C367.47 255.497 367.091 254.573 367.103 253.484C367.091 252.419 367.47 251.508 368.239 250.75C369.009 249.992 369.932 249.614 371.009 249.614C372.051 249.614 372.956 249.992 373.726 250.75C374.507 251.508 374.904 252.419 374.915 253.484C374.904 254.206 374.714 254.863 374.347 255.455C373.992 256.047 373.519 256.521 372.927 256.876C372.347 257.219 371.708 257.391 371.009 257.391ZM387.511 257.391C386.434 257.391 385.511 257.012 384.741 256.254C383.972 255.497 383.593 254.573 383.605 253.484C383.593 252.419 383.972 251.508 384.741 250.75C385.511 249.992 386.434 249.614 387.511 249.614C388.553 249.614 389.458 249.992 390.228 250.75C391.009 251.508 391.406 252.419 391.417 253.484C391.406 254.206 391.216 254.863 390.849 255.455C390.494 256.047 390.021 256.521 389.429 256.876C388.849 257.219 388.209 257.391 387.511 257.391ZM404.013 257.391C402.936 257.391 402.013 257.012 401.243 256.254C400.474 255.497 400.095 254.573 400.107 253.484C400.095 252.419 400.474 251.508 401.243 250.75C402.013 249.992 402.936 249.614 404.013 249.614C405.055 249.614 405.96 249.992 406.73 250.75C407.511 251.508 407.907 252.419 407.919 253.484C407.907 254.206 407.718 254.863 407.351 255.455C406.996 256.047 406.523 256.521 405.931 256.876C405.351 257.219 404.711 257.391 404.013 257.391ZM420.515 257.391C419.438 257.391 418.515 257.012 417.745 256.254C416.976 255.497 416.597 254.573 416.609 253.484C416.597 252.419 416.976 251.508 417.745 250.75C418.515 249.992 419.438 249.614 420.515 249.614C421.557 249.614 422.462 249.992 423.232 250.75C424.013 251.508 424.409 252.419 424.421 253.484C424.409 254.206 424.22 254.863 423.853 255.455C423.498 256.047 423.024 256.521 422.433 256.876C421.853 257.219 421.213 257.391 420.515 257.391Z" fill="white"/>
<defs>
<linearGradient id="paint0_linear_1787_2" x1="523.677" y1="-29.2986" x2="267.177" y2="339.701" gradientUnits="userSpaceOnUse">
<stop stop-color="#1C8085"/>
<stop offset="1" stop-color="#0D676B"/>
</linearGradient>
</defs>
</svg>
