<svg width="339" height="173" viewBox="0 0 339 173" fill="none" xmlns="http://www.w3.org/2000/svg">
<rect width="339" height="173" rx="40" fill="#3F5EC5" fill-opacity="0.4"/>
<path d="M136.365 116.911L89.4111 143.451V92.2949L136.365 116.911ZM85.3047 142.924L38.418 117.523L85.3047 92.2773V142.924ZM35 63.7686L82.5 88.6719L35 114.005V63.7686ZM138.56 112.891L92.0527 88.6445L138.56 63.6016V112.891ZM85.3047 85.126L36.5879 59.7266L85.3047 33.3379V85.126ZM136.902 59.6562L89.4111 84.9854V32.8086L136.902 59.6562Z" fill="#FFFAED"/>
<path fill-rule="evenodd" clip-rule="evenodd" d="M165.071 68.6443C165.071 69.8801 165.33 70.9501 165.852 71.8542C166.373 72.7583 167.058 73.5084 167.911 74.1019C168.763 74.6967 169.734 75.1356 170.823 75.4217C171.912 75.7072 173.025 75.85 174.162 75.85C175.108 75.85 176.22 75.7072 177.499 75.4217C178.777 75.1356 180.103 74.6967 181.476 74.1019C182.848 73.5084 184.222 72.7107 185.594 71.7121C186.967 70.7122 188.199 69.512 189.287 68.1095C190.375 66.7064 191.251 65.0648 191.913 63.1865C192.577 61.307 192.909 59.1545 192.909 56.729C192.909 54.3047 192.577 52.0934 191.913 50.0943C191.251 48.0982 190.351 46.3139 189.216 44.7436C188.079 43.1746 186.767 41.8185 185.275 40.6765C183.784 39.537 182.233 38.5853 180.624 37.8234C179.014 37.0633 177.38 36.5049 175.723 36.1479C174.065 35.7917 172.504 35.612 171.037 35.612C169.569 35.612 168.432 35.6834 167.628 35.8261C166.823 35.9696 166.23 36.1479 165.852 36.3614C165.474 36.5762 165.249 36.8254 165.177 37.1103C165.106 37.3951 165.071 37.6574 165.071 37.8948V68.6443ZM160.799 77.5398C159.756 77.5398 158.644 77.5842 157.462 77.6756C156.28 77.7652 155.263 77.8103 154.413 77.8103C154.224 77.8103 153.962 77.7883 153.632 77.7433C153.302 77.6969 153.136 77.496 153.136 77.1341C153.136 76.8492 153.302 76.5625 153.632 76.2782C153.962 75.9921 154.671 75.7536 155.76 75.5632C156.138 75.5162 156.516 75.4324 156.895 75.3128C157.273 75.1944 157.616 74.9791 157.923 74.6704C158.23 74.3611 158.479 73.9216 158.669 73.3506C158.858 72.7789 158.952 71.9688 158.952 70.9214V37.3532C158.952 37.0207 158.786 36.7716 158.456 36.6044C158.125 36.4372 157.711 36.3189 157.214 36.2469C156.717 36.1755 156.197 36.128 155.652 36.1035C155.109 36.0804 154.602 36.0446 154.128 35.9964C153.324 35.9013 152.768 35.8192 152.461 35.7473C152.154 35.6759 152 35.4499 152 35.0679C152 34.7824 152.106 34.5565 152.321 34.3893C152.532 34.2227 152.78 34.1038 153.065 34.033C153.348 33.9622 153.643 33.914 153.951 33.8896C154.257 33.8658 154.53 33.8545 154.767 33.8545H161.225C162.976 33.8545 164.738 33.7857 166.514 33.6523C168.289 33.5159 170.313 33.4482 172.584 33.4482C176.324 33.4482 179.826 33.9253 183.093 34.8758C186.357 35.8261 189.21 37.3019 191.649 39.2985C194.086 41.297 196.015 43.854 197.435 46.9688C198.856 50.0842 199.566 53.782 199.566 58.0632C199.566 60.7272 198.986 63.2479 197.826 65.6252C196.666 68.0043 195.093 70.0723 193.104 71.8336C191.116 73.5941 188.785 74.9834 186.11 76.0065C183.435 77.0295 180.584 77.5398 177.555 77.5398H160.799Z" fill="#FFFAED"/>
<path fill-rule="evenodd" clip-rule="evenodd" d="M214.025 78.8257C212.369 78.8257 210.984 78.5859 209.871 78.1119C208.758 77.6361 207.882 76.9468 207.243 76.0426C206.604 75.1398 206.155 74.068 205.894 72.8308C205.633 71.5942 205.504 70.2144 205.504 68.6923C205.504 67.5979 205.514 66.3833 205.538 65.0522C205.56 63.7192 205.571 62.3882 205.571 61.0552C205.571 59.6766 205.581 58.3329 205.603 57.0256C205.627 55.7158 205.637 54.5382 205.637 53.4907C205.637 52.9679 205.402 52.6355 204.928 52.4921C204.456 52.3506 204.006 52.2304 203.58 52.1358C202.73 51.8973 202.161 51.7195 201.877 51.6011C201.593 51.4828 201.452 51.3038 201.452 51.0652C201.452 50.7321 201.617 50.5425 201.948 50.4942C202.28 50.4472 202.706 50.4229 203.225 50.4229C203.746 50.4229 204.254 50.4454 204.75 50.4905C205.247 50.5356 205.758 50.5581 206.278 50.5581C206.799 50.5581 207.321 50.5356 207.845 50.4905C208.367 50.4454 208.889 50.4229 209.412 50.4229C209.884 50.4229 210.183 50.5174 210.3 50.7084C210.42 50.898 210.48 51.2561 210.48 51.7771C210.48 54.962 210.456 58.1351 210.411 61.295C210.367 64.4574 210.345 67.6292 210.345 70.8136C210.345 72.2874 210.841 73.4156 211.834 74.2C212.828 74.9839 214.2 75.3759 215.95 75.3759C217.938 75.3759 219.486 75.1868 220.597 74.8061C221.709 74.4255 222.549 73.9377 223.117 73.3442C223.683 72.7513 224.05 72.0738 224.217 71.3119C224.383 70.5518 224.465 69.8155 224.465 69.1018C224.465 66.5373 224.486 63.9935 224.532 61.474C224.576 58.9553 224.601 56.4108 224.601 53.8457C224.601 53.6547 224.565 53.4888 224.493 53.3461C224.422 53.204 224.257 53.0844 223.996 52.9892C223.736 52.8946 223.37 52.7882 222.898 52.6699C222.424 52.551 221.762 52.3725 220.911 52.1333C220.627 52.0388 220.213 51.8961 219.669 51.7063C219.125 51.516 218.855 51.2787 218.855 50.9932C218.855 50.7559 219.018 50.6012 219.349 50.5299C219.681 50.4585 220.035 50.4229 220.414 50.4229C221.029 50.4229 221.632 50.4454 222.223 50.4905C222.813 50.5356 223.416 50.5581 224.033 50.5581C224.741 50.5581 225.439 50.5356 226.125 50.4905C226.811 50.4454 227.509 50.4229 228.219 50.4229C228.456 50.4229 228.764 50.5067 229.142 50.672C229.52 50.8386 229.71 51.2543 229.71 51.9198C229.71 55.533 229.665 59.1356 229.576 62.7243C229.486 66.315 229.441 69.9169 229.441 73.5302C229.441 74.2903 229.665 74.7661 230.115 74.9557C230.564 75.1449 230.953 75.2406 231.286 75.2406C232.657 75.2406 233.615 75.2657 234.16 75.3152C234.703 75.3627 234.975 75.58 234.975 75.9663C234.975 76.2568 234.868 76.449 234.655 76.5454C234.443 76.6431 234.075 76.7383 233.556 76.8353C231.049 77.2235 229.08 77.5591 227.65 77.8496C226.219 78.1395 225.337 78.2853 225.004 78.2853C224.735 78.2853 224.576 78.177 224.532 77.9648C224.486 77.75 224.465 77.4771 224.465 77.1433V75.5017C224.465 74.9307 224.3 74.6458 223.968 74.6458C223.683 74.6458 223.281 74.8612 222.76 75.2895C222.239 75.7171 221.564 76.2048 220.736 76.7514C219.908 77.2992 218.937 77.7801 217.824 78.1983C216.711 78.6153 215.445 78.8257 214.025 78.8257Z" fill="#FFFAED"/>
<path fill-rule="evenodd" clip-rule="evenodd" d="M240.935 36.9152C240.935 35.9642 240.758 35.2855 240.403 34.881C240.048 34.4778 239.646 34.1917 239.197 34.0252C238.747 33.858 238.346 33.7278 237.991 33.6326C237.636 33.5368 237.458 33.3239 237.458 32.9902C237.458 32.7517 237.576 32.5739 237.814 32.4549C238.05 32.3353 238.428 32.1801 238.949 31.9897L243.784 30.1352C243.973 30.0451 244.164 30 244.353 30C244.542 30 244.757 30 244.996 30C245.183 30 245.362 30.0826 245.527 30.2498C245.694 30.417 245.777 30.7607 245.777 31.2854V60.6412C245.777 61.4031 245.99 61.7825 246.415 61.7825C246.51 61.7825 246.875 61.6285 247.516 61.3198C248.154 61.0112 248.898 60.6048 249.75 60.1052C250.601 59.6056 251.512 59.0433 252.48 58.426C253.45 57.8062 254.337 57.212 255.142 56.6397C255.947 56.0681 256.619 55.5553 257.162 55.1027C257.708 54.6513 257.979 54.3057 257.979 54.0678C257.979 53.5913 257.837 53.2213 257.552 52.9596C257.269 52.6979 256.962 52.4837 256.63 52.3159C256.299 52.15 255.992 51.9829 255.709 51.8163C255.424 51.6491 255.284 51.4225 255.284 51.1357C255.284 50.9473 255.389 50.7814 255.602 50.6368C255.815 50.494 256.039 50.4226 256.276 50.4226C257.034 50.4226 257.895 50.4451 258.865 50.4902C259.834 50.5353 260.793 50.5578 261.739 50.5578C262.637 50.5578 263.57 50.5353 264.54 50.4902C265.51 50.4451 266.349 50.4226 267.059 50.4226C267.39 50.4226 267.698 50.4702 267.982 50.5654C268.264 50.6605 268.406 50.8978 268.406 51.2785C268.406 51.4682 268.276 51.6473 268.016 51.8125C267.755 51.9791 267.437 52.1344 267.059 52.2777C266.68 52.4192 266.29 52.5507 265.888 52.6697C265.486 52.7886 265.167 52.8951 264.93 52.9902C264.41 53.2288 263.407 53.7622 261.916 54.5956C260.427 55.4283 258.889 56.3186 257.305 57.269C255.719 58.2206 254.312 59.1122 253.083 59.9436C251.854 60.7764 251.24 61.286 251.24 61.4776C251.24 61.7161 251.31 61.9171 251.451 62.0843C251.593 62.2502 251.713 62.3805 251.807 62.4762L264.079 73.6739C264.789 74.3401 265.486 74.8397 266.171 75.1722C266.857 75.504 267.46 75.7795 267.982 75.9924C268.502 76.2046 268.915 76.3849 269.221 76.5264C269.529 76.6698 269.683 76.8601 269.683 77.0974C269.683 77.5726 269.069 77.8106 267.84 77.8106C267.082 77.8106 266.255 77.7655 265.356 77.6759C264.458 77.5845 263.465 77.5401 262.377 77.5401C261.43 77.5401 260.532 77.5845 259.681 77.6759C258.83 77.7655 257.978 77.8106 257.127 77.8106C256.371 77.8106 255.826 77.7742 255.496 77.7041C255.164 77.6327 254.999 77.4312 254.999 77.0974C254.999 76.7662 255.189 76.5389 255.567 76.4218C255.947 76.3036 256.441 76.1953 257.057 76.1C257.435 76.0518 257.752 75.9341 258.014 75.7438C258.274 75.5541 258.405 75.3412 258.405 75.1015C258.405 74.8654 258.145 74.4841 257.623 73.9607L246.911 63.7672C246.628 63.4811 246.415 63.3396 246.274 63.3396C245.942 63.3396 245.777 63.4592 245.777 63.6952V73.8192C245.777 74.6268 245.954 75.1866 246.308 75.4946C246.665 75.8027 247.007 76.0043 247.339 76.1C247.906 76.291 248.391 76.4218 248.793 76.492C249.195 76.5646 249.395 76.7662 249.395 77.0974C249.395 77.3823 249.218 77.5726 248.863 77.6684C248.507 77.7636 248.142 77.8106 247.764 77.8106C246.911 77.8106 246.107 77.7655 245.348 77.6759C244.589 77.5845 243.807 77.5401 243.002 77.5401C242.145 77.5401 241.234 77.5845 240.262 77.6759C239.291 77.7655 238.499 77.8106 237.884 77.8106C237.647 77.8106 237.306 77.7742 236.857 77.7041C236.407 77.6309 236.183 77.4305 236.183 77.0974C236.183 76.7643 236.3 76.5389 236.537 76.42C236.773 76.3004 237.081 76.1928 237.458 76.0969C237.932 75.9548 238.381 75.8371 238.807 75.7407C239.232 75.6455 239.611 75.5027 239.942 75.3131C240.274 75.1227 240.52 74.8366 240.687 74.4566C240.853 74.0766 240.935 73.5049 240.935 72.7429V36.9152Z" fill="#FFFAED"/>
<path fill-rule="evenodd" clip-rule="evenodd" d="M281.057 58.8069C282.619 58.8069 283.872 58.7487 284.818 58.6291C285.762 58.5114 286.495 58.3079 287.016 58.0224C287.536 57.7382 287.879 57.3812 288.045 56.9536C288.209 56.526 288.292 55.9782 288.292 55.312C288.292 54.0761 287.796 53.0437 286.803 52.2098C285.809 51.3789 284.557 50.9626 283.043 50.9626C281.766 50.9626 280.621 51.2361 279.604 51.7827C278.586 52.3305 277.735 52.9829 277.048 53.7436C276.363 54.5043 275.831 55.2889 275.453 56.0978C275.074 56.9061 274.886 57.5954 274.886 58.1664C274.886 58.3079 274.921 58.4162 274.991 58.4863C275.064 58.5584 275.3 58.6185 275.702 58.6654C276.103 58.7124 276.719 58.7487 277.546 58.7718C278.374 58.7956 279.544 58.8069 281.057 58.8069ZM274.306 60.9719C274.216 61.208 274.173 61.5417 274.173 61.9687C274.173 62.3982 274.173 62.8966 274.173 63.4675C274.173 64.9884 274.302 66.4628 274.562 67.889C274.823 69.3159 275.319 70.5744 276.052 71.6669C276.786 72.7607 277.825 73.6529 279.173 74.3428C280.521 75.0309 282.283 75.3746 284.459 75.3746C285.83 75.3746 286.895 75.2331 287.651 74.947C288.407 74.6622 288.998 74.3428 289.425 73.9853C289.85 73.6272 290.18 73.2948 290.417 72.9867C290.654 72.678 290.914 72.5215 291.198 72.5215C291.623 72.5215 291.837 72.7125 291.837 73.0931C291.837 73.2347 291.646 73.6047 291.269 74.197C290.891 74.7943 290.275 75.4366 289.425 76.1297C288.573 76.8253 287.497 77.4464 286.197 77.998C284.896 78.5477 283.323 78.8244 281.478 78.8244C277.555 78.8244 274.525 77.5272 272.394 74.9333C270.262 72.3406 269.196 68.8069 269.196 64.3329C269.196 62.6674 269.456 60.9425 269.976 59.1594C270.494 57.3744 271.285 55.7553 272.348 54.3046C273.411 52.8527 274.745 51.6513 276.351 50.6996C277.957 49.7486 279.87 49.2715 282.09 49.2715C284.121 49.2715 285.832 49.6522 287.226 50.4129C288.618 51.1736 289.74 52.0895 290.591 53.1595C291.441 54.2295 292.054 55.3352 292.432 56.4766C292.81 57.6186 293 58.5684 293 59.3303C293 59.9965 292.916 60.4366 292.752 60.6489C292.586 60.8642 292.197 60.9719 291.584 60.9719H274.306Z" fill="#FFFAED"/>
<path d="M154.92 87.4443H158.822V102.407H154.92V87.4443Z" fill="#FFFAED"/>
<path d="M167.541 96.618C166.422 95.6415 165.388 94.3819 165.388 94.3819C165.388 94.3819 165.675 96.3031 165.675 97.5344V102.406H162.088V87.2422H162.403L169.319 93.2038C170.523 94.2652 171.468 95.4681 171.468 95.4681C171.468 95.4681 171.238 93.5187 171.238 92.2875V87.4403H174.822V102.633H174.507L167.541 96.618Z" fill="#FFFAED"/>
<path d="M183.49 96.618C182.371 95.6415 181.337 94.3819 181.337 94.3819C181.337 94.3819 181.624 96.3031 181.624 97.5344V102.406H178.036V87.2422H178.352L185.268 93.2038C186.471 94.2652 187.417 95.4681 187.417 95.4681C187.417 95.4681 187.187 93.5187 187.187 92.2875V87.4403H190.774V102.633H190.458L183.49 96.618Z" fill="#FFFAED"/>
<path d="M193.618 94.9242C193.618 90.3389 197.29 87.1865 201.681 87.1865C206.069 87.1865 209.741 90.3389 209.741 94.9242C209.741 99.4564 206.069 102.665 201.681 102.665C197.287 102.665 193.618 99.4564 193.618 94.9242ZM205.754 94.9242C205.754 92.4051 204.089 90.6255 201.678 90.6255C199.27 90.6255 197.605 92.4016 197.605 94.9242C197.605 97.507 199.27 99.2265 201.678 99.2265C204.089 99.2265 205.754 97.507 205.754 94.9242Z" fill="#FFFAED"/>
<path d="M210.311 87.4443H214.613L216.535 91.8032C217.311 93.5793 217.768 95.5288 217.768 95.5288C217.768 95.5288 218.225 93.551 219 91.8032L220.924 87.4443H224.882L217.796 102.608H217.449L210.311 87.4443Z" fill="#FFFAED"/>
<path d="M229.936 87.2705H230.251L237.309 102.406H233.265L232.748 101.2H227.213L226.696 102.406H222.907L229.936 87.2705ZM231.77 98.564L231.14 97.0744C230.481 95.5283 230.021 93.922 230.021 93.922C230.021 93.922 229.618 95.5283 228.926 97.0744L228.268 98.564H231.77Z" fill="#FFFAED"/>
<path d="M240.836 90.8267H236.59V87.4443H249.013V90.8267H244.767V102.407H240.836V90.8267Z" fill="#FFFAED"/>
<path d="M251.707 87.4443H255.606V102.407H251.707V87.4443Z" fill="#FFFAED"/>
<path d="M258.507 94.9242C258.507 90.3389 262.179 87.1865 266.57 87.1865C270.961 87.1865 274.63 90.3389 274.63 94.9242C274.63 99.4564 270.961 102.665 266.57 102.665C262.179 102.665 258.507 99.4564 258.507 94.9242ZM270.643 94.9242C270.643 92.4051 268.978 90.6255 266.57 90.6255C264.162 90.6255 262.498 92.4016 262.498 94.9242C262.498 97.507 264.162 99.2265 266.57 99.2265C268.978 99.2265 270.643 97.507 270.643 94.9242Z" fill="#FFFAED"/>
<path d="M282.919 96.618C281.803 95.6415 280.769 94.3819 280.769 94.3819C280.769 94.3819 281.056 96.3031 281.056 97.5344V102.406H277.469V87.2422H277.784L284.7 93.2038C285.904 94.2652 286.85 95.4681 286.85 95.4681C286.85 95.4681 286.62 93.5187 286.62 92.2875V87.4403H290.207V102.633H289.891L282.919 96.618Z" fill="#FFFAED"/>
<path d="M154 123.919C154 114.936 160.881 108.546 169.209 108.546C174.762 108.546 178.321 110.534 181.037 114.331L179.287 115.657C176.992 112.523 173.855 110.651 169.209 110.651C161.847 110.651 156.478 116.439 156.478 123.915C156.478 131.451 161.847 137.239 169.028 137.239C173.915 137.239 177.474 135.131 179.769 131.993L181.579 133.319C178.923 137.116 174.762 139.348 169.028 139.348C160.884 139.352 154 132.962 154 123.919Z" fill="#FFFAED"/>
<path d="M183.136 123.919C183.136 114.875 190.258 108.546 198.706 108.546C207.216 108.546 214.214 114.875 214.214 123.919C214.214 132.962 207.216 139.352 198.706 139.352C190.258 139.352 183.136 132.962 183.136 123.919ZM211.742 123.919C211.742 116.383 206.309 110.655 198.71 110.655C191.107 110.655 185.615 116.383 185.615 123.919C185.615 131.455 191.107 137.243 198.71 137.243C206.309 137.243 211.742 131.455 211.742 123.919Z" fill="#FFFAED"/>
<path d="M217.607 124.161H224.81V126.33H217.607V124.161Z" fill="#FFFAED"/>
<path d="M228.896 109.026H231.307V136.761H242.699V138.87H228.896V109.026Z" fill="#FFFAED"/>
<path d="M249.717 133.447L247.542 138.874H245.131L257.38 108.67H257.921L270.235 138.874H267.699L265.528 133.447M264.682 131.335L258.828 116.563C258.347 115.357 257.681 112.643 257.681 112.643C257.681 112.643 256.959 115.357 256.474 116.563L250.56 131.335" fill="#FFFAED"/>
<path d="M273.362 109.026H283.441C289.053 109.026 291.525 112.221 291.525 116.322C291.525 119.216 290.378 121.388 287.722 122.354C291.525 123.196 294 126.151 294 130.191C294 135.017 291.044 138.873 284.648 138.873H273.366V109.026H273.362ZM283.865 121.509C287.789 121.509 289.173 119.396 289.173 116.322C289.173 113.307 287.602 111.139 283.196 111.139H275.774V121.509H283.865ZM284.407 136.761C289.655 136.761 291.528 134.047 291.528 130.187C291.528 126.331 289.418 123.557 284.35 123.557H275.781V136.761H284.407Z" fill="#FFFAED"/>
</svg>
