<svg width="322" height="139" viewBox="0 0 322 139" fill="none" xmlns="http://www.w3.org/2000/svg">
<rect width="322" height="139" rx="40" fill="#3FBFC5" fill-opacity="0.4"/>
<path fill-rule="evenodd" clip-rule="evenodd" d="M43.2463 61.7243C39.4859 59.325 37 55.1711 37 50.4485C37 43.0211 43.1491 37 50.7343 37H74.2657C81.8509 37 88 43.0211 88 50.4485C88 55.1711 85.5142 59.325 81.7537 61.7243C85.5142 64.1236 88 68.2776 88 73.0001C88 80.4275 81.8509 86.4486 74.2657 86.4486H74.0153C70.4297 86.4486 67.165 85.1032 64.719 82.8998V95.4288C64.719 102.939 58.4354 109 50.7966 109C43.2269 109 37 102.994 37 95.5515C37 90.829 39.4858 86.6751 43.246 84.2758C39.4858 81.8765 37 77.7226 37 73.0001C37 68.2776 39.4859 64.1236 43.2463 61.7243ZM64.719 73.0001C64.719 78.0275 68.8812 82.103 74.0153 82.103H74.2657C79.3999 82.103 83.562 78.0275 83.562 73.0001C83.562 67.9727 79.3999 63.8973 74.2657 63.8973H74.0153C68.8812 63.8973 64.719 67.9727 64.719 73.0001ZM60.281 63.8973H50.7343C45.6001 63.8973 41.438 67.9727 41.438 73.0001C41.438 78.0173 45.5833 82.0864 50.7031 82.103H50.7177H60.281V63.8973ZM50.7343 86.4486C50.7239 86.4486 50.7135 86.4486 50.7031 86.4486C45.5833 86.4651 41.438 90.5343 41.438 95.5515C41.438 100.564 45.6468 104.654 50.7966 104.654C56.0155 104.654 60.281 100.509 60.281 95.4288V86.4486H50.7343ZM60.281 59.5514H50.7343C45.6001 59.5514 41.438 55.4759 41.438 50.4485C41.438 45.4211 45.6001 41.3457 50.7343 41.3457H60.281V59.5514ZM74.2657 59.5514H64.719V41.3457H74.2657C79.3999 41.3457 83.562 45.4211 83.562 50.4485C83.562 55.4759 79.3999 59.5514 74.2657 59.5514Z" fill="#FFFAED"/>
<path d="M267.532 90.6139C265.103 90.6139 262.923 90.1423 260.99 89.1993C259.107 88.256 257.596 86.9901 256.456 85.4014C255.365 83.7634 254.82 81.8768 254.82 79.7423C254.82 76.9621 255.712 74.7035 257.497 72.9659C259.28 71.2286 261.833 70.0371 265.153 69.3917L273.85 67.6047C275.584 67.2572 276.774 66.7111 277.418 65.9664C278.062 65.2217 278.385 64.1298 278.385 62.69L279.276 71.4023L266.788 74.0829C265.103 74.4305 263.79 75.051 262.848 75.9447C261.957 76.8383 261.511 78.0792 261.511 79.6678C261.511 81.3059 262.13 82.6215 263.369 83.6144C264.657 84.6073 266.392 85.1038 268.572 85.1038C270.356 85.1038 271.992 84.7066 273.478 83.9123C275.015 83.118 276.204 82.0257 277.046 80.6359C277.939 79.1962 278.385 77.5579 278.385 75.7213V62.69C278.385 60.9028 277.74 59.513 276.452 58.5201C275.213 57.4775 273.503 56.9562 271.323 56.9562C268.548 56.9562 266.416 57.6512 264.93 59.0413C263.443 60.4311 262.576 62.3922 262.328 64.9238L255.787 64.0305C256.035 61.3992 256.827 59.1406 258.165 57.2541C259.503 55.3182 261.288 53.8288 263.517 52.7862C265.748 51.7439 268.399 51.2227 271.471 51.2227C275.832 51.2227 279.177 52.3394 281.507 54.5735C283.836 56.8073 285 59.6867 285 63.2113V89.4969H278.533V84.657C277.889 86.295 276.576 87.7099 274.594 88.9014C272.661 90.043 270.307 90.6139 267.532 90.6139Z" fill="#FFFAED"/>
<path d="M202.112 89.4969V52.3394H208.58V56.5094C209.075 55.0699 210.165 53.8288 211.85 52.7862C213.535 51.7439 215.493 51.2227 217.723 51.2227C219.903 51.2227 221.91 51.6943 223.744 52.6373C225.577 53.5806 226.767 54.9955 227.312 56.8817C227.956 55.1444 229.145 53.7791 230.88 52.7862C232.664 51.7439 234.646 51.2227 236.827 51.2227C240.593 51.2227 243.467 52.3146 245.45 54.499C247.432 56.6831 248.423 59.8605 248.423 64.0305V89.4969H241.807V64.9238C241.807 62.4418 241.262 60.5801 240.172 59.3392C239.131 58.0484 237.595 57.403 235.563 57.403C233.333 57.403 231.598 58.1974 230.359 59.786C229.17 61.3248 228.576 63.5837 228.576 66.5621V89.4969H221.96V64.9238C221.96 62.4418 221.415 60.5801 220.324 59.3392C219.284 58.0484 217.747 57.403 215.716 57.403C213.485 57.403 211.751 58.1974 210.512 59.786C209.323 61.3248 208.728 63.5837 208.728 66.5621V89.4969H202.112Z" fill="#FFFAED"/>
<path d="M176.816 102.9C172.208 102.9 168.466 101.833 165.592 99.6986C162.717 97.5641 160.884 94.5853 160.091 90.7629L166.558 89.3483C167.103 91.7806 168.268 93.6669 170.052 95.0073C171.836 96.3974 174.091 97.0925 176.816 97.0925C180.087 97.0925 182.54 96.2485 184.175 94.5605C185.86 92.9225 186.703 90.465 186.703 87.1887V81.3059C185.959 83.1428 184.572 84.6322 182.54 85.7737C180.558 86.9156 178.328 87.4865 175.85 87.4865C172.579 87.4865 169.705 86.7418 167.227 85.2524C164.749 83.7137 162.817 81.5789 161.429 78.8487C160.041 76.1184 159.348 72.9659 159.348 69.3917C159.348 65.7678 160.041 62.5907 161.429 59.8605C162.817 57.13 164.724 55.0203 167.153 53.5309C169.63 51.9919 172.53 51.2227 175.85 51.2227C178.328 51.2227 180.583 51.7936 182.614 52.9352C184.696 54.0274 186.108 55.3926 186.851 57.0307V52.3394H193.319V87.1887C193.319 90.465 192.674 93.27 191.386 95.6031C190.097 97.9858 188.214 99.7979 185.736 101.039C183.308 102.28 180.335 102.9 176.816 102.9ZM176.668 81.6038C179.839 81.6038 182.367 80.487 184.25 78.2529C186.182 76.0191 187.149 73.0652 187.149 69.3917C187.149 65.6685 186.182 62.69 184.25 60.456C182.317 58.2222 179.79 57.1051 176.668 57.1051C173.496 57.1051 170.944 58.2222 169.011 60.456C167.128 62.69 166.186 65.6685 166.186 69.3917C166.186 73.0652 167.153 76.0191 169.085 78.2529C171.018 80.487 173.545 81.6038 176.668 81.6038Z" fill="#FFFAED"/>
<path d="M145.997 89.497V52.3395H152.613V89.497H145.997ZM145.923 47.5738V37H152.687V47.5738H145.923Z" fill="#FFFAED"/>
<path d="M108 89.497V37H114.987V89.497H108ZM109.412 67.3069V60.9773H137.883V67.3069H109.412ZM109.412 43.4038V37H140.633V43.4038H109.412Z" fill="#FFFAED"/>
</svg>
