<svg width="261" height="232" viewBox="0 0 261 232" fill="none" xmlns="http://www.w3.org/2000/svg">
<rect width="261" height="232" rx="40" fill="#3F5EC5" fill-opacity="0.4"/>
<path d="M43.4703 196.35C43.9483 196.983 44.9783 197.704 46.1885 197.704C47.4131 197.704 47.9808 196.983 47.9808 196.065C47.9808 195.312 47.7121 194.802 46.5176 194.004L45.7708 193.507C44.1119 192.424 43.7234 191.387 43.7234 190.289C43.7234 188.604 45.0085 187.205 47.2048 187.205C47.8172 187.205 48.3245 187.28 48.7129 187.34C49.221 187.43 49.5345 187.475 49.6543 187.475C49.6095 187.641 49.52 188.634 49.52 189.431C49.221 189.085 48.5035 188.438 47.1746 188.438C46.1437 188.438 45.5167 189.085 45.5167 189.882C45.5167 190.574 45.6803 191.055 46.8612 191.838L47.5923 192.319C49.4304 193.538 49.8928 194.41 49.8928 195.644C49.8928 196.456 49.52 197.644 48.4441 198.351C47.6974 198.833 46.7559 198.998 46.0396 198.998C45.0533 198.998 43.8734 198.742 43.3203 198.351C43.3808 198.095 43.4849 196.997 43.4703 196.35ZM53.3011 197.373C51.8672 196.08 51.4485 194.32 51.4485 192.936C51.4485 191.823 51.7473 190.123 53.1512 188.815C54.2416 187.822 55.7204 187.205 57.9168 187.205C59.9183 187.205 61.1577 187.656 61.77 187.792C61.6659 188.168 61.5315 189.025 61.517 189.702C60.8598 189.025 59.5299 188.438 57.7522 188.438C56.2879 188.438 55.4068 188.919 54.8248 189.446C53.8833 190.304 53.5699 191.477 53.5699 192.741C53.5699 195.132 55.0039 197.599 58.4697 197.599C59.6944 197.599 60.9191 197.373 61.7251 196.787C61.6065 197.208 61.442 198.065 61.3972 198.501C60.8141 198.742 59.5153 198.998 58.2448 198.998C56.363 198.998 54.6601 198.562 53.3011 197.373ZM64.1046 191.778C64.1046 189.626 64.0306 188.047 63.9108 187.43C64.0899 187.446 64.493 187.461 64.8366 187.461C65.3751 187.461 65.8677 187.43 66.0916 187.401C66.0468 187.942 65.9718 189.326 65.9718 191.552V191.793C65.9718 191.838 65.9874 191.853 66.0321 191.853H71.6787C71.7235 191.853 71.7381 191.838 71.7381 191.793V191.552C71.7381 189.401 71.6633 188.002 71.5892 187.43C71.7977 187.446 72.1265 187.461 72.5296 187.461C73.0232 187.461 73.4564 187.446 73.7543 187.401C73.695 187.973 73.62 189.642 73.62 191.778V194.425C73.62 196.23 73.6803 198.081 73.7543 198.772C73.5753 198.757 73.142 198.742 72.8139 198.742C72.3807 198.742 71.6934 198.787 71.5892 198.802C71.6787 198.155 71.7381 196.35 71.7381 194.425V193.312C71.7381 193.267 71.7235 193.252 71.6787 193.252H66.0166C65.9874 193.252 65.9718 193.282 65.9718 193.312V194.425C65.9718 196.23 66.0468 198.081 66.1218 198.772C65.9573 198.757 65.6292 198.742 65.27 198.742C64.7024 198.742 64.1795 198.772 63.9556 198.802C64.0306 198.141 64.1046 196.35 64.1046 194.425L64.1046 191.778ZM75.9887 193.192C75.9887 190.183 77.9902 187.205 82.0237 187.205C85.6238 187.205 87.8493 189.747 87.8493 192.815C87.8493 196.275 85.6238 198.998 81.8289 198.998C77.7518 198.998 75.9887 195.869 75.9887 193.192ZM85.728 193.282C85.728 190.605 84.1898 188.378 81.6497 188.378C79.5733 188.378 78.0944 189.988 78.1101 192.741C78.1101 195.598 79.6336 197.809 82.2173 197.809C83.667 197.809 85.728 196.832 85.728 193.282ZM89.6456 193.192C89.6456 190.183 91.6471 187.205 95.6805 187.205C99.2806 187.205 101.506 189.747 101.506 192.815C101.506 196.275 99.2806 198.998 95.4858 198.998C91.4086 198.998 89.6456 195.869 89.6456 193.192ZM99.3848 193.282C99.3848 190.605 97.8467 188.378 95.3066 188.378C93.2301 188.378 91.7513 189.988 91.7669 192.741C91.7669 195.598 93.2904 197.809 95.8741 197.809C97.3239 197.809 99.3848 196.832 99.3848 193.282ZM104.218 191.778C104.218 189.626 104.128 187.912 104.023 187.43C104.187 187.446 104.665 187.461 104.964 187.461C105.517 187.461 106.055 187.446 106.234 187.401C106.174 187.987 106.085 189.626 106.085 191.703V194.259C106.085 196.967 106.114 197.328 106.189 197.389C106.249 197.464 106.398 197.493 106.577 197.509C106.891 197.538 107.369 197.554 107.997 197.554C109.46 197.554 110.253 197.434 110.686 197.208C110.521 197.584 110.326 198.472 110.237 198.787C110.163 198.833 109.938 198.833 109.221 198.833C107.025 198.833 106.144 198.742 105.098 198.742C104.576 198.742 104.277 198.757 104.068 198.772C104.128 198.231 104.218 196.621 104.218 194.425V191.778ZM116.875 193.192C116.875 190.183 118.876 187.205 122.91 187.205C126.51 187.205 128.735 189.747 128.735 192.815C128.735 196.275 126.51 198.998 122.715 198.998C118.638 198.998 116.875 195.869 116.875 193.192ZM126.614 193.282C126.614 190.605 125.076 188.378 122.536 188.378C120.459 188.378 118.98 189.988 118.996 192.741C118.996 195.598 120.52 197.809 123.103 197.809C124.553 197.809 126.614 196.832 126.614 193.282ZM131.367 191.778C131.367 189.311 131.277 187.897 131.188 187.416C131.471 187.446 131.995 187.461 132.427 187.461H136.027C136.55 187.475 137.133 187.43 137.387 187.37C137.298 187.927 137.268 188.664 137.253 188.98C137.014 188.874 136.775 188.815 135.923 188.755C135.43 188.724 134.294 188.694 133.324 188.694C133.293 188.694 133.264 188.709 133.264 188.755C133.264 189.882 133.249 191.146 133.249 192.274C133.249 192.334 133.264 192.364 133.309 192.364C133.592 192.364 135.161 192.35 135.655 192.334C136.566 192.319 136.834 192.26 137.014 192.214C136.954 192.424 136.879 193.387 136.865 193.884C136.64 193.763 136.297 193.688 135.684 193.643C135.206 193.613 134.115 193.583 133.293 193.583C133.264 193.583 133.249 193.613 133.249 193.673V194.425C133.249 195.839 133.309 198.276 133.399 198.772C133.264 198.757 133.01 198.742 132.427 198.742C132.054 198.742 131.412 198.772 131.218 198.802C131.292 198.291 131.367 196.621 131.367 194.425V191.778ZM144.822 191.778C144.822 189.626 144.761 188.002 144.643 187.43C144.866 187.446 145.225 187.461 145.524 187.461C146.27 187.461 147.047 187.416 147.973 187.416C150.737 187.416 151.379 188.905 151.379 190.033C151.379 191.207 150.647 192.018 149.915 192.395C151.335 192.831 152.395 193.808 152.395 195.388C152.395 197.223 150.991 198.847 148.197 198.847C147.137 198.847 146.181 198.757 145.882 198.742C145.538 198.742 144.956 198.772 144.687 198.787C144.761 198.141 144.822 196.35 144.822 194.425V191.778ZM146.673 192.004C146.673 192.049 146.689 192.078 146.734 192.094C147.017 192.124 148.033 192.139 148.227 192.139C148.526 192.139 148.735 192.124 148.914 191.988C149.437 191.612 149.661 190.98 149.661 190.439C149.661 189.326 148.959 188.528 147.555 188.528C147.107 188.528 146.793 188.559 146.718 188.589C146.689 188.604 146.673 188.634 146.673 188.679V192.004ZM149.616 193.899C149.124 193.448 148.496 193.312 147.824 193.282C147.436 193.267 146.838 193.267 146.718 193.282C146.689 193.297 146.673 193.312 146.673 193.342V194.41C146.673 196.305 146.704 197.313 146.734 197.358C146.852 197.493 147.361 197.689 148.257 197.689C149.362 197.689 150.408 197.012 150.408 195.598C150.408 195.057 150.304 194.47 149.616 193.899ZM155.182 187.461C155.795 187.461 156.287 187.446 156.557 187.401C156.482 187.927 156.407 189.642 156.407 191.778V193.778C156.407 195.644 156.781 196.41 157.438 196.967C158.081 197.524 158.872 197.599 159.44 197.599C160.007 197.599 160.799 197.448 161.307 196.922C162.068 196.185 162.204 195.252 162.204 193.387V191.778C162.204 189.626 162.098 188.002 162.009 187.43C162.204 187.446 162.592 187.461 162.816 187.461C163.294 187.461 163.727 187.43 163.846 187.401C163.756 187.927 163.667 189.642 163.667 191.778V193.402C163.667 195.162 163.548 196.892 162.188 198.036C161.292 198.817 160.127 198.998 159.126 198.998C157.946 198.998 156.661 198.757 155.825 197.99C155.063 197.313 154.525 196.336 154.525 194.169V191.778C154.525 189.626 154.436 187.897 154.331 187.43C154.525 187.446 154.869 187.461 155.182 187.461ZM165.956 196.35C166.434 196.983 167.464 197.704 168.674 197.704C169.899 197.704 170.466 196.983 170.466 196.065C170.466 195.312 170.197 194.802 169.003 194.004L168.256 193.507C166.597 192.424 166.209 191.387 166.209 190.289C166.209 188.604 167.494 187.205 169.69 187.205C170.302 187.205 170.81 187.28 171.198 187.34C171.706 187.43 172.02 187.475 172.139 187.475C172.095 187.641 172.005 188.634 172.005 189.431C171.706 189.085 170.989 188.438 169.66 188.438C168.629 188.438 168.002 189.085 168.002 189.882C168.002 190.574 168.166 191.055 169.346 191.838L170.078 192.319C171.916 193.538 172.378 194.41 172.378 195.644C172.378 196.456 172.005 197.644 170.929 198.351C170.183 198.833 169.241 198.998 168.525 198.998C167.539 198.998 166.359 198.742 165.806 198.351C165.866 198.095 165.97 196.997 165.956 196.35ZM175.087 191.778C175.087 189.626 175.042 187.912 174.922 187.43C175.087 187.461 175.52 187.461 175.818 187.461C176.476 187.461 176.954 187.43 177.103 187.401C177.043 187.973 176.968 189.642 176.968 191.778V194.425C176.968 196.23 177.028 198.321 177.133 198.772C176.968 198.757 176.595 198.742 176.207 198.742C175.758 198.742 175.146 198.772 174.952 198.802C175.026 198.2 175.087 196.35 175.087 194.425V191.778ZM181.301 198.742C181.121 198.742 180.389 198.772 180.255 198.802C180.405 197.434 180.495 190.68 180.495 188.047C180.495 187.265 180.539 187.205 180.629 187.205C180.688 187.205 180.823 187.295 181.137 187.596C182.779 189.19 187.171 193.868 188.739 195.238C188.725 193.552 188.695 189.326 188.531 187.43C188.68 187.446 189.083 187.461 189.337 187.461C189.741 187.461 190.293 187.43 190.413 187.401C190.293 188.333 190.174 191.988 190.189 195.644V197.854C190.189 198.923 190.144 199.043 190.039 199.043C189.92 199.043 189.561 198.712 188.531 197.735C187.022 196.305 183.87 192.77 181.943 190.906C181.973 193.929 182.033 197.599 182.183 198.772C181.898 198.742 181.585 198.742 181.301 198.742ZM193.234 191.778C193.234 189.311 193.16 187.882 193.041 187.43C193.295 187.461 193.802 187.461 194.22 187.461H197.717C198.134 187.461 198.807 187.461 199.09 187.37C199.031 187.671 198.941 188.333 198.941 189.055C198.717 188.919 198.374 188.829 197.552 188.755C197.058 188.724 196.133 188.694 195.162 188.694C195.146 188.694 195.102 188.709 195.102 188.739V192.078C195.102 192.124 195.132 192.154 195.162 192.154C195.445 192.154 196.969 192.154 197.462 192.139C198.344 192.109 198.642 192.063 198.822 192.004C198.732 192.485 198.672 193.297 198.687 193.703C198.433 193.568 198.164 193.477 197.536 193.432C197.044 193.402 195.506 193.372 195.162 193.372C195.132 193.372 195.102 193.402 195.102 193.432V194.259C195.102 196.922 195.132 197.328 195.207 197.389C195.251 197.434 195.416 197.479 195.55 197.493C195.953 197.538 196.356 197.554 196.984 197.554C198.268 197.554 199.031 197.448 199.538 197.208C199.389 197.689 199.24 198.396 199.18 198.787C199.12 198.833 198.926 198.847 198.344 198.847C196.327 198.847 195.162 198.742 194.355 198.742C193.757 198.742 193.295 198.757 193.085 198.787C193.13 198.231 193.234 196.621 193.234 194.425V191.778ZM201.716 196.35C202.194 196.983 203.224 197.704 204.434 197.704C205.659 197.704 206.226 196.983 206.226 196.065C206.226 195.312 205.958 194.802 204.763 194.004L204.016 193.507C202.357 192.424 201.969 191.387 201.969 190.289C201.969 188.604 203.254 187.205 205.45 187.205C206.063 187.205 206.57 187.28 206.958 187.34C207.466 187.43 207.78 187.475 207.9 187.475C207.855 187.641 207.765 188.634 207.765 189.431C207.466 189.085 206.749 188.438 205.42 188.438C204.389 188.438 203.762 189.085 203.762 189.882C203.762 190.574 203.926 191.055 205.107 191.838L205.838 192.319C207.676 193.538 208.138 194.41 208.138 195.644C208.138 196.456 207.765 197.644 206.69 198.351C205.943 198.833 205.001 198.998 204.285 198.998C203.299 198.998 202.119 198.742 201.566 198.351C201.626 198.095 201.73 196.997 201.716 196.35ZM210.182 196.35C210.66 196.983 211.69 197.704 212.9 197.704C214.125 197.704 214.692 196.983 214.692 196.065C214.692 195.312 214.423 194.802 213.229 194.004L212.482 193.507C210.823 192.424 210.435 191.387 210.435 190.289C210.435 188.604 211.72 187.205 213.916 187.205C214.529 187.205 215.036 187.28 215.424 187.34C215.932 187.43 216.246 187.475 216.366 187.475C216.321 187.641 216.231 188.634 216.231 189.431C215.932 189.085 215.215 188.438 213.886 188.438C212.855 188.438 212.228 189.085 212.228 189.882C212.228 190.574 212.392 191.055 213.573 191.838L214.304 192.319C216.142 193.538 216.604 194.41 216.604 195.644C216.604 196.456 216.231 197.644 215.156 198.351C214.409 198.833 213.467 198.998 212.751 198.998C211.765 198.998 210.585 198.742 210.032 198.351C210.092 198.095 210.196 196.997 210.182 196.35ZM194.581 151.063C194.429 151.063 194.378 151.114 194.327 151.216C192.761 155.646 190.435 162.162 189.828 164.555C189.323 164.453 188.868 164.453 187.807 164.453C186.795 164.453 185.532 164.555 185.127 164.606C186.39 161.907 188.312 157.427 190.333 152.489L200.345 127.493C200.952 126.016 201.203 125.405 201.508 125.405C201.759 125.405 202.013 125.812 202.72 127.493C203.276 128.766 208.231 140.169 212.578 150.504C214.855 155.951 217.686 162.569 219 164.555C218.09 164.504 217.23 164.453 216.674 164.453C215.411 164.453 213.994 164.504 213.387 164.606C212.578 162.264 209.798 155.34 208.079 151.216C208.028 151.114 208.028 151.063 207.877 151.063L194.581 151.063ZM206.816 148.111C206.916 148.111 206.967 148.06 206.916 147.907L200.952 133.092L195.441 147.907C195.39 148.06 195.441 148.111 195.541 148.111H206.816ZM154.224 126.271C155.639 126.271 156.802 126.22 157.409 126.118C157.206 127.696 157.004 133.653 157.004 140.882V147.958C157.004 154.678 158.471 157.326 160.593 159.311C162.97 161.602 166.104 161.958 168.481 161.958C170.756 161.958 173.891 161.347 175.811 159.209C178.39 156.46 178.997 152.744 178.997 146.889V140.882C178.997 133.602 178.693 128.002 178.441 126.169C178.997 126.271 179.958 126.271 180.463 126.271C181.524 126.271 182.638 126.169 182.889 126.118C182.687 127.696 182.435 133.653 182.435 140.882V146.787C182.435 152.744 181.879 158.344 177.632 162.111C174.599 164.809 170.705 165.318 167.369 165.318C163.88 165.318 159.684 164.453 156.953 161.907C154.427 159.515 152.657 156.205 152.657 148.874V140.882C152.657 133.602 152.454 127.442 152.152 126.169C152.606 126.271 153.466 126.271 154.224 126.271ZM146.851 165.006C143.731 165.006 140.751 164.33 136.911 161.856C142.275 157.907 145.404 152.184 145.404 144.547C145.404 133.602 137.772 125.405 126.193 125.405C113.15 125.405 106.425 135.638 106.425 145.718C106.425 154.475 112.038 165.318 125.587 165.318C127.509 165.318 130.422 165.076 133.019 163.791C136.961 166.565 141.288 169.337 145.19 169.337C145.28 169.07 145.661 167.814 145.948 167.091C146.225 166.388 146.712 165.301 146.851 165.006ZM126.597 162.416C117.599 162.416 111.28 155.289 111.228 144.598C111.228 135.18 116.639 128.256 125.334 128.256C133.778 128.256 140.602 135.027 140.602 145.616C140.602 158.089 132.615 162.416 126.597 162.416ZM71.8619 126.271C73.2781 126.271 74.4411 126.22 75.0481 126.118C74.8457 127.696 74.6435 133.653 74.6435 140.882V147.958C74.6435 154.678 76.1091 157.326 78.2327 159.311C80.6079 161.602 83.7433 161.958 86.1186 161.958C88.3935 161.958 91.5289 161.347 93.4502 159.209C96.0279 156.46 96.6348 152.744 96.6348 146.889V140.882C96.6348 133.602 96.3321 128.002 96.0788 126.169C96.6348 126.271 97.5955 126.271 98.1004 126.271C99.1631 126.271 100.275 126.169 100.528 126.118C100.326 127.696 100.073 133.653 100.073 140.882V146.787C100.073 152.744 99.5169 158.344 95.2695 162.111C92.2362 164.809 88.3443 165.318 85.0067 165.318C81.5193 165.318 77.323 164.453 74.5923 161.907C72.0641 159.515 70.2959 156.205 70.2959 148.874V140.882C70.2959 133.602 70.0934 127.442 69.7891 126.169C70.2448 126.271 71.1034 126.271 71.8619 126.271ZM44.3771 140.882C44.3771 132.634 44.1747 127.645 43.8721 126.169C44.7307 126.22 45.9447 126.271 46.9546 126.271H58.7852C60.0502 126.271 61.8695 126.169 62.7298 126.016C62.5275 127.289 62.4255 129.122 62.3744 130.038C61.7182 129.733 61.0109 129.58 58.4826 129.376C56.9149 129.274 53.2746 129.122 48.927 129.122C48.876 129.122 48.7757 129.173 48.7757 129.325C48.7247 133.755 48.6737 138.642 48.6737 143.071C48.6737 143.275 48.7247 143.325 48.876 143.325C49.534 143.325 55.803 143.275 57.2176 143.224C59.9993 143.173 61.0109 143.02 61.5159 142.867C61.3646 143.529 61.1623 145.718 61.1112 147.093C60.4532 146.736 59.5436 146.533 57.7752 146.431C56.0563 146.329 52.3649 146.227 48.8268 146.227C48.7247 146.227 48.6737 146.278 48.6737 146.482V149.791C48.6737 153.304 48.876 162.926 49.1293 164.555C48.6737 164.504 48.0683 164.453 46.8034 164.453C45.9447 164.453 44.428 164.555 43.9214 164.606C44.1238 163.078 44.3771 157.02 44.3771 149.842L44.3771 140.882ZM218.443 108.457H43.3203V110.966H218.443V108.457ZM146.837 62.5144C146.837 53.1763 146.707 45.2855 146.25 43.5754C146.837 43.7073 148.209 43.7073 148.993 43.7073C150.69 43.7073 152.193 43.6416 152.911 43.5097C152.714 45.9429 152.453 53.242 152.453 62.5801V74.1535C152.453 82.5048 152.649 91.2509 153.042 93.1577C152.453 93.092 151.409 93.0263 150.495 93.0263C149.188 93.0263 147.034 93.092 146.381 93.2233C146.641 90.9877 146.837 82.7019 146.837 74.1535V62.5144ZM153.302 67.5116C153.237 67.3803 153.237 67.1171 153.368 66.9857C156.11 64.5526 162.903 57.648 167.996 51.7954C172.044 47.3899 174.46 44.2989 174.788 43.5754C175.441 43.6416 176.093 43.7073 177.073 43.7073C179.424 43.7073 181.449 43.5754 182.493 43.5097C181.514 44.2989 179.163 45.9429 173.939 51.072C171.979 53.1763 160.356 64.8815 158.984 66.4597C163.033 71.2599 172.567 81.1898 176.42 85.0694C182.689 91.2509 184.909 92.4346 186.085 92.8292C185.628 93.1577 183.473 93.3552 182.298 93.3552C178.314 93.3552 175.897 92.4346 171.783 87.9629C165.384 81.5186 159.049 73.9564 153.302 67.5116ZM98.8136 43.7073C100.642 43.7073 102.144 43.6416 102.928 43.5097C102.667 45.5483 102.405 53.242 102.405 62.5801V71.7202C102.405 80.4005 104.3 83.82 107.042 86.3846C110.112 89.3437 114.16 89.804 117.229 89.804C120.168 89.804 124.216 89.0147 126.698 86.2531C130.028 82.7019 130.812 77.9018 130.812 70.3394V62.5801C130.812 53.1763 130.421 45.9429 130.094 43.5754C130.812 43.7073 132.053 43.7073 132.707 43.7073C134.077 43.7073 135.514 43.5754 135.84 43.5097C135.58 45.5483 135.253 53.242 135.253 62.5801V70.2081C135.253 77.9018 134.535 85.1352 129.049 90.0014C125.132 93.4865 120.103 94.1444 115.792 94.1444C111.287 94.1444 105.866 93.0263 102.34 89.7382C99.0746 86.6478 96.7896 82.3736 96.7896 72.904V62.5801C96.7896 53.1763 96.5278 45.2194 96.1364 43.5754C96.7244 43.7073 97.8342 43.7073 98.8136 43.7073ZM44.2636 62.4482C44.2636 50.1514 43.9374 45.0881 43.6765 43.5754C44.3288 43.6416 45.7658 43.7073 46.8103 43.7073C48.3778 43.7073 52.1006 43.4441 56.4104 43.4441C64.8997 43.4441 74.826 44.4964 81.2912 51.1377C84.5567 54.5576 87.4948 59.9494 87.4948 67.7748C87.4948 76.192 84.2948 82.3736 80.6382 86.2531C77.5032 89.4755 71.3651 93.8812 60.002 93.8812C57.2595 93.8812 54.7779 93.7497 52.4267 93.5523C49.2919 93.2233 46.68 92.8949 43.8723 93.092C44.0026 90.3305 44.2636 84.3459 44.2636 74.548L44.2636 62.4482ZM49.88 72.2467C49.88 79.2168 49.9452 84.6091 50.0104 86.3846C50.0757 87.6996 50.141 88.4231 50.4028 88.6207C51.317 89.3437 55.2344 90.1329 60.5899 90.1329C65.9445 90.1329 71.1032 88.8177 74.7608 85.6611C78.4826 82.5048 81.4218 76.7836 81.4218 69.419C81.4218 63.7633 80.1806 58.7 76.7848 54.4914C72.2793 48.9677 64.6388 46.8634 56.2801 46.8634C53.8637 46.8634 51.2517 47.1267 50.2723 47.3899C50.0757 47.5212 50.0104 47.6527 50.0104 47.8502C49.88 49.0997 49.88 55.4781 49.88 62.2512V72.2467ZM193.101 62.5776C193.101 51.9255 192.84 45.4162 192.449 43.5749C193.232 43.7068 194.995 43.7068 196.301 43.7068H210.797C212.168 43.7068 214.845 43.6411 216.021 43.3779C215.825 44.3641 215.498 46.5999 215.498 48.7695C214.714 48.3094 213.409 47.9805 210.274 47.7174C208.316 47.5203 204.528 47.389 198.912 47.389C198.847 47.389 198.651 47.4547 198.651 47.6518V64.6817C198.651 64.8788 198.782 65.0101 198.912 65.0101C199.761 65.0101 207.467 65.0101 209.295 64.9445C212.69 64.813 214.258 64.6156 214.91 64.4186C214.584 65.9311 214.323 68.561 214.388 69.8761C213.474 69.4159 212.43 69.1527 209.948 68.9556C207.728 68.8237 200.088 68.6925 198.912 68.6925C198.782 68.6925 198.651 68.8237 198.651 68.9556V73.6896C198.651 86.6428 198.782 88.4838 199.109 88.8126C199.305 89.0096 200.023 89.1415 200.61 89.2072C202.112 89.3385 204.072 89.5361 206.879 89.5361C213.082 89.5361 215.89 89.0758 217.718 88.1548C217.261 89.6017 216.739 91.969 216.477 93.284C216.216 93.3496 215.628 93.4154 213.147 93.4154C204.072 93.4154 199.174 93.0208 196.693 93.0208C194.799 93.0208 193.297 93.0864 192.579 93.1521C192.775 90.851 193.101 83.4209 193.101 74.1499V62.5776Z" fill="#FFFAED"/>
</svg>
