<svg width="394" height="147" viewBox="0 0 394 147" fill="none" xmlns="http://www.w3.org/2000/svg">
<rect width="394" height="147" rx="40" fill="#BF3C3D" fill-opacity="0.4"/>
<path d="M94.9489 98.0418C96.8805 98.0418 98.8021 98.4107 100.515 99.1578C102.207 99.8354 103.652 100.922 105.045 101.978C106.38 102.984 107.764 104.03 109.337 104.678C113.857 106.651 118.956 105.724 122.65 102.247C126.374 98.7395 127.648 93.7072 125.975 89.1139C124.103 83.5534 118.169 79.9466 112.473 80.8832C109.576 81.1622 107.425 82.7463 105.155 84.4205C103.582 85.5765 101.969 86.7721 100.087 87.4894C95.6758 89.2034 90.6174 88.5857 86.5748 85.8155C82.6021 83.0951 80.2122 78.7008 80.2024 74.0376C79.9635 69.3243 82.6917 65.5978 85.3404 61.9804L85.7188 61.4623C88.457 57.6659 88.6263 52.6238 86.147 48.2891C83.6975 44.0043 79.3162 41.613 74.6863 42.0514C69.887 42.3304 65.9139 45.1204 64.0521 49.5247C62.1304 54.0686 62.9668 59.2202 66.2228 62.9867L66.3224 63.1163C71.0322 68.2279 72.0376 75.6318 68.7718 81.0824C68.1545 82.1384 67.4077 83.135 66.6808 84.0916C65.5158 85.6259 64.311 87.2205 63.6937 89.0938C62.2897 93.0596 63.0564 97.6729 65.6353 100.842C68.6026 104.628 73.84 106.462 78.3707 105.316C80.6608 104.828 82.6222 103.393 84.5141 101.998C85.46 101.31 86.4259 100.593 87.4216 100.005C89.662 98.6896 92.3106 98.0119 94.9295 98.0119L94.9489 98.0418Z" fill="#FFFAED"/>
<path d="M125.881 55.428C126.432 48.586 121.333 42.5925 114.492 42.0409C107.65 41.4892 101.656 46.5885 101.104 53.4302C100.552 60.2722 105.652 66.2657 112.494 66.8174C119.335 67.369 125.329 62.2697 125.881 55.428Z" fill="#FFFAED"/>
<path fill-rule="evenodd" clip-rule="evenodd" d="M303.017 60.3316C306.016 60.3316 308.751 60.8739 311.235 61.932C313.124 62.6991 314.802 63.7307 316.269 65.0401C317.378 66.0188 319.334 65.5559 319.611 63.9159L320.074 61.2574H331V105.538H320.074L319.611 102.787C319.334 101.16 317.378 100.671 316.269 101.676C312.754 104.864 308.354 106.477 303.003 106.477C298.868 106.477 295.208 105.525 292.024 103.634C289.078 101.795 286.726 99.3086 284.969 96.1477L284.625 95.4993C282.841 91.9681 281.93 87.9473 281.93 83.4109C281.93 78.874 282.841 74.8798 284.625 71.4147C286.422 67.8833 288.88 65.1851 292.024 63.2804C295.221 61.323 298.881 60.3311 303.017 60.3311V60.3316ZM306.478 70.7404C302.99 70.7404 300.083 71.9307 297.824 74.3248C295.644 76.732 294.574 79.7737 294.574 83.4111C294.574 87.0481 295.631 90.0902 297.824 92.484C300.083 94.8912 302.99 96.0683 306.478 96.0683C309.953 96.0683 312.86 94.9178 315.119 92.5902C317.378 90.196 318.462 87.1012 318.462 83.4111C318.462 79.7211 317.365 76.6524 315.119 74.3248C312.86 71.9307 309.953 70.7404 306.478 70.7404Z" fill="#FFFAED"/>
<path d="M245.567 61.2705L250.826 74.5495L255.608 88.5957C256.203 90.3415 258.687 90.3415 259.282 88.5957L264.064 74.5626L269.416 61.2705H282.905L264.197 105.551H250.522L231.721 61.2705H245.58H245.567Z" fill="#FFFAED"/>
<path fill-rule="evenodd" clip-rule="evenodd" d="M198.401 60.3316C201.4 60.3316 204.135 60.8739 206.619 61.932C208.508 62.6991 210.186 63.7307 211.653 65.0401C212.763 66.0188 214.718 65.5559 214.996 63.9159L215.458 61.2574H226.385V105.538H215.458L214.996 102.787C214.718 101.16 212.763 100.671 211.653 101.676C208.139 104.864 203.739 106.477 198.388 106.477C194.252 106.477 190.593 105.525 187.408 103.634C184.462 101.795 182.11 99.3086 180.353 96.1477L180.01 95.4993C178.226 91.9681 177.314 87.9473 177.314 83.4109C177.314 78.874 178.226 74.8798 180.01 71.4147C181.807 67.8833 184.264 65.1851 187.408 63.2804C190.606 61.323 194.266 60.3311 198.401 60.3311V60.3316ZM201.863 70.7404C198.374 70.7404 195.468 71.9307 193.209 74.3248C191.029 76.732 189.958 79.7737 189.958 83.4111C189.958 87.0481 191.016 90.0902 193.209 92.484C195.468 94.8912 198.374 96.0683 201.863 96.0683C205.337 96.0683 208.244 94.9178 210.503 92.5902C212.763 90.196 213.846 87.1012 213.846 83.4111C213.846 79.7211 212.75 76.6524 210.503 74.3248C208.244 71.9307 205.337 70.7404 201.863 70.7404Z" fill="#FFFAED"/>
<path d="M169.732 42V105.553H156.995V42H169.732Z" fill="#FFFAED"/>
</svg>
