<svg width="252" height="147" viewBox="0 0 252 147" fill="none" xmlns="http://www.w3.org/2000/svg">
<rect width="252" height="147" rx="40" fill="#3FBFC5" fill-opacity="0.4"/>
<mask id="mask0_1848_772" style="mask-type:luminance" maskUnits="userSpaceOnUse" x="39" y="50" width="78" height="63">
<path d="M39 50.5586H116.918V113H39V50.5586Z" fill="white"/>
</mask>
<g mask="url(#mask0_1848_772)">
<path d="M101.273 90.94V50.5986H116.84V102.03C116.84 108.088 111.939 112.999 105.895 112.999C103.007 112.999 100.159 111.884 98.1109 109.831L39.0029 50.5986H61.0164L101.273 90.94Z" fill="#FFFAED"/>
</g>
<mask id="mask1_1848_772" style="mask-type:luminance" maskUnits="userSpaceOnUse" x="124" y="35" width="79" height="78">
<path d="M124.546 35H202.464V113H124.546V35Z" fill="white"/>
</mask>
<g mask="url(#mask1_1848_772)">
<path d="M202.46 97.4004H186.893V61.6909L151.257 97.4004H186.893V113H146.515C134.425 113 124.623 103.179 124.623 91.0625V50.5996H140.191V86.4317L175.946 50.5996H140.191V35H180.568C192.66 35 202.46 44.8214 202.46 56.9375V97.4004Z" fill="#FFFAED"/>
</g>
</svg>
