<svg width="171" height="81" viewBox="0 0 171 81" fill="none" xmlns="http://www.w3.org/2000/svg">
<rect x="7.53198" width="157" height="81" fill="#BF3C3D"/>
<rect x="7.53198" y="35" width="157" height="38" fill="#E64A4B"/>
<path d="M42.8373 56.1418L47.4076 25.2043H52.558L57.4975 56.1418H53.6654L52.8392 50.3938H47.4955L46.7396 56.1418H42.8373ZM47.9174 47.1067H52.3646L50.0795 31.093H50.0267L47.9174 47.1067ZM62.4615 56.1418V25.2043H68.5084C70.0787 25.2043 71.3092 25.4387 72.1998 25.9075C73.1021 26.3762 73.7408 27.1262 74.1158 28.1575C74.4908 29.177 74.6842 30.5188 74.6959 32.1829V32.9739C74.6959 34.6379 74.5142 36.0032 74.151 37.0696C73.7877 38.136 73.1373 38.8918 72.1998 39.3372C72.9732 39.6301 73.5767 40.134 74.0103 40.8489C74.4557 41.5637 74.7721 42.425 74.9596 43.4329C75.1471 44.4407 75.2408 45.5364 75.2408 46.72V47.4231C75.2174 49.4622 74.9947 51.1262 74.5728 52.4153C74.1627 53.6926 73.4947 54.636 72.5689 55.2454C71.6432 55.843 70.401 56.1418 68.8424 56.1418H62.4615ZM66.5396 52.9075H68.5435C69.2115 52.9075 69.7271 52.7493 70.0904 52.4329C70.4654 52.1165 70.7291 51.5774 70.8814 50.8157C71.0455 50.054 71.1275 48.9993 71.1275 47.6516V45.9817C71.1275 44.2473 70.9752 42.9934 70.6705 42.22C70.3775 41.4465 69.7506 41.0598 68.7896 41.0598H66.5396V52.9075ZM66.5396 37.9485H68.4732C68.9303 37.9485 69.2994 37.8958 69.5807 37.7903C69.8736 37.6731 70.0963 37.4563 70.2486 37.1399C70.4127 36.8235 70.5182 36.3665 70.565 35.7688C70.6236 35.1594 70.6529 34.3567 70.6529 33.3606V32.0774C70.6529 31.0579 70.5709 30.2903 70.4068 29.7747C70.2428 29.259 69.985 28.9133 69.6334 28.7375C69.2818 28.5618 68.8189 28.4739 68.2447 28.4739H66.5396V37.9485ZM86.99 56.4934C85.4197 56.4934 84.16 56.1536 83.2107 55.4739C82.2615 54.7942 81.576 53.7805 81.1541 52.4329C80.7322 51.0735 80.5213 49.3801 80.5213 47.3528V33.5012C80.5213 31.72 80.7205 30.1848 81.1189 28.8958C81.5291 27.595 82.2088 26.593 83.158 25.8899C84.1072 25.175 85.408 24.8176 87.0603 24.8176C88.3025 24.8176 89.3279 25.0227 90.1365 25.4329C90.9568 25.8313 91.6014 26.4114 92.0701 27.1731C92.5389 27.9231 92.867 28.8313 93.0545 29.8977C93.2537 30.9641 93.3533 32.1653 93.3533 33.5012V47.3528C93.3533 49.3801 93.1482 51.0735 92.7381 52.4329C92.3396 53.7805 91.6717 54.7942 90.7342 55.4739C89.8084 56.1536 88.5603 56.4934 86.99 56.4934ZM86.99 52.9602C87.6228 52.9602 88.1033 52.7786 88.4314 52.4153C88.7596 52.052 88.9822 51.4602 89.0994 50.6399C89.2166 49.8196 89.2752 48.7356 89.2752 47.3879V33.2903C89.2752 31.6497 89.1346 30.4192 88.8533 29.5989C88.5721 28.7668 87.9744 28.3508 87.0603 28.3508C86.1111 28.3508 85.4666 28.7551 85.1267 29.5637C84.7869 30.3723 84.617 31.6086 84.617 33.2727V47.3879C84.617 48.7473 84.6756 49.8372 84.7928 50.6575C84.91 51.4661 85.1385 52.052 85.4783 52.4153C85.8299 52.7786 86.3338 52.9602 86.99 52.9602ZM105.894 56.511C104.335 56.511 103.081 56.2122 102.132 55.6145C101.194 55.0051 100.515 54.0852 100.093 52.8547C99.6709 51.6243 99.46 50.0715 99.46 48.1965V25.2043H103.556V48.1086C103.556 49.1165 103.591 49.9895 103.661 50.7278C103.743 51.4661 103.948 52.0344 104.276 52.4329C104.604 52.8313 105.144 53.0305 105.894 53.0305C106.644 53.0305 107.177 52.8372 107.493 52.4504C107.821 52.052 108.021 51.4836 108.091 50.7454C108.161 50.0071 108.196 49.134 108.196 48.1262V25.2043H112.274V48.1965C112.274 50.0715 112.069 51.6243 111.659 52.8547C111.249 54.0852 110.575 55.0051 109.638 55.6145C108.712 56.2122 107.464 56.511 105.894 56.511ZM120.174 56.1418V28.6672H116.658V25.2043H127.539V28.6672H124.235V56.1418H120.174Z" fill="#FFF9EC"/>
</svg>
