<svg width="177" height="178" viewBox="0 0 177 178" fill="none" xmlns="http://www.w3.org/2000/svg">
<mask id="mask0_466_104" style="mask-type:alpha" maskUnits="userSpaceOnUse" x="0" y="0" width="177" height="178">
<ellipse cx="88.3775" cy="88.9404" rx="88.3775" ry="88.9404" fill="#FFBC35"/>
</mask>
<g mask="url(#mask0_466_104)">
<ellipse cx="88.3775" cy="88.9404" rx="88.3775" ry="88.9404" fill="#BF3C3D"/>
<circle cx="88.9405" cy="87.8146" r="65.298" fill="#E64A4B"/>
<path d="M9.28314 138.302L9.40288 60.1757L24.807 58.0029L47.2279 132.95L36.3492 134.484L32.5943 121.078L20.2362 122.822L20.5099 136.718L9.28314 138.302ZM20.048 113.306L30.0563 111.895L19.4958 74.152L19.3218 74.1766L20.048 113.306ZM49.7343 132.596L38.9319 56.0106L56.5118 53.531C59.5578 53.1013 62.1471 53.2095 64.2797 53.8555C66.4413 54.4973 68.2312 55.6503 69.6494 57.3142C71.0676 58.9781 72.2135 61.1243 73.0872 63.7526C73.9568 66.352 74.6392 69.4067 75.1343 72.9169L75.3614 74.5269C76.057 79.4586 76.2152 83.7264 75.8359 87.3303C75.4816 90.9011 74.3289 93.7413 72.3778 95.8509C70.4268 97.9605 67.4496 99.2976 63.4462 99.8623L57.1366 100.752L61.3962 130.951L49.7343 132.596ZM55.7802 91.1355L59.7835 90.5708C61.4951 90.3294 62.7101 89.7142 63.4287 88.7253C64.1472 87.7363 64.4958 86.2226 64.4746 84.1841C64.4783 82.1125 64.2428 79.3941 63.7681 76.029L63.5594 74.5495C62.9453 70.4052 62.1407 67.3233 61.1458 65.3038C60.1468 63.2553 58.4144 62.4049 55.9485 62.7528L51.8582 63.3297L55.7802 91.1355ZM86.3562 127.431L75.5537 50.8451L93.1336 48.3654C96.1797 47.9358 98.769 48.044 100.902 48.6899C103.063 49.3318 104.853 50.4847 106.271 52.1487C107.689 53.8126 108.835 55.9588 109.709 58.5871C110.579 61.1864 111.261 64.2412 111.756 67.7514L111.983 69.3614C112.679 74.2931 112.837 78.5608 112.458 82.1648C112.103 85.7356 110.951 88.5758 109 90.6854C107.049 92.795 104.071 94.1321 100.068 94.6967L93.7585 95.5867L98.0181 125.786L86.3562 127.431ZM92.402 85.97L96.4054 85.4053C98.117 85.1639 99.332 84.5487 100.051 83.5598C100.769 82.5708 101.118 81.0571 101.096 79.0186C101.1 76.947 100.865 74.2286 100.39 70.8635L100.181 69.384C99.5672 65.2397 98.7626 62.1578 97.7677 60.1383C96.7687 58.0898 95.0362 57.2394 92.5704 57.5872L88.48 58.1642L92.402 85.97ZM122.978 122.265L112.176 45.6796L123.838 44.0347L133.241 110.699L147.992 108.618L149.391 118.54L122.978 122.265ZM155.161 117.726L150.847 87.135L131.522 42.9507L142.662 41.3795L154.272 68.9441L154.446 68.9196L157.152 39.3356L168.249 37.7705L162.509 85.4901L166.823 116.081L155.161 117.726Z" fill="#FFBC35"/>
<path d="M9.28314 138.302L9.40288 60.1757L24.807 58.0029L47.2279 132.95L36.3492 134.484L32.5943 121.078L20.2362 122.822L20.5099 136.718L9.28314 138.302ZM20.048 113.306L30.0563 111.895L19.4958 74.152L19.3218 74.1766L20.048 113.306ZM49.7343 132.596L38.9319 56.0106L56.5118 53.531C59.5578 53.1013 62.1471 53.2095 64.2797 53.8555C66.4413 54.4973 68.2312 55.6503 69.6494 57.3142C71.0676 58.9781 72.2135 61.1243 73.0872 63.7526C73.9568 66.352 74.6392 69.4067 75.1343 72.9169L75.3614 74.5269C76.057 79.4586 76.2152 83.7264 75.8359 87.3303C75.4816 90.9011 74.3289 93.7413 72.3778 95.8509C70.4268 97.9605 67.4496 99.2976 63.4462 99.8623L57.1366 100.752L61.3962 130.951L49.7343 132.596ZM55.7802 91.1355L59.7835 90.5708C61.4951 90.3294 62.7101 89.7142 63.4287 88.7253C64.1472 87.7363 64.4958 86.2226 64.4746 84.1841C64.4783 82.1125 64.2428 79.3941 63.7681 76.029L63.5594 74.5495C62.9453 70.4052 62.1407 67.3233 61.1458 65.3038C60.1468 63.2553 58.4144 62.4049 55.9485 62.7528L51.8582 63.3297L55.7802 91.1355ZM86.3562 127.431L75.5537 50.8451L93.1336 48.3654C96.1797 47.9358 98.769 48.044 100.902 48.6899C103.063 49.3318 104.853 50.4847 106.271 52.1487C107.689 53.8126 108.835 55.9588 109.709 58.5871C110.579 61.1864 111.261 64.2412 111.756 67.7514L111.983 69.3614C112.679 74.2931 112.837 78.5608 112.458 82.1648C112.103 85.7356 110.951 88.5758 109 90.6854C107.049 92.795 104.071 94.1321 100.068 94.6967L93.7585 95.5867L98.0181 125.786L86.3562 127.431ZM92.402 85.97L96.4054 85.4053C98.117 85.1639 99.332 84.5487 100.051 83.5598C100.769 82.5708 101.118 81.0571 101.096 79.0186C101.1 76.947 100.865 74.2286 100.39 70.8635L100.181 69.384C99.5672 65.2397 98.7626 62.1578 97.7677 60.1383C96.7687 58.0898 95.0362 57.2394 92.5704 57.5872L88.48 58.1642L92.402 85.97ZM122.978 122.265L112.176 45.6796L123.838 44.0347L133.241 110.699L147.992 108.618L149.391 118.54L122.978 122.265ZM155.161 117.726L150.847 87.135L131.522 42.9507L142.662 41.3795L154.272 68.9441L154.446 68.9196L157.152 39.3356L168.249 37.7705L162.509 85.4901L166.823 116.081L155.161 117.726Z" fill="#FFF9EC"/>
</g>
</svg>
