<svg width="171" height="81" viewBox="0 0 171 81" fill="none" xmlns="http://www.w3.org/2000/svg">
<rect x="9.09229" width="155" height="81" fill="#BF3C3D"/>
<rect x="9.09229" y="35" width="155" height="38" fill="#E64A4B"/>
<path d="M62.6549 56.1418V25.2043H72.5162V28.6848H66.733V37.8079H72.1295V41.3235H66.733V56.1418H62.6549ZM75.6346 56.1418L80.2049 25.2043H85.3553L90.2947 56.1418H86.4627L85.6365 50.3938H80.2928L79.5369 56.1418H75.6346ZM80.7146 47.1067H85.1619L82.8767 31.093H82.824L80.7146 47.1067ZM104.892 61.0461L100.532 56.2825L103.204 54.929L106.913 59.2356L104.892 61.0461ZM101.358 56.4934C99.7881 56.4934 98.5283 56.1536 97.5791 55.4739C96.6299 54.7942 95.9443 53.7805 95.5224 52.4329C95.1006 51.0735 94.8896 49.3801 94.8896 47.3528V33.5012C94.8896 31.72 95.0889 30.1848 95.4873 28.8958C95.8974 27.595 96.5771 26.593 97.5264 25.8899C98.4756 25.175 99.7764 24.8176 101.429 24.8176C102.671 24.8176 103.696 25.0227 104.505 25.4329C105.325 25.8313 105.97 26.4114 106.438 27.1731C106.907 27.9231 107.235 28.8313 107.423 29.8977C107.622 30.9641 107.722 32.1653 107.722 33.5012V47.3528C107.722 49.3801 107.517 51.0735 107.106 52.4329C106.708 53.7805 106.04 54.7942 105.103 55.4739C104.177 56.1536 102.929 56.4934 101.358 56.4934ZM101.358 52.9602C101.991 52.9602 102.472 52.7786 102.8 52.4153C103.128 52.052 103.351 51.4602 103.468 50.6399C103.585 49.8196 103.644 48.7356 103.644 47.3879V33.2903C103.644 31.6497 103.503 30.4192 103.222 29.5989C102.94 28.7668 102.343 28.3508 101.429 28.3508C100.479 28.3508 99.8349 28.7551 99.4951 29.5637C99.1553 30.3723 98.9853 31.6086 98.9853 33.2727V47.3879C98.9853 48.7473 99.0439 49.8372 99.1611 50.6575C99.2783 51.4661 99.5068 52.052 99.8467 52.4153C100.198 52.7786 100.702 52.9602 101.358 52.9602Z" fill="#FFF9EC"/>
</svg>
