<svg width="317" height="482" viewBox="0 0 317 482" fill="none" xmlns="http://www.w3.org/2000/svg">
<g filter="url(#filter0_d_1327_410)">
<path d="M7 468.185V67.6421H303.387V468.185H7Z" fill="#40464A"/>
<path d="M75.4482 78.6707L155.828 13.4922L238.834 83.7253L75.4482 78.6707Z" stroke="#EEB89E" stroke-width="10"/>
<mask id="mask0_1327_410" style="mask-type:alpha" maskUnits="userSpaceOnUse" x="13" y="71" width="286" height="392">
<path d="M13.4561 462.824V71.2212H298.2V462.824H13.4561Z" fill="#FFF9EC"/>
</mask>
<g mask="url(#mask0_1327_410)">
<path d="M13.4561 462.824V71.2212H298.2V462.824H13.4561Z" fill="#FFF9EC"/>
<rect x="-13.6826" y="179.482" width="442.888" height="122.541" transform="rotate(38.1721 -13.6826 179.482)" fill="#EDE9DD"/>
</g>
<path d="M10.8296 104.742V71.2212H301.09V104.742H10.8296Z" fill="#BF3C3D"/>
<path d="M10.8296 93.6813V104.403H301.09V93.6813H10.8296Z" fill="#E64A4B"/>
<path d="M72.2964 88.7796L91.4719 76.542L220.447 77.6061L239.097 88.7796L222.023 99.687H91.4719L72.2964 88.7796Z" fill="#F0BD31"/>
<ellipse cx="48.918" cy="89.0454" rx="6.56697" ry="6.65087" fill="#F0BD31"/>
<ellipse cx="265.365" cy="89.0454" rx="6.56697" ry="6.65087" fill="#F0BD31"/>
<path d="M70.7541 301.811C69.8338 301.871 68.5349 301.547 67.4493 301.53C62.9017 301.455 61.2166 301.23 57.102 301.103C51.0011 300.913 32.8945 301.34 32.894 299.087C32.894 299.087 32.894 299.087 32.894 299.087C32.8941 299.065 32.8958 299.042 32.8993 299.02C32.9628 298.591 34.5028 298.122 34.7314 297.637C34.9595 297.151 34.7885 294.016 36.9758 293.84C40.1473 293.608 47.7553 294.412 49.4468 294.376C50.6032 294.352 52.0269 294.067 53.5056 294.016C58.2733 293.853 60.7681 294.061 65.0635 293.287C66.7817 293.695 68.4998 294.103 70.218 294.511C72.4598 294.322 75.8574 294.86 77.2194 294.83C78.3367 294.806 78.9914 294.483 80.156 294.468C81.4621 294.45 83.4679 294.798 85.8436 294.745C89.7384 294.661 90.4314 293.82 92.7683 293.713C95.1917 293.602 98.9603 294.059 102.052 293.763C102.44 293.671 102.828 293.578 103.216 293.486C102.938 293.276 102.66 293.067 102.382 292.858C103.94 292.76 104.609 293.189 106.041 293.197C107.724 293.206 108.583 292.8 109.716 292.801C110.645 292.803 111.903 293.129 113.107 293.109C114.861 293.081 114.478 292.61 115.422 292.522C115.798 292.488 122.764 292.228 123.156 292.224C126.145 292.205 126.405 292.85 128.788 292.906C135.397 293.06 142.182 292.539 148.296 292.342C151.026 292.254 153.874 292.292 156.596 292.395C152.309 294.045 161.797 295.328 158.248 292.747C161.277 293.114 163.424 292.417 166.295 292.535C168.152 292.612 169.437 292.97 172.089 292.961C176.794 292.942 181.94 291.924 183.294 293.763C188.817 293.439 193.6 294.106 195.591 292.483C197.015 292.384 200.665 293.351 202.262 293.482C203.773 293.606 215.364 294.042 217.26 294.067C219.157 294.091 222.476 294.118 224.073 293.975C226.08 293.799 227.482 292.115 231.054 294.084C235.207 293.924 236.687 293.981 240.55 294.21C241.249 294.251 241.328 294.543 241.737 294.543C242.579 294.543 244.011 294.327 245.513 294.301C247.984 294.258 249.394 294.873 249.118 293.934C250.747 293.776 252.376 293.619 254.005 293.461C254.576 293.642 255.148 293.824 255.719 294.005C256.59 293.807 257.461 293.61 258.332 293.412C257.309 294.772 263.438 293.969 261.448 293.19C264.605 293.471 267.763 293.752 270.92 294.033C270.48 295.578 277.853 294.211 277.232 293.371C277.594 293.373 277.955 293.374 278.316 293.375C278.554 293.406 278.789 293.433 279.024 293.455L282.43 293.5L282.387 296.819C282.104 299.715 282.372 302.468 282.117 306.035C281.842 309.89 281.691 309.528 280.981 310.7C281.022 311.607 281.062 312.514 281.103 313.422C283.051 318.182 279.678 317.341 281.172 325.492C279.948 328.096 280.591 334.516 280.963 338.773C281.006 339.268 281.243 339.277 281.317 339.937C281.493 341.549 281.187 345.665 281.954 345.524C281.732 346.949 281.51 348.373 281.288 349.798C281.428 350.962 281.567 352.127 281.707 353.291C281.946 353.285 282.185 353.279 282.424 353.273C281.609 355.618 281.922 359.303 281.727 361.12C281.688 361.482 281.358 361.56 281.268 362.684C281.161 363.998 281.259 366.447 281.155 368.012C281.521 368.621 281.887 369.23 282.252 369.839C282.451 372.639 281.486 373.623 281.411 375.267C281.397 375.563 281.467 380.964 281.487 381.255C281.651 383.638 282.473 382.963 282.297 389.853C282.265 391.08 281.98 392.072 281.969 393.181C281.948 395.14 282.594 401.044 283.19 401.508C282.444 403.884 282.749 410.242 282.533 412.115C282.467 412.68 281.991 412.807 281.89 414.545C281.808 415.953 282.188 419.58 282.125 421.366C282.055 423.262 281.656 423.939 281.628 424.789C281.602 425.591 281.924 426.331 281.922 427.425C281.911 430.839 281.392 433.931 281.382 436.629C281.382 436.671 281.382 436.712 281.382 436.753L281.351 439.142L279.024 439.111C275.172 439.117 271.763 440.055 268.532 440.474C267.722 440.413 266.926 440.208 266.076 440.206C255.564 440.176 243.706 440 233.163 439.796C228.269 439.702 216.098 438.407 219.346 440.568C217.645 440.946 205.278 440.075 202.925 440.062C200.574 440.049 198.709 440.436 196.861 440.442C191.282 440.459 187.354 440.18 180.564 440.517C178.81 440.605 176.931 441.065 175.892 441.059C174.641 441.052 173.295 440.608 171.674 440.579C167.811 440.516 160.612 440.662 156.906 440.585C156.229 440.57 155.992 440.18 155.024 440.058C151.255 439.582 147.031 439.623 147.778 440.868C142.947 440.161 138.479 440.806 134.002 440.846C124.537 440.926 107.294 440.636 99.0486 441.159C93.8493 441.489 93.9823 442.047 86.3272 441.565C84.628 441.458 82.9362 441.314 80.8752 441.187C76.0442 440.887 71.6123 439.855 67.93 441.098C62.5645 440.776 58.2913 441.005 54.3103 439.942C53.841 440.197 53.3717 440.451 52.9023 440.706C52.2445 440.713 51.5867 440.719 50.9289 440.725C50.7237 440.482 50.5185 440.239 50.3133 439.996C45.6009 439.93 39.6222 440.93 35.6332 440.922C34.8524 440.921 33.928 440.915 32.894 440.904L28.6903 440.849L28.7433 436.753C28.8257 428.931 29.1624 414.838 29.4522 409.237C29.6264 405.87 29.1057 405.689 30.1761 403.761C30.1016 403.008 30.0271 402.255 29.9527 401.502C29.7183 401.031 29.4839 400.559 29.2495 400.088C29.2402 395.769 29.6042 390.645 29.6005 386.53C29.593 379.032 28.9479 367.772 29.3716 360.242C29.4785 358.354 29.9618 355.994 29.9563 354.145C29.9488 351.454 29.1467 350.8 29.1318 347.385C29.1074 341.5 30.0392 330.539 29.9679 324.976C29.9473 323.324 29.6489 322.553 29.617 321.412C29.4801 316.629 29.5044 312.701 29.0432 308.114C29.8119 303.188 30.804 303.614 31.8051 302.087C32.5607 300.931 34.3117 297.383 34.9734 296.88C35.4383 296.526 36.0364 297.847 36.5481 297.351C36.9568 303.252 36.5069 305.731 35.787 310.523C35.8157 319.372 35.8444 328.221 35.8731 337.07C35.5938 337.876 35.3144 338.681 35.0351 339.486C35.0345 339.486 35.0339 339.486 35.0333 339.486C34.7109 342.884 35.4303 344.324 35.5936 346.157C37.1571 363.703 35.9334 398.238 35.7571 417.555C35.7239 421.243 36.0157 432.297 35.7669 436.753L32.894 433.88C33.4663 433.912 33.9297 433.953 34.2548 434.005C34.9942 434.123 35.1999 434.554 35.9867 434.572C43.0155 434.316 50.0443 434.06 57.0731 433.804C71.527 434.473 86.4697 433.92 101.034 433.817C140.438 433.538 179.448 433.199 218.206 433.302C225.697 433.322 235.203 433 242.536 433.208C245.596 433.294 246.871 433.986 250.892 433.47C250.934 433.656 250.976 433.843 251.019 434.029C254.527 433.804 256.769 433.38 260.703 433.337C264.016 433.301 272.78 433.274 275.707 433.345C277.226 433.381 276.66 433.729 278.075 433.727C278.357 433.726 278.675 433.719 279.024 433.707L275.978 436.753C275.887 434.1 275.511 429.712 275.511 426.756C275.511 423.727 275.912 418.62 275.854 416.291C275.648 407.904 275.053 398.768 275.212 389.829C275.257 387.36 275.709 384.184 275.696 383.411C275.67 381.901 275.232 381.451 275.175 380.436C274.89 375.283 275.411 367.25 275.432 362.198C275.5 345.738 275.308 328.3 275.389 311.911C275.409 307.691 275.409 302.333 275.423 296.819L279.024 300.42C271.007 300.399 262.658 300.346 256.994 300.151C254.933 300.079 255.482 299.599 253.751 299.599C251.832 299.599 250.793 299.924 249.896 299.95C243.687 300.134 229.982 300.462 224.12 300.13C223.004 300.066 222.194 299.69 221.525 299.691C221.187 299.691 220.423 299.948 219.36 299.974C209.982 300.207 203.143 300.057 193.953 299.969C176.352 299.802 155.958 300.28 137.468 300.021C133.44 299.965 130.677 299.22 130.111 299.228C128.868 299.243 128.072 299.744 125.554 299.867C117.183 300.274 105.909 299.74 97.9464 299.991C94.0127 300.114 88.6073 300.75 84.7361 300.891C81.6443 301.004 74.3424 300.754 72.972 301.033C72.1383 301.202 71.7526 301.744 70.7541 301.811ZM174.914 293.379C174.363 294.245 180.152 293.525 177.98 293.06C177.491 292.956 175.056 293.154 174.914 293.379ZM252.008 438.689C252.061 438.937 252.114 439.184 252.167 439.431C252.927 439.328 253.687 439.225 254.447 439.123C254.02 438.974 253.593 438.825 253.166 438.676C252.78 438.681 252.394 438.685 252.008 438.689Z" fill="#397B41"/>
<path d="M47.1157 301.811C46.77 301.871 46.2821 301.547 45.8743 301.53C44.166 301.455 43.533 301.23 41.9874 301.103C39.6957 300.913 32.8942 301.34 32.894 299.087C32.894 299.087 32.894 299.087 32.894 299.087C32.894 299.065 32.8947 299.042 32.896 299.02C32.9199 298.591 33.4984 298.122 33.5842 297.637C33.6699 297.151 33.6056 294.016 34.4273 293.84C35.6186 293.608 38.4765 294.412 39.1119 294.376C39.5463 294.352 40.0811 294.067 40.6365 294.016C42.4274 293.853 43.3646 294.061 44.9781 293.287C45.6235 293.695 46.2689 294.103 46.9143 294.511C47.7564 294.322 49.0327 294.86 49.5443 294.83C49.964 294.806 50.2099 294.483 50.6474 294.468C50.8259 294.462 51.0393 294.503 51.2816 294.557L53.6189 294.637L53.5437 296.819C53.4504 297.242 53.3216 297.754 53.355 298.321C53.4394 299.784 54.2809 300.045 54.3877 300.922C54.4983 301.833 54.0409 303.248 54.3371 304.41C54.4296 304.555 54.5222 304.701 54.6148 304.847C54.8241 304.742 55.0335 304.638 55.2428 304.534C55.3403 305.119 54.9112 305.37 54.9035 305.908C54.8941 306.54 55.3008 306.863 55.299 307.289C55.2971 307.637 54.9709 308.11 54.9914 308.562C55.0195 309.221 55.4904 309.077 55.5785 309.432C55.6127 309.573 55.8726 312.19 55.8764 312.337C55.8949 313.46 55.2504 313.558 55.194 314.453C55.0403 316.935 55.5611 319.484 55.758 321.781C55.846 322.806 55.8086 323.876 55.7055 324.898C54.0558 323.288 52.7719 326.852 55.3533 325.519C54.9861 326.657 55.6829 327.463 55.5651 328.542C55.4882 329.239 55.1303 329.722 55.1397 330.718C55.1586 332.485 56.176 334.419 54.3371 334.927C54.6612 337.002 53.9942 338.799 55.6176 339.546C55.7167 340.081 54.7498 341.452 54.6184 342.052C54.4947 342.62 54.0581 346.974 54.0337 347.686C54.0093 348.398 53.9828 349.645 54.1253 350.245C54.3015 350.999 55.9851 351.526 54.0166 352.868C54.1759 354.428 54.1196 354.984 53.8909 356.435C53.8495 356.697 53.5573 356.727 53.557 356.88C53.557 357.197 53.773 357.735 53.7993 358.299C53.8425 359.227 53.2275 359.757 54.1668 359.653C54.3242 360.265 54.4817 360.877 54.6392 361.489C54.4579 361.703 54.2766 361.918 54.0954 362.133C54.2929 362.46 54.4905 362.787 54.688 363.114C53.3289 362.73 54.1309 365.032 54.9108 364.285C54.6296 365.471 54.3484 366.657 54.0673 367.843C52.5226 367.677 53.889 370.447 54.7289 370.214C54.7277 370.35 54.7265 370.485 54.7252 370.621C54.3147 371.809 54.6505 372.9 54.3749 374.349C54.0993 375.797 53.9489 375.661 53.2384 376.101C53.2791 376.442 53.3198 376.783 53.3605 377.124C55.3083 378.912 51.9359 378.596 53.4301 381.658C52.2059 382.636 52.8489 385.047 53.2201 386.646C53.2632 386.832 53.5008 386.836 53.5741 387.083C53.7503 387.689 53.4449 389.235 54.2113 389.182C53.9896 389.717 53.7678 390.253 53.546 390.788C53.6854 391.225 53.8248 391.663 53.9641 392.1C54.2034 392.098 54.4426 392.096 54.6819 392.093C53.8665 392.974 54.1798 394.358 53.9849 395.041C53.9454 395.177 53.6153 395.206 53.5253 395.628C53.4184 396.122 53.5161 397.042 53.413 397.63C53.7786 397.858 54.1442 398.087 54.5098 398.316C54.7081 399.368 53.7431 399.737 53.6681 400.355C53.6551 400.466 53.7244 402.495 53.745 402.604C53.9083 403.499 54.7304 403.246 54.5543 405.834C54.5225 406.295 54.238 406.668 54.2266 407.084C54.206 407.82 54.8511 410.038 55.4473 410.212C54.7011 411.105 55.0061 413.493 54.7905 414.196C54.7243 414.409 54.249 414.456 54.1478 415.109C54.0654 415.638 54.4459 417.001 54.3822 417.671C54.3129 418.384 53.9136 418.638 53.8854 418.957C53.8591 419.259 54.1814 419.537 54.1796 419.947C54.1683 421.23 53.6496 422.391 53.64 423.405C53.6399 423.42 53.6398 423.436 53.6399 423.451L53.5559 425.888L51.2816 425.81C49.8346 425.815 48.5541 426.754 47.3405 427.173C47.036 427.111 46.7369 426.906 46.4177 426.904C42.4692 426.874 38.015 426.698 34.0546 426.494C33.7353 426.478 33.3336 426.425 32.894 426.361L29.8878 426.257L29.9846 423.451C30.2909 421.36 30.8651 418.413 29.0793 419.422C28.7008 418.783 29.5721 414.137 29.5852 413.253C29.5982 412.37 29.2107 411.67 29.205 410.975C29.1881 408.88 29.4674 407.404 29.1299 404.854C29.0417 404.195 28.5826 403.489 28.5879 403.099C28.5954 402.629 29.0395 402.123 29.0677 401.514C29.1314 400.063 28.9853 397.359 29.0622 395.967C29.0772 395.713 29.467 395.623 29.5889 395.26C30.065 393.844 30.0237 392.257 28.779 392.538C29.4857 390.723 28.841 389.045 28.8015 387.363C28.7209 383.808 29.0115 377.331 28.4884 374.233C28.1585 372.28 27.6002 372.33 28.0819 369.455C28.1888 368.817 28.3329 368.181 28.4604 367.407C28.7603 365.592 29.7917 363.927 28.5489 362.544C28.8712 360.529 28.6426 358.923 29.7055 357.428C29.4506 357.252 29.1956 357.075 28.9407 356.899C28.9344 356.652 28.9281 356.405 28.9218 356.158C29.1649 356.081 29.408 356.004 29.6512 355.927C29.7166 354.156 28.7174 351.911 28.7246 350.412C28.7359 347.9 29.1241 341.429 29.4522 339.047C29.6264 337.782 29.1057 337.714 30.1761 336.99C30.1016 336.707 30.0271 336.425 29.9527 336.142C29.7183 335.965 29.4839 335.788 29.2495 335.611C29.2402 333.988 29.6042 332.064 29.6005 330.518C29.593 327.701 28.9479 323.472 29.3716 320.643C29.4785 319.934 29.9618 319.047 29.9563 318.353C29.9488 317.342 29.1467 317.096 29.1318 315.814C29.1074 313.603 30.0392 309.485 29.9679 307.396C29.9473 306.775 29.6489 306.486 29.617 306.057C29.4801 304.26 29.5044 302.785 29.0432 301.062C29.8119 299.211 30.804 299.371 31.8051 298.798C32.5607 298.363 34.3117 297.031 34.9734 296.842C35.4383 296.709 36.0364 297.205 36.5481 297.019C36.9568 299.235 36.5069 300.167 35.787 301.967C35.8157 305.291 35.8444 308.615 35.8731 311.939C35.5938 312.241 35.3144 312.544 35.0351 312.846C35.0345 312.846 35.0339 312.846 35.0333 312.846C34.7109 314.123 35.4303 314.664 35.5936 315.352C37.1571 321.943 35.9334 334.916 35.7571 342.172C35.7197 343.735 36.0961 348.822 35.6424 349.894C35.5242 350.172 35.0935 350.25 35.0748 350.545C35.3309 353.185 35.587 355.826 35.8432 358.466C35.1739 363.895 35.7267 369.508 35.8298 374.979C36.1091 389.781 36.4486 404.434 36.3455 418.994C36.3355 420.361 36.4065 421.907 36.4584 423.451L32.894 419.887C34.5276 419.832 36.1592 419.799 37.5752 419.906C38.7249 419.992 39.2039 420.684 40.7141 420.168C40.73 420.355 40.7459 420.541 40.7617 420.727C42.0797 420.502 42.9219 420.078 44.3996 420.035C45.6439 420 48.9361 419.972 50.0357 420.043C50.606 420.079 50.3936 420.427 50.9253 420.425C51.031 420.425 51.1506 420.418 51.2816 420.406L48.2358 423.451C48.1446 422.455 47.7684 420.806 47.7684 419.696C47.7684 418.558 48.1696 416.64 48.1115 415.765C47.9052 412.614 47.3106 409.183 47.47 405.825C47.5151 404.898 47.9666 403.705 47.954 403.414C47.9277 402.847 47.4891 402.678 47.4327 402.297C47.1478 400.361 47.669 397.343 47.6897 395.446C47.7572 389.263 47.5658 382.712 47.6464 376.556C47.697 372.666 47.6198 366.203 47.9497 362.612C48.021 361.837 48.5015 362.044 48.5015 361.394C48.5014 360.673 48.1768 360.282 48.1505 359.945C47.9668 357.613 47.6387 352.465 47.9705 350.263C48.0342 349.844 48.4107 349.539 48.4093 349.288C48.4093 349.161 48.1524 348.874 48.1261 348.475C47.8936 344.952 48.0435 342.383 48.1316 338.931C48.2984 332.32 47.8204 324.659 48.0791 317.713C48.1353 316.2 48.8801 315.162 48.8726 314.95C48.8575 314.483 48.3566 314.184 48.2329 313.238C47.8262 310.093 48.3607 305.858 48.1096 302.867C47.9859 301.39 47.3501 299.359 47.2094 297.905C47.1817 297.62 47.1759 297.239 47.1788 296.819L51.2816 300.922C49.9928 300.913 48.3371 300.823 47.9488 301.033C47.6356 301.202 47.4907 301.744 47.1157 301.811ZM54.7216 331.779C53.8555 331.572 54.5753 333.747 55.0402 332.931C55.1449 332.747 54.9464 331.833 54.7216 331.779ZM41.1335 425.387C41.1534 425.635 41.1733 425.882 41.1932 426.13C41.4787 426.027 41.7641 425.924 42.0496 425.821C41.8891 425.672 41.7287 425.523 41.5683 425.375C41.4233 425.379 41.2784 425.383 41.1335 425.387Z" fill="#397B41"/>
<path d="M275.121 301.811C274.775 301.871 274.287 301.547 273.879 301.53C272.171 301.455 271.538 301.23 269.992 301.103C267.701 300.913 260.899 301.34 260.899 299.087C260.899 299.087 260.899 299.087 260.899 299.087C260.899 299.065 260.9 299.042 260.901 299.02C260.925 298.591 261.503 298.122 261.589 297.637C261.675 297.151 261.611 294.016 262.432 293.84C263.624 293.608 266.481 294.412 267.117 294.376C267.551 294.352 268.086 294.067 268.641 294.016C270.432 293.853 271.369 294.061 272.983 293.287C273.628 293.695 274.274 294.103 274.919 294.511C275.761 294.322 277.038 294.86 277.549 294.83C277.969 294.806 278.215 294.483 278.652 294.468C278.831 294.462 279.044 294.503 279.286 294.557L281.624 294.637L281.549 296.819C281.455 297.242 281.327 297.754 281.36 298.321C281.444 299.784 282.286 300.045 282.393 300.922C282.503 301.833 282.046 303.248 282.342 304.41C282.435 304.555 282.527 304.701 282.62 304.847C282.829 304.742 283.038 304.638 283.248 304.534C283.345 305.119 282.916 305.37 282.908 305.908C282.899 306.54 283.306 306.863 283.304 307.289C283.302 307.637 282.976 308.11 282.996 308.562C283.024 309.221 283.495 309.077 283.583 309.432C283.618 309.573 283.878 312.19 283.881 312.337C283.9 313.46 283.255 313.558 283.199 314.453C283.045 316.935 283.566 319.484 283.763 321.781C283.851 322.806 283.813 323.876 283.71 324.898C282.061 323.288 280.777 326.852 283.358 325.519C282.991 326.657 283.688 327.463 283.57 328.542C283.493 329.239 283.135 329.722 283.145 330.718C283.163 332.485 284.181 334.419 282.342 334.927C282.666 337.002 281.999 338.799 283.622 339.546C283.722 340.081 282.755 341.452 282.623 342.052C282.5 342.62 282.063 346.974 282.039 347.686C282.014 348.398 281.988 349.645 282.13 350.245C282.306 350.999 283.99 351.526 282.022 352.868C282.181 354.428 282.124 354.984 281.896 356.435C281.854 356.697 281.562 356.727 281.562 356.88C281.562 357.197 281.778 357.735 281.804 358.299C281.847 359.227 281.232 359.757 282.172 359.653C282.329 360.265 282.487 360.877 282.644 361.489C282.463 361.703 282.282 361.918 282.1 362.133C282.298 362.46 282.495 362.787 282.693 363.114C281.334 362.73 282.136 365.032 282.916 364.285C282.635 365.471 282.353 366.657 282.072 367.843C280.527 367.677 281.894 370.447 282.734 370.214C282.733 370.35 282.731 370.485 282.73 370.621C282.32 371.809 282.655 372.9 282.38 374.349C282.104 375.797 281.954 375.661 281.243 376.101C281.284 376.442 281.325 376.783 281.365 377.124C283.313 378.912 279.941 378.596 281.435 381.658C280.211 382.636 280.854 385.047 281.225 386.646C281.268 386.832 281.506 386.836 281.579 387.083C281.755 387.689 281.45 389.235 282.216 389.182C281.994 389.717 281.773 390.253 281.551 390.788C281.69 391.225 281.83 391.663 281.969 392.1C282.208 392.098 282.448 392.096 282.687 392.093C281.871 392.974 282.185 394.358 281.99 395.041C281.95 395.177 281.62 395.206 281.53 395.628C281.423 396.122 281.521 397.042 281.418 397.63C281.783 397.858 282.149 398.087 282.515 398.316C282.713 399.368 281.748 399.737 281.673 400.355C281.66 400.466 281.729 402.495 281.75 402.604C281.913 403.499 282.735 403.246 282.559 405.834C282.527 406.295 282.243 406.668 282.231 407.084C282.211 407.82 282.856 410.038 283.452 410.212C282.706 411.105 283.011 413.493 282.795 414.196C282.729 414.409 282.254 414.456 282.153 415.109C282.07 415.638 282.451 417.001 282.387 417.671C282.318 418.384 281.919 418.638 281.89 418.957C281.864 419.259 282.186 419.537 282.184 419.947C282.173 421.23 281.654 422.391 281.645 423.405C281.645 423.42 281.645 423.436 281.645 423.451L281.561 425.888L279.286 425.81C277.84 425.815 276.559 426.754 275.345 427.173C275.041 427.111 274.742 426.906 274.423 426.904C270.474 426.874 266.02 426.698 262.059 426.494C261.74 426.478 261.338 426.425 260.899 426.361L257.893 426.257L257.989 423.451C258.296 421.36 258.87 418.413 257.084 419.422C256.706 418.783 257.577 414.137 257.59 413.253C257.603 412.37 257.216 411.67 257.21 410.975C257.193 408.88 257.472 407.404 257.135 404.854C257.047 404.195 256.587 403.489 256.593 403.099C256.6 402.629 257.044 402.123 257.073 401.514C257.136 400.063 256.99 397.359 257.067 395.967C257.082 395.713 257.472 395.623 257.594 395.26C258.07 393.844 258.029 392.257 256.784 392.538C257.491 390.723 256.846 389.045 256.806 387.363C256.726 383.808 257.016 377.331 256.493 374.233C256.163 372.28 255.605 372.33 256.087 369.455C256.194 368.817 256.338 368.181 256.465 367.407C256.765 365.592 257.797 363.927 256.554 362.544C256.876 360.529 256.647 358.923 257.71 357.428C257.455 357.252 257.201 357.075 256.946 356.899C256.939 356.652 256.933 356.405 256.927 356.158C257.17 356.081 257.413 356.004 257.656 355.927C257.722 354.156 256.722 351.911 256.73 350.412C256.741 347.9 257.129 341.429 257.457 339.047C257.631 337.782 257.111 337.714 258.181 336.99C258.106 336.707 258.032 336.425 257.958 336.142C257.723 335.965 257.489 335.788 257.254 335.611C257.245 333.988 257.609 332.064 257.605 330.518C257.598 327.701 256.953 323.472 257.377 320.643C257.483 319.934 257.967 319.047 257.961 318.353C257.954 317.342 257.152 317.096 257.137 315.814C257.112 313.603 258.044 309.485 257.973 307.396C257.952 306.775 257.654 306.486 257.622 306.057C257.485 304.26 257.509 302.785 257.048 301.062C257.817 299.211 258.809 299.371 259.81 298.798C260.566 298.363 262.317 297.031 262.978 296.842C263.443 296.709 264.041 297.205 264.553 297.019C264.962 299.235 264.512 300.167 263.792 301.967C263.821 305.291 263.849 308.615 263.878 311.939C263.599 312.241 263.319 312.544 263.04 312.846C263.039 312.846 263.039 312.846 263.038 312.846C262.716 314.123 263.435 314.664 263.598 315.352C265.162 321.943 263.938 334.916 263.762 342.172C263.725 343.735 264.101 348.822 263.647 349.894C263.529 350.172 263.098 350.25 263.08 350.545C263.336 353.185 263.592 355.826 263.848 358.466C263.179 363.895 263.732 369.508 263.835 374.979C264.114 389.781 264.454 404.434 264.35 418.994C264.34 420.361 264.411 421.907 264.463 423.451L260.899 419.887C262.533 419.832 264.164 419.799 265.58 419.906C266.73 419.992 267.209 420.684 268.719 420.168C268.735 420.355 268.751 420.541 268.767 420.727C270.085 420.502 270.927 420.078 272.404 420.035C273.649 420 276.941 419.972 278.041 420.043C278.611 420.079 278.398 420.427 278.93 420.425C279.036 420.425 279.156 420.418 279.286 420.406L276.241 423.451C276.149 422.455 275.773 420.806 275.773 419.696C275.773 418.558 276.174 416.64 276.116 415.765C275.91 412.614 275.316 409.183 275.475 405.825C275.52 404.898 275.971 403.705 275.959 403.414C275.933 402.847 275.494 402.678 275.438 402.297C275.153 400.361 275.674 397.343 275.695 395.446C275.762 389.263 275.571 382.712 275.651 376.556C275.702 372.666 275.625 366.203 275.955 362.612C276.026 361.837 276.506 362.044 276.506 361.394C276.506 360.673 276.182 360.282 276.155 359.945C275.972 357.613 275.644 352.465 275.975 350.263C276.039 349.844 276.416 349.539 276.414 349.288C276.414 349.161 276.157 348.874 276.131 348.475C275.899 344.952 276.048 342.383 276.136 338.931C276.303 332.32 275.825 324.659 276.084 317.713C276.14 316.2 276.885 315.162 276.877 314.95C276.862 314.483 276.362 314.184 276.238 313.238C275.831 310.093 276.366 305.858 276.115 302.867C275.991 301.39 275.355 299.359 275.214 297.905C275.187 297.62 275.181 297.239 275.184 296.819L279.286 300.922C277.998 300.913 276.342 300.823 275.954 301.033C275.641 301.202 275.496 301.744 275.121 301.811ZM282.726 331.779C281.86 331.572 282.58 333.747 283.045 332.931C283.15 332.747 282.951 331.833 282.726 331.779ZM269.138 425.387C269.158 425.635 269.178 425.882 269.198 426.13C269.484 426.027 269.769 425.924 270.054 425.821C269.894 425.672 269.734 425.523 269.573 425.375C269.428 425.379 269.283 425.383 269.138 425.387Z" fill="#397B41"/>
<path d="M203.883 356.615C203.494 356.675 202.945 356.35 202.486 356.333C200.563 356.258 199.85 356.034 198.11 355.906C195.531 355.717 187.875 356.143 187.875 353.89C187.875 353.89 187.875 353.89 187.875 353.89C187.875 353.868 187.875 353.846 187.877 353.823C187.904 353.394 188.555 352.925 188.651 352.44C188.748 351.954 188.676 348.82 189.6 348.643C190.941 348.411 194.158 349.215 194.874 349.179C195.363 349.155 195.965 348.87 196.59 348.819C198.606 348.656 199.661 348.865 201.477 348.09C202.203 348.498 202.93 348.906 203.656 349.314C204.604 349.125 206.041 349.663 206.617 349.633C207.089 349.609 207.366 349.287 207.859 349.272C208.411 349.253 209.259 349.601 210.263 349.549C211.91 349.464 212.203 348.623 213.191 348.516C214.216 348.405 215.81 348.863 217.117 348.567C217.281 348.474 217.445 348.381 217.609 348.289C217.492 348.08 217.374 347.87 217.257 347.661C217.915 347.563 218.198 347.992 218.803 348C219.515 348.01 219.879 347.603 220.358 347.605C220.75 347.607 221.282 347.933 221.791 347.912C222.533 347.884 222.371 347.413 222.77 347.325C222.929 347.291 225.875 347.031 226.041 347.027C227.304 347.009 227.414 347.653 228.422 347.71C231.217 347.863 234.085 347.343 236.67 347.146C237.825 347.058 239.029 347.095 240.18 347.198C238.367 348.848 242.379 350.132 240.879 347.55C242.159 347.918 243.067 347.221 244.281 347.339C245.066 347.415 245.61 347.773 246.731 347.764C248.72 347.745 250.897 346.728 251.469 348.567C253.804 348.242 255.827 348.909 256.668 347.286C257.271 347.187 258.814 348.154 259.489 348.285C260.128 348.409 265.029 348.846 265.831 348.87C266.633 348.894 268.036 348.921 268.712 348.778C269.56 348.602 270.153 346.919 271.663 348.887C273.42 348.728 274.045 348.784 275.679 349.013C275.974 349.054 276.008 349.346 276.181 349.347C276.537 349.347 277.142 349.131 277.777 349.104C278.61 349.07 279.157 349.453 279.287 349.135L281.847 349.214L281.773 351.622C281.854 351.655 281.981 351.661 282.172 351.637C282.329 352.326 282.487 353.015 282.644 353.703C282.463 353.945 282.282 354.187 282.1 354.428C282.298 354.796 282.496 355.165 282.693 355.533C281.334 355.1 282.136 357.692 282.916 356.851C282.635 358.186 282.354 359.521 282.072 360.856C280.528 360.67 281.894 363.787 282.734 363.525C282.733 363.678 282.732 363.83 282.73 363.983C282.32 365.321 282.656 366.549 282.38 368.179C282.104 369.809 281.954 369.656 281.244 370.152C281.284 370.535 281.325 370.919 281.366 371.303C283.313 373.315 279.941 372.96 281.435 376.406C280.211 377.508 280.854 380.222 281.225 382.022C281.268 382.231 281.506 382.235 281.579 382.514C281.755 383.196 281.45 384.936 282.216 384.877C281.995 385.479 281.773 386.081 281.551 386.684C281.691 387.176 281.83 387.668 281.969 388.161C282.209 388.158 282.448 388.156 282.687 388.153C281.872 389.145 282.185 390.703 281.99 391.471C281.951 391.624 281.62 391.657 281.53 392.132C281.424 392.688 281.521 393.723 281.418 394.385C281.784 394.643 282.149 394.9 282.515 395.158C282.713 396.342 281.748 396.758 281.673 397.453C281.66 397.578 281.73 399.862 281.75 399.985C281.913 400.992 282.736 400.707 282.559 403.62C282.528 404.139 282.243 404.559 282.232 405.028C282.211 405.856 282.856 408.352 283.452 408.549C282.706 409.553 283.011 412.242 282.796 413.033C282.729 413.272 282.254 413.326 282.153 414.061C282.071 414.656 282.451 416.19 282.387 416.945C282.318 417.747 281.919 418.033 281.891 418.393C281.864 418.732 282.187 419.045 282.185 419.507C282.173 420.951 281.655 422.258 281.645 423.399C281.645 423.417 281.645 423.434 281.645 423.451L281.571 425.88L279.287 425.81C277.658 425.815 276.217 426.754 274.85 427.173C274.508 427.111 274.171 426.906 273.812 426.904C269.367 426.874 264.353 426.698 259.895 426.494C257.826 426.4 252.679 425.105 254.053 427.266C253.334 427.645 248.104 426.773 247.11 426.76C246.115 426.747 245.327 427.135 244.545 427.14C242.186 427.157 240.525 426.878 237.654 427.216C236.913 427.304 236.118 427.763 235.679 427.758C235.15 427.75 234.581 427.306 233.895 427.278C232.262 427.214 229.218 427.36 227.651 427.283C227.365 427.268 227.264 426.878 226.855 426.757C225.261 426.28 223.475 426.322 223.791 427.567C221.749 426.86 219.859 427.504 217.966 427.544C213.964 427.625 206.673 427.334 203.187 427.857C200.988 428.187 201.045 428.745 197.808 428.264C197.089 428.157 196.374 428.013 195.502 427.885C193.46 427.585 191.586 426.554 190.029 427.797C189.262 427.688 188.549 427.642 187.875 427.588L183.616 427.457L183.738 423.451C183.845 422.13 183.982 420.961 184.686 419.847C184.431 419.648 184.176 419.45 183.921 419.251C183.915 418.973 183.909 418.695 183.902 418.417C184.145 418.33 184.389 418.243 184.632 418.157C184.697 416.164 183.698 413.636 183.705 411.949C183.716 409.121 184.105 401.838 184.433 399.156C184.607 397.733 184.086 397.656 185.157 396.841C185.082 396.523 185.008 396.204 184.933 395.886C184.699 395.687 184.464 395.487 184.23 395.288C184.221 393.462 184.585 391.295 184.581 389.555C184.573 386.385 183.928 381.624 184.352 378.44C184.459 377.641 184.942 376.643 184.937 375.862C184.929 374.724 184.127 374.447 184.112 373.003C184.088 370.515 185.02 365.88 184.948 363.528C184.928 362.829 184.629 362.504 184.597 362.021C184.461 359.998 184.485 358.338 184.024 356.398C184.792 354.315 185.784 354.495 186.786 353.85C187.541 353.361 189.292 351.861 189.954 351.648C190.419 351.498 191.017 352.057 191.529 351.847C191.937 354.342 191.487 355.391 190.768 357.417C190.796 361.158 190.825 364.9 190.854 368.642C190.574 368.982 190.295 369.323 190.016 369.663C190.015 369.663 190.014 369.663 190.014 369.663C189.691 371.1 190.411 371.709 190.574 372.484C192.138 379.903 190.914 394.506 190.738 402.673C190.7 404.433 191.077 410.159 190.623 411.367C190.505 411.679 190.074 411.766 190.055 412.099C190.311 415.071 190.568 418.043 190.824 421.015C190.735 421.824 190.668 422.636 190.618 423.451L187.875 420.708C193.219 421.033 198.683 420.605 204.026 420.516C220.687 420.236 237.182 419.897 253.571 420C256.738 420.021 260.757 419.698 263.858 419.906C265.152 419.992 265.691 420.684 267.391 420.168C267.409 420.355 267.427 420.541 267.445 420.728C268.929 420.503 269.877 420.078 271.54 420.035C272.941 420 276.647 419.972 277.884 420.043C278.526 420.079 278.287 420.427 278.886 420.425C279.005 420.425 279.139 420.418 279.287 420.406L276.241 423.451C276.15 422.33 275.774 420.474 275.774 419.224C275.774 417.944 276.175 415.784 276.117 414.799C275.91 411.253 275.316 407.39 275.475 403.61C275.52 402.566 275.972 401.224 275.959 400.897C275.933 400.258 275.494 400.068 275.438 399.639C275.153 397.46 275.674 394.063 275.695 391.927C275.762 384.967 275.571 377.594 275.652 370.664C275.702 366.285 275.625 359.01 275.955 354.967C276.026 354.096 276.507 354.328 276.507 353.596C276.507 352.785 276.182 352.345 276.156 351.966C276.148 351.857 276.14 351.742 276.132 351.622L279.287 354.777C276.529 354.963 271.107 355.251 268.732 354.933C268.26 354.869 267.917 354.493 267.634 354.494C267.491 354.494 267.168 354.751 266.719 354.778C262.753 355.01 259.862 354.86 255.976 354.772C248.534 354.605 239.91 355.083 232.092 354.825C230.389 354.768 229.221 354.024 228.981 354.031C228.455 354.046 228.119 354.547 227.054 354.671C223.515 355.077 218.748 354.543 215.381 354.794C213.718 354.918 211.432 355.554 209.795 355.694C208.488 355.807 205.4 355.557 204.821 355.836C204.468 356.005 204.305 356.547 203.883 356.615ZM247.925 348.182C247.693 349.048 250.14 348.328 249.222 347.863C249.015 347.759 247.986 347.957 247.925 348.182ZM267.864 425.388C267.886 425.635 267.908 425.882 267.931 426.13C268.252 426.027 268.573 425.924 268.895 425.821C268.714 425.672 268.534 425.523 268.353 425.375C268.19 425.379 268.027 425.383 267.864 425.388Z" fill="#397B41"/>
<path d="M150.923 384.282C150.493 384.342 149.886 384.018 149.379 384.001C147.255 383.926 146.468 383.701 144.546 383.574C141.696 383.384 133.238 383.81 133.238 381.558C133.238 381.558 133.238 381.558 133.238 381.557C133.238 381.535 133.239 381.513 133.24 381.49C133.27 381.061 133.989 380.593 134.096 380.107C134.203 379.622 134.123 376.487 135.144 376.311C136.626 376.079 140.18 376.882 140.97 376.847C141.51 376.822 142.175 376.537 142.866 376.487C145.093 376.324 146.258 376.532 148.265 375.758C149.067 376.166 149.87 376.574 150.672 376.982C151.72 376.793 153.307 377.331 153.943 377.301C154.465 377.277 154.771 376.954 155.315 376.939C155.925 376.92 156.862 377.269 157.971 377.216C159.791 377.132 160.114 376.29 161.206 376.183C162.338 376.073 164.098 376.53 165.543 376.234C165.724 376.141 165.905 376.049 166.086 375.956C165.956 375.747 165.827 375.538 165.697 375.328C166.424 375.231 166.737 375.66 167.406 375.668C168.192 375.677 168.593 375.27 169.123 375.272C169.556 375.274 170.144 375.6 170.706 375.58C171.526 375.552 171.347 375.081 171.788 374.993C171.964 374.958 175.217 374.698 175.401 374.695C176.797 374.676 176.918 375.321 178.031 375.377C181.119 375.531 184.288 375.01 187.144 374.813C188.419 374.725 189.749 374.763 191.021 374.866C189.018 376.515 193.45 377.799 191.793 375.218C193.208 375.585 194.211 374.888 195.552 375.006C196.419 375.083 197.019 375.441 198.258 375.431C200.456 375.413 202.86 374.395 203.492 376.234C206.072 375.91 208.306 376.577 209.236 374.954C209.901 374.854 211.606 375.821 212.352 375.953C213.058 376.076 218.472 376.513 219.358 376.537C220.244 376.562 221.795 376.588 222.541 376.446C223.478 376.27 224.133 374.586 225.801 376.554C227.742 376.395 228.433 376.452 230.237 376.68C230.564 376.722 230.601 377.014 230.792 377.014C231.185 377.014 231.854 376.798 232.556 376.772C233.71 376.729 234.368 377.344 234.24 376.404C235 376.247 235.761 376.089 236.522 375.932C236.789 376.113 237.056 376.294 237.323 376.476C237.73 376.278 238.136 376.081 238.543 375.883C238.065 377.242 240.929 376.44 239.999 375.66C241.474 375.941 242.949 376.223 244.424 376.504C244.218 378.049 247.662 376.682 247.372 375.842C247.541 375.843 247.71 375.845 247.878 375.846C249.356 376.256 250.713 375.921 252.514 376.196C254.315 376.472 254.146 376.622 254.693 377.333C255.117 377.292 255.541 377.251 255.964 377.211C258.041 375.392 257.836 378.212 260.9 377.377L262.864 377.431L262.812 379.29C262.872 379.507 262.949 379.741 263.048 379.993C261.824 381.209 262.467 384.208 262.838 386.196C262.881 386.428 263.119 386.432 263.192 386.74C263.368 387.493 263.063 389.416 263.829 389.35C263.608 390.015 263.386 390.681 263.164 391.346C263.303 391.89 263.443 392.434 263.582 392.978C263.821 392.975 264.061 392.973 264.3 392.97C263.485 394.065 263.798 395.786 263.603 396.635C263.563 396.804 263.233 396.84 263.143 397.366C263.036 397.979 263.134 399.123 263.031 399.855C263.397 400.139 263.762 400.423 264.128 400.708C264.326 402.016 263.361 402.475 263.286 403.243C263.273 403.382 263.342 405.905 263.363 406.04C263.526 407.153 264.348 406.838 264.172 410.057C264.141 410.63 263.856 411.093 263.845 411.611C263.824 412.526 264.469 415.284 265.065 415.501C264.319 416.611 264.624 419.581 264.409 420.455C264.342 420.719 263.867 420.779 263.766 421.59C263.683 422.248 264.064 423.943 264 424.777C263.931 425.663 263.532 425.979 263.503 426.376C263.477 426.751 263.8 427.096 263.798 427.607C263.786 429.202 263.268 430.646 263.258 431.907C263.258 431.926 263.258 431.945 263.258 431.964L263.191 434.386L260.9 434.323C259.1 434.328 257.508 435.267 255.999 435.686C255.62 435.624 255.248 435.419 254.851 435.417C249.941 435.387 244.402 435.211 239.477 435.007C237.191 434.913 231.506 433.618 233.023 435.779C232.229 436.158 226.452 435.286 225.353 435.273C224.254 435.26 223.383 435.648 222.52 435.653C219.914 435.67 218.079 435.391 214.907 435.729C214.088 435.817 213.21 436.276 212.725 436.271C212.141 436.263 211.512 435.819 210.755 435.791C208.95 435.727 205.588 435.873 203.856 435.796C203.54 435.781 203.429 435.391 202.977 435.27C201.217 434.793 199.243 434.835 199.593 436.079C197.336 435.373 195.249 436.017 193.158 436.057C188.736 436.138 180.682 435.847 176.83 436.37C174.402 436.7 174.464 437.258 170.888 436.777C170.094 436.67 169.304 436.526 168.341 436.398C166.085 436.098 164.014 435.067 162.294 436.31C159.788 435.987 157.792 436.216 155.932 435.153C155.713 435.408 155.494 435.663 155.275 435.918C154.967 435.924 154.66 435.93 154.353 435.937C154.257 435.694 154.161 435.45 154.065 435.207C151.864 435.142 149.071 436.141 147.208 436.134C144.139 436.123 136.322 435.748 133.238 435.424L129.685 435.325L129.778 431.964C129.784 431.909 129.79 431.854 129.796 431.802C129.97 430.229 129.449 430.144 130.52 429.244C130.445 428.892 130.371 428.54 130.296 428.189C130.062 427.969 129.828 427.748 129.593 427.528C129.584 425.511 129.948 423.117 129.944 421.195C129.937 417.693 129.292 412.433 129.715 408.916C129.822 408.034 130.306 406.931 130.3 406.068C130.293 404.811 129.49 404.505 129.476 402.91C129.451 400.161 130.383 395.041 130.312 392.442C130.291 391.671 129.993 391.311 129.961 390.778C129.824 388.543 129.848 386.708 129.387 384.566C130.156 382.265 131.148 382.464 132.149 381.751C132.904 381.21 134.655 379.553 135.317 379.318C135.782 379.153 136.38 379.77 136.892 379.538C137.301 382.295 136.851 383.453 136.131 385.691C136.159 389.825 136.188 393.958 136.217 398.092C135.938 398.468 135.658 398.844 135.379 399.22C135.378 399.22 135.378 399.22 135.377 399.22C135.055 400.807 135.774 401.48 135.937 402.336C137.304 409.499 136.541 422.722 136.21 431.964L133.238 428.992C134.572 429.04 135.823 429.079 136.961 429.101C138.905 429.139 145.23 428.762 146.564 429.216C146.909 429.334 147.006 429.765 147.373 429.784C150.656 429.528 153.94 429.271 157.223 429.015C163.975 429.685 170.954 429.132 177.758 429.029C196.164 428.749 214.386 428.41 232.491 428.513C235.99 428.534 240.43 428.211 243.855 428.419C245.285 428.505 245.881 429.197 247.759 428.681C247.778 428.868 247.798 429.054 247.818 429.24C249.457 429.016 250.504 428.591 252.342 428.548C253.889 428.513 257.983 428.485 259.35 428.556C260.06 428.592 259.795 428.94 260.457 428.938C260.588 428.938 260.737 428.931 260.9 428.919L257.854 431.964C257.763 430.725 257.387 428.675 257.387 427.295C257.387 425.88 257.788 423.494 257.73 422.406C257.523 418.488 256.929 414.221 257.088 410.046C257.133 408.892 257.585 407.409 257.572 407.048C257.546 406.342 257.107 406.132 257.051 405.658C256.766 403.251 257.287 399.498 257.308 397.139C257.359 391.314 257.261 385.227 257.246 379.29L260.9 382.943C258.999 382.948 257.115 382.944 255.259 382.925C250.422 382.874 242.384 382.951 237.919 382.621C236.956 382.55 237.212 382.07 236.404 382.07C235.507 382.07 235.022 382.394 234.603 382.421C231.703 382.604 225.301 382.932 222.563 382.601C222.041 382.537 221.663 382.16 221.35 382.162C221.192 382.162 220.835 382.419 220.339 382.445C215.958 382.677 212.764 382.528 208.471 382.44C200.249 382.273 190.723 382.751 182.086 382.492C180.204 382.436 178.914 381.691 178.649 381.699C178.069 381.714 177.697 382.214 176.521 382.338C172.61 382.745 167.344 382.21 163.625 382.461C161.787 382.585 159.262 383.221 157.454 383.362C156.01 383.474 152.599 383.225 151.959 383.504C151.569 383.673 151.389 384.214 150.923 384.282ZM199.577 375.85C199.32 376.716 202.024 375.996 201.01 375.531C200.781 375.426 199.644 375.625 199.577 375.85ZM248.28 433.901C248.305 434.148 248.33 434.395 248.354 434.643C248.709 434.54 249.064 434.437 249.419 434.334C249.22 434.185 249.02 434.036 248.821 433.888C248.641 433.892 248.46 433.896 248.28 433.901Z" fill="#397B41"/>
<path d="M90.1674 351.826C89.8862 351.886 89.4894 351.561 89.1577 351.544C87.7683 351.469 87.2534 351.244 85.9963 351.117C84.1323 350.928 78.6002 351.354 78.6001 349.101C78.6001 349.101 78.6001 349.101 78.6001 349.101C78.6001 349.079 78.6006 349.056 78.6017 349.034C78.6211 348.605 79.0916 348.136 79.1615 347.651C79.2312 347.165 79.1789 344.031 79.8472 343.854C80.8162 343.622 83.1406 344.426 83.6574 344.39C84.0107 344.366 84.4457 344.081 84.8975 344.03C86.3542 343.867 87.1164 344.075 88.4288 343.301C88.9537 343.709 89.4787 344.117 90.0036 344.525C90.6885 344.336 91.7266 344.874 92.1427 344.844C92.4841 344.82 92.6842 344.497 93.0399 344.482C93.439 344.464 94.0518 344.812 94.7777 344.76C95.9676 344.675 96.1794 343.834 96.8934 343.727C97.6338 343.616 98.7852 344.074 99.7299 343.778C99.8484 343.685 99.9669 343.592 100.085 343.5C100 343.29 99.9156 343.081 99.8307 342.872C100.307 342.774 100.511 343.203 100.948 343.211C101.463 343.22 101.725 342.814 102.071 342.816C102.355 342.817 102.74 343.144 103.107 343.123C103.643 343.095 103.526 342.624 103.815 342.536C103.93 342.502 106.058 342.242 106.178 342.238C107.091 342.22 107.17 342.864 107.898 342.921C109.918 343.074 111.991 342.553 113.859 342.357C114.693 342.269 115.563 342.306 116.395 342.409C115.085 344.059 117.984 345.343 116.899 342.761C117.825 343.129 118.481 342.432 119.358 342.549C119.925 342.626 120.318 342.984 121.128 342.975C122.566 342.956 124.138 341.939 124.551 343.778C126.239 343.453 127.7 344.12 128.309 342.497C128.744 342.398 129.859 343.365 130.347 343.496C130.627 343.571 132.039 343.761 133.237 343.905L136.284 344.034L136.166 346.833C136.072 347.61 135.999 348.297 135.989 348.525C135.965 349.104 135.939 350.118 136.081 350.606C136.257 351.219 137.941 351.648 135.972 352.739C136.132 354.008 136.075 354.46 135.847 355.641C135.805 355.854 135.513 355.878 135.513 356.003C135.513 356.26 135.729 356.698 135.755 357.157C135.798 357.912 135.183 358.343 136.122 358.258C136.28 358.756 136.437 359.254 136.595 359.751C136.414 359.926 136.232 360.101 136.051 360.275C136.249 360.541 136.446 360.807 136.644 361.073C135.285 360.761 136.087 362.633 136.867 362.025C136.585 362.99 136.304 363.955 136.023 364.92C134.478 364.785 135.845 367.038 136.685 366.848C136.683 366.958 136.682 367.069 136.681 367.179C136.27 368.146 136.606 369.033 136.331 370.211C136.055 371.389 135.905 371.278 135.194 371.637C135.235 371.914 135.276 372.191 135.316 372.468C137.264 373.922 133.892 373.665 135.386 376.156C134.162 376.952 134.805 378.913 135.176 380.214C135.219 380.365 135.457 380.368 135.53 380.569C135.706 381.062 135.401 382.319 136.167 382.276C135.945 382.711 135.724 383.147 135.502 383.582C135.641 383.938 135.78 384.294 135.92 384.649C136.159 384.647 136.398 384.646 136.638 384.644C135.822 385.36 136.136 386.486 135.941 387.041C135.901 387.152 135.571 387.176 135.481 387.519C135.374 387.921 135.472 388.669 135.369 389.147C135.734 389.333 136.1 389.519 136.465 389.705C136.664 390.561 135.699 390.861 135.624 391.364C135.611 391.454 135.68 393.104 135.701 393.193C135.864 393.921 136.686 393.715 136.51 395.82C136.478 396.195 136.194 396.498 136.182 396.837C136.162 397.435 136.807 399.239 137.403 399.381C136.657 400.107 136.962 402.049 136.746 402.622C136.68 402.794 136.205 402.833 136.104 403.364C136.021 403.794 136.402 404.902 136.338 405.448C136.269 406.027 135.869 406.234 135.841 406.494C135.815 406.739 136.137 406.965 136.135 407.299C136.124 408.342 135.605 409.287 135.596 410.111C135.596 410.124 135.596 410.137 135.596 410.149L135.492 412.603L133.237 412.508C132.06 412.513 131.019 413.451 130.032 413.871C129.784 413.809 129.541 413.604 129.281 413.602C126.07 413.572 122.447 413.396 119.226 413.192C117.73 413.098 114.012 411.803 115.004 413.964C114.484 414.343 110.706 413.471 109.987 413.458C109.269 413.445 108.699 413.833 108.134 413.838C106.43 413.855 105.23 413.576 103.155 413.913C102.619 414.002 102.045 414.461 101.728 414.455C101.345 414.448 100.934 414.004 100.439 413.976C99.2587 413.912 97.0591 414.058 95.9268 413.981C95.72 413.966 95.6474 413.576 95.3517 413.454C94.2002 412.978 92.9096 413.02 93.1379 414.264C91.662 413.558 90.2968 414.202 88.929 414.242C86.1651 414.319 81.2309 414.057 78.6001 414.49L74.0834 414.299L74.2593 410.149C74.2392 410.027 74.2177 409.91 74.1945 409.799C73.8645 408.21 73.3062 408.251 73.788 405.912C73.8948 405.393 74.039 404.876 74.1664 404.246C74.4664 402.77 75.4977 401.416 74.2549 400.291C74.5772 398.652 74.3487 397.346 75.4115 396.13C75.1566 395.987 74.9017 395.843 74.6468 395.7C74.6405 395.499 74.6342 395.298 74.6278 395.097C74.871 395.034 75.1141 394.972 75.3572 394.909C75.4227 393.469 74.4234 391.642 74.4307 390.424C74.4419 388.38 74.8302 383.117 75.1582 381.18C75.3325 380.151 74.8117 380.096 75.8821 379.507C75.8077 379.277 75.7332 379.047 75.6587 378.817C75.4244 378.673 75.19 378.529 74.9556 378.385C74.9462 377.065 75.3103 375.5 75.3066 374.242C75.2991 371.951 74.654 368.511 75.0777 366.211C75.1845 365.634 75.6678 364.913 75.6624 364.348C75.6549 363.526 74.8528 363.326 74.8378 362.282C74.8134 360.484 75.7452 357.136 75.674 355.436C75.6534 354.931 75.3549 354.696 75.323 354.347C75.1862 352.885 75.2105 351.685 74.7493 350.284C75.5179 348.779 76.5101 348.909 77.5112 348.443C78.2667 348.089 80.0178 347.006 80.6795 346.852C81.1444 346.744 81.7425 347.147 82.2542 346.996C82.6629 348.799 82.213 349.556 81.4931 351.02C81.5218 353.724 81.5505 356.427 81.5792 359.131C81.2998 359.377 81.0205 359.623 80.7411 359.869C80.7405 359.869 80.7399 359.869 80.7393 359.869C80.4169 360.907 81.1363 361.347 81.2996 361.907C82.8631 367.268 81.6394 377.819 81.4632 383.721C81.4257 384.993 81.8021 389.13 81.3484 390.003C81.2303 390.229 80.7996 390.291 80.7808 390.532C81.037 392.679 81.2931 394.827 81.5492 396.974C80.8928 401.306 81.412 405.781 81.5294 410.149L78.6001 407.22C78.6855 407.218 78.7709 407.216 78.8563 407.214C90.8952 406.934 102.814 406.595 114.656 406.698C116.944 406.718 119.849 406.396 122.089 406.604C123.024 406.69 123.414 407.382 124.642 406.866C124.655 407.053 124.668 407.239 124.681 407.425C125.753 407.2 126.438 406.776 127.64 406.733C128.652 406.698 131.33 406.67 132.224 406.741C132.688 406.777 132.515 407.125 132.947 407.123C133.033 407.123 133.131 407.115 133.237 407.104L130.192 410.149C130.1 409.339 129.724 407.998 129.724 407.095C129.724 406.169 130.125 404.609 130.067 403.898C129.861 401.335 129.266 398.544 129.426 395.813C129.471 395.058 129.922 394.088 129.91 393.852C129.883 393.39 129.445 393.253 129.388 392.943C129.104 391.368 129.625 388.914 129.645 387.371C129.713 382.342 129.521 377.014 129.602 372.006C129.653 368.843 129.576 363.586 129.905 360.665C129.977 360.035 130.457 360.203 130.457 359.674C130.457 359.088 130.132 358.77 130.106 358.496C129.923 356.599 129.594 352.412 129.926 350.621C129.99 350.28 130.366 350.032 130.365 349.828C130.365 349.725 130.108 349.491 130.082 349.167C130.014 348.336 129.979 347.57 129.965 346.833L133.237 350.105C131.433 350.139 129.802 350.046 127.808 349.983C122.431 349.816 116.2 350.294 110.55 350.035C109.32 349.979 108.476 349.234 108.302 349.242C107.923 349.257 107.68 349.758 106.91 349.882C104.353 350.288 100.908 349.754 98.4754 350.005C97.2736 350.129 95.622 350.765 94.4393 350.905C93.4947 351.018 91.2637 350.768 90.845 351.047C90.5903 351.216 90.4725 351.758 90.1674 351.826ZM121.991 343.393C121.823 344.259 123.591 343.539 122.928 343.074C122.778 342.97 122.035 343.168 121.991 343.393ZM124.983 412.085C124.999 412.333 125.016 412.58 125.032 412.828C125.264 412.725 125.496 412.622 125.728 412.519C125.598 412.37 125.467 412.221 125.337 412.073C125.219 412.077 125.101 412.081 124.983 412.085Z" fill="#397B41"/>
<path d="M32.6313 436.753V410.15H279.024V436.753H32.6313Z" fill="#397B41"/>
<path d="M59.4032 415.143C58.7525 415.202 57.8339 414.878 57.0663 414.861C53.8505 414.786 52.659 414.561 49.7494 414.434C45.4354 414.245 32.6317 414.671 32.6313 412.418C32.6313 412.418 32.6313 412.418 32.6313 412.418C32.6314 412.396 32.6326 412.373 32.6351 412.351C32.6799 411.922 33.769 411.453 33.9306 410.968C34.0919 410.482 33.9709 407.348 35.5177 407.171C37.7603 406.939 43.1401 407.743 44.3362 407.707C45.1539 407.683 46.1607 407.398 47.2063 407.347C50.5777 407.184 52.3418 407.392 55.3792 406.618C56.5942 407.026 57.8091 407.434 59.0241 407.842C60.6094 407.653 63.0119 408.191 63.9749 408.161C64.765 408.137 65.2281 407.814 66.0515 407.799C66.9751 407.781 68.3934 408.129 70.0734 408.076C72.8275 407.992 73.3176 407.151 74.97 407.044C76.6836 406.933 79.3486 407.391 81.535 407.094C81.8093 407.002 82.0835 406.909 82.3577 406.817C82.1612 406.607 81.9648 406.398 81.7683 406.189C82.8696 406.091 83.3432 406.52 84.3551 406.528C85.5458 406.537 86.1533 406.131 86.9544 406.132C87.6108 406.134 88.5007 406.461 89.3518 406.44C90.5925 406.412 90.3212 405.941 90.9888 405.853C91.2552 405.819 96.1804 405.559 96.4583 405.555C98.5715 405.537 98.7555 406.181 100.441 406.237C105.114 406.391 109.912 405.87 114.235 405.673C116.165 405.585 118.179 405.623 120.104 405.726C117.073 407.376 123.782 408.66 121.273 406.078C123.414 406.445 124.933 405.749 126.963 405.866C128.276 405.943 129.185 406.301 131.06 406.292C134.387 406.273 138.026 405.255 138.983 407.094C142.888 406.77 146.271 407.437 147.678 405.814C148.686 405.715 151.266 406.682 152.396 406.813C153.464 406.937 161.661 407.373 163.002 407.398C164.342 407.422 166.69 407.449 167.819 407.306C169.238 407.13 170.229 405.446 172.755 407.415C175.692 407.256 176.739 407.312 179.47 407.541C179.965 407.582 180.021 407.874 180.31 407.874C180.905 407.874 181.917 407.658 182.98 407.632C184.727 407.589 185.724 408.204 185.529 407.265C186.681 407.107 187.833 406.95 188.985 406.792C189.389 406.974 189.793 407.155 190.197 407.336C190.813 407.139 191.428 406.941 192.044 406.743C191.321 408.103 195.655 407.301 194.248 406.521C196.48 406.802 198.713 407.083 200.946 407.364C200.634 408.909 205.848 407.542 205.409 406.703C205.665 406.704 205.92 406.705 206.176 406.706C208.413 407.117 210.467 406.781 213.193 407.057C215.919 407.332 215.663 407.483 216.492 408.193C217.134 408.152 217.775 408.112 218.417 408.071C221.783 406.123 221.188 409.496 226.952 408.001C228.793 409.226 233.333 408.583 236.343 408.211C236.693 408.168 236.699 407.931 237.166 407.857C238.306 407.681 241.216 407.987 241.117 407.22C242.124 407.442 243.132 407.664 244.139 407.885C244.962 407.746 245.786 407.607 246.609 407.467C246.605 407.228 246.601 406.989 246.597 406.75C248.255 407.565 250.86 407.252 252.145 407.447C252.401 407.486 252.456 407.816 253.251 407.906C254.18 408.013 255.912 407.915 257.019 408.018C257.45 407.653 257.88 407.287 258.31 406.922C260.29 406.723 260.986 407.688 262.149 407.763C262.358 407.776 266.178 407.707 266.383 407.686C268.068 407.523 267.591 406.701 272.463 406.877C273.331 406.909 274.032 407.193 274.817 407.205C275.675 407.218 277.603 406.975 279.024 406.647L282.59 406.712L282.527 410.15C282.729 411.023 282.963 411.706 283.19 411.831C282.444 413.511 282.749 418.007 282.533 419.331C282.467 419.731 281.991 419.821 281.89 421.049C281.808 422.045 282.188 424.61 282.125 425.873C282.055 427.214 281.656 427.692 281.628 428.293C281.602 428.861 281.924 429.384 281.922 430.157C281.911 432.572 281.392 434.758 281.382 436.666C281.382 436.695 281.382 436.724 281.382 436.753L281.338 439.154L279.024 439.112C276.3 439.117 273.89 440.056 271.605 440.475C271.032 440.413 270.469 440.208 269.868 440.206C262.435 440.176 254.05 440 246.595 439.796C243.134 439.702 234.527 438.407 236.824 440.568C235.622 440.947 226.876 440.075 225.213 440.062C223.55 440.049 222.231 440.437 220.924 440.442C216.979 440.459 214.202 440.18 209.4 440.517C208.16 440.606 206.831 441.065 206.097 441.059C205.212 441.052 204.26 440.608 203.114 440.58C200.383 440.516 195.292 440.662 192.671 440.585C192.193 440.57 192.024 440.18 191.34 440.059C188.675 439.582 185.688 439.624 186.216 440.868C182.801 440.162 179.641 440.806 176.475 440.846C169.782 440.926 157.59 440.636 151.759 441.159C148.082 441.489 148.176 442.047 142.763 441.565C141.561 441.459 140.365 441.315 138.908 441.187C135.492 440.887 132.358 439.856 129.754 441.099C125.96 440.776 122.938 441.005 120.123 439.942C119.791 440.197 119.459 440.452 119.127 440.707C118.662 440.713 118.197 440.719 117.732 440.726C117.587 440.483 117.442 440.239 117.297 439.996C113.964 439.931 109.737 440.93 106.916 440.923C102.187 440.912 90.0059 440.523 85.5215 440.195C83.1407 440.021 83.0126 440.542 81.6496 439.471C81.1171 439.546 80.5845 439.62 80.052 439.695C79.7188 439.929 79.3856 440.163 79.0523 440.398C75.9978 440.407 72.375 440.043 69.4652 440.047C64.1629 440.054 56.2008 440.699 50.8762 440.276C49.5411 440.169 47.8722 439.686 46.5648 439.691C44.662 439.699 44.1995 440.501 41.7848 440.516C39.4339 440.529 35.9377 440.238 32.6313 439.995L29.3317 439.934L29.3899 436.753C29.5773 434.207 29.7362 431.772 29.7052 430.061C29.6846 428.893 29.3862 428.347 29.3543 427.541C29.2174 424.158 29.2417 421.381 28.7806 418.137C29.5492 414.654 30.5413 414.955 31.5424 413.875C32.298 413.057 34.049 410.549 34.7107 410.193C35.1757 409.943 35.7737 410.877 36.2855 410.526C36.6941 414.699 36.2442 416.452 35.5243 419.841C35.5502 425.478 35.576 431.116 35.6019 436.753L32.6313 433.783C33.2512 433.78 33.871 433.777 34.4908 433.774C35.0601 434.054 35.6294 434.333 36.1987 434.612C36.1987 434.613 36.1987 434.614 36.1987 434.614C38.6018 434.937 39.6203 434.217 40.9163 434.054C53.3236 432.49 77.7441 433.714 91.4033 433.89C94.3467 433.928 103.922 433.551 105.941 434.005C106.464 434.123 106.61 434.554 107.166 434.573C112.136 434.317 117.106 434.06 122.077 433.804C132.297 434.473 142.864 433.921 153.162 433.818C181.026 433.538 208.611 433.199 236.018 433.302C241.315 433.323 248.037 433 253.222 433.208C255.386 433.294 256.288 433.986 259.131 433.47C259.161 433.657 259.191 433.843 259.221 434.029C261.702 433.804 263.287 433.38 266.069 433.337C268.411 433.302 274.609 433.274 276.679 433.345C277.752 433.381 277.352 433.729 278.353 433.727C278.552 433.727 278.777 433.72 279.024 433.708L275.978 436.753C275.887 434.878 275.511 431.774 275.511 429.684C275.511 427.542 275.912 423.931 275.854 422.284C275.719 418.404 275.418 414.296 275.27 410.15L279.024 413.904C276.833 413.982 274.631 414.017 272.446 413.961C270.7 413.916 268.455 413.465 267.908 413.477C266.84 413.504 266.522 413.942 265.804 413.999C262.16 414.284 256.48 413.762 252.908 413.742C241.268 413.674 228.938 413.866 217.348 413.785C210.026 413.734 197.859 413.812 191.099 413.482C189.641 413.411 190.029 412.93 188.805 412.93C187.448 412.93 186.713 413.255 186.079 413.281C181.689 413.465 171.997 413.793 167.852 413.461C167.063 413.397 166.49 413.021 166.017 413.022C165.778 413.022 165.238 413.279 164.487 413.305C157.855 413.538 153.019 413.388 146.52 413.3C134.074 413.133 119.653 413.611 106.579 413.352C103.73 413.296 101.776 412.551 101.376 412.559C100.497 412.574 99.934 413.075 98.1537 413.199C92.2341 413.605 84.2619 413.071 78.6316 413.322C75.85 413.446 72.0276 414.081 69.2902 414.222C67.1039 414.335 61.9406 414.085 60.9715 414.364C60.382 414.533 60.1092 415.075 59.4032 415.143ZM133.057 406.71C132.668 407.576 136.761 406.856 135.225 406.391C134.88 406.287 133.158 406.485 133.057 406.71ZM259.92 438.689C259.958 438.937 259.995 439.184 260.033 439.432C260.57 439.329 261.108 439.226 261.645 439.123C261.343 438.974 261.041 438.825 260.739 438.677C260.466 438.681 260.193 438.685 259.92 438.689Z" fill="#397B41"/>
<path d="M32.894 306.928V296.819H279.287V306.928H32.894Z" fill="#397B41"/>
<path d="M58.0484 301.811C57.437 301.871 56.5739 301.547 55.8527 301.53C52.8312 301.455 51.7116 301.23 48.9779 301.103C44.9244 300.913 32.8944 301.34 32.894 299.087C32.894 299.087 32.894 299.087 32.894 299.087C32.894 299.065 32.8952 299.042 32.8975 299.02C32.9397 298.591 33.9629 298.122 34.1148 297.637C34.2664 297.151 34.1527 294.016 35.606 293.84C37.7131 293.608 42.7679 294.412 43.8917 294.376C44.6601 294.352 45.6059 294.067 46.5884 294.016C49.7561 293.853 51.4136 294.061 54.2675 293.287C55.4091 293.695 56.5506 294.103 57.6922 294.511C59.1816 294.322 61.439 294.86 62.3439 294.83C63.0862 294.806 63.5212 294.483 64.295 294.468C65.1627 294.45 66.4954 294.798 68.0738 294.745C70.6616 294.661 71.122 293.82 72.6747 293.713C74.2847 293.602 76.7886 294.059 78.843 293.763C79.1007 293.671 79.3583 293.578 79.616 293.486C79.4314 293.276 79.2468 293.067 79.0622 292.858C80.0969 292.76 80.5419 293.189 81.4927 293.197C82.6115 293.206 83.1822 292.8 83.935 292.801C84.5517 292.803 85.3878 293.129 86.1875 293.109C87.3532 293.081 87.0983 292.61 87.7256 292.522C87.9759 292.488 92.6035 292.228 92.8646 292.224C94.8501 292.205 95.023 292.85 96.6063 292.906C100.998 293.06 105.505 292.539 109.567 292.342C111.381 292.254 113.273 292.292 115.082 292.395C112.233 294.045 118.537 295.328 116.18 292.747C118.192 293.114 119.619 292.417 121.526 292.535C122.76 292.612 123.614 292.97 125.376 292.961C128.501 292.942 131.921 291.924 132.82 293.763C136.489 293.439 139.668 294.106 140.99 292.483C141.936 292.384 144.361 293.351 145.423 293.482C146.426 293.606 154.128 294.042 155.387 294.067C156.647 294.091 158.853 294.118 159.914 293.975C161.247 293.799 162.179 292.115 164.552 294.084C167.311 293.924 168.295 293.981 170.861 294.21C171.326 294.251 171.378 294.543 171.65 294.543C172.209 294.543 173.16 294.327 174.159 294.301C175.8 294.258 176.737 294.873 176.554 293.934C177.636 293.776 178.718 293.619 179.801 293.461C180.18 293.642 180.56 293.824 180.939 294.005C181.518 293.807 182.097 293.61 182.675 293.412C181.996 294.772 186.068 293.969 184.746 293.19C186.844 293.471 188.941 293.752 191.039 294.033C190.747 295.578 195.646 294.211 195.233 293.371C195.473 293.373 195.713 293.374 195.953 293.375C198.055 293.786 199.985 293.45 202.546 293.726C205.108 294.001 204.867 294.151 205.646 294.862C206.249 294.821 206.852 294.781 207.454 294.74C210.617 292.792 210.058 296.164 215.474 294.67C217.204 295.895 221.47 295.251 224.298 294.88C224.627 294.837 224.633 294.6 225.071 294.526C226.142 294.35 228.877 294.656 228.783 293.889C229.73 294.111 230.676 294.333 231.623 294.554C232.396 294.415 233.17 294.276 233.944 294.136C233.94 293.897 233.936 293.658 233.932 293.418C235.49 294.234 237.938 293.921 239.145 294.116C239.385 294.155 239.437 294.485 240.184 294.575C241.057 294.682 242.684 294.584 243.725 294.687C244.129 294.322 244.533 293.956 244.938 293.591C246.798 293.392 247.452 294.357 248.545 294.432C248.741 294.445 252.33 294.376 252.523 294.355C254.106 294.192 253.657 293.37 258.235 293.546C259.051 293.578 259.71 293.862 260.447 293.874C261.748 293.894 265.671 293.249 265.979 292.653C267.558 293.399 271.782 293.094 273.026 293.31C273.402 293.376 273.486 293.851 274.641 293.953C275.576 294.035 277.986 293.654 279.173 293.718C279.212 293.72 279.249 293.723 279.287 293.725L282.439 293.787L282.38 296.819C282.294 297.993 281.918 298.432 281.89 298.979C281.864 299.512 282.187 300.004 282.185 300.731C282.173 302.999 281.655 305.053 281.645 306.846C281.645 306.873 281.645 306.901 281.645 306.928L281.598 309.332L279.287 309.286C276.727 309.292 274.462 310.23 272.316 310.65C271.777 310.588 271.248 310.383 270.684 310.381C263.7 310.351 255.822 310.175 248.817 309.971C245.565 309.877 237.478 308.582 239.637 310.743C238.507 311.121 230.29 310.25 228.727 310.237C227.164 310.224 225.925 310.611 224.697 310.617C220.991 310.634 218.381 310.355 213.869 310.692C212.704 310.781 211.456 311.24 210.766 311.234C209.935 311.227 209.04 310.783 207.963 310.755C205.397 310.691 200.614 310.837 198.151 310.76C197.702 310.745 197.544 310.355 196.901 310.233C194.397 309.757 191.59 309.798 192.087 311.043C188.877 310.337 185.908 310.981 182.934 311.021C176.645 311.101 165.189 310.811 159.711 311.334C156.256 311.664 156.344 312.222 151.258 311.74C150.129 311.633 149.006 311.489 147.636 311.362C144.426 311.062 141.482 310.031 139.035 311.273C135.47 310.951 132.631 311.18 129.986 310.117C129.675 310.372 129.363 310.627 129.051 310.881C128.614 310.888 128.177 310.894 127.74 310.9C127.603 310.657 127.467 310.414 127.331 310.171C124.2 310.106 120.228 311.105 117.577 311.098C113.134 311.086 101.689 310.698 97.4754 310.37C95.2385 310.196 95.1181 310.717 93.8374 309.646C93.3371 309.721 92.8368 309.795 92.3364 309.87C92.0233 310.104 91.7102 310.338 91.3971 310.573C88.5272 310.582 85.1232 310.218 82.3892 310.222C77.4073 310.229 69.9262 310.874 64.9234 310.451C63.6689 310.344 62.1009 309.86 60.8725 309.866C59.0846 309.873 58.6501 310.675 56.3812 310.69C52.4709 310.715 45.1887 309.783 41.4927 309.854C40.395 309.875 39.8828 310.173 39.1248 310.205C36.8826 310.302 34.9235 310.318 32.894 310.481L29.2731 310.411L29.3409 306.928C29.2728 306.081 29.1791 305.221 29.0432 304.323C29.8119 301.051 30.804 301.333 31.8051 300.319C32.5607 299.551 34.3117 297.194 34.9734 296.859C35.4383 296.624 36.0364 297.502 36.5481 297.173C36.9568 301.093 36.5069 302.74 35.787 305.924C35.7887 306.259 35.7903 306.593 35.7919 306.928L32.894 304.03C38.4387 304.003 43.9833 303.976 49.528 303.949C50.0629 304.228 50.5978 304.508 51.1327 304.787C51.1327 304.788 51.1327 304.788 51.1327 304.789C53.3906 305.111 54.3475 304.392 55.5652 304.229C67.2229 302.665 90.1679 303.889 103.002 304.065C105.767 304.103 114.764 303.726 116.661 304.18C117.153 304.298 117.289 304.729 117.812 304.747C122.482 304.491 127.152 304.235 131.822 303.979C141.425 304.648 151.353 304.096 161.03 303.992C187.21 303.713 213.128 303.374 238.879 303.477C243.856 303.497 250.172 303.175 255.044 303.383C257.077 303.469 257.924 304.161 260.596 303.645C260.624 303.832 260.652 304.018 260.68 304.204C263.011 303.979 264.501 303.555 267.114 303.512C269.315 303.476 275.138 303.449 277.083 303.52C278.092 303.556 277.716 303.904 278.656 303.902C278.843 303.901 279.055 303.894 279.287 303.882L276.241 306.928C276.15 305.166 275.774 302.25 275.774 300.286C275.774 299.327 275.865 298.055 275.954 296.819L279.287 300.152C277.927 300.054 276.611 299.959 275.801 299.989C270.228 300.195 264.158 300.79 258.22 300.63C256.579 300.585 254.469 300.134 253.956 300.146C252.952 300.173 252.653 300.611 251.979 300.668C248.555 300.953 243.218 300.431 239.861 300.411C228.925 300.343 217.34 300.535 206.45 300.454C199.571 300.403 188.138 300.481 181.787 300.151C180.417 300.079 180.782 299.599 179.632 299.599C178.357 299.599 177.666 299.924 177.071 299.95C172.946 300.134 163.84 300.462 159.945 300.13C159.203 300.066 158.665 299.69 158.221 299.691C157.996 299.691 157.488 299.948 156.783 299.974C150.551 300.207 146.008 300.057 139.902 299.969C128.208 299.802 114.658 300.28 102.373 300.021C99.6969 299.965 97.8614 299.22 97.485 299.228C96.659 299.243 96.1304 299.744 94.4576 299.867C88.8957 300.274 81.4051 299.74 76.115 299.991C73.5014 300.114 69.91 300.75 67.338 300.891C65.2838 301.004 60.4324 300.754 59.522 301.033C58.968 301.202 58.7118 301.744 58.0484 301.811ZM127.252 293.379C126.886 294.245 130.732 293.525 129.289 293.06C128.965 292.956 127.347 293.154 127.252 293.379ZM261.337 308.864C261.373 309.112 261.408 309.359 261.443 309.606C261.948 309.504 262.453 309.401 262.958 309.298C262.674 309.149 262.39 309 262.106 308.851C261.85 308.856 261.594 308.86 261.337 308.864Z" fill="#397B41"/>
<path d="M51.2817 351.622V325.018H260.899V351.622H51.2817Z" fill="#397B41"/>
<path d="M74.4472 330.011C73.8841 330.071 73.0893 329.746 72.4251 329.729C69.6426 329.654 68.6114 329.43 66.0939 329.302C62.3609 329.113 51.282 329.539 51.2817 327.286C51.2817 327.286 51.2817 327.286 51.2817 327.286C51.2817 327.264 51.2828 327.242 51.285 327.219C51.3238 326.79 52.2661 326.321 52.4059 325.836C52.5456 325.35 52.4409 322.216 53.7792 322.039C55.7198 321.807 60.3748 322.611 61.4099 322.575C62.1174 322.551 62.9886 322.266 63.8933 322.215C66.8106 322.052 68.337 322.261 70.9653 321.486C72.0166 321.894 73.0679 322.302 74.1192 322.71C75.4908 322.521 77.5698 323.059 78.4031 323.029C79.0867 323.005 79.4874 322.683 80.1999 322.668C80.999 322.649 82.2264 322.997 83.68 322.945C86.0631 322.86 86.4872 322.019 87.917 321.912C89.3998 321.801 91.7057 322.259 93.5976 321.963C93.835 321.87 94.0722 321.777 94.3095 321.685C94.1395 321.476 93.9695 321.266 93.7995 321.057C94.7524 320.959 95.1622 321.388 96.0379 321.396C97.0681 321.406 97.5938 320.999 98.287 321.001C98.855 321.003 99.625 321.329 100.361 321.308C101.435 321.28 101.2 320.809 101.778 320.721C102.008 320.687 106.27 320.427 106.511 320.423C108.339 320.405 108.498 321.049 109.956 321.106C114.001 321.259 118.152 320.739 121.893 320.542C123.563 320.454 125.306 320.491 126.971 320.594C124.348 322.244 130.154 323.528 127.982 320.946C129.835 321.314 131.149 320.617 132.906 320.735C134.042 320.811 134.829 321.169 136.451 321.16C139.33 321.141 142.479 320.124 143.307 321.963C146.686 321.638 149.613 322.305 150.831 320.682C151.702 320.583 153.936 321.55 154.913 321.681C155.837 321.805 162.93 322.242 164.09 322.266C165.25 322.29 167.281 322.317 168.258 322.174C169.486 321.998 170.344 320.315 172.53 322.283C175.071 322.124 175.977 322.18 178.34 322.409C178.768 322.45 178.816 322.742 179.066 322.743C179.581 322.743 180.458 322.527 181.377 322.5C182.889 322.457 183.751 323.072 183.583 322.133C184.579 321.975 185.576 321.818 186.573 321.66C186.922 321.842 187.272 322.023 187.622 322.204C188.154 322.007 188.687 321.809 189.22 321.612C188.594 322.971 192.345 322.169 191.127 321.389C193.059 321.67 194.991 321.951 196.923 322.232C196.653 323.777 201.165 322.411 200.785 321.571C201.006 321.572 201.227 321.573 201.448 321.574C203.384 321.985 205.161 321.649 207.52 321.925C209.879 322.2 209.657 322.351 210.375 323.061C210.93 323.021 211.485 322.98 212.04 322.939C214.953 320.991 214.438 324.364 219.426 322.87C221.019 324.094 224.947 323.451 227.552 323.08C227.855 323.036 227.86 322.799 228.264 322.726C229.25 322.549 231.769 322.855 231.682 322.088C232.554 322.31 233.426 322.532 234.298 322.754C235.01 322.614 235.722 322.475 236.435 322.335C236.431 322.096 236.428 321.857 236.424 321.618C237.859 322.433 240.113 322.12 241.225 322.315C241.447 322.354 241.494 322.684 242.182 322.774C242.986 322.881 244.484 322.784 245.442 322.887C245.815 322.521 246.187 322.155 246.56 321.79C248.273 321.592 248.875 322.557 249.881 322.632C250.063 322.645 253.367 322.575 253.545 322.555C255.003 322.391 254.59 321.569 258.806 321.745C259.557 321.777 260.164 322.062 260.843 322.073C260.861 322.073 260.88 322.074 260.899 322.074L263.905 322.137L263.844 325.018C263.844 326.27 264.478 329.776 265.065 330.056C264.319 331.51 264.624 335.4 264.408 336.546C264.342 336.892 263.867 336.97 263.766 338.033C263.683 338.895 264.064 341.114 264 342.207C263.931 343.367 263.531 343.781 263.503 344.301C263.477 344.792 263.799 345.245 263.797 345.914C263.786 348.003 263.267 349.895 263.258 351.546C263.258 351.571 263.258 351.596 263.258 351.622L263.207 354.029L260.899 353.98C258.542 353.985 256.457 354.924 254.48 355.343C253.984 355.281 253.497 355.076 252.977 355.074C246.545 355.044 239.29 354.869 232.839 354.664C229.844 354.57 222.397 353.275 224.384 355.436C223.344 355.815 215.776 354.943 214.337 354.93C212.898 354.917 211.757 355.305 210.626 355.311C207.213 355.327 204.809 355.048 200.654 355.386C199.581 355.474 198.432 355.933 197.796 355.928C197.031 355.92 196.207 355.476 195.215 355.448C192.852 355.384 188.447 355.53 186.179 355.453C185.765 355.438 185.619 355.049 185.027 354.927C182.721 354.451 180.137 354.492 180.594 355.737C177.638 355.03 174.904 355.675 172.165 355.714C166.373 355.795 155.823 355.504 150.778 356.027C147.596 356.357 147.678 356.915 142.994 356.434C141.954 356.327 140.919 356.183 139.658 356.055C136.702 355.755 133.99 354.724 131.737 355.967C128.454 355.644 125.84 355.873 123.404 354.81C123.117 355.065 122.829 355.32 122.542 355.575C122.14 355.581 121.737 355.587 121.335 355.594C121.209 355.351 121.084 355.108 120.958 354.864C118.075 354.799 114.417 355.798 111.976 355.791C107.884 355.78 97.3437 355.391 93.4634 355.063C91.4033 354.889 91.2924 355.41 90.113 354.34C89.6523 354.414 89.1915 354.488 88.7307 354.563C88.4424 354.797 88.154 355.032 87.8657 355.266C85.2227 355.275 82.0879 354.911 79.57 354.915C74.982 354.923 68.0924 355.568 63.4851 355.144C62.3299 355.037 60.8858 354.554 59.7545 354.559C58.108 354.567 57.7078 355.369 55.6184 355.384C54.4331 355.392 52.9114 355.296 51.2817 355.167L47.6629 355.09L47.7363 351.622C47.9998 348.3 48.4034 344.53 48.3556 342.247C48.335 341.236 48.0365 340.764 48.0047 340.066C47.8678 337.139 47.8921 334.736 47.4309 331.929C48.1996 328.915 49.1917 329.176 50.1928 328.242C50.9484 327.534 52.6994 325.364 53.3611 325.055C53.826 324.839 54.4241 325.647 54.9358 325.344C55.3445 328.954 54.8946 330.471 54.1747 333.403C54.2034 338.818 54.2321 344.232 54.2608 349.647C53.9815 350.139 53.7021 350.632 53.4228 351.125C53.4222 351.125 53.4216 351.125 53.4209 351.125C53.394 351.298 53.3744 351.464 53.361 351.622L51.2817 349.542C53.0131 349.688 53.8392 349.072 54.8669 348.922C65.6029 347.359 86.7337 348.582 98.5529 348.758C101.1 348.796 109.385 348.42 111.132 348.873C111.585 348.991 111.711 349.422 112.192 349.441C116.493 349.185 120.794 348.929 125.094 348.672C133.938 349.342 143.081 348.789 151.993 348.686C176.102 348.406 199.972 348.067 223.687 348.17C228.27 348.191 234.086 347.868 238.573 348.076C240.446 348.162 241.226 348.854 243.686 348.339C243.712 348.525 243.738 348.711 243.764 348.898C245.911 348.673 247.283 348.249 249.689 348.205C251.716 348.17 257.079 348.142 258.87 348.213C259.799 348.249 259.453 348.597 260.319 348.595C260.491 348.595 260.686 348.588 260.899 348.576L257.854 351.622C257.762 349.998 257.386 347.313 257.386 345.505C257.386 343.651 257.787 340.527 257.729 339.102C257.549 334.627 257.074 329.805 257.061 325.018L260.899 328.856C260.196 328.858 259.493 328.85 258.792 328.83C257.281 328.785 255.338 328.333 254.865 328.346C253.94 328.372 253.665 328.81 253.044 328.867C249.891 329.152 244.976 328.631 241.885 328.61C231.813 328.542 221.144 328.734 211.115 328.653C204.78 328.603 194.251 328.68 188.402 328.35C187.141 328.279 187.477 327.798 186.418 327.798C185.243 327.798 184.607 328.123 184.059 328.149C180.26 328.333 171.874 328.661 168.287 328.329C167.604 328.265 167.109 327.889 166.7 327.89C166.493 327.89 166.025 328.147 165.375 328.174C159.636 328.406 155.452 328.256 149.829 328.168C139.06 328.001 126.581 328.479 115.268 328.221C112.803 328.164 111.112 327.42 110.766 327.427C110.005 327.442 109.518 327.943 107.978 328.067C102.855 328.473 95.9572 327.939 91.0853 328.19C88.6784 328.314 85.3709 328.95 83.0024 329.09C81.1106 329.203 76.6427 328.953 75.8043 329.232C75.2941 329.401 75.0581 329.943 74.4472 330.011ZM138.179 321.578C137.842 322.444 141.384 321.724 140.055 321.259C139.756 321.155 138.266 321.353 138.179 321.578ZM244.369 353.558C244.402 353.805 244.434 354.052 244.467 354.3C244.932 354.197 245.396 354.094 245.861 353.991C245.6 353.842 245.339 353.694 245.078 353.545C244.841 353.549 244.605 353.553 244.369 353.558Z" fill="#397B41"/>
<path d="M108.093 369.406L110.594 367.092H118.096L120.347 369.406V391.583L118.096 393.897H110.594L108.093 391.583V369.406Z" fill="#397B41"/>
<path d="M170.894 389.159L172.613 387.771H177.771L179.318 389.159V402.465L177.771 403.854H172.613L170.894 402.465V389.159Z" fill="#397B41"/>
<path d="M265.86 359.423L267.423 357.902H272.112L273.518 359.423V373.996L272.112 375.517H267.423L265.86 373.996V359.423Z" fill="#397B41"/>
<path d="M266.625 313.206L268.032 311.95H272.252L273.518 313.206V325.245L272.252 326.501H268.032L266.625 325.245V313.206Z" fill="#397B41"/>
<path d="M38.3999 314.871L39.8066 313.482H44.0266L45.2926 314.871V328.177L44.0266 329.565H39.8066L38.3999 328.177V314.871Z" fill="#397B41"/>
<path d="M56.7808 360.888L59.7504 359.434H68.6594L71.3321 360.888V374.828L68.6594 376.282H59.7504L56.7808 374.828V360.888Z" fill="#397B41"/>
<path d="M120.347 423.801L124.864 419.17H189.113L194.635 423.801L189.113 429.127H124.864L120.347 423.801Z" fill="#FFF9EC" stroke="#FFF9EC" stroke-width="10"/>
<path d="M62.7288 122.504C62.1122 122.564 61.2418 122.24 60.5144 122.222C57.4672 122.147 56.338 121.923 53.5809 121.795C49.4929 121.606 37.3602 122.032 37.3599 119.779C37.3599 119.779 37.3599 119.779 37.3599 119.779C37.3598 119.757 37.3611 119.735 37.3634 119.712C37.4059 119.283 38.4379 118.814 38.591 118.329C38.7439 117.843 38.6292 114.709 40.0949 114.533C42.2201 114.3 47.3179 115.104 48.4514 115.069C49.2263 115.044 50.1802 114.759 51.1711 114.708C54.3658 114.545 56.0374 114.754 58.9157 113.98C60.067 114.388 61.2183 114.795 62.3696 115.203C63.8718 115.014 66.1484 115.552 67.061 115.523C67.8096 115.498 68.2484 115.176 69.0287 115.161C69.9039 115.142 71.248 115.49 72.8399 115.438C75.4496 115.353 75.914 114.512 77.4799 114.405C79.1037 114.294 81.629 114.752 83.7009 114.456C83.9608 114.363 84.2206 114.271 84.4805 114.178C84.2943 113.969 84.1081 113.759 83.9219 113.55C84.9655 113.453 85.4143 113.882 86.3732 113.889C87.5015 113.899 88.0771 113.492 88.8364 113.494C89.4583 113.496 90.3016 113.822 91.108 113.801C92.2837 113.773 92.0267 113.302 92.6593 113.214C92.9118 113.18 97.5789 112.92 97.8421 112.916C99.8446 112.898 100.019 113.542 101.616 113.599C106.045 113.753 110.591 113.232 114.687 113.035C116.517 112.947 118.425 112.984 120.249 113.087C117.376 114.737 123.734 116.021 121.356 113.439C123.386 113.807 124.825 113.11 126.748 113.228C127.993 113.305 128.854 113.662 130.631 113.653C133.783 113.634 137.232 112.617 138.138 114.456C141.839 114.132 145.044 114.799 146.378 113.175C147.333 113.076 149.778 114.043 150.849 114.174C151.861 114.298 159.628 114.735 160.898 114.759C162.169 114.783 164.393 114.81 165.464 114.668C166.808 114.491 167.748 112.808 170.141 114.776C172.924 114.617 173.916 114.673 176.504 114.902C176.973 114.943 177.026 115.235 177.3 115.236C177.864 115.236 178.823 115.02 179.83 114.993C181.485 114.95 182.43 115.565 182.246 114.626C183.337 114.469 184.428 114.311 185.52 114.154C185.903 114.335 186.286 114.516 186.669 114.697C187.252 114.5 187.836 114.302 188.419 114.105C187.734 115.464 191.841 114.662 190.507 113.882C192.623 114.163 194.739 114.444 196.855 114.726C196.559 116.27 201.5 114.904 201.084 114.064C201.326 114.065 201.568 114.066 201.81 114.068C203.93 114.478 205.876 114.142 208.46 114.418C211.043 114.693 210.8 114.844 211.586 115.554C212.194 115.514 212.802 115.473 213.41 115.432C216.599 113.484 216.036 116.857 221.498 115.363C223.243 116.587 227.545 115.944 230.397 115.573C230.729 115.53 230.734 115.292 231.176 115.219C232.257 115.042 235.015 115.348 234.92 114.581C235.875 114.803 236.83 115.025 237.784 115.247C238.564 115.107 239.345 114.968 240.125 114.829C240.121 114.589 240.117 114.35 240.113 114.111C241.684 114.926 244.153 114.613 245.371 114.808C245.613 114.847 245.666 115.177 246.419 115.267C247.299 115.374 248.94 115.277 249.989 115.38C250.397 115.014 250.805 114.649 251.213 114.283C253.089 114.085 253.749 115.05 254.85 115.125C255.049 115.138 258.668 115.068 258.863 115.048C260.459 114.884 260.007 114.062 264.624 114.238C265.446 114.27 266.111 114.555 266.854 114.566C268.167 114.587 272.123 113.942 272.434 113.345C273.851 114.009 277.38 113.841 279.024 113.948L282.655 114.018L282.588 117.511C282.574 117.715 282.557 117.89 282.533 118.028C282.467 118.407 281.992 118.492 281.891 119.656C281.808 120.6 282.189 123.03 282.125 124.227C282.056 125.498 281.656 125.951 281.628 126.521C281.602 127.058 281.924 127.554 281.922 128.287C281.911 130.575 281.392 132.646 281.383 134.455C281.383 134.482 281.383 134.51 281.383 134.537L281.336 136.94L279.024 136.896C276.443 136.901 274.159 137.84 271.994 138.259C271.451 138.197 270.917 137.992 270.348 137.99C263.304 137.96 255.359 137.784 248.294 137.58C245.015 137.486 236.859 136.191 239.036 138.352C237.896 138.731 229.609 137.859 228.033 137.846C226.457 137.833 225.208 138.221 223.969 138.226C220.231 138.243 217.599 137.964 213.049 138.302C211.874 138.39 210.615 138.849 209.919 138.844C209.08 138.836 208.178 138.392 207.092 138.364C204.504 138.3 199.68 138.446 197.196 138.369C196.743 138.354 196.584 137.964 195.935 137.843C193.41 137.366 190.579 137.408 191.08 138.653C187.843 137.946 184.849 138.59 181.849 138.63C175.507 138.711 163.953 138.42 158.428 138.943C154.944 139.273 155.033 139.831 149.904 139.35C148.765 139.243 147.631 139.099 146.25 138.971C143.013 138.671 140.044 137.64 137.576 138.883C133.981 138.56 131.118 138.789 128.45 137.726C128.136 137.981 127.821 138.236 127.507 138.491C127.066 138.497 126.625 138.503 126.184 138.51C126.047 138.267 125.909 138.023 125.772 137.78C122.614 137.715 118.608 138.714 115.935 138.707C111.454 138.696 99.9111 138.307 95.6616 137.979C93.4056 137.805 93.2842 138.326 91.9926 137.255C91.488 137.33 90.9834 137.404 90.4788 137.479C90.163 137.713 89.8473 137.948 89.5315 138.182C86.6371 138.191 83.2041 137.827 80.4467 137.831C75.4223 137.838 67.8774 138.484 62.8318 138.06C61.5667 137.953 59.9853 137.47 58.7464 137.475C56.9433 137.483 56.505 138.285 54.2168 138.3C50.2732 138.324 42.9288 137.392 39.2013 137.464C38.3745 137.479 37.8771 137.649 37.3599 137.748L34.0886 137.685L34.1495 134.537C34.116 134.362 34.0909 134.184 34.0828 133.991C33.9459 130.785 33.9703 128.153 33.5091 125.08C34.2777 121.779 35.2698 122.064 36.2709 121.042C37.0265 120.266 38.7775 117.89 39.4393 117.552C39.9042 117.315 40.5022 118.2 41.014 117.868C41.4226 121.822 40.9727 123.483 40.2529 126.694C40.2655 129.309 40.2782 131.923 40.2908 134.537L37.3599 131.607C40.6749 131.59 43.99 131.574 47.3051 131.558C47.8446 131.838 48.384 132.117 48.9235 132.396C48.9235 132.397 48.9235 132.398 48.9235 132.398C51.2006 132.721 52.1657 132.001 53.3938 131.838C65.151 130.274 88.2918 131.498 101.235 131.674C104.024 131.712 113.098 131.335 115.011 131.789C115.507 131.907 115.645 132.338 116.172 132.357C120.882 132.101 125.591 131.844 130.301 131.588C139.986 132.258 149.999 131.705 159.758 131.602C186.161 131.322 212.301 130.983 238.272 131.086C243.291 131.107 249.661 130.784 254.575 130.992C256.625 131.078 257.48 131.77 260.174 131.254C260.202 131.441 260.23 131.627 260.259 131.814C262.61 131.589 264.112 131.164 266.748 131.121C268.968 131.086 274.84 131.058 276.802 131.129C277.819 131.165 277.44 131.513 278.389 131.511C278.577 131.511 278.791 131.504 279.024 131.492L275.978 134.537C275.887 132.76 275.511 129.819 275.511 127.839C275.511 125.809 275.912 122.387 275.854 120.827C275.814 119.739 275.76 118.632 275.699 117.511L279.024 120.836C274.354 121.089 269.438 121.451 264.608 121.323C262.954 121.278 260.826 120.826 260.308 120.839C259.296 120.865 258.994 121.304 258.314 121.36C254.861 121.645 249.478 121.124 246.093 121.103C235.064 121.036 223.379 121.227 212.397 121.146C205.459 121.096 193.929 121.173 187.523 120.843C186.142 120.772 186.51 120.291 185.35 120.291C184.064 120.291 183.368 120.616 182.767 120.642C178.606 120.826 169.423 121.154 165.495 120.822C164.747 120.759 164.204 120.382 163.756 120.383C163.53 120.383 163.017 120.64 162.306 120.667C156.021 120.899 151.439 120.749 145.281 120.661C133.487 120.494 119.822 120.972 107.432 120.714C104.733 120.657 102.882 119.913 102.502 119.92C101.669 119.935 101.136 120.436 99.4487 120.56C93.8394 120.967 86.2849 120.432 80.9496 120.683C78.3138 120.807 74.6917 121.443 72.0978 121.583C70.026 121.696 65.1332 121.446 64.215 121.726C63.6563 121.894 63.3978 122.436 62.7288 122.504ZM132.523 114.071C132.154 114.937 136.033 114.218 134.578 113.753C134.25 113.648 132.619 113.846 132.523 114.071ZM260.922 136.474C260.957 136.721 260.993 136.968 261.028 137.216C261.538 137.113 262.047 137.01 262.556 136.907C262.27 136.758 261.984 136.609 261.697 136.461C261.439 136.465 261.18 136.469 260.922 136.474Z" fill="#397B41"/>
<path d="M109.596 124.775L115.187 111.659H194.701L201.534 124.775L194.701 139.858H115.187L109.596 124.775Z" fill="#FFF9EC" stroke="#397B41" stroke-width="10"/>
<path d="M178.15 159.492V271.924H145.271V197.757L128.602 199.6L128.047 199.661V178.4L128.477 178.339C132.018 177.833 134.979 177.266 137.365 176.638C139.736 176.014 142.242 175.043 144.881 173.724C147.481 172.424 149.709 170.63 151.568 168.337C153.429 166.042 154.958 163.208 156.148 159.826L156.265 159.492H178.15Z" fill="#397B41" stroke="#397B41"/>
<path d="M40.4782 164.26H35.6323V147.102H45.2947V150.835L40.4782 150.542V154.524H44.4309V158.155L40.4782 157.862V164.26Z" fill="#397B41"/>
<path d="M59.0593 164.26H48.6796V147.102H58.8397L58.5469 150.557L53.5254 150.411V153.719H57.4782V157.145L53.5254 156.852V160.746L59.0593 160.6V164.26Z" fill="#397B41"/>
<path d="M68.5578 161.391C69.2508 161.391 69.7583 161.195 70.0804 160.805C70.4025 160.415 70.5635 159.951 70.5635 159.414V158.389C70.5635 157.755 70.3585 157.306 69.9486 157.043C69.5387 156.769 69.0751 156.633 68.5578 156.633H67.4159V161.391H68.5578ZM70.3585 151.494C70.3585 150.908 70.1975 150.503 69.8754 150.279C69.5533 150.045 69.0897 149.927 68.4846 149.927H67.4159V154.158H68.6017C69.1678 154.158 69.6021 153.939 69.9047 153.5C70.2073 153.051 70.3585 152.504 70.3585 151.86V151.494ZM69.5533 164.392C68.7921 164.392 67.8063 164.372 66.5961 164.333C65.3858 164.294 64.5172 164.27 63.9902 164.26H62.5847V147.102H65.1174C65.7323 147.102 66.435 147.082 67.2256 147.043C68.0161 146.995 68.5871 146.97 68.9385 146.97C70.0804 146.97 71.0417 147.063 71.8225 147.248C72.6131 147.434 73.2328 147.712 73.6818 148.083C74.1308 148.454 74.448 148.883 74.6334 149.371C74.8286 149.859 74.9262 150.44 74.9262 151.113C74.9262 152.148 74.6871 153.036 74.2088 153.778C73.7306 154.52 73.0376 154.983 72.13 155.169C74.4333 155.374 75.585 156.725 75.585 159.224C75.585 159.975 75.4728 160.659 75.2483 161.273C75.0238 161.879 74.6773 162.42 74.2088 162.898C73.7501 163.367 73.1255 163.733 72.3349 163.996C71.5444 164.26 70.6172 164.392 69.5533 164.392Z" fill="#397B41"/>
<ellipse cx="155.566" cy="14.5561" rx="6.56697" ry="6.65087" fill="#D3DBE0"/>
</g>
<defs>
<filter id="filter0_d_1327_410" x="0" y="0" width="316.387" height="481.186" filterUnits="userSpaceOnUse" color-interpolation-filters="sRGB">
<feFlood flood-opacity="0" result="BackgroundImageFix"/>
<feColorMatrix in="SourceAlpha" type="matrix" values="0 0 0 0 0 0 0 0 0 0 0 0 0 0 0 0 0 0 127 0" result="hardAlpha"/>
<feOffset dx="3" dy="3"/>
<feGaussianBlur stdDeviation="5"/>
<feComposite in2="hardAlpha" operator="out"/>
<feColorMatrix type="matrix" values="0 0 0 0 0 0 0 0 0 0 0 0 0 0 0 0 0 0 0.25 0"/>
<feBlend mode="normal" in2="BackgroundImageFix" result="effect1_dropShadow_1327_410"/>
<feBlend mode="normal" in="SourceGraphic" in2="effect1_dropShadow_1327_410" result="shape"/>
</filter>
</defs>
</svg>
