<svg width="317" height="482" viewBox="0 0 317 482" fill="none" xmlns="http://www.w3.org/2000/svg">
<g filter="url(#filter0_d_1031_81)">
<path d="M7 468.185V67.6421H303.387V468.185H7Z" fill="#40464A"/>
<path d="M75.4482 78.6707L155.828 13.4922L238.834 83.7253L75.4482 78.6707Z" stroke="#EEB89E" stroke-width="10"/>
<mask id="mask0_1031_81" style="mask-type:alpha" maskUnits="userSpaceOnUse" x="13" y="71" width="286" height="392">
<path d="M13.4561 462.825V71.2217H298.2V462.825H13.4561Z" fill="#FFF9EC"/>
</mask>
<g mask="url(#mask0_1031_81)">
<path d="M13.4561 462.825V71.2217H298.2V462.825H13.4561Z" fill="#FFF9EC"/>
<rect x="-13.6826" y="179.482" width="442.888" height="122.541" transform="rotate(38.1721 -13.6826 179.482)" fill="#EDE9DD"/>
</g>
<path d="M10.8291 104.742V71.2217H301.089V104.742H10.8291Z" fill="#BF3C3D"/>
<path d="M10.8291 93.6813V104.403H301.089V93.6813H10.8291Z" fill="#E64A4B"/>
<path d="M72.2959 88.7796L91.4714 76.542L220.447 77.6061L239.097 88.7796L222.023 99.687H91.4714L72.2959 88.7796Z" fill="#F0BD31"/>
<ellipse cx="48.9178" cy="89.0459" rx="6.56697" ry="6.65087" fill="#F0BD31"/>
<ellipse cx="265.365" cy="89.0459" rx="6.56697" ry="6.65087" fill="#F0BD31"/>
<path d="M70.7539 301.812C69.8336 301.872 68.5346 301.548 67.4491 301.531C62.9014 301.456 61.2164 301.231 57.1018 301.103C51.0009 300.914 32.8942 301.34 32.8938 299.087C32.8938 299.087 32.8938 299.087 32.8938 299.087C32.8938 299.065 32.8955 299.043 32.8991 299.02C32.9625 298.591 34.5026 298.123 34.7311 297.637C34.9593 297.152 34.7882 294.017 36.9756 293.841C40.1471 293.609 47.755 294.412 49.4466 294.377C50.6029 294.352 52.0267 294.067 53.5054 294.017C58.273 293.853 60.7678 294.062 65.0633 293.288C66.7815 293.696 68.4996 294.104 70.2178 294.512C72.4596 294.322 75.8572 294.86 77.2191 294.831C78.3364 294.806 78.9912 294.484 80.1557 294.469C81.4618 294.45 83.4676 294.798 85.8434 294.746C89.7382 294.662 90.4312 293.82 92.7681 293.713C95.1914 293.603 98.96 294.06 102.052 293.764C102.44 293.671 102.828 293.579 103.216 293.486C102.938 293.277 102.66 293.067 102.382 292.858C103.939 292.761 104.609 293.19 106.04 293.197C107.724 293.207 108.583 292.8 109.716 292.802C110.644 292.804 111.903 293.13 113.106 293.11C114.861 293.081 114.477 292.61 115.421 292.522C115.798 292.488 122.763 292.228 123.156 292.225C126.145 292.206 126.405 292.851 128.788 292.907C135.397 293.061 142.182 292.54 148.296 292.343C151.025 292.255 153.874 292.292 156.596 292.395C152.308 294.045 161.797 295.329 158.248 292.748C161.277 293.115 163.424 292.418 166.295 292.536C168.152 292.613 169.437 292.971 172.089 292.961C176.794 292.942 181.94 291.925 183.293 293.764C188.816 293.44 193.6 294.107 195.591 292.483C197.015 292.384 200.665 293.351 202.262 293.482C203.773 293.606 215.364 294.043 217.26 294.067C219.156 294.092 222.476 294.118 224.073 293.976C226.079 293.799 227.481 292.116 231.054 294.084C235.207 293.925 236.687 293.981 240.55 294.21C241.249 294.251 241.328 294.544 241.737 294.544C242.578 294.544 244.01 294.328 245.513 294.302C247.983 294.258 249.393 294.873 249.118 293.934C250.747 293.777 252.376 293.619 254.005 293.462C254.576 293.643 255.147 293.824 255.719 294.006C256.59 293.808 257.46 293.61 258.331 293.413C257.309 294.772 263.438 293.97 261.448 293.19C264.605 293.471 267.763 293.752 270.92 294.034C270.48 295.578 277.853 294.212 277.232 293.372C277.594 293.373 277.955 293.374 278.316 293.376C278.553 293.406 278.789 293.433 279.024 293.456L282.43 293.5L282.387 296.819C282.104 299.716 282.372 302.469 282.117 306.035C281.842 309.89 281.691 309.528 280.981 310.701C281.021 311.608 281.062 312.515 281.103 313.422C283.05 318.182 279.678 317.341 281.172 325.493C279.948 328.097 280.591 334.517 280.962 338.774C281.005 339.269 281.243 339.277 281.316 339.937C281.492 341.55 281.187 345.665 281.953 345.525C281.732 346.949 281.51 348.374 281.288 349.798C281.428 350.963 281.567 352.127 281.706 353.292C281.946 353.286 282.185 353.28 282.424 353.274C281.609 355.619 281.922 359.303 281.727 361.121C281.688 361.482 281.357 361.56 281.267 362.685C281.161 363.999 281.258 366.447 281.155 368.013C281.521 368.622 281.886 369.23 282.252 369.839C282.45 372.639 281.485 373.623 281.41 375.268C281.397 375.564 281.467 380.965 281.487 381.256C281.65 383.638 282.473 382.963 282.297 389.853C282.265 391.08 281.98 392.073 281.969 393.182C281.948 395.141 282.593 401.044 283.189 401.509C282.443 403.885 282.748 410.242 282.533 412.115C282.466 412.68 281.991 412.808 281.89 414.545C281.808 415.953 282.188 419.581 282.124 421.367C282.055 423.263 281.656 423.94 281.628 424.789C281.601 425.592 281.924 426.332 281.922 427.425C281.911 430.84 281.392 433.931 281.382 436.63C281.382 436.671 281.382 436.712 281.382 436.754L281.351 439.142L279.024 439.112C275.172 439.117 271.763 440.056 268.532 440.475C267.722 440.413 266.925 440.208 266.075 440.206C255.564 440.176 243.706 440.001 233.163 439.796C228.269 439.702 216.098 438.407 219.346 440.568C217.645 440.947 205.278 440.075 202.925 440.062C200.573 440.049 198.709 440.437 196.861 440.443C191.282 440.459 187.354 440.18 180.563 440.518C178.81 440.606 176.931 441.065 175.892 441.06C174.641 441.052 173.295 440.608 171.674 440.58C167.811 440.516 160.612 440.662 156.906 440.585C156.229 440.57 155.991 440.181 155.024 440.059C151.255 439.583 147.03 439.624 147.778 440.869C142.947 440.162 138.478 440.807 134.002 440.846C124.536 440.927 107.294 440.636 99.0483 441.159C93.849 441.489 93.982 442.047 86.327 441.566C84.6277 441.459 82.936 441.315 80.875 441.187C76.0439 440.887 71.612 439.856 67.9297 441.099C62.5642 440.776 58.291 441.005 54.31 439.942C53.8407 440.197 53.3714 440.452 52.9021 440.707C52.2443 440.713 51.5865 440.72 50.9287 440.726C50.7235 440.483 50.5183 440.24 50.3131 439.996C45.6006 439.931 39.6219 440.93 35.633 440.923C34.8522 440.922 33.9278 440.915 32.8938 440.904L28.69 440.85L28.7431 436.754C28.8255 428.931 29.1622 414.839 29.4519 409.237C29.6262 405.87 29.1054 405.689 30.1758 403.762C30.1014 403.009 30.0269 402.255 29.9524 401.502C29.7181 401.031 29.4837 400.56 29.2493 400.089C29.2399 395.769 29.604 390.646 29.6003 386.531C29.5928 379.032 28.9477 367.773 29.3714 360.243C29.4782 358.355 29.9616 355.995 29.9561 354.146C29.9486 351.455 29.1465 350.801 29.1315 347.386C29.1071 341.5 30.0389 330.54 29.9677 324.977C29.9471 323.325 29.6486 322.554 29.6167 321.413C29.4799 316.629 29.5042 312.701 29.043 308.114C29.8116 303.189 30.8038 303.614 31.8049 302.088C32.5604 300.931 34.3115 297.384 34.9732 296.88C35.4381 296.527 36.0362 297.847 36.5479 297.352C36.9566 303.253 36.5067 305.732 35.7868 310.524C35.8155 319.373 35.8442 328.222 35.8729 337.071C35.5935 337.876 35.3142 338.681 35.0348 339.486C35.0342 339.486 35.0336 339.486 35.033 339.486C34.7106 342.885 35.43 344.325 35.5933 346.158C37.1568 363.704 35.9331 398.239 35.7569 417.555C35.7237 421.244 36.0155 432.298 35.7666 436.754L32.8938 433.881C33.466 433.913 33.9295 433.954 34.2545 434.005C34.994 434.123 35.1997 434.554 35.9864 434.573C43.0152 434.317 50.044 434.061 57.0728 433.804C71.5268 434.474 86.4695 433.921 101.034 433.818C140.437 433.539 179.448 433.199 218.206 433.302C225.697 433.323 235.202 433 242.536 433.208C245.596 433.294 246.871 433.986 250.892 433.471C250.934 433.657 250.976 433.843 251.018 434.03C254.527 433.805 256.769 433.381 260.703 433.337C264.016 433.302 272.78 433.274 275.707 433.345C277.225 433.381 276.66 433.729 278.075 433.728C278.357 433.727 278.675 433.72 279.024 433.708L275.978 436.754C275.887 434.101 275.511 429.713 275.511 426.757C275.511 423.728 275.912 418.621 275.854 416.292C275.647 407.904 275.053 398.768 275.212 389.83C275.257 387.361 275.709 384.185 275.696 383.412C275.67 381.901 275.231 381.451 275.175 380.437C274.89 375.283 275.411 367.25 275.432 362.199C275.499 345.738 275.308 328.301 275.389 311.911C275.409 307.691 275.409 302.334 275.423 296.819L279.024 300.42C271.007 300.399 262.658 300.347 256.994 300.151C254.933 300.08 255.482 299.599 253.751 299.599C251.832 299.6 250.792 299.924 249.896 299.95C243.687 300.134 229.982 300.462 224.12 300.13C223.004 300.067 222.194 299.69 221.525 299.692C221.187 299.692 220.422 299.949 219.36 299.975C209.981 300.207 203.143 300.057 193.953 299.969C176.352 299.802 155.958 300.28 137.468 300.022C133.44 299.966 130.677 299.221 130.11 299.228C128.867 299.243 128.072 299.744 125.554 299.868C117.183 300.275 105.908 299.74 97.9462 299.991C94.0125 300.115 88.607 300.751 84.7359 300.892C81.6441 301.004 74.3422 300.755 72.9718 301.034C72.138 301.202 71.7523 301.744 70.7539 301.812ZM174.914 293.379C174.363 294.245 180.151 293.526 177.98 293.061C177.491 292.956 175.056 293.154 174.914 293.379ZM252.008 438.69C252.061 438.937 252.114 439.184 252.167 439.432C252.927 439.329 253.687 439.226 254.447 439.123C254.02 438.974 253.593 438.826 253.166 438.677C252.78 438.681 252.394 438.685 252.008 438.69Z" fill="#397B41"/>
<path d="M47.1154 301.812C46.7698 301.872 46.2818 301.548 45.874 301.531C44.1658 301.456 43.5328 301.231 41.9872 301.103C39.6955 300.914 32.894 301.34 32.8938 299.087C32.8938 299.087 32.8938 299.087 32.8938 299.087C32.8938 299.065 32.8945 299.043 32.8958 299.02C32.9196 298.591 33.4981 298.123 33.584 297.637C33.6697 297.152 33.6054 294.017 34.4271 293.841C35.6184 293.609 38.4762 294.412 39.1116 294.377C39.546 294.352 40.0808 294.067 40.6363 294.017C42.4272 293.853 43.3643 294.062 44.9778 293.288C45.6233 293.696 46.2687 294.104 46.9141 294.512C47.7562 294.322 49.0324 294.86 49.544 294.831C49.9637 294.806 50.2097 294.484 50.6471 294.469C50.8257 294.462 51.0391 294.504 51.2813 294.557L53.6186 294.638L53.5434 296.819C53.4501 297.243 53.3214 297.754 53.3548 298.322C53.4391 299.785 54.2806 300.045 54.3875 300.923C54.4981 301.833 54.0407 303.249 54.3368 304.41C54.4294 304.556 54.522 304.702 54.6145 304.847C54.8239 304.743 55.0332 304.639 55.2426 304.534C55.34 305.119 54.911 305.371 54.9032 305.908C54.8938 306.541 55.3006 306.864 55.2987 307.289C55.2968 307.638 54.9707 308.111 54.9911 308.563C55.0192 309.222 55.4902 309.078 55.5783 309.432C55.6125 309.574 55.8724 312.19 55.8761 312.338C55.8947 313.46 55.2501 313.558 55.1937 314.453C55.04 316.936 55.5609 319.485 55.7577 321.781C55.8458 322.806 55.8083 323.876 55.7052 324.899C54.0555 323.288 52.7717 326.853 55.353 325.52C54.9858 326.657 55.6827 327.464 55.5648 328.542C55.488 329.24 55.1301 329.723 55.1394 330.719C55.1583 332.486 56.1758 334.419 54.3368 334.927C54.661 337.002 53.9939 338.799 55.6173 339.547C55.7165 340.082 54.7495 341.453 54.6182 342.053C54.4945 342.62 54.0578 346.974 54.0335 347.687C54.0091 348.399 53.9826 349.646 54.125 350.246C54.3012 350.999 55.9848 351.526 54.0164 352.868C54.1757 354.428 54.1193 354.984 53.8906 356.435C53.8493 356.698 53.557 356.728 53.5568 356.881C53.5568 357.197 53.7728 357.735 53.7991 358.299C53.8422 359.227 53.2273 359.757 54.1665 359.654C54.324 360.265 54.4815 360.877 54.6389 361.489C54.4577 361.704 54.2764 361.918 54.0951 362.133C54.2927 362.46 54.4902 362.787 54.6878 363.115C53.3286 362.73 54.1307 365.033 54.9105 364.285C54.6294 365.471 54.3482 366.657 54.067 367.843C52.5223 367.678 53.8888 370.448 54.7287 370.214C54.7274 370.35 54.7262 370.486 54.725 370.622C54.3144 371.81 54.6502 372.901 54.3747 374.349C54.0991 375.797 53.9487 375.661 53.2382 376.102C53.2789 376.442 53.3196 376.783 53.3602 377.124C55.3081 378.912 51.9357 378.596 53.4298 381.658C52.2056 382.636 52.8487 385.048 53.2199 386.647C53.263 386.833 53.5006 386.836 53.5739 387.084C53.7501 387.69 53.4446 389.236 54.2111 389.183C53.9893 389.718 53.7676 390.253 53.5458 390.788C53.6852 391.226 53.8245 391.663 53.9639 392.1C54.2031 392.098 54.4424 392.096 54.6817 392.094C53.8662 392.975 54.1796 394.359 53.9846 395.041C53.9451 395.177 53.6151 395.207 53.525 395.629C53.4182 396.122 53.5158 397.042 53.4127 397.63C53.7783 397.859 54.1439 398.088 54.5095 398.316C54.7078 399.368 53.7428 399.738 53.6679 400.355C53.6548 400.467 53.7242 402.495 53.7448 402.605C53.9081 403.5 54.7302 403.246 54.5541 405.834C54.5222 406.295 54.2378 406.668 54.2263 407.085C54.2057 407.821 54.8509 410.038 55.447 410.212C54.7009 411.105 55.0059 413.493 54.7903 414.197C54.724 414.409 54.2488 414.457 54.1476 415.109C54.0651 415.639 54.4457 417.001 54.382 417.672C54.3126 418.384 53.9134 418.638 53.8851 418.958C53.8589 419.259 54.1812 419.537 54.1793 419.948C54.1681 421.23 53.6493 422.392 53.6398 423.405C53.6396 423.421 53.6396 423.436 53.6396 423.452L53.5556 425.889L51.2813 425.81C49.8344 425.815 48.5538 426.754 47.3402 427.173C47.0358 427.111 46.7367 426.907 46.4175 426.905C42.4689 426.875 38.0147 426.699 34.0544 426.495C33.7351 426.478 33.3333 426.426 32.8938 426.361L29.8876 426.258L29.9843 423.452C30.2906 421.361 30.8649 418.414 29.079 419.422C28.7005 418.783 29.5719 414.138 29.585 413.254C29.598 412.371 29.2105 411.67 29.2047 410.976C29.1879 408.88 29.4671 407.405 29.1297 404.854C29.0415 404.195 28.5823 403.489 28.5877 403.099C28.5952 402.629 29.0392 402.124 29.0674 401.515C29.1312 400.064 28.9851 397.359 29.0619 395.967C29.0769 395.713 29.4668 395.624 29.5887 395.26C30.0648 393.845 30.0235 392.258 28.7787 392.538C29.4854 390.724 28.8408 389.045 28.8013 387.364C28.7207 383.808 29.0112 377.331 28.4882 374.234C28.1582 372.281 27.5999 372.331 28.0817 369.455C28.1885 368.817 28.3327 368.182 28.4601 367.407C28.7601 365.593 29.7914 363.928 28.5486 362.545C28.871 360.529 28.6424 358.924 29.7052 357.429C29.4503 357.252 29.1954 357.076 28.9405 356.9C28.9342 356.653 28.9279 356.405 28.9215 356.158C29.1647 356.081 29.4078 356.004 29.6509 355.927C29.7164 354.157 28.7171 351.911 28.7244 350.413C28.7356 347.901 29.1239 341.43 29.4519 339.048C29.6262 337.783 29.1054 337.715 30.1758 336.991C30.1014 336.708 30.0269 336.425 29.9524 336.142C29.7181 335.965 29.4837 335.788 29.2493 335.611C29.2399 333.989 29.604 332.064 29.6003 330.518C29.5928 327.702 28.9477 323.472 29.3714 320.644C29.4782 319.934 29.9616 319.048 29.9561 318.353C29.9486 317.342 29.1465 317.097 29.1315 315.814C29.1071 313.603 30.0389 309.486 29.9677 307.396C29.9471 306.776 29.6486 306.486 29.6167 306.058C29.4799 304.261 29.5042 302.785 29.043 301.062C29.8116 299.212 30.8038 299.372 31.8049 298.798C32.5604 298.364 34.3115 297.031 34.9732 296.842C35.4381 296.709 36.0362 297.205 36.5479 297.019C36.9566 299.236 36.5067 300.167 35.7868 301.967C35.8155 305.291 35.8442 308.615 35.8729 311.939C35.5935 312.242 35.3142 312.544 35.0348 312.847C35.0342 312.847 35.0336 312.847 35.033 312.847C34.7106 314.123 35.43 314.664 35.5933 315.353C37.1568 321.944 35.9331 334.916 35.7569 342.172C35.7194 343.736 36.0958 348.822 35.6421 349.895C35.524 350.173 35.0933 350.25 35.0745 350.546C35.3307 353.186 35.5868 355.826 35.8429 358.466C35.1737 363.896 35.7264 369.509 35.8295 374.98C36.1089 389.781 36.4484 404.435 36.3453 418.994C36.3352 420.361 36.4063 421.908 36.4581 423.452L32.8938 419.888C34.5274 419.833 36.159 419.799 37.575 419.906C38.7246 419.993 39.2036 420.684 40.7139 420.169C40.7297 420.355 40.7456 420.542 40.7615 420.728C42.0795 420.503 42.9217 420.079 44.3994 420.036C45.6437 420 48.9359 419.972 50.0355 420.044C50.6058 420.079 50.3933 420.428 50.925 420.426C51.0307 420.425 51.1504 420.418 51.2813 420.406L48.2355 423.452C48.1443 422.455 47.7682 420.807 47.7682 419.697C47.7682 418.559 48.1693 416.64 48.1112 415.766C47.905 412.615 47.3104 409.183 47.4697 405.826C47.5148 404.898 47.9663 403.705 47.9537 403.415C47.9275 402.847 47.4889 402.678 47.4325 402.297C47.1476 400.361 47.6688 397.344 47.6895 395.446C47.7569 389.263 47.5655 382.713 47.6461 376.556C47.6967 372.667 47.6195 366.203 47.9495 362.612C48.0207 361.838 48.5012 362.044 48.5012 361.394C48.5011 360.673 48.1765 360.283 48.1503 359.946C47.9665 357.614 47.6384 352.465 47.9702 350.264C48.0339 349.844 48.4104 349.54 48.4091 349.289C48.4091 349.162 48.1521 348.875 48.1259 348.476C47.8934 344.952 48.0432 342.384 48.1314 338.932C48.2982 332.32 47.8202 324.659 48.0789 317.714C48.1351 316.201 48.8798 315.163 48.8723 314.95C48.8573 314.483 48.3564 314.184 48.2327 313.238C47.826 310.094 48.3605 305.859 48.1094 302.868C47.9857 301.39 47.3498 299.36 47.2091 297.906C47.1815 297.62 47.1757 297.239 47.1785 296.819L51.2813 300.922C49.9926 300.913 48.3368 300.823 47.9486 301.034C47.6354 301.202 47.4905 301.744 47.1154 301.812ZM54.7213 331.78C53.8552 331.573 54.575 333.747 55.0399 332.931C55.1446 332.748 54.9462 331.833 54.7213 331.78ZM41.1332 425.388C41.1531 425.635 41.1731 425.883 41.193 426.13C41.4784 426.027 41.7639 425.924 42.0493 425.821C41.8889 425.673 41.7285 425.524 41.568 425.375C41.4231 425.379 41.2782 425.384 41.1332 425.388Z" fill="#397B41"/>
<path d="M275.121 301.812C274.775 301.872 274.287 301.548 273.879 301.531C272.171 301.456 271.538 301.231 269.992 301.103C267.701 300.914 260.899 301.34 260.899 299.087C260.899 299.087 260.899 299.087 260.899 299.087C260.899 299.065 260.9 299.043 260.901 299.02C260.925 298.591 261.503 298.123 261.589 297.637C261.675 297.152 261.611 294.017 262.432 293.841C263.624 293.609 266.481 294.412 267.117 294.377C267.551 294.352 268.086 294.067 268.641 294.017C270.432 293.853 271.369 294.062 272.983 293.288C273.628 293.696 274.274 294.104 274.919 294.512C275.761 294.322 277.038 294.86 277.549 294.831C277.969 294.806 278.215 294.484 278.652 294.469C278.831 294.462 279.044 294.504 279.286 294.557L281.624 294.638L281.549 296.819C281.455 297.243 281.327 297.754 281.36 298.322C281.444 299.785 282.286 300.045 282.393 300.923C282.503 301.833 282.046 303.249 282.342 304.41C282.435 304.556 282.527 304.702 282.62 304.847C282.829 304.743 283.038 304.639 283.248 304.534C283.345 305.119 282.916 305.371 282.908 305.908C282.899 306.541 283.306 306.864 283.304 307.289C283.302 307.638 282.976 308.111 282.996 308.563C283.024 309.222 283.495 309.078 283.583 309.432C283.618 309.574 283.878 312.19 283.881 312.338C283.9 313.46 283.255 313.558 283.199 314.453C283.045 316.936 283.566 319.485 283.763 321.781C283.851 322.806 283.813 323.876 283.71 324.899C282.061 323.288 280.777 326.853 283.358 325.52C282.991 326.657 283.688 327.464 283.57 328.542C283.493 329.24 283.135 329.723 283.145 330.719C283.163 332.486 284.181 334.419 282.342 334.927C282.666 337.002 281.999 338.799 283.622 339.547C283.722 340.082 282.755 341.453 282.623 342.053C282.5 342.62 282.063 346.974 282.039 347.687C282.014 348.399 281.988 349.646 282.13 350.246C282.306 350.999 283.99 351.526 282.022 352.868C282.181 354.428 282.124 354.984 281.896 356.435C281.854 356.698 281.562 356.728 281.562 356.881C281.562 357.197 281.778 357.735 281.804 358.299C281.847 359.227 281.232 359.757 282.172 359.654C282.329 360.265 282.487 360.877 282.644 361.489C282.463 361.704 282.282 361.918 282.1 362.133C282.298 362.46 282.495 362.787 282.693 363.115C281.334 362.73 282.136 365.033 282.916 364.285C282.635 365.471 282.353 366.657 282.072 367.843C280.527 367.678 281.894 370.448 282.734 370.214C282.733 370.35 282.731 370.486 282.73 370.622C282.32 371.81 282.655 372.901 282.38 374.349C282.104 375.797 281.954 375.661 281.243 376.102C281.284 376.442 281.325 376.783 281.365 377.124C283.313 378.912 279.941 378.596 281.435 381.658C280.211 382.636 280.854 385.048 281.225 386.647C281.268 386.833 281.506 386.836 281.579 387.084C281.755 387.69 281.45 389.236 282.216 389.183C281.994 389.718 281.773 390.253 281.551 390.788C281.69 391.226 281.83 391.663 281.969 392.1C282.208 392.098 282.448 392.096 282.687 392.094C281.871 392.975 282.185 394.359 281.99 395.041C281.95 395.177 281.62 395.207 281.53 395.629C281.423 396.122 281.521 397.042 281.418 397.63C281.783 397.859 282.149 398.088 282.515 398.316C282.713 399.368 281.748 399.738 281.673 400.355C281.66 400.467 281.729 402.495 281.75 402.605C281.913 403.5 282.735 403.246 282.559 405.834C282.527 406.295 282.243 406.668 282.231 407.085C282.211 407.821 282.856 410.038 283.452 410.212C282.706 411.105 283.011 413.493 282.795 414.197C282.729 414.409 282.254 414.457 282.153 415.109C282.07 415.639 282.451 417.001 282.387 417.672C282.318 418.384 281.919 418.638 281.89 418.958C281.864 419.259 282.186 419.537 282.184 419.948C282.173 421.23 281.654 422.392 281.645 423.405C281.645 423.421 281.645 423.436 281.645 423.452L281.561 425.889L279.286 425.81C277.84 425.815 276.559 426.754 275.345 427.173C275.041 427.111 274.742 426.907 274.423 426.905C270.474 426.875 266.02 426.699 262.059 426.495C261.74 426.478 261.338 426.426 260.899 426.361L257.893 426.258L257.989 423.452C258.296 421.361 258.87 418.414 257.084 419.422C256.706 418.783 257.577 414.138 257.59 413.254C257.603 412.371 257.216 411.67 257.21 410.976C257.193 408.88 257.472 407.405 257.135 404.854C257.047 404.195 256.587 403.489 256.593 403.099C256.6 402.629 257.044 402.124 257.073 401.515C257.136 400.064 256.99 397.359 257.067 395.967C257.082 395.713 257.472 395.624 257.594 395.26C258.07 393.845 258.029 392.258 256.784 392.538C257.491 390.724 256.846 389.045 256.806 387.364C256.726 383.808 257.016 377.331 256.493 374.234C256.163 372.281 255.605 372.331 256.087 369.455C256.194 368.817 256.338 368.182 256.465 367.407C256.765 365.593 257.797 363.928 256.554 362.545C256.876 360.529 256.647 358.924 257.71 357.429C257.455 357.252 257.201 357.076 256.946 356.9C256.939 356.653 256.933 356.405 256.927 356.158C257.17 356.081 257.413 356.004 257.656 355.927C257.722 354.157 256.722 351.911 256.73 350.413C256.741 347.901 257.129 341.43 257.457 339.048C257.631 337.783 257.111 337.715 258.181 336.991C258.106 336.708 258.032 336.425 257.958 336.142C257.723 335.965 257.489 335.788 257.254 335.611C257.245 333.989 257.609 332.064 257.605 330.518C257.598 327.702 256.953 323.472 257.377 320.644C257.483 319.934 257.967 319.048 257.961 318.353C257.954 317.342 257.152 317.097 257.137 315.814C257.112 313.603 258.044 309.486 257.973 307.396C257.952 306.776 257.654 306.486 257.622 306.058C257.485 304.261 257.509 302.785 257.048 301.062C257.817 299.212 258.809 299.372 259.81 298.798C260.566 298.364 262.317 297.031 262.978 296.842C263.443 296.709 264.041 297.205 264.553 297.019C264.962 299.236 264.512 300.167 263.792 301.967C263.821 305.291 263.849 308.615 263.878 311.939C263.599 312.242 263.319 312.544 263.04 312.847C263.039 312.847 263.039 312.847 263.038 312.847C262.716 314.123 263.435 314.664 263.598 315.353C265.162 321.944 263.938 334.916 263.762 342.172C263.725 343.736 264.101 348.822 263.647 349.895C263.529 350.173 263.098 350.25 263.08 350.546C263.336 353.186 263.592 355.826 263.848 358.466C263.179 363.896 263.732 369.509 263.835 374.98C264.114 389.781 264.454 404.435 264.35 418.994C264.34 420.361 264.411 421.908 264.463 423.452L260.899 419.888C262.533 419.833 264.164 419.799 265.58 419.906C266.73 419.993 267.209 420.684 268.719 420.169C268.735 420.355 268.751 420.542 268.767 420.728C270.085 420.503 270.927 420.079 272.404 420.036C273.649 420 276.941 419.972 278.041 420.044C278.611 420.079 278.398 420.428 278.93 420.426C279.036 420.425 279.156 420.418 279.286 420.406L276.241 423.452C276.149 422.455 275.773 420.807 275.773 419.697C275.773 418.559 276.174 416.64 276.116 415.766C275.91 412.615 275.316 409.183 275.475 405.826C275.52 404.898 275.971 403.705 275.959 403.415C275.933 402.847 275.494 402.678 275.438 402.297C275.153 400.361 275.674 397.344 275.695 395.446C275.762 389.263 275.571 382.713 275.651 376.556C275.702 372.667 275.625 366.203 275.955 362.612C276.026 361.838 276.506 362.044 276.506 361.394C276.506 360.673 276.182 360.283 276.155 359.946C275.972 357.614 275.644 352.465 275.975 350.264C276.039 349.844 276.416 349.54 276.414 349.289C276.414 349.162 276.157 348.875 276.131 348.476C275.899 344.952 276.048 342.384 276.136 338.932C276.303 332.32 275.825 324.659 276.084 317.714C276.14 316.201 276.885 315.163 276.877 314.95C276.862 314.483 276.362 314.184 276.238 313.238C275.831 310.094 276.366 305.859 276.115 302.868C275.991 301.39 275.355 299.36 275.214 297.906C275.187 297.62 275.181 297.239 275.184 296.819L279.286 300.922C277.998 300.913 276.342 300.823 275.954 301.034C275.641 301.202 275.496 301.744 275.121 301.812ZM282.726 331.78C281.86 331.573 282.58 333.747 283.045 332.931C283.15 332.748 282.951 331.833 282.726 331.78ZM269.138 425.388C269.158 425.635 269.178 425.883 269.198 426.13C269.484 426.027 269.769 425.924 270.054 425.821C269.894 425.673 269.734 425.524 269.573 425.375C269.428 425.379 269.283 425.384 269.138 425.388Z" fill="#397B41"/>
<path d="M203.883 356.615C203.494 356.675 202.944 356.35 202.485 356.333C200.563 356.258 199.85 356.034 198.11 355.906C195.531 355.717 187.874 356.143 187.874 353.89C187.874 353.89 187.874 353.89 187.874 353.89C187.874 353.868 187.875 353.846 187.876 353.823C187.903 353.394 188.555 352.925 188.651 352.44C188.748 351.954 188.675 348.82 189.6 348.643C190.941 348.411 194.158 349.215 194.873 349.179C195.362 349.155 195.964 348.87 196.59 348.819C198.606 348.656 199.66 348.865 201.477 348.09C202.203 348.498 202.93 348.906 203.656 349.314C204.604 349.125 206.041 349.663 206.617 349.633C207.089 349.609 207.366 349.287 207.858 349.272C208.411 349.253 209.259 349.601 210.263 349.549C211.91 349.464 212.203 348.623 213.191 348.516C214.216 348.405 215.809 348.863 217.117 348.567C217.281 348.474 217.445 348.381 217.609 348.289C217.491 348.08 217.374 347.87 217.256 347.661C217.915 347.563 218.198 347.992 218.803 348C219.515 348.01 219.878 347.603 220.357 347.605C220.75 347.607 221.282 347.933 221.791 347.912C222.533 347.884 222.371 347.413 222.77 347.325C222.929 347.291 225.874 347.031 226.04 347.027C227.304 347.009 227.414 347.653 228.422 347.71C231.216 347.863 234.085 347.343 236.67 347.146C237.825 347.058 239.029 347.095 240.18 347.198C238.367 348.848 242.379 350.132 240.879 347.55C242.159 347.918 243.067 347.221 244.281 347.339C245.066 347.415 245.61 347.773 246.731 347.764C248.72 347.745 250.896 346.728 251.468 348.567C253.804 348.242 255.826 348.909 256.668 347.286C257.27 347.187 258.814 348.154 259.489 348.285C260.128 348.409 265.029 348.846 265.831 348.87C266.633 348.894 268.036 348.921 268.712 348.778C269.56 348.602 270.153 346.919 271.663 348.887C273.419 348.728 274.045 348.784 275.679 349.013C275.974 349.054 276.008 349.346 276.18 349.347C276.536 349.347 277.142 349.131 277.777 349.104C278.61 349.07 279.157 349.453 279.286 349.135L281.847 349.214L281.773 351.622C281.854 351.655 281.981 351.661 282.172 351.637C282.329 352.326 282.487 353.015 282.644 353.703C282.463 353.945 282.282 354.187 282.1 354.428C282.298 354.796 282.495 355.165 282.693 355.533C281.334 355.1 282.136 357.692 282.916 356.851C282.635 358.186 282.353 359.521 282.072 360.856C280.527 360.67 281.894 363.787 282.734 363.525C282.733 363.678 282.731 363.83 282.73 363.983C282.32 365.321 282.655 366.549 282.38 368.179C282.104 369.809 281.954 369.656 281.243 370.152C281.284 370.535 281.325 370.919 281.365 371.303C283.313 373.315 279.941 372.96 281.435 376.406C280.211 377.508 280.854 380.222 281.225 382.022C281.268 382.231 281.506 382.235 281.579 382.514C281.755 383.196 281.45 384.936 282.216 384.877C281.994 385.479 281.773 386.081 281.551 386.684C281.69 387.176 281.83 387.668 281.969 388.161C282.208 388.158 282.448 388.156 282.687 388.153C281.871 389.145 282.185 390.703 281.99 391.471C281.95 391.624 281.62 391.657 281.53 392.132C281.423 392.688 281.521 393.723 281.418 394.385C281.783 394.643 282.149 394.9 282.515 395.158C282.713 396.342 281.748 396.758 281.673 397.453C281.66 397.578 281.729 399.862 281.75 399.985C281.913 400.992 282.735 400.707 282.559 403.62C282.527 404.139 282.243 404.559 282.231 405.028C282.211 405.856 282.856 408.352 283.452 408.549C282.706 409.553 283.011 412.242 282.795 413.033C282.729 413.272 282.254 413.326 282.153 414.061C282.07 414.656 282.451 416.19 282.387 416.945C282.318 417.747 281.919 418.033 281.89 418.393C281.864 418.732 282.186 419.045 282.184 419.507C282.173 420.951 281.654 422.258 281.645 423.399C281.645 423.417 281.645 423.434 281.645 423.451L281.57 425.88L279.286 425.81C277.658 425.815 276.216 426.754 274.85 427.173C274.508 427.111 274.171 426.906 273.811 426.904C269.367 426.874 264.353 426.698 259.895 426.494C257.825 426.4 252.679 425.105 254.053 427.266C253.333 427.645 248.104 426.773 247.109 426.76C246.115 426.747 245.327 427.135 244.545 427.14C242.186 427.157 240.525 426.878 237.654 427.216C236.912 427.304 236.118 427.763 235.679 427.758C235.15 427.75 234.58 427.306 233.895 427.278C232.262 427.214 229.218 427.36 227.651 427.283C227.364 427.268 227.264 426.878 226.855 426.757C225.261 426.28 223.475 426.322 223.791 427.567C221.748 426.86 219.859 427.504 217.966 427.544C213.964 427.625 206.673 427.334 203.187 427.857C200.988 428.187 201.044 428.745 197.807 428.264C197.089 428.157 196.374 428.013 195.502 427.885C193.459 427.585 191.585 426.554 190.028 427.797C189.262 427.688 188.548 427.642 187.874 427.588L183.615 427.457L183.738 423.451C183.844 422.13 183.982 420.961 184.686 419.847C184.431 419.648 184.176 419.45 183.921 419.251C183.915 418.973 183.908 418.695 183.902 418.417C184.145 418.33 184.388 418.243 184.631 418.157C184.697 416.164 183.698 413.636 183.705 411.949C183.716 409.121 184.104 401.838 184.432 399.156C184.607 397.733 184.086 397.656 185.156 396.841C185.082 396.523 185.007 396.204 184.933 395.886C184.699 395.687 184.464 395.487 184.23 395.288C184.22 393.462 184.584 391.295 184.581 389.555C184.573 386.385 183.928 381.624 184.352 378.44C184.459 377.641 184.942 376.643 184.937 375.862C184.929 374.724 184.127 374.447 184.112 373.003C184.088 370.515 185.019 365.88 184.948 363.528C184.928 362.829 184.629 362.504 184.597 362.021C184.46 359.998 184.485 358.338 184.023 356.398C184.792 354.315 185.784 354.495 186.785 353.85C187.541 353.361 189.292 351.861 189.954 351.648C190.419 351.498 191.017 352.057 191.528 351.847C191.937 354.342 191.487 355.391 190.767 357.417C190.796 361.158 190.825 364.9 190.853 368.642C190.574 368.982 190.295 369.323 190.015 369.663C190.015 369.663 190.014 369.663 190.013 369.663C189.691 371.1 190.41 371.709 190.574 372.484C192.137 379.903 190.914 394.506 190.737 402.673C190.7 404.433 191.076 410.159 190.623 411.367C190.504 411.679 190.074 411.766 190.055 412.099C190.311 415.071 190.567 418.043 190.823 421.015C190.735 421.824 190.668 422.636 190.618 423.451L187.874 420.708C193.219 421.033 198.683 420.605 204.026 420.516C220.687 420.236 237.182 419.897 253.571 420C256.738 420.021 260.757 419.698 263.858 419.906C265.152 419.992 265.691 420.684 267.391 420.168C267.409 420.355 267.427 420.541 267.445 420.728C268.928 420.503 269.876 420.078 271.54 420.035C272.94 420 276.646 419.972 277.884 420.043C278.526 420.079 278.287 420.427 278.885 420.425C279.004 420.425 279.139 420.418 279.286 420.406L276.241 423.451C276.149 422.33 275.773 420.474 275.773 419.224C275.773 417.944 276.174 415.784 276.116 414.799C275.91 411.253 275.316 407.39 275.475 403.61C275.52 402.566 275.971 401.224 275.959 400.897C275.933 400.258 275.494 400.068 275.438 399.639C275.153 397.46 275.674 394.063 275.695 391.927C275.762 384.967 275.571 377.594 275.651 370.664C275.702 366.285 275.625 359.01 275.955 354.967C276.026 354.096 276.506 354.328 276.506 353.596C276.506 352.785 276.182 352.345 276.155 351.966C276.148 351.857 276.14 351.742 276.132 351.622L279.286 354.777C276.528 354.963 271.107 355.251 268.731 354.933C268.259 354.869 267.917 354.493 267.634 354.494C267.491 354.494 267.168 354.751 266.719 354.778C262.753 355.01 259.862 354.86 255.976 354.772C248.533 354.605 239.91 355.083 232.092 354.825C230.389 354.768 229.22 354.024 228.981 354.031C228.455 354.046 228.119 354.547 227.054 354.671C223.515 355.077 218.747 354.543 215.381 354.794C213.717 354.918 211.432 355.554 209.795 355.694C208.488 355.807 205.4 355.557 204.821 355.836C204.468 356.005 204.305 356.547 203.883 356.615ZM247.925 348.182C247.692 349.048 250.14 348.328 249.222 347.863C249.015 347.759 247.985 347.957 247.925 348.182ZM267.863 425.388C267.886 425.635 267.908 425.882 267.931 426.13C268.252 426.027 268.573 425.924 268.894 425.821C268.714 425.672 268.533 425.523 268.353 425.375C268.19 425.379 268.026 425.383 267.863 425.388Z" fill="#397B41"/>
<path d="M150.922 384.283C150.492 384.343 149.886 384.018 149.379 384.001C147.254 383.926 146.467 383.702 144.545 383.574C141.695 383.385 133.238 383.811 133.237 381.558C133.237 381.558 133.237 381.558 133.237 381.558C133.237 381.536 133.238 381.514 133.24 381.491C133.269 381.062 133.989 380.593 134.096 380.108C134.202 379.622 134.122 376.488 135.144 376.311C136.625 376.079 140.179 376.883 140.969 376.847C141.51 376.823 142.175 376.538 142.865 376.487C145.092 376.324 146.258 376.533 148.264 375.758C149.067 376.166 149.869 376.574 150.672 376.982C151.719 376.793 153.306 377.331 153.942 377.301C154.464 377.277 154.77 376.954 155.314 376.939C155.924 376.921 156.861 377.269 157.971 377.217C159.79 377.132 160.114 376.291 161.206 376.184C162.337 376.073 164.098 376.531 165.542 376.235C165.723 376.142 165.905 376.049 166.086 375.957C165.956 375.747 165.826 375.538 165.696 375.329C166.424 375.231 166.737 375.66 167.405 375.668C168.192 375.678 168.593 375.271 169.122 375.273C169.556 375.275 170.144 375.601 170.706 375.58C171.525 375.552 171.346 375.081 171.787 374.993C171.963 374.959 175.217 374.699 175.4 374.695C176.796 374.677 176.918 375.321 178.031 375.378C181.118 375.531 184.288 375.01 187.143 374.814C188.418 374.726 189.749 374.763 191.02 374.866C189.018 376.516 193.45 377.8 191.792 375.218C193.207 375.586 194.21 374.889 195.551 375.007C196.419 375.083 197.019 375.441 198.258 375.432C200.455 375.413 202.859 374.396 203.491 376.235C206.071 375.91 208.306 376.577 209.236 374.954C209.901 374.855 211.606 375.822 212.352 375.953C213.058 376.077 218.472 376.514 219.358 376.538C220.244 376.562 221.794 376.589 222.54 376.446C223.477 376.27 224.132 374.587 225.801 376.555C227.741 376.396 228.432 376.452 230.237 376.681C230.563 376.722 230.6 377.014 230.791 377.015C231.184 377.015 231.853 376.799 232.555 376.772C233.709 376.729 234.368 377.344 234.239 376.405C235 376.247 235.761 376.09 236.522 375.932C236.789 376.114 237.055 376.295 237.322 376.476C237.729 376.279 238.136 376.081 238.543 375.884C238.065 377.243 240.928 376.441 239.998 375.661C241.473 375.942 242.948 376.223 244.423 376.504C244.217 378.049 247.662 376.683 247.372 375.843C247.54 375.844 247.709 375.845 247.878 375.846C249.355 376.257 250.712 375.921 252.513 376.197C254.314 376.472 254.145 376.623 254.693 377.333C255.116 377.292 255.54 377.252 255.964 377.211C258.04 375.392 257.835 378.212 260.899 377.377L262.863 377.432L262.812 379.29C262.871 379.507 262.949 379.741 263.048 379.993C261.823 381.21 262.466 384.209 262.838 386.197C262.881 386.428 263.118 386.432 263.192 386.74C263.368 387.494 263.062 389.416 263.829 389.35C263.607 390.016 263.385 390.681 263.164 391.347C263.303 391.891 263.442 392.435 263.582 392.979C263.821 392.976 264.06 392.973 264.299 392.97C263.484 394.066 263.797 395.787 263.602 396.636C263.563 396.804 263.233 396.841 263.143 397.366C263.036 397.98 263.134 399.124 263.031 399.855C263.396 400.139 263.762 400.424 264.127 400.708C264.326 402.016 263.361 402.476 263.286 403.244C263.273 403.382 263.342 405.905 263.363 406.041C263.526 407.154 264.348 406.839 264.172 410.057C264.14 410.63 263.856 411.094 263.844 411.612C263.824 412.527 264.469 415.285 265.065 415.501C264.319 416.611 264.624 419.581 264.408 420.456C264.342 420.72 263.867 420.779 263.765 421.591C263.683 422.249 264.063 423.943 264 424.777C263.93 425.663 263.531 425.979 263.503 426.376C263.477 426.751 263.799 427.097 263.797 427.608C263.786 429.202 263.267 430.647 263.258 431.907C263.257 431.926 263.257 431.946 263.257 431.965L263.19 434.387L260.899 434.323C259.1 434.329 257.507 435.267 255.998 435.686C255.62 435.624 255.248 435.42 254.851 435.418C249.941 435.388 244.402 435.212 239.477 435.008C237.191 434.914 231.505 433.618 233.023 435.78C232.228 436.158 226.451 435.287 225.352 435.274C224.254 435.261 223.383 435.648 222.519 435.654C219.914 435.671 218.079 435.392 214.907 435.729C214.088 435.817 213.21 436.276 212.725 436.271C212.14 436.264 211.511 435.819 210.754 435.791C208.95 435.728 205.587 435.874 203.856 435.797C203.54 435.782 203.429 435.392 202.977 435.27C201.216 434.794 199.243 434.835 199.592 436.08C197.336 435.373 195.248 436.018 193.157 436.057C188.736 436.138 180.682 435.847 176.83 436.371C174.401 436.7 174.463 437.259 170.887 436.777C170.094 436.67 169.303 436.526 168.341 436.399C166.084 436.099 164.014 435.067 162.294 436.31C159.787 435.988 157.791 436.216 155.932 435.153C155.713 435.408 155.493 435.663 155.274 435.918C154.967 435.925 154.66 435.931 154.352 435.937C154.256 435.694 154.161 435.451 154.065 435.208C151.863 435.142 149.071 436.142 147.207 436.134C144.139 436.123 136.321 435.749 133.237 435.424L129.685 435.326L129.778 431.965C129.784 431.909 129.79 431.855 129.795 431.802C129.97 430.23 129.449 430.145 130.519 429.244C130.445 428.893 130.37 428.541 130.296 428.189C130.062 427.969 129.827 427.749 129.593 427.529C129.583 425.511 129.947 423.118 129.944 421.196C129.936 417.693 129.291 412.433 129.715 408.916C129.822 408.034 130.305 406.932 130.3 406.068C130.292 404.811 129.49 404.506 129.475 402.91C129.451 400.161 130.382 395.041 130.311 392.443C130.291 391.671 129.992 391.311 129.96 390.778C129.823 388.543 129.848 386.709 129.387 384.566C130.155 382.265 131.147 382.464 132.148 381.751C132.904 381.211 134.655 379.554 135.317 379.319C135.782 379.153 136.38 379.77 136.891 379.539C137.3 382.295 136.85 383.453 136.13 385.692C136.159 389.825 136.188 393.959 136.216 398.092C135.937 398.468 135.658 398.844 135.378 399.22C135.378 399.22 135.377 399.22 135.377 399.22C135.054 400.808 135.774 401.481 135.937 402.337C137.303 409.499 136.541 422.722 136.209 431.965L133.237 428.993C134.571 429.041 135.822 429.08 136.96 429.102C138.904 429.139 145.229 428.763 146.564 429.217C146.909 429.335 147.005 429.765 147.373 429.784C150.656 429.528 153.939 429.272 157.222 429.016C163.974 429.685 170.954 429.132 177.757 429.029C196.163 428.75 214.386 428.41 232.49 428.513C235.989 428.534 240.429 428.211 243.855 428.419C245.285 428.506 245.88 429.197 247.758 428.682C247.778 428.868 247.798 429.055 247.817 429.241C249.456 429.016 250.504 428.592 252.341 428.549C253.889 428.513 257.983 428.486 259.35 428.557C260.059 428.592 259.795 428.941 260.456 428.939C260.588 428.938 260.736 428.931 260.899 428.919L257.853 431.965C257.762 430.726 257.386 428.676 257.386 427.295C257.386 425.88 257.787 423.495 257.729 422.407C257.523 418.489 256.928 414.221 257.088 410.046C257.133 408.893 257.584 407.409 257.572 407.048C257.545 406.343 257.107 406.132 257.05 405.658C256.765 403.251 257.287 399.499 257.307 397.139C257.358 391.314 257.261 385.228 257.246 379.29L260.899 382.943C258.999 382.948 257.114 382.945 255.258 382.925C250.421 382.875 242.384 382.952 237.918 382.622C236.955 382.551 237.212 382.07 236.403 382.07C235.507 382.07 235.021 382.395 234.602 382.421C231.702 382.605 225.3 382.933 222.562 382.601C222.041 382.537 221.662 382.161 221.35 382.162C221.192 382.162 220.835 382.419 220.339 382.445C215.958 382.678 212.763 382.528 208.471 382.44C200.249 382.273 190.723 382.751 182.086 382.492C180.204 382.436 178.913 381.692 178.649 381.699C178.068 381.714 177.696 382.215 176.52 382.339C172.61 382.745 167.344 382.211 163.624 382.462C161.787 382.586 159.262 383.222 157.454 383.362C156.009 383.475 152.598 383.225 151.958 383.504C151.569 383.673 151.389 384.215 150.922 384.283ZM199.577 375.85C199.32 376.716 202.024 375.996 201.009 375.531C200.781 375.427 199.643 375.625 199.577 375.85ZM248.28 433.901C248.304 434.148 248.329 434.396 248.354 434.643C248.709 434.54 249.064 434.437 249.419 434.334C249.219 434.186 249.02 434.037 248.82 433.888C248.64 433.892 248.46 433.897 248.28 433.901Z" fill="#397B41"/>
<path d="M90.1674 351.826C89.8862 351.886 89.4894 351.562 89.1577 351.545C87.7683 351.47 87.2534 351.245 85.9963 351.117C84.1323 350.928 78.6002 351.354 78.6001 349.102C78.6001 349.102 78.6001 349.101 78.6001 349.101C78.6001 349.079 78.6006 349.057 78.6017 349.034C78.6211 348.605 79.0916 348.137 79.1615 347.651C79.2312 347.166 79.1789 344.031 79.8472 343.855C80.8162 343.623 83.1406 344.426 83.6574 344.391C84.0107 344.366 84.4457 344.081 84.8975 344.031C86.3542 343.868 87.1164 344.076 88.4288 343.302C88.9537 343.71 89.4787 344.118 90.0036 344.526C90.6885 344.337 91.7266 344.875 92.1427 344.845C92.4841 344.821 92.6842 344.498 93.0399 344.483C93.439 344.464 94.0518 344.812 94.7777 344.76C95.9676 344.676 96.1794 343.834 96.8934 343.727C97.6338 343.617 98.7852 344.074 99.7299 343.778C99.8484 343.685 99.9669 343.593 100.085 343.5C100 343.291 99.9156 343.082 99.8307 342.872C100.307 342.775 100.511 343.204 100.948 343.212C101.463 343.221 101.725 342.814 102.071 342.816C102.355 342.818 102.74 343.144 103.107 343.124C103.643 343.096 103.526 342.625 103.815 342.537C103.93 342.502 106.058 342.242 106.178 342.239C107.091 342.22 107.17 342.865 107.898 342.921C109.918 343.075 111.991 342.554 113.859 342.357C114.693 342.269 115.563 342.306 116.395 342.41C115.085 344.059 117.984 345.343 116.899 342.762C117.825 343.129 118.481 342.432 119.358 342.55C119.925 342.627 120.318 342.985 121.128 342.975C122.566 342.956 124.138 341.939 124.551 343.778C126.239 343.454 127.7 344.121 128.309 342.497C128.744 342.398 129.859 343.365 130.347 343.497C130.627 343.572 132.039 343.762 133.237 343.905L136.284 344.034L136.166 346.833C136.072 347.611 135.999 348.297 135.989 348.525C135.965 349.105 135.939 350.119 136.081 350.607C136.257 351.22 137.941 351.648 135.972 352.74C136.132 354.009 136.075 354.461 135.847 355.641C135.805 355.855 135.513 355.879 135.513 356.004C135.513 356.261 135.729 356.698 135.755 357.157C135.798 357.912 135.183 358.343 136.122 358.259C136.28 358.757 136.437 359.254 136.595 359.752C136.414 359.926 136.232 360.101 136.051 360.276C136.249 360.542 136.446 360.808 136.644 361.074C135.285 360.761 136.087 362.634 136.867 362.026C136.585 362.991 136.304 363.955 136.023 364.92C134.478 364.785 135.845 367.038 136.685 366.849C136.683 366.959 136.682 367.069 136.681 367.18C136.27 368.146 136.606 369.034 136.331 370.212C136.055 371.389 135.905 371.279 135.194 371.637C135.235 371.914 135.276 372.191 135.316 372.469C137.264 373.923 133.892 373.666 135.386 376.156C134.162 376.952 134.805 378.914 135.176 380.214C135.219 380.365 135.457 380.368 135.53 380.57C135.706 381.062 135.401 382.32 136.167 382.277C135.945 382.712 135.724 383.147 135.502 383.582C135.641 383.938 135.78 384.294 135.92 384.65C136.159 384.648 136.398 384.646 136.638 384.644C135.822 385.361 136.136 386.486 135.941 387.042C135.901 387.152 135.571 387.176 135.481 387.52C135.374 387.921 135.472 388.669 135.369 389.148C135.734 389.334 136.1 389.52 136.465 389.706C136.664 390.561 135.699 390.862 135.624 391.364C135.611 391.455 135.68 393.105 135.701 393.194C135.864 393.921 136.686 393.715 136.51 395.82C136.478 396.195 136.194 396.499 136.182 396.837C136.162 397.436 136.807 399.24 137.403 399.381C136.657 400.107 136.962 402.05 136.746 402.622C136.68 402.795 136.205 402.834 136.104 403.364C136.021 403.795 136.402 404.903 136.338 405.449C136.269 406.028 135.869 406.235 135.841 406.494C135.815 406.74 136.137 406.966 136.135 407.3C136.124 408.343 135.605 409.288 135.596 410.112C135.596 410.125 135.596 410.137 135.596 410.15L135.492 412.604L133.237 412.508C132.06 412.513 131.019 413.452 130.032 413.871C129.784 413.809 129.541 413.604 129.281 413.603C126.07 413.573 122.447 413.397 119.226 413.192C117.73 413.099 114.012 411.803 115.004 413.965C114.484 414.343 110.706 413.472 109.987 413.459C109.269 413.446 108.699 413.833 108.134 413.839C106.43 413.856 105.23 413.576 103.155 413.914C102.619 414.002 102.045 414.461 101.728 414.456C101.345 414.448 100.934 414.004 100.439 413.976C99.2587 413.912 97.0591 414.058 95.9268 413.982C95.72 413.967 95.6474 413.577 95.3517 413.455C94.2002 412.979 92.9096 413.02 93.1379 414.265C91.662 413.558 90.2968 414.203 88.929 414.242C86.1651 414.319 81.2309 414.057 78.6001 414.491L74.0834 414.299L74.2593 410.15C74.2392 410.028 74.2177 409.911 74.1945 409.799C73.8645 408.211 73.3062 408.251 73.788 405.913C73.8948 405.393 74.039 404.877 74.1664 404.247C74.4664 402.771 75.4977 401.417 74.2549 400.292C74.5772 398.652 74.3487 397.347 75.4115 396.131C75.1566 395.987 74.9017 395.844 74.6468 395.7C74.6405 395.499 74.6342 395.298 74.6278 395.097C74.871 395.035 75.1141 394.972 75.3572 394.909C75.4227 393.47 74.4234 391.643 74.4307 390.424C74.4419 388.381 74.8302 383.118 75.1582 381.18C75.3325 380.152 74.8117 380.096 75.8821 379.507C75.8077 379.277 75.7332 379.047 75.6587 378.817C75.4244 378.673 75.19 378.529 74.9556 378.385C74.9462 377.065 75.3103 375.5 75.3066 374.243C75.2991 371.952 74.654 368.512 75.0777 366.211C75.1845 365.634 75.6678 364.913 75.6624 364.348C75.6549 363.526 74.8528 363.326 74.8378 362.283C74.8134 360.485 75.7452 357.136 75.674 355.436C75.6534 354.932 75.3549 354.696 75.323 354.348C75.1862 352.886 75.2105 351.686 74.7493 350.284C75.5179 348.78 76.5101 348.91 77.5112 348.443C78.2667 348.09 80.0178 347.006 80.6795 346.852C81.1444 346.744 81.7425 347.148 82.2542 346.996C82.6629 348.799 82.213 349.557 81.4931 351.021C81.5218 353.724 81.5505 356.428 81.5792 359.131C81.2998 359.377 81.0205 359.623 80.7411 359.869C80.7405 359.869 80.7399 359.869 80.7393 359.869C80.4169 360.908 81.1363 361.348 81.2996 361.908C82.8631 367.269 81.6394 377.82 81.4632 383.722C81.4257 384.993 81.8021 389.13 81.3484 390.003C81.2303 390.229 80.7996 390.292 80.7808 390.532C81.037 392.68 81.2931 394.827 81.5492 396.975C80.8928 401.306 81.412 405.781 81.5294 410.15L78.6001 407.22C78.6855 407.218 78.7709 407.216 78.8563 407.214C90.8952 406.935 102.814 406.595 114.656 406.698C116.944 406.719 119.849 406.396 122.089 406.604C123.024 406.691 123.414 407.382 124.642 406.867C124.655 407.053 124.668 407.239 124.681 407.426C125.753 407.201 126.438 406.777 127.64 406.734C128.652 406.698 131.33 406.67 132.224 406.742C132.688 406.777 132.515 407.125 132.947 407.124C133.033 407.123 133.131 407.116 133.237 407.104L130.192 410.15C130.1 409.339 129.724 407.999 129.724 407.095C129.724 406.17 130.125 404.61 130.067 403.898C129.861 401.335 129.266 398.544 129.426 395.813C129.471 395.059 129.922 394.089 129.91 393.852C129.883 393.391 129.445 393.253 129.388 392.943C129.104 391.369 129.625 388.915 129.645 387.371C129.713 382.342 129.521 377.014 129.602 372.007C129.653 368.843 129.576 363.586 129.905 360.665C129.977 360.035 130.457 360.203 130.457 359.674C130.457 359.088 130.132 358.77 130.106 358.496C129.923 356.6 129.594 352.412 129.926 350.621C129.99 350.28 130.366 350.033 130.365 349.828C130.365 349.725 130.108 349.492 130.082 349.167C130.014 348.336 129.979 347.57 129.965 346.833L133.237 350.106C131.433 350.14 129.802 350.046 127.808 349.983C122.431 349.817 116.2 350.295 110.55 350.036C109.32 349.98 108.476 349.235 108.302 349.242C107.923 349.258 107.68 349.758 106.91 349.882C104.353 350.289 100.908 349.754 98.4754 350.005C97.2736 350.129 95.622 350.765 94.4393 350.906C93.4947 351.018 91.2637 350.769 90.845 351.048C90.5903 351.217 90.4725 351.758 90.1674 351.826ZM121.991 343.393C121.823 344.26 123.591 343.54 122.928 343.075C122.778 342.97 122.035 343.169 121.991 343.393ZM124.983 412.086C124.999 412.333 125.016 412.581 125.032 412.828C125.264 412.725 125.496 412.622 125.728 412.519C125.598 412.37 125.467 412.222 125.337 412.073C125.219 412.077 125.101 412.082 124.983 412.086Z" fill="#397B41"/>
<path d="M32.6313 436.753V410.15H279.024V436.753H32.6313Z" fill="#397B41"/>
<path d="M59.4032 415.143C58.7525 415.202 57.8339 414.878 57.0663 414.861C53.8505 414.786 52.659 414.561 49.7494 414.434C45.4354 414.245 32.6317 414.671 32.6313 412.418C32.6313 412.418 32.6313 412.418 32.6313 412.418C32.6314 412.396 32.6326 412.373 32.6351 412.351C32.6799 411.922 33.769 411.453 33.9306 410.968C34.0919 410.482 33.9709 407.348 35.5177 407.171C37.7603 406.939 43.1401 407.743 44.3362 407.707C45.1539 407.683 46.1607 407.398 47.2063 407.347C50.5777 407.184 52.3418 407.392 55.3792 406.618C56.5942 407.026 57.8091 407.434 59.0241 407.842C60.6094 407.653 63.0119 408.191 63.9749 408.161C64.765 408.137 65.2281 407.814 66.0515 407.799C66.9751 407.781 68.3934 408.129 70.0734 408.076C72.8275 407.992 73.3176 407.151 74.97 407.044C76.6836 406.933 79.3486 407.391 81.535 407.094C81.8093 407.002 82.0835 406.909 82.3577 406.817C82.1612 406.607 81.9648 406.398 81.7683 406.189C82.8696 406.091 83.3432 406.52 84.3551 406.528C85.5458 406.537 86.1533 406.131 86.9544 406.132C87.6108 406.134 88.5007 406.461 89.3518 406.44C90.5925 406.412 90.3212 405.941 90.9888 405.853C91.2552 405.819 96.1804 405.559 96.4583 405.555C98.5715 405.537 98.7555 406.181 100.441 406.237C105.114 406.391 109.912 405.87 114.235 405.673C116.165 405.585 118.179 405.623 120.104 405.726C117.073 407.376 123.782 408.66 121.273 406.078C123.414 406.445 124.933 405.749 126.963 405.866C128.276 405.943 129.185 406.301 131.06 406.292C134.387 406.273 138.026 405.255 138.983 407.094C142.888 406.77 146.271 407.437 147.678 405.814C148.686 405.715 151.266 406.682 152.396 406.813C153.464 406.937 161.661 407.373 163.002 407.398C164.342 407.422 166.69 407.449 167.819 407.306C169.238 407.13 170.229 405.446 172.755 407.415C175.692 407.256 176.739 407.312 179.47 407.541C179.965 407.582 180.021 407.874 180.31 407.874C180.905 407.874 181.917 407.658 182.98 407.632C184.727 407.589 185.724 408.204 185.529 407.265C186.681 407.107 187.833 406.95 188.985 406.792C189.389 406.974 189.793 407.155 190.197 407.336C190.813 407.139 191.428 406.941 192.044 406.743C191.321 408.103 195.655 407.301 194.248 406.521C196.48 406.802 198.713 407.083 200.946 407.364C200.634 408.909 205.848 407.542 205.409 406.703C205.665 406.704 205.92 406.705 206.176 406.706C208.413 407.117 210.467 406.781 213.193 407.057C215.919 407.332 215.663 407.483 216.492 408.193C217.134 408.152 217.775 408.112 218.417 408.071C221.783 406.123 221.188 409.496 226.952 408.001C228.793 409.226 233.333 408.583 236.343 408.211C236.693 408.168 236.699 407.931 237.166 407.857C238.306 407.681 241.216 407.987 241.117 407.22C242.124 407.442 243.132 407.664 244.139 407.885C244.962 407.746 245.786 407.607 246.609 407.467C246.605 407.228 246.601 406.989 246.597 406.75C248.255 407.565 250.86 407.252 252.145 407.447C252.401 407.486 252.456 407.816 253.251 407.906C254.18 408.013 255.912 407.915 257.019 408.018C257.45 407.653 257.88 407.287 258.31 406.922C260.29 406.723 260.986 407.688 262.149 407.763C262.358 407.776 266.178 407.707 266.383 407.686C268.068 407.523 267.591 406.701 272.463 406.877C273.331 406.909 274.032 407.193 274.817 407.205C275.675 407.218 277.603 406.975 279.024 406.647L282.59 406.712L282.527 410.15C282.729 411.023 282.963 411.706 283.19 411.831C282.444 413.511 282.749 418.007 282.533 419.331C282.467 419.731 281.991 419.821 281.89 421.049C281.808 422.045 282.188 424.61 282.125 425.873C282.055 427.214 281.656 427.692 281.628 428.293C281.602 428.861 281.924 429.384 281.922 430.157C281.911 432.572 281.392 434.758 281.382 436.666C281.382 436.695 281.382 436.724 281.382 436.753L281.338 439.154L279.024 439.112C276.3 439.117 273.89 440.056 271.605 440.475C271.032 440.413 270.469 440.208 269.868 440.206C262.435 440.176 254.05 440 246.595 439.796C243.134 439.702 234.527 438.407 236.824 440.568C235.622 440.947 226.876 440.075 225.213 440.062C223.55 440.049 222.231 440.437 220.924 440.442C216.979 440.459 214.202 440.18 209.4 440.517C208.16 440.606 206.831 441.065 206.097 441.059C205.212 441.052 204.26 440.608 203.114 440.58C200.383 440.516 195.292 440.662 192.671 440.585C192.193 440.57 192.024 440.18 191.34 440.059C188.675 439.582 185.688 439.624 186.216 440.868C182.801 440.162 179.641 440.806 176.475 440.846C169.782 440.926 157.59 440.636 151.759 441.159C148.082 441.489 148.176 442.047 142.763 441.565C141.561 441.459 140.365 441.315 138.908 441.187C135.492 440.887 132.358 439.856 129.754 441.099C125.96 440.776 122.938 441.005 120.123 439.942C119.791 440.197 119.459 440.452 119.127 440.707C118.662 440.713 118.197 440.719 117.732 440.726C117.587 440.483 117.442 440.239 117.297 439.996C113.964 439.931 109.737 440.93 106.916 440.923C102.187 440.912 90.0059 440.523 85.5215 440.195C83.1407 440.021 83.0126 440.542 81.6496 439.471C81.1171 439.546 80.5845 439.62 80.052 439.695C79.7188 439.929 79.3856 440.163 79.0523 440.398C75.9978 440.407 72.375 440.043 69.4652 440.047C64.1629 440.054 56.2008 440.699 50.8762 440.276C49.5411 440.169 47.8722 439.686 46.5648 439.691C44.662 439.699 44.1995 440.501 41.7848 440.516C39.4339 440.529 35.9377 440.238 32.6313 439.995L29.3317 439.934L29.3899 436.753C29.5773 434.207 29.7362 431.772 29.7052 430.061C29.6846 428.893 29.3862 428.347 29.3543 427.541C29.2174 424.158 29.2417 421.381 28.7806 418.137C29.5492 414.654 30.5413 414.955 31.5424 413.875C32.298 413.057 34.049 410.549 34.7107 410.193C35.1757 409.943 35.7737 410.877 36.2855 410.526C36.6941 414.699 36.2442 416.452 35.5243 419.841C35.5502 425.478 35.576 431.116 35.6019 436.753L32.6313 433.783C33.2512 433.78 33.871 433.777 34.4908 433.774C35.0601 434.054 35.6294 434.333 36.1987 434.612C36.1987 434.613 36.1987 434.614 36.1987 434.614C38.6018 434.937 39.6203 434.217 40.9163 434.054C53.3236 432.49 77.7441 433.714 91.4033 433.89C94.3467 433.928 103.922 433.551 105.941 434.005C106.464 434.123 106.61 434.554 107.166 434.573C112.136 434.317 117.106 434.06 122.077 433.804C132.297 434.473 142.864 433.921 153.162 433.818C181.026 433.538 208.611 433.199 236.018 433.302C241.315 433.323 248.037 433 253.222 433.208C255.386 433.294 256.288 433.986 259.131 433.47C259.161 433.657 259.191 433.843 259.221 434.029C261.702 433.804 263.287 433.38 266.069 433.337C268.411 433.302 274.609 433.274 276.679 433.345C277.752 433.381 277.352 433.729 278.353 433.727C278.552 433.727 278.777 433.72 279.024 433.708L275.978 436.753C275.887 434.878 275.511 431.774 275.511 429.684C275.511 427.542 275.912 423.931 275.854 422.284C275.719 418.404 275.418 414.296 275.27 410.15L279.024 413.904C276.833 413.982 274.631 414.017 272.446 413.961C270.7 413.916 268.455 413.465 267.908 413.477C266.84 413.504 266.522 413.942 265.804 413.999C262.16 414.284 256.48 413.762 252.908 413.742C241.268 413.674 228.938 413.866 217.348 413.785C210.026 413.734 197.859 413.812 191.099 413.482C189.641 413.411 190.029 412.93 188.805 412.93C187.448 412.93 186.713 413.255 186.079 413.281C181.689 413.465 171.997 413.793 167.852 413.461C167.063 413.397 166.49 413.021 166.017 413.022C165.778 413.022 165.238 413.279 164.487 413.305C157.855 413.538 153.019 413.388 146.52 413.3C134.074 413.133 119.653 413.611 106.579 413.352C103.73 413.296 101.776 412.551 101.376 412.559C100.497 412.574 99.934 413.075 98.1537 413.199C92.2341 413.605 84.2619 413.071 78.6316 413.322C75.85 413.446 72.0276 414.081 69.2902 414.222C67.1039 414.335 61.9406 414.085 60.9715 414.364C60.382 414.533 60.1092 415.075 59.4032 415.143ZM133.057 406.71C132.668 407.576 136.761 406.856 135.225 406.391C134.88 406.287 133.158 406.485 133.057 406.71ZM259.92 438.689C259.958 438.937 259.995 439.184 260.033 439.432C260.57 439.329 261.108 439.226 261.645 439.123C261.343 438.974 261.041 438.825 260.739 438.677C260.466 438.681 260.193 438.685 259.92 438.689Z" fill="#397B41"/>
<path d="M32.8938 306.929V296.819H279.286V306.929H32.8938Z" fill="#397B41"/>
<path d="M58.0481 301.812C57.4367 301.872 56.5737 301.548 55.8524 301.531C52.8309 301.456 51.7114 301.231 48.9776 301.103C44.9242 300.914 32.8941 301.34 32.8938 299.087C32.8938 299.087 32.8938 299.087 32.8938 299.087C32.8938 299.065 32.895 299.043 32.8973 299.02C32.9395 298.591 33.9627 298.123 34.1145 297.637C34.2661 297.152 34.1524 294.017 35.6057 293.841C37.7128 293.609 42.7677 294.412 43.8915 294.377C44.6598 294.352 45.6057 294.067 46.5882 294.017C49.7558 293.853 51.4133 294.062 54.2673 293.288C55.4088 293.696 56.5504 294.104 57.692 294.512C59.1814 294.322 61.4387 294.86 62.3436 294.831C63.086 294.806 63.521 294.484 64.2947 294.469C65.1625 294.45 66.4952 294.798 68.0736 294.746C70.6613 294.662 71.1218 293.82 72.6744 293.713C74.2845 293.603 76.7884 294.06 78.8428 293.764C79.1004 293.671 79.3581 293.579 79.6157 293.486C79.4311 293.277 79.2466 293.067 79.0619 292.858C80.0967 292.761 80.5416 293.19 81.4925 293.197C82.6112 293.207 83.182 292.8 83.9348 292.802C84.5514 292.804 85.3876 293.13 86.1872 293.11C87.353 293.081 87.098 292.61 87.7254 292.522C87.9757 292.488 92.6033 292.228 92.8644 292.225C94.8499 292.206 95.0228 292.851 96.6061 292.907C100.997 293.061 105.505 292.54 109.567 292.343C111.381 292.255 113.273 292.292 115.082 292.395C112.233 294.045 118.537 295.329 116.18 292.748C118.192 293.115 119.618 292.418 121.526 292.536C122.76 292.613 123.614 292.971 125.375 292.961C128.501 292.942 131.921 291.925 132.82 293.764C136.489 293.44 139.667 294.107 140.99 292.483C141.936 292.384 144.361 293.351 145.422 293.482C146.426 293.606 154.127 294.043 155.387 294.067C156.647 294.092 158.853 294.118 159.914 293.976C161.247 293.799 162.178 292.116 164.552 294.084C167.311 293.925 168.294 293.981 170.861 294.21C171.326 294.251 171.378 294.544 171.65 294.544C172.209 294.544 173.16 294.328 174.158 294.302C175.8 294.258 176.737 294.873 176.554 293.934C177.636 293.777 178.718 293.619 179.8 293.462C180.18 293.643 180.56 293.824 180.939 294.006C181.518 293.808 182.096 293.61 182.675 293.413C181.995 294.772 186.068 293.97 184.745 293.19C186.843 293.471 188.941 293.752 191.039 294.034C190.746 295.578 195.645 294.212 195.233 293.372C195.473 293.373 195.713 293.374 195.953 293.376C198.055 293.786 199.984 293.45 202.546 293.726C205.107 294.002 204.867 294.152 205.646 294.862C206.249 294.822 206.851 294.781 207.454 294.74C210.617 292.793 210.058 296.165 215.474 294.671C217.204 295.895 221.469 295.252 224.298 294.881C224.627 294.838 224.632 294.6 225.071 294.527C226.142 294.351 228.876 294.656 228.783 293.89C229.729 294.111 230.676 294.333 231.622 294.555C232.396 294.415 233.17 294.276 233.943 294.137C233.939 293.897 233.936 293.658 233.932 293.419C235.49 294.234 237.937 293.921 239.145 294.116C239.385 294.156 239.437 294.486 240.184 294.576C241.057 294.682 242.684 294.585 243.724 294.688C244.129 294.322 244.533 293.957 244.938 293.591C246.798 293.393 247.452 294.358 248.544 294.433C248.741 294.446 252.329 294.376 252.523 294.356C254.106 294.193 253.657 293.37 258.235 293.547C259.05 293.578 259.71 293.863 260.446 293.874C261.748 293.895 265.67 293.25 265.979 292.654C267.558 293.4 271.782 293.095 273.026 293.31C273.401 293.377 273.486 293.852 274.64 293.953C275.576 294.036 277.986 293.655 279.173 293.719C279.211 293.721 279.249 293.723 279.286 293.726L282.439 293.787L282.38 296.819C282.294 297.993 281.918 298.432 281.89 298.98C281.864 299.513 282.186 300.004 282.184 300.731C282.173 302.999 281.654 305.054 281.645 306.847C281.645 306.874 281.645 306.901 281.645 306.929L281.598 309.332L279.286 309.287C276.727 309.292 274.462 310.231 272.316 310.65C271.777 310.588 271.248 310.383 270.684 310.381C263.7 310.351 255.821 310.176 248.816 309.971C245.565 309.877 237.478 308.582 239.636 310.743C238.506 311.122 230.289 310.251 228.726 310.237C227.164 310.224 225.925 310.612 224.697 310.618C220.991 310.635 218.381 310.355 213.869 310.693C212.704 310.781 211.455 311.24 210.765 311.235C209.934 311.227 209.04 310.783 207.963 310.755C205.396 310.691 200.613 310.837 198.151 310.761C197.701 310.746 197.543 310.356 196.9 310.234C194.396 309.758 191.59 309.799 192.086 311.044C188.877 310.337 185.908 310.982 182.934 311.021C176.645 311.102 165.189 310.811 159.71 311.334C156.256 311.664 156.344 312.223 151.258 311.741C150.129 311.634 149.005 311.49 147.636 311.362C144.426 311.062 141.482 310.031 139.035 311.274C135.47 310.952 132.631 311.18 129.986 310.117C129.674 310.372 129.362 310.627 129.051 310.882C128.614 310.888 128.177 310.895 127.74 310.901C127.603 310.658 127.467 310.415 127.331 310.172C124.2 310.106 120.227 311.105 117.577 311.098C113.134 311.087 101.689 310.699 97.4752 310.371C95.2382 310.196 95.1178 310.717 93.8372 309.647C93.3368 309.721 92.8365 309.796 92.3362 309.87C92.0231 310.104 91.7099 310.339 91.3968 310.573C88.5269 310.583 85.123 310.218 82.389 310.222C77.407 310.23 69.926 310.875 64.9231 310.451C63.6687 310.344 62.1006 309.861 60.8722 309.866C59.0843 309.874 58.6498 310.676 56.381 310.691C52.4707 310.715 45.1884 309.784 41.4925 309.855C40.3947 309.875 39.8825 310.174 39.1245 310.206C36.8824 310.302 34.9233 310.319 32.8938 310.482L29.2728 310.411L29.3407 306.929C29.2726 306.081 29.1789 305.221 29.043 304.324C29.8116 301.051 30.8038 301.334 31.8049 300.32C32.5604 299.551 34.3115 297.194 34.9732 296.86C35.4381 296.625 36.0362 297.502 36.5479 297.173C36.9566 301.094 36.5067 302.741 35.7868 305.925C35.7884 306.259 35.7901 306.594 35.7917 306.929L32.8938 304.031C38.4384 304.004 43.9831 303.977 49.5277 303.95C50.0626 304.229 50.5975 304.508 51.1324 304.788C51.1324 304.788 51.1324 304.789 51.1324 304.789C53.3903 305.112 54.3473 304.392 55.5649 304.229C67.2227 302.666 90.1676 303.889 103.002 304.066C105.767 304.103 114.764 303.727 116.661 304.18C117.152 304.298 117.289 304.729 117.812 304.748C122.482 304.492 127.152 304.236 131.822 303.98C141.425 304.649 151.353 304.096 161.029 303.993C187.209 303.714 213.128 303.374 238.879 303.477C243.856 303.498 250.171 303.175 255.044 303.383C257.077 303.469 257.924 304.161 260.595 303.646C260.623 303.832 260.652 304.018 260.68 304.205C263.011 303.98 264.501 303.556 267.114 303.513C269.315 303.477 275.138 303.449 277.083 303.521C278.092 303.556 277.716 303.904 278.656 303.903C278.843 303.902 279.055 303.895 279.286 303.883L276.241 306.929C276.149 305.166 275.773 302.251 275.773 300.287C275.773 299.328 275.864 298.056 275.953 296.819L279.286 300.152C277.927 300.054 276.611 299.959 275.801 299.989C270.228 300.196 264.158 300.79 258.219 300.631C256.579 300.586 254.469 300.134 253.955 300.147C252.952 300.173 252.653 300.612 251.979 300.668C248.555 300.953 243.217 300.432 239.861 300.411C228.925 300.344 217.339 300.535 206.45 300.455C199.571 300.404 188.138 300.481 181.787 300.151C180.417 300.08 180.782 299.599 179.632 299.599C178.357 299.6 177.666 299.924 177.07 299.95C172.945 300.134 163.839 300.462 159.945 300.13C159.203 300.067 158.665 299.69 158.221 299.692C157.996 299.692 157.488 299.949 156.783 299.975C150.551 300.207 146.008 300.057 139.902 299.969C128.208 299.802 114.658 300.28 102.373 300.022C99.6966 299.966 97.8611 299.221 97.4847 299.228C96.6588 299.243 96.1302 299.744 94.4573 299.868C88.8954 300.275 81.4049 299.74 76.1148 299.991C73.5012 300.115 69.9098 300.751 67.3378 300.892C65.2836 301.004 60.4322 300.755 59.5217 301.034C58.9678 301.202 58.7115 301.744 58.0481 301.812ZM127.252 293.379C126.886 294.245 130.732 293.526 129.289 293.061C128.964 292.956 127.347 293.154 127.252 293.379ZM261.337 308.865C261.372 309.112 261.408 309.36 261.443 309.607C261.948 309.504 262.453 309.401 262.957 309.298C262.674 309.149 262.39 309.001 262.106 308.852C261.85 308.856 261.593 308.86 261.337 308.865Z" fill="#397B41"/>
<path d="M51.2815 351.622V325.019H260.899V351.622H51.2815Z" fill="#397B41"/>
<path d="M74.4469 330.011C73.8839 330.071 73.0891 329.747 72.4248 329.73C69.6423 329.655 68.6112 329.43 66.0936 329.303C62.3607 329.113 51.2818 329.539 51.2815 327.287C51.2815 327.287 51.2815 327.287 51.2815 327.286C51.2815 327.264 51.2826 327.242 51.2847 327.219C51.3235 326.79 52.2659 326.322 52.4057 325.836C52.5453 325.351 52.4406 322.216 53.779 322.04C55.7196 321.808 60.3746 322.611 61.4096 322.576C62.1172 322.551 62.9883 322.266 63.8931 322.216C66.8103 322.053 68.3368 322.261 70.965 321.487C72.0163 321.895 73.0677 322.303 74.1189 322.711C75.4906 322.522 77.5695 323.06 78.4028 323.03C79.0865 323.006 79.4871 322.683 80.1996 322.668C80.9988 322.649 82.2261 322.998 83.6797 322.945C86.0628 322.861 86.4869 322.019 87.9168 321.912C89.3995 321.802 91.7054 322.259 93.5974 321.963C93.8347 321.87 94.072 321.778 94.3093 321.685C94.1393 321.476 93.9693 321.267 93.7993 321.057C94.7522 320.96 95.162 321.389 96.0376 321.397C97.0679 321.406 97.5935 320.999 98.2868 321.001C98.8547 321.003 99.6247 321.329 100.361 321.309C101.435 321.281 101.2 320.81 101.778 320.722C102.008 320.687 106.27 320.427 106.51 320.424C108.339 320.405 108.498 321.05 109.956 321.106C114 321.26 118.152 320.739 121.892 320.542C123.563 320.454 125.306 320.492 126.971 320.595C124.348 322.244 130.153 323.528 127.982 320.947C129.835 321.314 131.149 320.617 132.906 320.735C134.042 320.812 134.828 321.17 136.451 321.16C139.33 321.142 142.478 320.124 143.306 321.963C146.686 321.639 149.613 322.306 150.831 320.683C151.702 320.583 153.935 321.55 154.913 321.682C155.837 321.805 162.929 322.242 164.09 322.266C165.25 322.291 167.281 322.317 168.258 322.175C169.486 321.999 170.344 320.315 172.53 322.283C175.071 322.124 175.976 322.181 178.34 322.409C178.768 322.451 178.816 322.743 179.066 322.743C179.581 322.743 180.457 322.527 181.377 322.501C182.888 322.458 183.751 323.073 183.583 322.133C184.579 321.976 185.576 321.818 186.572 321.661C186.922 321.842 187.272 322.023 187.621 322.205C188.154 322.007 188.687 321.81 189.22 321.612C188.594 322.971 192.344 322.169 191.127 321.389C193.059 321.67 194.991 321.952 196.923 322.233C196.653 323.778 201.165 322.411 200.785 321.571C201.006 321.572 201.227 321.574 201.448 321.575C203.383 321.985 205.161 321.65 207.52 321.925C209.879 322.201 209.657 322.351 210.374 323.062C210.93 323.021 211.485 322.98 212.04 322.94C214.952 320.992 214.438 324.364 219.425 322.87C221.019 324.094 224.947 323.451 227.552 323.08C227.855 323.037 227.86 322.799 228.263 322.726C229.25 322.55 231.768 322.855 231.682 322.089C232.554 322.311 233.426 322.532 234.297 322.754C235.01 322.615 235.722 322.475 236.435 322.336C236.431 322.097 236.427 321.857 236.424 321.618C237.859 322.434 240.113 322.12 241.225 322.315C241.446 322.355 241.494 322.685 242.182 322.775C242.986 322.882 244.484 322.784 245.442 322.887C245.815 322.522 246.187 322.156 246.56 321.79C248.273 321.592 248.875 322.557 249.881 322.632C250.062 322.645 253.367 322.576 253.545 322.555C255.003 322.392 254.59 321.57 258.806 321.746C259.557 321.778 260.164 322.062 260.842 322.074C260.861 322.074 260.88 322.074 260.899 322.074L263.905 322.138L263.844 325.019C263.843 326.27 264.478 329.777 265.065 330.057C264.319 331.511 264.624 335.401 264.408 336.546C264.342 336.892 263.867 336.97 263.765 338.033C263.683 338.895 264.063 341.114 264 342.207C263.93 343.367 263.531 343.782 263.503 344.301C263.477 344.792 263.799 345.245 263.797 345.914C263.786 348.003 263.267 349.895 263.258 351.546C263.257 351.572 263.257 351.597 263.257 351.622L263.206 354.029L260.899 353.98C258.542 353.986 256.456 354.924 254.479 355.343C253.984 355.282 253.496 355.077 252.976 355.075C246.545 355.045 239.289 354.869 232.838 354.665C229.844 354.571 222.396 353.276 224.384 355.437C223.343 355.815 215.776 354.944 214.337 354.931C212.898 354.918 211.757 355.305 210.626 355.311C207.213 355.328 204.809 355.049 200.654 355.386C199.581 355.474 198.431 355.933 197.796 355.928C197.03 355.921 196.207 355.477 195.215 355.448C192.851 355.385 188.446 355.531 186.179 355.454C185.765 355.439 185.619 355.049 185.027 354.927C182.721 354.451 180.136 354.492 180.594 355.737C177.638 355.03 174.904 355.675 172.165 355.715C166.373 355.795 155.823 355.505 150.778 356.028C147.596 356.358 147.678 356.916 142.994 356.434C141.954 356.327 140.919 356.183 139.658 356.056C136.702 355.756 133.99 354.724 131.737 355.967C128.454 355.645 125.839 355.873 123.404 354.811C123.116 355.066 122.829 355.32 122.542 355.575C122.14 355.582 121.737 355.588 121.335 355.594C121.209 355.351 121.083 355.108 120.958 354.865C118.075 354.799 114.416 355.799 111.976 355.791C107.883 355.78 97.3435 355.392 93.4631 355.064C91.4031 354.89 91.2922 355.41 90.1128 354.34C89.652 354.414 89.1912 354.489 88.7305 354.563C88.4421 354.798 88.1538 355.032 87.8654 355.267C85.2224 355.276 82.0876 354.912 79.5698 354.916C74.9817 354.923 68.0922 355.568 63.4849 355.144C62.3296 355.038 60.8856 354.554 59.7543 354.56C58.1078 354.567 57.7076 355.369 55.6182 355.384C54.4329 355.392 52.9111 355.297 51.2815 355.167L47.6626 355.091L47.736 351.622C47.9996 348.301 48.4032 344.531 48.3554 342.247C48.3347 341.236 48.0363 340.765 48.0044 340.067C47.8676 337.14 47.8919 334.736 47.4307 331.93C48.1993 328.916 49.1915 329.176 50.1925 328.242C50.9481 327.534 52.6991 325.364 53.3609 325.056C53.8258 324.839 54.4239 325.648 54.9356 325.344C55.3443 328.955 54.8944 330.472 54.1745 333.404C54.2032 338.818 54.2319 344.233 54.2606 349.647C53.9812 350.14 53.7019 350.633 53.4225 351.125C53.4219 351.125 53.4213 351.125 53.4207 351.125C53.3938 351.299 53.3741 351.464 53.3608 351.622L51.2815 349.543C53.0129 349.689 53.8389 349.072 54.8666 348.923C65.6026 347.359 86.7334 348.583 98.5526 348.759C101.1 348.796 109.385 348.42 111.132 348.874C111.585 348.992 111.71 349.423 112.192 349.441C116.493 349.185 120.793 348.929 125.094 348.673C133.938 349.342 143.081 348.789 151.992 348.686C176.102 348.407 199.971 348.067 223.687 348.171C228.27 348.191 234.086 347.868 238.573 348.077C240.446 348.163 241.226 348.855 243.686 348.339C243.712 348.525 243.738 348.712 243.763 348.898C245.91 348.673 247.282 348.249 249.689 348.206C251.716 348.17 257.079 348.143 258.87 348.214C259.799 348.25 259.453 348.598 260.319 348.596C260.491 348.595 260.686 348.588 260.899 348.576L257.853 351.622C257.762 349.999 257.386 347.314 257.386 345.505C257.386 343.652 257.787 340.527 257.729 339.102C257.549 334.628 257.074 329.805 257.061 325.019L260.899 328.857C260.195 328.859 259.492 328.851 258.791 328.83C257.281 328.785 255.337 328.334 254.864 328.346C253.94 328.372 253.665 328.811 253.044 328.867C249.891 329.152 244.975 328.631 241.885 328.61C231.813 328.543 221.143 328.734 211.115 328.654C204.78 328.603 194.251 328.68 188.402 328.35C187.14 328.279 187.477 327.799 186.417 327.799C185.243 327.799 184.607 328.123 184.058 328.15C180.26 328.333 171.874 328.661 168.287 328.33C167.604 328.266 167.108 327.889 166.699 327.891C166.492 327.891 166.025 328.148 165.375 328.174C159.636 328.406 155.452 328.257 149.829 328.169C139.059 328.002 126.581 328.48 115.267 328.221C112.802 328.165 111.112 327.42 110.765 327.428C110.005 327.443 109.518 327.943 107.977 328.067C102.855 328.474 95.9569 327.939 91.0851 328.19C88.6782 328.314 85.3707 328.95 83.0021 329.091C81.1103 329.203 76.6425 328.954 75.804 329.233C75.2939 329.402 75.0579 329.943 74.4469 330.011ZM138.179 321.579C137.842 322.445 141.384 321.725 140.055 321.26C139.756 321.155 138.266 321.354 138.179 321.579ZM244.369 353.558C244.401 353.806 244.434 354.053 244.466 354.3C244.931 354.197 245.396 354.094 245.861 353.991C245.6 353.843 245.339 353.694 245.077 353.545C244.841 353.55 244.605 353.554 244.369 353.558Z" fill="#397B41"/>
<path d="M108.093 369.406L110.594 367.092H118.096L120.346 369.406V391.583L118.096 393.897H110.594L108.093 391.583V369.406Z" fill="#397B41"/>
<path d="M170.893 389.159L172.612 387.771H177.77L179.317 389.159V402.465L177.77 403.854H172.612L170.893 402.465V389.159Z" fill="#397B41"/>
<path d="M265.86 359.423L267.423 357.902H272.112L273.518 359.423V373.996L272.112 375.517H267.423L265.86 373.996V359.423Z" fill="#397B41"/>
<path d="M266.625 313.207L268.032 311.951H272.252L273.518 313.207V325.246L272.252 326.502H268.032L266.625 325.246V313.207Z" fill="#397B41"/>
<path d="M38.3999 314.871L39.8066 313.482H44.0266L45.2926 314.871V328.177L44.0266 329.565H39.8066L38.3999 328.177V314.871Z" fill="#397B41"/>
<path d="M56.7803 360.888L59.7499 359.434H68.6589L71.3316 360.888V374.828L68.6589 376.282H59.7499L56.7803 374.828V360.888Z" fill="#397B41"/>
<path d="M120.346 423.802L124.864 419.171H189.113L194.635 423.802L189.113 429.127H124.864L120.346 423.802Z" fill="#FFF9EC" stroke="#FFF9EC" stroke-width="10"/>
<path d="M62.7288 122.504C62.1122 122.564 61.2418 122.24 60.5144 122.223C57.4672 122.148 56.338 121.923 53.5809 121.796C49.4929 121.606 37.3602 122.033 37.3599 119.78C37.3599 119.78 37.3599 119.78 37.3599 119.78C37.3598 119.758 37.3611 119.735 37.3634 119.713C37.4059 119.283 38.4379 118.815 38.591 118.33C38.7439 117.844 38.6292 114.709 40.0949 114.533C42.2201 114.301 47.3179 115.105 48.4514 115.069C49.2263 115.044 50.1802 114.76 51.1711 114.709C54.3658 114.546 56.0374 114.754 58.9157 113.98C60.067 114.388 61.2183 114.796 62.3696 115.204C63.8718 115.015 66.1484 115.553 67.061 115.523C67.8096 115.499 68.2484 115.176 69.0287 115.161C69.9039 115.143 71.248 115.491 72.8399 115.438C75.4496 115.354 75.914 114.512 77.4799 114.406C79.1037 114.295 81.629 114.752 83.7009 114.456C83.9608 114.364 84.2206 114.271 84.4805 114.179C84.2943 113.969 84.1081 113.76 83.9219 113.55C84.9655 113.453 85.4143 113.882 86.3732 113.89C87.5015 113.899 88.0771 113.492 88.8364 113.494C89.4583 113.496 90.3016 113.822 91.108 113.802C92.2837 113.774 92.0267 113.303 92.6593 113.215C92.9118 113.181 97.5789 112.921 97.8421 112.917C99.8446 112.898 100.019 113.543 101.616 113.599C106.045 113.753 110.591 113.232 114.687 113.035C116.517 112.947 118.425 112.985 120.249 113.088C117.376 114.737 123.734 116.021 121.356 113.44C123.386 113.807 124.825 113.11 126.748 113.228C127.993 113.305 128.854 113.663 130.631 113.654C133.783 113.635 137.232 112.617 138.138 114.456C141.839 114.132 145.044 114.799 146.378 113.176C147.333 113.077 149.778 114.043 150.849 114.175C151.861 114.299 159.628 114.735 160.898 114.76C162.169 114.784 164.393 114.81 165.464 114.668C166.808 114.492 167.748 112.808 170.141 114.777C172.924 114.617 173.916 114.674 176.504 114.902C176.973 114.944 177.026 115.236 177.3 115.236C177.864 115.236 178.823 115.02 179.83 114.994C181.485 114.951 182.43 115.566 182.246 114.627C183.337 114.469 184.428 114.312 185.52 114.154C185.903 114.335 186.286 114.517 186.669 114.698C187.252 114.5 187.836 114.303 188.419 114.105C187.734 115.464 191.841 114.662 190.507 113.882C192.623 114.164 194.739 114.445 196.855 114.726C196.559 116.271 201.5 114.904 201.084 114.064C201.326 114.066 201.568 114.067 201.81 114.068C203.93 114.479 205.876 114.143 208.46 114.418C211.043 114.694 210.8 114.844 211.586 115.555C212.194 115.514 212.802 115.473 213.41 115.433C216.599 113.485 216.036 116.857 221.498 115.363C223.243 116.587 227.545 115.944 230.397 115.573C230.729 115.53 230.734 115.292 231.176 115.219C232.257 115.043 235.015 115.348 234.92 114.582C235.875 114.804 236.83 115.025 237.784 115.247C238.564 115.108 239.345 114.969 240.125 114.829C240.121 114.59 240.117 114.351 240.113 114.111C241.684 114.927 244.153 114.613 245.371 114.808C245.613 114.848 245.666 115.178 246.419 115.268C247.299 115.375 248.94 115.277 249.989 115.38C250.397 115.015 250.805 114.649 251.213 114.283C253.089 114.085 253.749 115.05 254.85 115.125C255.049 115.138 258.668 115.069 258.863 115.048C260.459 114.885 260.007 114.063 264.624 114.239C265.446 114.271 266.111 114.555 266.854 114.567C268.167 114.587 272.123 113.942 272.434 113.346C273.851 114.01 277.38 113.842 279.024 113.948L282.655 114.018L282.588 117.512C282.574 117.715 282.557 117.89 282.533 118.028C282.467 118.407 281.992 118.493 281.891 119.657C281.808 120.6 282.189 123.031 282.125 124.228C282.056 125.498 281.656 125.952 281.628 126.521C281.602 127.059 281.924 127.555 281.922 128.287C281.911 130.575 281.392 132.647 281.383 134.455C281.383 134.483 281.383 134.51 281.383 134.538L281.336 136.941L279.024 136.896C276.443 136.902 274.159 137.84 271.994 138.259C271.451 138.197 270.917 137.993 270.348 137.991C263.304 137.961 255.359 137.785 248.294 137.581C245.015 137.487 236.859 136.192 239.036 138.353C237.896 138.731 229.609 137.86 228.033 137.847C226.457 137.834 225.208 138.221 223.969 138.227C220.231 138.244 217.599 137.965 213.049 138.302C211.874 138.39 210.615 138.849 209.919 138.844C209.08 138.837 208.178 138.393 207.092 138.364C204.504 138.301 199.68 138.447 197.196 138.37C196.743 138.355 196.584 137.965 195.935 137.843C193.41 137.367 190.579 137.408 191.08 138.653C187.843 137.946 184.849 138.591 181.849 138.63C175.507 138.711 163.953 138.42 158.428 138.944C154.944 139.274 155.033 139.832 149.904 139.35C148.765 139.243 147.631 139.099 146.25 138.972C143.013 138.672 140.044 137.64 137.576 138.883C133.981 138.561 131.118 138.789 128.45 137.726C128.136 137.981 127.821 138.236 127.507 138.491C127.066 138.498 126.625 138.504 126.184 138.51C126.047 138.267 125.909 138.024 125.772 137.781C122.614 137.715 118.608 138.715 115.935 138.707C111.454 138.696 99.9111 138.308 95.6616 137.98C93.4056 137.806 93.2842 138.326 91.9926 137.256C91.488 137.33 90.9834 137.405 90.4788 137.479C90.163 137.714 89.8473 137.948 89.5315 138.182C86.6371 138.192 83.2041 137.828 80.4467 137.831C75.4223 137.839 67.8774 138.484 62.8318 138.06C61.5667 137.954 59.9853 137.47 58.7464 137.476C56.9433 137.483 56.505 138.285 54.2168 138.3C50.2732 138.325 42.9288 137.393 39.2013 137.464C38.3745 137.479 37.8771 137.65 37.3599 137.748L34.0886 137.685L34.1495 134.538C34.116 134.363 34.0909 134.185 34.0828 133.991C33.9459 130.786 33.9703 128.154 33.5091 125.08C34.2777 121.78 35.2698 122.065 36.2709 121.042C37.0265 120.267 38.7775 117.89 39.4393 117.553C39.9042 117.316 40.5022 118.201 41.014 117.868C41.4226 121.823 40.9727 123.484 40.2529 126.695C40.2655 129.309 40.2782 131.923 40.2908 134.538L37.3599 131.607C40.6749 131.591 43.99 131.575 47.3051 131.559C47.8446 131.838 48.384 132.118 48.9235 132.397C48.9235 132.398 48.9235 132.398 48.9235 132.399C51.2006 132.721 52.1657 132.002 53.3938 131.838C65.151 130.275 88.2918 131.499 101.235 131.675C104.024 131.712 113.098 131.336 115.011 131.79C115.507 131.908 115.645 132.338 116.172 132.357C120.882 132.101 125.591 131.845 130.301 131.589C139.986 132.258 149.999 131.705 159.758 131.602C186.161 131.323 212.301 130.983 238.272 131.086C243.291 131.107 249.661 130.784 254.575 130.992C256.625 131.079 257.48 131.77 260.174 131.255C260.202 131.441 260.23 131.628 260.259 131.814C262.61 131.589 264.112 131.165 266.748 131.122C268.968 131.086 274.84 131.059 276.802 131.13C277.819 131.165 277.44 131.514 278.389 131.512C278.577 131.511 278.791 131.504 279.024 131.492L275.978 134.538C275.887 132.76 275.511 129.82 275.511 127.839C275.511 125.81 275.912 122.388 275.854 120.827C275.814 119.739 275.76 118.633 275.699 117.512L279.024 120.837C274.354 121.09 269.438 121.452 264.608 121.323C262.954 121.278 260.826 120.827 260.308 120.839C259.296 120.866 258.994 121.304 258.314 121.361C254.861 121.645 249.478 121.124 246.093 121.104C235.064 121.036 223.379 121.228 212.397 121.147C205.459 121.096 193.929 121.173 187.523 120.844C186.142 120.772 186.51 120.292 185.35 120.292C184.064 120.292 183.368 120.617 182.767 120.643C178.606 120.826 169.423 121.155 165.495 120.823C164.747 120.759 164.204 120.383 163.756 120.384C163.53 120.384 163.017 120.641 162.306 120.667C156.021 120.9 151.439 120.75 145.281 120.662C133.487 120.495 119.822 120.973 107.432 120.714C104.733 120.658 102.882 119.913 102.502 119.921C101.669 119.936 101.136 120.437 99.4487 120.56C93.8394 120.967 86.2849 120.433 80.9496 120.684C78.3138 120.807 74.6917 121.443 72.0978 121.584C70.026 121.696 65.1332 121.447 64.215 121.726C63.6563 121.895 63.3978 122.437 62.7288 122.504ZM132.523 114.072C132.154 114.938 136.033 114.218 134.578 113.753C134.25 113.648 132.619 113.847 132.523 114.072ZM260.922 136.474C260.957 136.721 260.993 136.969 261.028 137.216C261.538 137.113 262.047 137.01 262.556 136.907C262.27 136.759 261.984 136.61 261.697 136.461C261.439 136.466 261.18 136.47 260.922 136.474Z" fill="#397B41"/>
<path d="M109.596 124.775L115.187 111.659H194.701L201.534 124.775L194.701 139.858H115.187L109.596 124.775Z" fill="#FFF9EC" stroke="#397B41" stroke-width="10"/>
<path d="M119.862 157.78C126.876 157.78 132.956 158.576 138.092 160.181H138.091C143.282 161.783 147.417 164.069 150.469 167.054L151.04 167.616C153.843 170.446 155.915 173.649 157.25 177.225L157.52 177.945C158.824 181.572 159.473 185.613 159.473 190.063C159.473 197.194 157.559 202.776 153.667 206.734C150.471 209.983 145.988 212.089 140.26 213.092C146.685 214.255 151.943 217.022 156.007 221.41L156.456 221.903C161.027 227.073 163.279 234.342 163.279 243.638C163.279 252.189 159.446 259.37 151.854 265.161C144.249 270.961 133.564 273.828 119.862 273.828C109.362 273.828 99.6258 270.977 90.665 265.281L90.4336 265.133V248.247L91.2354 248.854C95.589 252.15 100.495 253.796 105.969 253.796C109.863 253.796 113.101 253.356 115.697 252.493C118.303 251.562 120.176 250.308 121.369 248.757C122.606 247.149 123.428 245.558 123.852 243.984L123.854 243.975L123.856 243.967C124.346 242.376 124.596 240.523 124.596 238.404C124.596 233.018 123.004 229.062 119.896 226.439C116.772 223.803 112.032 222.442 105.588 222.442H102.614V208.405H104.352C111.299 208.405 116.392 207.391 119.702 205.429C122.914 203.463 124.596 199.709 124.596 193.964C124.596 188.359 122.888 184.378 119.563 181.9L119.559 181.896C116.181 179.316 111.667 178.002 105.969 178.002C100.495 178.002 95.589 179.648 91.2354 182.944L90.4336 183.551V166.666L90.6641 166.518C99.7495 160.696 109.485 157.78 119.862 157.78ZM218.714 159.493V271.924H185.835V197.757L169.166 199.6L168.611 199.662V178.401L169.04 178.339C172.581 177.833 175.543 177.266 177.929 176.638C180.3 176.014 182.806 175.044 185.445 173.724C188.045 172.424 190.273 170.63 192.132 168.337C193.992 166.043 195.522 163.209 196.712 159.827L196.829 159.493H218.714Z" fill="#397B41" stroke="#397B41"/>
<path d="M37.1618 164.538C36.4493 164.538 35.8051 164.446 35.2293 164.26C34.6534 164.065 34.263 163.87 34.0581 163.674L34.0142 160.644C34.3362 160.82 34.5949 160.937 34.7901 160.995C34.9853 161.054 35.239 161.083 35.5514 161.083C36.0784 161.083 36.4932 160.927 36.7958 160.615C37.1081 160.302 37.2642 159.775 37.2642 159.034V148.39L36.5615 147.102H42.0222V158.755C42.0222 159.439 41.9832 160.049 41.9051 160.585C41.8368 161.112 41.6953 161.635 41.4805 162.152C41.2658 162.659 40.9828 163.084 40.6314 163.426C40.2801 163.757 39.8116 164.026 39.226 164.231C38.6404 164.436 37.9523 164.538 37.1618 164.538Z" fill="#397B41"/>
<path d="M54.4385 164.26L53.7797 161.522H49.622L49.0656 164.26H44.7615L49.2267 148.288L48.8753 147.102H54.9216L59.8114 164.26H54.4385ZM51.5105 152.138L50.2222 158.536H53.0623L51.5105 152.138Z" fill="#397B41"/>
<path d="M67.2403 164.26H62.5848V148.478L61.8675 147.102H67.255L69.9487 152.665L72.5254 158.214L71.808 151.699V147.102H76.4782V164.26H72.013L68.5287 157.482L66.3766 153.236L67.2403 158.858V164.26Z" fill="#397B41"/>
<ellipse cx="155.565" cy="14.5561" rx="6.56697" ry="6.65087" fill="#D3DBE0"/>
</g>
<defs>
<filter id="filter0_d_1031_81" x="0" y="0" width="316.387" height="481.186" filterUnits="userSpaceOnUse" color-interpolation-filters="sRGB">
<feFlood flood-opacity="0" result="BackgroundImageFix"/>
<feColorMatrix in="SourceAlpha" type="matrix" values="0 0 0 0 0 0 0 0 0 0 0 0 0 0 0 0 0 0 127 0" result="hardAlpha"/>
<feOffset dx="3" dy="3"/>
<feGaussianBlur stdDeviation="5"/>
<feComposite in2="hardAlpha" operator="out"/>
<feColorMatrix type="matrix" values="0 0 0 0 0 0 0 0 0 0 0 0 0 0 0 0 0 0 0.25 0"/>
<feBlend mode="normal" in2="BackgroundImageFix" result="effect1_dropShadow_1031_81"/>
<feBlend mode="normal" in="SourceGraphic" in2="effect1_dropShadow_1031_81" result="shape"/>
</filter>
</defs>
</svg>
