<svg width="608" height="609" viewBox="0 0 608 609" fill="none" xmlns="http://www.w3.org/2000/svg">
<path d="M535.533 250.034L329.077 285.562C299.344 344.734 317.285 403.502 331.034 424.394L438.153 429.833L545.272 435.272C529.663 405.574 505.862 326.949 535.533 250.034Z" fill="#E64A4B"/>
<path opacity="0.5" d="M535.763 417.654L545.396 434.251L539.378 434.64C534.109 427.916 531.858 422.174 531.391 420.144C521.133 417.274 507.667 412.805 502.297 395.089C497.177 378.2 509.633 352.23 514.585 347.052C510.308 312.006 521.439 268.607 528.571 251.663L536.539 250.265C521.005 271.755 520.856 324.571 522.723 348.293C513.513 359.043 505.367 382.881 509.75 394.608C514.133 406.334 525.858 415.055 535.763 417.654Z" fill="#543A1B"/>
<path d="M568.911 442.592C586.648 436.502 588.837 374.194 589.219 343.704C589.744 301.725 576.957 220.868 548.576 236.829C543.37 239.757 539.068 244.33 535.533 250.034C519.794 275.425 519.222 323.226 521.512 348.075C514.453 355.743 506.831 370.353 505.778 385.256C504.726 400.16 521.935 414.424 534.05 417.468C538.28 428.381 551.174 448.683 568.911 442.592Z" fill="#EA574B"/>
<path d="M545.964 255.838C558.705 228.524 569.126 260.965 572.744 280.6L553.123 301.32L541.261 401.404C537.52 364.263 533.223 283.152 545.964 255.838Z" fill="#F0C761"/>
<path d="M515.838 262.862L510.888 278.932L484.167 282.36L487.017 268.554L515.838 262.862Z" fill="#DCAC36"/>
<path d="M509.172 287.131L507.147 297.052L481.617 300.829L482.771 291.177L509.172 287.131Z" fill="#DCAC36"/>
<path d="M470.924 333.871C478.151 328.592 473.479 324.606 470.24 323.273L333.64 332.093C325.097 336.531 330.536 341.007 334.324 342.69L470.924 333.871Z" fill="#F9C789"/>
<path d="M429.286 336.559C424.258 331.731 426.735 327.482 428.602 325.961L332.307 332.179C325.321 335.99 329.853 340.832 332.992 342.776L429.286 336.559Z" fill="#543A1B"/>
<path d="M476.601 373.093C483.828 367.814 479.156 363.828 475.917 362.495L339.317 371.315C330.774 375.753 336.213 380.229 340.001 381.913L476.601 373.093Z" fill="#F9C789"/>
<path d="M434.963 375.781C429.935 370.953 432.412 366.704 434.279 365.184L337.984 371.401C330.998 375.212 335.53 380.054 338.669 381.999L434.963 375.781Z" fill="#543A1B"/>
<path d="M483.696 411.652C491.353 407.13 487.04 402.694 483.927 401.041L347.031 396.044C338.135 399.597 343.171 404.598 346.801 406.654L483.696 411.652Z" fill="#F9C789"/>
<path d="M441.969 410.129C437.373 404.819 440.207 400.843 442.199 399.518L345.696 395.995C338.405 399.082 342.505 404.355 345.466 406.606L441.969 410.129Z" fill="#543A1B"/>
<path d="M469.289 388.483C477.498 385.356 473.753 380.224 470.854 378.049L334.89 349.217C325.566 351.172 329.961 356.987 333.324 359.651L469.289 388.483Z" fill="#F9C789"/>
<path d="M422.427 378.546C418.765 372.557 421.945 369.095 423.993 368.112L333.373 348.896C326.1 350.753 329.299 356.625 331.807 359.329L422.427 378.546Z" fill="#543A1B"/>
<path d="M467.69 353.92C475.87 350.617 472.171 345.574 469.299 343.465L334.222 317.647C324.94 319.804 329.281 325.515 332.612 328.102L467.69 353.92Z" fill="#F9C789"/>
<path d="M426.516 346.05C422.651 340.1 425.979 336.601 428.126 335.596L332.905 317.396C325.275 319.336 328.653 325.173 331.295 327.85L426.516 346.05Z" fill="#543A1B"/>
<path d="M73.096 175.913L107.226 388.004C168.517 419.202 230.061 401.519 252.045 387.676L259.233 277.921L266.422 168.167C235.229 183.811 152.892 207.261 73.096 175.913Z" fill="#E64A4B"/>
<path opacity="0.5" d="M247.913 177.703L265.359 168.028L265.68 174.203C258.592 179.523 252.572 181.761 250.448 182.215C247.31 192.697 242.458 206.449 223.906 211.74C206.22 216.785 179.312 203.701 173.982 198.562C137.371 202.523 92.2664 190.586 74.696 183.07L73.3513 174.884C95.5435 191.07 150.624 191.861 175.391 190.233C186.472 199.806 211.218 208.445 223.51 204.094C235.802 199.742 245.063 187.826 247.913 177.703Z" fill="#543A1B"/>
<path d="M274.391 144.02C268.291 125.762 203.339 122.766 171.546 122.006C127.773 120.959 43.2649 133.092 59.5094 162.381C62.4893 167.754 67.1977 172.219 73.0964 175.913C99.3543 192.356 149.199 193.52 175.147 191.472C183.043 198.802 198.173 206.793 213.701 208.052C229.229 209.311 244.349 191.841 247.696 179.457C259.136 175.252 280.492 162.279 274.391 144.02Z" fill="#EA574B"/>
<path d="M79.2966 165.289C50.9905 151.897 84.972 141.605 105.501 138.133L126.832 158.499L231.043 171.87C192.255 175.257 107.603 178.681 79.2966 165.289Z" fill="#F0C761"/>
<path d="M86.196 196.259L102.885 201.528L106.082 228.965L91.7242 225.876L86.196 196.259Z" fill="#DCAC36"/>
<path d="M111.412 203.386L121.73 205.583L125.308 231.802L115.257 230.502L111.412 203.386Z" fill="#DCAC36"/>
<path d="M159.617 243.164C154.214 235.691 149.991 240.433 148.555 243.738L155.819 383.889C160.326 392.701 165.072 387.178 166.881 383.316L159.617 243.164Z" fill="#F9C789"/>
<path d="M161.831 285.884C156.724 290.981 152.328 288.39 150.769 286.458L155.889 385.255C159.766 392.464 164.879 387.877 166.952 384.682L161.831 285.884Z" fill="#543A1B"/>
<path d="M200.602 237.818C195.199 230.345 190.976 235.087 189.54 238.392L196.804 378.543C201.312 387.355 206.057 381.832 207.866 377.969L200.602 237.818Z" fill="#F9C789"/>
<path d="M202.816 280.538C197.71 285.635 193.314 283.044 191.754 281.111L196.875 379.909C200.751 387.118 205.865 382.531 207.937 379.336L202.816 280.538Z" fill="#543A1B"/>
<path d="M240.917 231.01C236.309 223.105 231.622 227.474 229.854 230.646L222.704 370.933C226.284 380.096 231.571 374.994 233.767 371.297L240.917 231.01Z" fill="#F9C789"/>
<path d="M238.738 273.772C233.135 278.419 229.028 275.465 227.675 273.407L222.635 372.301C225.751 379.813 231.308 375.674 233.697 372.666L238.738 273.772Z" fill="#543A1B"/>
<path d="M216.549 245.501C213.404 237.047 207.999 240.824 205.69 243.769L173.695 382.814C175.602 392.396 181.729 387.961 184.554 384.545L216.549 245.501Z" fill="#F9C789"/>
<path d="M205.522 293.424C199.224 297.106 195.659 293.804 194.663 291.692L173.339 384.365C175.173 391.843 181.343 388.635 184.198 386.096L205.522 293.424Z" fill="#543A1B"/>
<path d="M180.479 246.722C177.151 238.296 171.839 242.027 169.599 244.946L140.761 383.117C142.878 392.659 148.897 388.277 151.641 384.893L180.479 246.722Z" fill="#F9C789"/>
<path d="M171.689 288.839C165.429 292.73 161.827 289.276 160.809 287.062L140.48 384.465C142.395 392.311 148.531 388.919 151.36 386.241L171.689 288.839Z" fill="#543A1B"/>
<g filter="url(#filter0_f_1327_301)">
<ellipse cx="304" cy="304.5" rx="154" ry="154.5" fill="#323537" fill-opacity="0.2"/>
</g>
<path d="M15.5561 204.448L38.6622 418.022C98.2564 452.351 160.633 437.877 183.304 425.19L196.164 315.955L209.024 206.72C177.063 220.728 93.6227 239.885 15.5561 204.448Z" fill="#E64A4B"/>
<path opacity="0.5" d="M190.046 215.286L207.97 206.526V212.709C200.616 217.656 194.489 219.579 192.344 219.923C188.667 230.228 183.111 243.711 164.309 248.034C146.386 252.156 120.191 237.697 115.134 232.289C78.3674 234.35 33.941 220.095 16.7833 211.679L15.8641 203.435C37.1887 220.747 92.1549 224.388 116.972 224.045C127.543 234.178 151.809 244.087 164.309 240.377C176.81 236.667 186.676 225.247 190.046 215.286Z" fill="#543A1B"/>
<path d="M218.232 183.018C213.085 164.469 148.376 158.114 116.665 155.71C73.0042 152.399 -12.0186 160.141 2.68805 190.232C5.38579 195.752 9.85678 200.454 15.5564 204.449C40.928 222.229 90.6453 225.971 116.665 225.27C124.171 232.999 138.867 241.762 154.309 243.823C169.751 245.884 185.755 229.22 189.738 217.025C201.381 213.419 223.38 201.568 218.232 183.018Z" fill="#EA574B"/>
<path d="M22.2982 194.159C-5.27676 179.32 29.192 170.801 49.8732 168.396L70.1217 189.84L173.501 208.587C134.59 209.961 49.8732 208.999 22.2982 194.159Z" fill="#F0C761"/>
<path d="M27.5852 225.446L43.9795 231.572L45.7519 259.137L31.573 255.309L27.5852 225.446Z" fill="#DCAC36"/>
<path d="M52.3982 233.868L62.5892 236.596L64.8047 262.965L54.8352 261.147L52.3982 233.868Z" fill="#DCAC36"/>
<path d="M98.4798 276.089C93.471 268.346 89.008 272.863 87.4026 276.089V416.428C91.4482 425.461 96.4731 420.192 98.4798 416.428V276.089Z" fill="#F9C789"/>
<path d="M98.4796 318.866C93.1159 323.692 88.8599 320.877 87.4023 318.866V417.796C90.9004 425.196 96.2447 420.88 98.4796 417.796V318.866Z" fill="#543A1B"/>
<path d="M139.687 272.871C134.678 265.128 130.215 269.645 128.61 272.871V413.21C132.655 422.244 137.68 416.974 139.687 413.21V272.871Z" fill="#F9C789"/>
<path d="M139.687 315.648C134.323 320.474 130.067 317.659 128.61 315.648V414.579C132.108 421.979 137.452 417.662 139.687 414.579V315.648Z" fill="#543A1B"/>
<path d="M180.3 268.159C176.108 260.026 171.2 264.146 169.271 267.222L154.869 406.952C157.97 416.288 163.514 411.466 165.898 407.888L180.3 268.159Z" fill="#F9C789"/>
<path d="M175.91 310.75C170.075 315.101 166.126 311.939 164.881 309.813L154.729 408.314C157.452 415.977 163.216 412.131 165.758 409.25L175.91 310.75Z" fill="#543A1B"/>
<path d="M155.215 281.369C152.512 272.763 146.919 276.256 144.46 279.078L105.311 416.279C106.719 425.948 113.068 421.835 116.066 418.571L155.215 281.369Z" fill="#F9C789"/>
<path d="M141.723 328.657C135.242 332.008 131.852 328.526 130.968 326.366L104.875 417.81C106.32 425.373 112.647 422.489 115.63 420.101L141.723 328.657Z" fill="#543A1B"/>
<path d="M119.13 280.721C116.242 272.134 110.745 275.585 108.357 278.384L72.405 414.877C74.0256 424.516 80.2627 420.452 83.1787 417.214L119.13 280.721Z" fill="#F9C789"/>
<path d="M108.172 322.326C101.719 325.888 98.3004 322.252 97.3979 319.989L72.0542 416.208C73.5608 424.143 79.8644 421.073 82.8279 418.546L108.172 322.326Z" fill="#543A1B"/>
<path d="M226.556 209.448L249.662 423.022C309.256 457.351 371.633 442.877 394.304 430.19L407.164 320.955L420.024 211.72C388.063 225.728 304.623 244.885 226.556 209.448Z" fill="#E64A4B"/>
<path opacity="0.5" d="M401.046 220.286L418.97 211.526V217.709C411.617 222.656 405.489 224.579 403.344 224.923C399.667 235.228 394.111 248.711 375.31 253.034C357.386 257.156 331.191 242.697 326.134 237.289C289.368 239.35 244.941 225.095 227.784 216.679L226.864 208.435C248.189 225.747 303.155 229.388 327.973 229.045C338.543 239.178 362.809 249.087 375.31 245.377C387.81 241.667 397.676 230.247 401.046 220.286Z" fill="#543A1B"/>
<path d="M429.232 188.018C424.085 169.469 359.376 163.114 327.665 160.71C284.004 157.399 198.981 165.141 213.688 195.232C216.386 200.752 220.857 205.454 226.556 209.449C251.928 227.229 301.645 230.971 327.665 230.27C335.171 237.999 349.867 246.762 365.309 248.823C380.751 250.884 396.755 234.22 400.738 222.025C412.381 218.419 434.38 206.568 429.232 188.018Z" fill="#EA574B"/>
<path d="M233.298 199.159C205.723 184.32 240.192 175.801 260.873 173.396L281.122 194.84L384.501 213.587C345.59 214.961 260.873 213.999 233.298 199.159Z" fill="#F0C761"/>
<path d="M238.585 230.446L254.98 236.572L256.752 264.137L242.573 260.309L238.585 230.446Z" fill="#DCAC36"/>
<path d="M263.398 238.868L273.589 241.596L275.805 267.965L265.835 266.147L263.398 238.868Z" fill="#DCAC36"/>
<path d="M309.48 281.089C304.471 273.346 300.008 277.863 298.403 281.089V421.428C302.448 430.461 307.473 425.192 309.48 421.428V281.089Z" fill="#F9C789"/>
<path d="M309.48 323.866C304.116 328.692 299.86 325.877 298.402 323.866V422.796C301.9 430.196 307.245 425.88 309.48 422.796V323.866Z" fill="#543A1B"/>
<path d="M350.687 277.871C345.678 270.128 341.215 274.645 339.61 277.871V418.21C343.655 427.244 348.68 421.974 350.687 418.21V277.871Z" fill="#F9C789"/>
<path d="M350.687 320.648C345.323 325.474 341.067 322.659 339.61 320.648V419.579C343.108 426.979 348.452 422.662 350.687 419.579V320.648Z" fill="#543A1B"/>
<path d="M391.3 273.159C387.108 265.026 382.2 269.146 380.271 272.222L365.869 411.952C368.97 421.288 374.514 416.466 376.898 412.888L391.3 273.159Z" fill="#F9C789"/>
<path d="M386.91 315.75C381.075 320.101 377.126 316.939 375.881 314.813L365.729 413.314C368.452 420.977 374.216 417.131 376.758 414.25L386.91 315.75Z" fill="#543A1B"/>
<path d="M366.215 286.369C363.512 277.763 357.919 281.256 355.46 284.078L316.311 421.279C317.719 430.948 324.068 426.835 327.066 423.571L366.215 286.369Z" fill="#F9C789"/>
<path d="M352.723 333.657C346.242 337.008 342.852 333.526 341.968 331.366L315.875 422.81C317.32 430.373 323.647 427.489 326.63 425.101L352.723 333.657Z" fill="#543A1B"/>
<path d="M330.13 285.721C327.242 277.134 321.745 280.585 319.357 283.384L283.405 419.877C285.026 429.516 291.263 425.452 294.179 422.214L330.13 285.721Z" fill="#F9C789"/>
<path d="M319.172 327.326C312.719 330.888 309.3 327.252 308.398 324.989L283.054 421.208C284.561 429.143 290.864 426.073 293.828 423.546L319.172 327.326Z" fill="#543A1B"/>
<defs>
<filter id="filter0_f_1327_301" x="0" y="0" width="608" height="609" filterUnits="userSpaceOnUse" color-interpolation-filters="sRGB">
<feFlood flood-opacity="0" result="BackgroundImageFix"/>
<feBlend mode="normal" in="SourceGraphic" in2="BackgroundImageFix" result="shape"/>
<feGaussianBlur stdDeviation="75" result="effect1_foregroundBlur_1327_301"/>
</filter>
</defs>
</svg>
