<svg width="995" height="666" viewBox="0 0 995 666" fill="none" xmlns="http://www.w3.org/2000/svg">
<path d="M505.521 232.358L476.671 452.878C415.344 487.171 356.226 465.552 332.895 452.878L319.661 343.753L306.427 234.627C339.318 248.621 425.184 267.759 505.521 232.358Z" fill="#FFE8D7" stroke="#C8A375"/>
<path d="M503.786 250.905C424.709 289.613 340.934 267.033 308.931 250.905V262.744C399.359 300.217 474.305 278.358 500.475 262.744L503.786 250.905Z" fill="#2B8F94" stroke="#2B8F94"/>
<path d="M477.3 441.874C471.625 446.506 389.805 471.214 331.159 437.756L332.105 444.962C387.44 468.64 426.222 465.037 477.3 448.051V441.874Z" fill="#2B8F94" stroke="#2B8F94"/>
<path d="M411.088 295.687L418.756 295.172L417.856 321.618H411.561L411.088 295.687Z" fill="#FFA172"/>
<path d="M429.487 294.263L436.232 293.113L435.332 318.984L428.587 319.559L429.487 294.263Z" fill="#FFA172"/>
<path d="M444.124 292.204L450.87 291.054L449.521 316.925L442.775 318.075L444.124 292.204Z" fill="#FFA172"/>
<path d="M459.228 288.26L465.523 286.536L463.738 312.406L457.442 314.706L459.228 288.26Z" fill="#FFA172"/>
<path d="M474.517 284.236L480.363 281.361L478.564 308.382L472.719 310.682L474.517 284.236Z" fill="#FFA172"/>
<path d="M487.139 279.062L492.985 275.612L490.737 302.058L485.341 304.358L487.139 279.062Z" fill="#FFA172"/>
<path d="M401.156 295.687H393.589L394.467 320.588H400.618L401.156 295.687Z" fill="#FFA172"/>
<path d="M383.153 294.263L376.563 293.113L377.441 318.984L384.031 319.559L383.153 294.263Z" fill="#FFA172"/>
<path d="M368.019 292.204L361.428 291.054L362.746 316.925L369.337 318.075L368.019 292.204Z" fill="#FFA172"/>
<path d="M352.693 288.26L346.542 286.536L348.287 312.406L354.438 314.706L352.693 288.26Z" fill="#FFA172"/>
<path d="M337.755 284.236L332.043 281.361L333.801 308.382L339.512 310.682L337.755 284.236Z" fill="#FFA172"/>
<path d="M324.575 279.062L318.863 275.612L321.06 302.058L326.332 304.358L324.575 279.062Z" fill="#FFA172"/>
<path d="M401.125 325.027H394.535V330.69H401.125L401.125 325.027Z" fill="#FFA172"/>
<path d="M383.657 324.513L377.509 323.483V329.146L383.657 330.175V324.513Z" fill="#FFA172"/>
<path d="M369.469 321.939L363.32 320.696V326.057L369.469 327.601V321.939Z" fill="#FFA172"/>
<path d="M354.584 319.144L348.658 317.306V322.968L354.585 324.513L354.584 319.144Z" fill="#FFA172"/>
<path d="M339.709 313.583L333.997 311.644V317.821L339.709 319.88L339.709 313.583Z" fill="#FFA172"/>
<path d="M326.43 308.041L320.755 305.467L321.228 311.644L326.43 314.218V308.041Z" fill="#FFA172"/>
<path d="M324.562 301.525L343.21 305.772L347.264 346.822L329.022 343.991L324.562 301.525Z" fill="#2B8F94"/>
<path d="M411.561 325.027H418.151V330.69H411.561L411.561 325.027Z" fill="#FFA172"/>
<path d="M428.587 323.998L434.735 322.968V328.63L428.587 329.66V323.998Z" fill="#FFA172"/>
<path d="M443.217 321.939L449.366 320.696V326.057L443.217 327.601V321.939Z" fill="#FFA172"/>
<path d="M457.91 318.63L463.836 316.792L463.112 322.454L456.964 324.513L457.91 318.63Z" fill="#FFA172"/>
<path d="M473.044 313.56L478.756 311.621L477.774 317.821L472.098 319.88L473.044 313.56Z" fill="#FFA172"/>
<path d="M485.341 308.041L490.07 305.467L488.651 312.159L484.395 314.218L485.341 308.041Z" fill="#FFA172"/>
<path d="M413.453 423.227L420.677 422.806L419.83 444.447H413.898L413.453 423.227Z" fill="#FFA172"/>
<path d="M430.787 422.062L437.142 421.121L436.294 442.291L429.939 442.762L430.787 422.062Z" fill="#FFA172"/>
<path d="M444.578 420.377L450.933 419.436L449.662 440.607L443.307 441.548L444.578 420.377Z" fill="#FFA172"/>
<path d="M458.807 417.149L464.738 415.738L463.056 436.909L457.125 438.79L458.807 417.149Z" fill="#FFA172"/>
<path d="M473.212 413.856L478.72 411.503L477.025 433.615L471.517 435.497L473.212 413.856Z" fill="#FFA172"/>
<path d="M404.244 422.829H397.373L398.17 445.227H403.756L404.244 422.829Z" fill="#FFA172"/>
<path d="M387.646 421.074L381.662 420.04L382.46 443.31L388.444 443.827L387.646 421.074Z" fill="#FFA172"/>
<path d="M373.903 419.222L367.919 418.188L369.116 441.458L375.1 442.492L373.903 419.222Z" fill="#FFA172"/>
<path d="M359.987 415.674L354.402 414.123L355.986 437.393L361.571 439.462L359.987 415.674Z" fill="#FFA172"/>
<path d="M346.423 412.054L341.237 409.469L342.832 433.774L348.019 435.842L346.423 412.054Z" fill="#FFA172"/>
<path d="M334.454 407.4L329.268 404.297L331.263 428.085L336.05 430.154L334.454 407.4Z" fill="#FFA172"/>
<path d="M403.602 412.533H397.372V416.978H403.602L403.602 412.533Z" fill="#FFA172"/>
<path d="M388.05 411.282L382.238 410.474V414.919L388.05 415.727V411.282Z" fill="#FFA172"/>
<path d="M374.807 409.391L368.996 408.415V412.624L374.807 413.836V409.391Z" fill="#FFA172"/>
<path d="M360.409 405.74L354.807 404.297V408.742L360.409 409.954L360.409 405.74Z" fill="#FFA172"/>
<path d="M346.238 400.373L340.839 398.852V403.701L346.238 405.317L346.238 400.373Z" fill="#FFA172"/>
<path d="M333.687 394.993L328.322 392.973L328.769 397.822L333.687 399.842V394.993Z" fill="#FFA172"/>
<path d="M414.399 412.446H420.628V416.891H414.399L414.399 412.446Z" fill="#FFA172"/>
<path d="M430.492 411.638L436.304 410.83V415.275L430.492 416.083V411.638Z" fill="#FFA172"/>
<path d="M444.667 410.42L450.479 409.444V413.653L444.667 414.866V410.42Z" fill="#FFA172"/>
<path d="M459.75 407.8L465.351 406.356L464.667 410.802L458.855 412.418L459.75 407.8Z" fill="#FFA172"/>
<path d="M474.267 403.444L479.665 401.922L478.737 406.789L473.373 408.405L474.267 403.444Z" fill="#FFA172"/>
<path opacity="0.5" d="M325.957 243.184L307.512 234.433V240.61C315.079 245.552 321.385 247.473 323.592 247.816C327.376 258.111 333.094 280.044 352.442 284.363C370.887 288.481 392.643 264.803 403.048 260.17C440.884 262.229 486.602 247.988 504.259 239.581L505.204 231.345C483.26 248.64 426.695 252.278 401.156 251.934C390.278 262.058 365.306 281.378 352.442 277.671C339.578 273.965 329.425 253.135 325.957 243.184Z" fill="#82624A"/>
<path d="M296.951 210.949C302.248 192.418 368.839 186.069 401.473 183.667C446.403 180.36 533.898 188.094 518.764 218.155C515.988 223.669 511.387 228.367 505.521 232.357C479.412 250.12 428.249 253.858 401.473 253.157C393.748 260.879 374.326 276.836 358.435 278.895C342.543 280.953 330.373 257.104 326.274 244.922C314.293 241.318 291.654 229.479 296.951 210.949Z" fill="#FFFAEC"/>
<path d="M505.521 232.357C479.412 250.12 428.249 253.858 401.473 253.157C393.748 260.879 374.326 276.836 358.435 278.895C342.543 280.953 330.373 257.104 326.274 244.922C314.293 241.318 291.654 229.479 296.951 210.949C302.248 192.418 368.839 186.069 401.473 183.667C446.403 180.36 533.898 188.094 518.764 218.155C515.988 223.669 511.387 228.367 505.521 232.357" stroke="#FFFAEC"/>
<path d="M386.967 255.022C372.779 255.022 346.925 251.762 336.362 248.331C339.673 254.679 344.686 268.714 353.388 272.009C362.09 275.303 380.819 262.4 386.967 255.022Z" fill="#3FBFC5"/>
<path d="M470.206 196.342L342.983 236.492C383.026 237.864 470.206 236.903 498.583 222.079C526.96 207.254 491.489 198.744 470.206 196.342Z" fill="#3FBFC5"/>
<path d="M386.967 255.022C372.779 255.022 346.925 251.762 336.362 248.331C339.673 254.679 344.686 268.714 353.388 272.009C362.09 275.303 380.819 262.4 386.967 255.022Z" stroke="#2B8F94"/>
<path d="M470.206 196.342L342.983 236.492C383.026 237.864 470.206 236.903 498.583 222.079C526.96 207.254 491.489 198.744 470.206 196.342Z" stroke="#2B8F94"/>
<path d="M685.861 234.399L657.011 454.919C595.684 489.213 536.565 467.594 513.235 454.919L500.001 345.794L486.767 236.669C519.658 250.663 605.524 269.801 685.861 234.399Z" fill="#FFE8D7" stroke="#C8A375"/>
<path d="M684.125 252.946C605.048 291.655 521.274 269.075 489.271 252.946V264.785C579.698 302.259 654.645 280.399 680.815 264.785L684.125 252.946Z" fill="#2B8F94" stroke="#2B8F94"/>
<path d="M657.64 443.915C651.965 448.548 570.145 473.256 511.499 439.797L512.445 447.004C567.78 470.682 606.562 467.079 657.64 450.092V443.915Z" fill="#2B8F94" stroke="#2B8F94"/>
<path d="M591.427 297.729L599.095 297.214L598.196 323.66H591.9L591.427 297.729Z" fill="#FFA172"/>
<path d="M609.826 296.305L616.571 295.155L615.672 321.026L608.927 321.6L609.826 296.305Z" fill="#FFA172"/>
<path d="M624.464 294.246L631.209 293.096L629.86 318.966L623.115 320.116L624.464 294.246Z" fill="#FFA172"/>
<path d="M639.567 290.302L645.863 288.577L644.077 314.448L637.781 316.748L639.567 290.302Z" fill="#FFA172"/>
<path d="M654.857 286.277L660.703 283.403L658.904 310.423L653.058 312.723L654.857 286.277Z" fill="#FFA172"/>
<path d="M667.479 281.103L673.325 277.654L671.076 304.099L665.68 306.399L667.479 281.103Z" fill="#FFA172"/>
<path d="M581.496 297.729H573.928L574.807 322.63H580.958L581.496 297.729Z" fill="#FFA172"/>
<path d="M563.492 296.305L556.902 295.155L557.781 321.026L564.371 321.6L563.492 296.305Z" fill="#FFA172"/>
<path d="M548.358 294.246L541.768 293.096L543.086 318.966L549.676 320.116L548.358 294.246Z" fill="#FFA172"/>
<path d="M533.033 290.302L526.882 288.577L528.626 314.448L534.777 316.748L533.033 290.302Z" fill="#FFA172"/>
<path d="M518.095 286.277L512.383 283.403L514.14 310.423L519.852 312.723L518.095 286.277Z" fill="#FFA172"/>
<path d="M504.914 281.103L499.203 277.654L501.399 304.099L506.672 306.399L504.914 281.103Z" fill="#FFA172"/>
<path d="M581.464 327.069H574.874V332.731H581.464L581.464 327.069Z" fill="#FFA172"/>
<path d="M563.996 326.554L557.848 325.525V331.187L563.996 332.217V326.554Z" fill="#FFA172"/>
<path d="M549.808 323.981L543.66 322.737V328.099L549.808 329.643V323.981Z" fill="#FFA172"/>
<path d="M534.924 321.186L528.998 319.348V325.01L534.924 326.554L534.924 321.186Z" fill="#FFA172"/>
<path d="M520.048 315.624L514.337 313.686V319.862L520.048 321.921L520.048 315.624Z" fill="#FFA172"/>
<path d="M506.77 310.082L501.094 307.509L501.567 313.686L506.77 316.259V310.082Z" fill="#FFA172"/>
<path d="M504.902 303.566L523.55 307.813L527.603 348.864L509.361 346.033L504.902 303.566Z" fill="#2B8F94"/>
<path d="M591.9 327.069H598.491V332.731H591.9L591.9 327.069Z" fill="#FFA172"/>
<path d="M608.927 326.039L615.075 325.01V330.672L608.927 331.701V326.039Z" fill="#FFA172"/>
<path d="M623.557 323.981L629.705 322.737V328.099L623.557 329.643V323.981Z" fill="#FFA172"/>
<path d="M638.25 320.672L644.176 318.833L643.452 324.496L637.303 326.555L638.25 320.672Z" fill="#FFA172"/>
<path d="M653.384 315.601L659.095 313.663L658.113 319.862L652.438 321.921L653.384 315.601Z" fill="#FFA172"/>
<path d="M665.68 310.082L670.41 307.509L668.991 314.2L664.734 316.259L665.68 310.082Z" fill="#FFA172"/>
<path d="M593.792 425.268L601.016 424.847L600.169 446.488H594.238L593.792 425.268Z" fill="#FFA172"/>
<path d="M611.126 424.103L617.481 423.162L616.634 444.333L610.279 444.803L611.126 424.103Z" fill="#FFA172"/>
<path d="M624.917 422.418L631.273 421.478L630.001 442.648L623.646 443.589L624.917 422.418Z" fill="#FFA172"/>
<path d="M639.147 419.191L645.078 417.779L643.396 438.95L637.464 440.832L639.147 419.191Z" fill="#FFA172"/>
<path d="M653.552 415.897L659.059 413.545L657.365 435.657L651.857 437.539L653.552 415.897Z" fill="#FFA172"/>
<path d="M584.583 424.87H577.712L578.51 447.269H584.095L584.583 424.87Z" fill="#FFA172"/>
<path d="M567.986 423.115L562.002 422.081L562.799 445.352L568.784 445.869L567.986 423.115Z" fill="#FFA172"/>
<path d="M554.243 421.263L548.259 420.229L549.455 443.5L555.44 444.534L554.243 421.263Z" fill="#FFA172"/>
<path d="M540.326 417.715L534.741 416.164L536.325 439.435L541.911 441.503L540.326 417.715Z" fill="#FFA172"/>
<path d="M526.762 414.096L521.576 411.51L523.172 435.815L528.358 437.884L526.762 414.096Z" fill="#FFA172"/>
<path d="M514.794 409.442L509.607 406.339L511.602 430.127L516.39 432.195L514.794 409.442Z" fill="#FFA172"/>
<path d="M583.941 414.575H577.712V419.02H583.941L583.941 414.575Z" fill="#FFA172"/>
<path d="M568.389 413.324L562.578 412.516V416.961L568.389 417.769V413.324Z" fill="#FFA172"/>
<path d="M555.147 411.433L549.335 410.457V414.666L555.147 415.878V411.433Z" fill="#FFA172"/>
<path d="M540.748 407.782L535.147 406.339V410.784L540.749 411.996L540.748 407.782Z" fill="#FFA172"/>
<path d="M526.577 402.415L521.179 400.894V405.743L526.577 407.359L526.577 402.415Z" fill="#FFA172"/>
<path d="M514.026 397.035L508.662 395.015L509.109 399.864L514.026 401.884V397.035Z" fill="#FFA172"/>
<path d="M594.738 414.488H600.968V418.933H594.738L594.738 414.488Z" fill="#FFA172"/>
<path d="M610.832 413.68L616.643 412.872V417.317L610.832 418.125V413.68Z" fill="#FFA172"/>
<path d="M625.007 412.462L630.818 411.486V415.695L625.007 416.907V412.462Z" fill="#FFA172"/>
<path d="M640.09 409.841L645.691 408.398L645.007 412.843L639.195 414.459L640.09 409.841Z" fill="#FFA172"/>
<path d="M654.606 405.485L660.005 403.963L659.077 408.83L653.712 410.447L654.606 405.485Z" fill="#FFA172"/>
<path opacity="0.5" d="M506.297 245.225L487.852 236.475V242.652C495.419 247.593 501.725 249.515 503.932 249.858C507.716 260.153 513.434 282.085 532.782 286.405C551.227 290.523 572.982 266.844 583.387 262.212C621.223 264.271 666.941 250.03 684.598 241.622L685.544 233.386C663.599 250.682 607.035 254.319 581.496 253.976C570.618 264.099 545.646 283.419 532.782 279.713C519.918 276.007 509.765 255.177 506.297 245.225Z" fill="#82624A"/>
<path d="M477.291 212.99C482.588 194.459 549.179 188.111 581.812 185.709C626.742 182.402 714.238 190.136 699.104 220.197C696.327 225.711 691.726 230.409 685.861 234.399C659.751 252.161 608.588 255.899 581.812 255.199C574.088 262.92 554.665 278.877 538.774 280.936C522.883 282.995 510.713 259.145 506.614 246.963C494.632 243.36 471.994 231.521 477.291 212.99Z" fill="#FFFAEC"/>
<path d="M685.861 234.399C659.751 252.161 608.588 255.899 581.812 255.199C574.088 262.92 554.665 278.877 538.774 280.936C522.883 282.995 510.713 259.145 506.614 246.963C494.632 243.36 471.994 231.521 477.291 212.99C482.588 194.459 549.179 188.111 581.812 185.709C626.742 182.402 714.238 190.136 699.103 220.197C696.327 225.711 691.726 230.409 685.861 234.399" stroke="#FFFAEC"/>
<path d="M567.307 257.064C553.119 257.064 527.264 253.804 516.702 250.372C520.012 256.721 525.026 270.756 533.728 274.05C542.43 277.345 561.159 264.442 567.307 257.064Z" fill="#3FBFC5"/>
<path d="M650.546 198.383L523.323 238.533C563.366 239.906 650.546 238.945 678.923 224.12C707.3 209.296 671.829 200.785 650.546 198.383Z" fill="#3FBFC5"/>
<path d="M567.307 257.064C553.119 257.064 527.264 253.804 516.702 250.372C520.012 256.721 525.026 270.756 533.728 274.05C542.43 277.345 561.159 264.442 567.307 257.064Z" stroke="#2B8F94"/>
<path d="M650.546 198.383L523.323 238.533C563.366 239.906 650.546 238.945 678.923 224.12C707.3 209.296 671.829 200.785 650.546 198.383Z" stroke="#2B8F94"/>
<g filter="url(#filter0_f_846_2)">
<ellipse cx="690.501" cy="304.5" rx="154" ry="154.5" fill="#323537" fill-opacity="0.2"/>
</g>
<path d="M281.227 232.358L252.377 452.878C191.05 487.171 131.932 465.552 108.601 452.878L95.367 343.753L82.1328 234.627C115.024 248.621 200.89 267.759 281.227 232.358Z" fill="#FFE8D7" stroke="#C8A375"/>
<path d="M279.491 250.905C200.414 289.613 116.64 267.033 84.6367 250.905V262.744C175.064 300.217 250.011 278.358 276.181 262.744L279.491 250.905Z" fill="#2B8F94" stroke="#2B8F94"/>
<path d="M253.006 441.874C247.331 446.506 165.511 471.214 106.865 437.756L107.811 444.962C163.146 468.64 201.928 465.037 253.006 448.051V441.874Z" fill="#2B8F94" stroke="#2B8F94"/>
<path d="M186.794 295.687L194.462 295.172L193.562 321.618H187.267L186.794 295.687Z" fill="#FFA172"/>
<path d="M205.192 294.263L211.938 293.113L211.038 318.984L204.293 319.559L205.192 294.263Z" fill="#FFA172"/>
<path d="M219.83 292.204L226.576 291.054L225.227 316.925L218.481 318.075L219.83 292.204Z" fill="#FFA172"/>
<path d="M234.934 288.26L241.229 286.536L239.443 312.406L233.148 314.706L234.934 288.26Z" fill="#FFA172"/>
<path d="M250.223 284.236L256.069 281.361L254.27 308.382L248.424 310.682L250.223 284.236Z" fill="#FFA172"/>
<path d="M262.845 279.062L268.691 275.612L266.443 302.058L261.047 304.358L262.845 279.062Z" fill="#FFA172"/>
<path d="M176.862 295.687H169.295L170.173 320.588H176.324L176.862 295.687Z" fill="#FFA172"/>
<path d="M158.859 294.263L152.269 293.113L153.147 318.984L159.738 319.559L158.859 294.263Z" fill="#FFA172"/>
<path d="M143.724 292.204L137.134 291.054L138.452 316.925L145.042 318.075L143.724 292.204Z" fill="#FFA172"/>
<path d="M128.399 288.26L122.248 286.536L123.993 312.406L130.144 314.706L128.399 288.26Z" fill="#FFA172"/>
<path d="M113.461 284.236L107.75 281.361L109.507 308.382L115.219 310.682L113.461 284.236Z" fill="#FFA172"/>
<path d="M100.28 279.062L94.5689 275.612L96.7656 302.058L102.038 304.358L100.28 279.062Z" fill="#FFA172"/>
<path d="M176.831 325.027H170.241V330.69H176.831L176.831 325.027Z" fill="#FFA172"/>
<path d="M159.363 324.513L153.214 323.483V329.146L159.363 330.175V324.513Z" fill="#FFA172"/>
<path d="M145.174 321.939L139.026 320.696V326.057L145.174 327.601V321.939Z" fill="#FFA172"/>
<path d="M130.29 319.144L124.364 317.306V322.968L130.291 324.513L130.29 319.144Z" fill="#FFA172"/>
<path d="M115.415 313.583L109.703 311.644V317.821L115.415 319.88L115.415 313.583Z" fill="#FFA172"/>
<path d="M102.136 308.041L96.4606 305.467L96.9336 311.644L102.136 314.218V308.041Z" fill="#FFA172"/>
<path d="M100.268 301.525L118.916 305.772L122.97 346.822L104.727 343.991L100.268 301.525Z" fill="#2B8F94"/>
<path d="M187.267 325.027H193.857V330.69H187.267L187.267 325.027Z" fill="#FFA172"/>
<path d="M204.293 323.998L210.441 322.968V328.63L204.293 329.66V323.998Z" fill="#FFA172"/>
<path d="M218.923 321.939L225.072 320.696V326.057L218.923 327.601V321.939Z" fill="#FFA172"/>
<path d="M233.616 318.63L239.542 316.792L238.818 322.454L232.67 324.513L233.616 318.63Z" fill="#FFA172"/>
<path d="M248.75 313.56L254.461 311.621L253.479 317.821L247.804 319.88L248.75 313.56Z" fill="#FFA172"/>
<path d="M261.046 308.041L265.776 305.467L264.357 312.159L260.101 314.218L261.046 308.041Z" fill="#FFA172"/>
<path d="M189.158 423.227L196.383 422.806L195.535 444.447H189.604L189.158 423.227Z" fill="#FFA172"/>
<path d="M206.492 422.061L212.847 421.12L212 442.291L205.645 442.761L206.492 422.061Z" fill="#FFA172"/>
<path d="M220.283 420.376L226.638 419.436L225.367 440.606L219.012 441.547L220.283 420.376Z" fill="#FFA172"/>
<path d="M234.513 417.149L240.444 415.737L238.762 436.908L232.83 438.79L234.513 417.149Z" fill="#FFA172"/>
<path d="M248.918 413.856L254.425 411.503L252.731 433.615L247.223 435.497L248.918 413.856Z" fill="#FFA172"/>
<path d="M179.95 422.828H173.078L173.876 445.227H179.462L179.95 422.828Z" fill="#FFA172"/>
<path d="M163.352 421.074L157.368 420.04L158.166 443.31L164.15 443.827L163.352 421.074Z" fill="#FFA172"/>
<path d="M149.609 419.221L143.625 418.187L144.822 441.458L150.806 442.492L149.609 419.221Z" fill="#FFA172"/>
<path d="M135.693 415.674L130.107 414.123L131.692 437.393L137.277 439.462L135.693 415.674Z" fill="#FFA172"/>
<path d="M122.129 412.054L116.942 409.468L118.538 433.773L123.724 435.842L122.129 412.054Z" fill="#FFA172"/>
<path d="M110.16 407.4L104.974 404.297L106.968 428.085L111.756 430.153L110.16 407.4Z" fill="#FFA172"/>
<path d="M179.307 412.533H173.078V416.978H179.307L179.307 412.533Z" fill="#FFA172"/>
<path d="M163.755 411.282L157.944 410.474V414.919L163.755 415.727V411.282Z" fill="#FFA172"/>
<path d="M150.513 409.391L144.701 408.415V412.624L150.513 413.836V409.391Z" fill="#FFA172"/>
<path d="M136.114 405.74L130.513 404.297V408.742L136.115 409.954L136.114 405.74Z" fill="#FFA172"/>
<path d="M121.944 400.373L116.545 398.852V403.701L121.944 405.317L121.944 400.373Z" fill="#FFA172"/>
<path d="M109.392 394.993L104.028 392.973L104.475 397.822L109.392 399.842V394.993Z" fill="#FFA172"/>
<path d="M190.104 412.446H196.334V416.891H190.104L190.104 412.446Z" fill="#FFA172"/>
<path d="M206.198 411.638L212.01 410.83V415.275L206.198 416.083V411.638Z" fill="#FFA172"/>
<path d="M220.373 410.42L226.185 409.444V413.653L220.373 414.866V410.42Z" fill="#FFA172"/>
<path d="M235.456 407.8L241.057 406.356L240.373 410.802L234.562 412.418L235.456 407.8Z" fill="#FFA172"/>
<path d="M249.972 403.444L255.371 401.922L254.443 406.789L249.078 408.405L249.972 403.444Z" fill="#FFA172"/>
<path opacity="0.5" d="M101.663 243.184L83.218 234.433V240.61C90.7852 245.552 97.0912 247.473 99.2983 247.816C103.082 258.111 108.8 280.044 128.148 284.363C146.593 288.481 168.349 264.803 178.754 260.17C216.589 262.229 262.308 247.988 279.964 239.581L280.91 231.345C258.965 248.64 202.401 252.278 176.862 251.934C165.984 262.058 141.012 281.378 128.148 277.671C115.284 273.965 105.131 253.135 101.663 243.184Z" fill="#82624A"/>
<path d="M72.6571 210.949C77.9541 192.418 144.545 186.069 177.179 183.667C222.109 180.36 309.604 188.094 294.47 218.155C291.694 223.669 287.093 228.367 281.227 232.357C255.118 250.12 203.955 253.858 177.179 253.157C169.454 260.879 150.031 276.836 134.14 278.895C118.249 280.953 106.079 257.104 101.98 244.922C89.9985 241.318 67.3601 229.479 72.6571 210.949Z" fill="#FFFAEC"/>
<path d="M281.227 232.357C255.118 250.12 203.955 253.858 177.179 253.157C169.454 260.879 150.031 276.836 134.14 278.895C118.249 280.953 106.079 257.104 101.98 244.922C89.9985 241.318 67.3601 229.479 72.6571 210.949C77.9541 192.418 144.545 186.069 177.179 183.667C222.109 180.36 309.604 188.094 294.47 218.155C291.694 223.669 287.093 228.367 281.227 232.357" stroke="#FFFAEC"/>
<path d="M162.673 255.022C148.485 255.022 122.63 251.762 112.068 248.331C115.379 254.679 120.392 268.714 129.094 272.009C137.796 275.303 156.525 262.4 162.673 255.022Z" fill="#3FBFC5"/>
<path d="M245.912 196.342L118.689 236.492C158.732 237.864 245.912 236.903 274.289 222.079C302.666 207.254 267.195 198.744 245.912 196.342Z" fill="#3FBFC5"/>
<path d="M162.673 255.022C148.485 255.022 122.63 251.762 112.068 248.331C115.379 254.679 120.392 268.714 129.094 272.009C137.796 275.303 156.525 262.4 162.673 255.022Z" stroke="#2B8F94"/>
<path d="M245.912 196.342L118.689 236.492C158.732 237.864 245.912 236.903 274.289 222.079C302.666 207.254 267.195 198.744 245.912 196.342Z" stroke="#2B8F94"/>
<g filter="url(#filter1_f_846_2)">
<ellipse cx="354.501" cy="361.5" rx="154" ry="154.5" fill="#323537" fill-opacity="0.2"/>
</g>
<path d="M450.176 266.015L421.326 486.535C359.999 520.829 300.881 499.209 277.55 486.535L264.316 377.41L251.082 268.285C283.973 282.279 369.839 301.416 450.176 266.015Z" fill="#FFE8D7" stroke="#C8A375"/>
<path d="M448.44 284.562C369.363 323.271 285.589 300.691 253.586 284.562V296.401C344.013 333.874 418.96 312.015 445.13 296.401L448.44 284.562Z" fill="#2B8F94" stroke="#2B8F94"/>
<path d="M421.955 475.531C416.28 480.164 334.46 504.871 275.814 471.413L276.76 478.619C332.095 502.298 370.877 498.694 421.955 481.708V475.531Z" fill="#2B8F94" stroke="#2B8F94"/>
<path d="M355.742 329.345L363.41 328.83L362.511 355.276H356.215L355.742 329.345Z" fill="#FFA172"/>
<path d="M374.141 327.921L380.886 326.771L379.987 352.642L373.242 353.217L374.141 327.921Z" fill="#FFA172"/>
<path d="M388.779 325.862L395.525 324.712L394.175 350.583L387.43 351.732L388.779 325.862Z" fill="#FFA172"/>
<path d="M403.882 321.918L410.178 320.193L408.392 346.064L402.096 348.363L403.882 321.918Z" fill="#FFA172"/>
<path d="M419.172 317.893L425.018 315.019L423.219 342.039L417.373 344.339L419.172 317.893Z" fill="#FFA172"/>
<path d="M431.794 312.719L437.64 309.27L435.392 335.715L429.995 338.015L431.794 312.719Z" fill="#FFA172"/>
<path d="M345.811 329.344H338.244L339.122 354.246H345.273L345.811 329.344Z" fill="#FFA172"/>
<path d="M327.808 327.921L321.217 326.771L322.096 352.642L328.686 353.217L327.808 327.921Z" fill="#FFA172"/>
<path d="M312.673 325.862L306.083 324.712L307.401 350.583L313.991 351.733L312.673 325.862Z" fill="#FFA172"/>
<path d="M297.348 321.918L291.197 320.193L292.941 346.064L299.092 348.363L297.348 321.918Z" fill="#FFA172"/>
<path d="M282.41 317.893L276.698 315.019L278.455 342.039L284.167 344.339L282.41 317.893Z" fill="#FFA172"/>
<path d="M269.229 312.719L263.518 309.27L265.715 335.715L270.987 338.015L269.229 312.719Z" fill="#FFA172"/>
<path d="M345.78 358.685H339.189V364.347H345.78L345.78 358.685Z" fill="#FFA172"/>
<path d="M328.312 358.17L322.163 357.141V362.803L328.312 363.832V358.17Z" fill="#FFA172"/>
<path d="M314.123 355.596L307.975 354.353V359.714L314.123 361.259V355.596Z" fill="#FFA172"/>
<path d="M299.239 352.802L293.313 350.964V356.626L299.239 358.17L299.239 352.802Z" fill="#FFA172"/>
<path d="M284.364 347.24L278.652 345.301V351.478L284.364 353.537L284.364 347.24Z" fill="#FFA172"/>
<path d="M271.085 341.699L265.41 339.125L265.883 345.302L271.085 347.876V341.699Z" fill="#FFA172"/>
<path d="M269.217 335.182L287.865 339.429L291.919 380.479L273.676 377.648L269.217 335.182Z" fill="#2B8F94"/>
<path d="M356.216 358.685H362.806V364.347H356.216L356.216 358.685Z" fill="#FFA172"/>
<path d="M373.242 357.655L379.39 356.626V362.288L373.242 363.318V357.655Z" fill="#FFA172"/>
<path d="M387.872 355.596L394.02 354.353V359.714L387.872 361.259V355.596Z" fill="#FFA172"/>
<path d="M402.565 352.288L408.491 350.449L407.767 356.111L401.619 358.17L402.565 352.288Z" fill="#FFA172"/>
<path d="M417.699 347.217L423.41 345.279L422.428 351.479L416.753 353.537L417.699 347.217Z" fill="#FFA172"/>
<path d="M429.995 341.699L434.725 339.125L433.306 345.817L429.05 347.876L429.995 341.699Z" fill="#FFA172"/>
<path d="M358.107 456.884L365.332 456.463L364.484 478.104H358.553L358.107 456.884Z" fill="#FFA172"/>
<path d="M375.441 455.719L381.796 454.778L380.949 475.949L374.594 476.419L375.441 455.719Z" fill="#FFA172"/>
<path d="M389.233 454.034L395.588 453.093L394.317 474.264L387.962 475.205L389.233 454.034Z" fill="#FFA172"/>
<path d="M403.462 450.807L409.393 449.396L407.71 470.566L401.779 472.448L403.462 450.807Z" fill="#FFA172"/>
<path d="M417.867 447.513L423.374 445.161L421.68 467.272L416.172 469.154L417.867 447.513Z" fill="#FFA172"/>
<path d="M348.898 456.485H342.027L342.825 478.884H348.41L348.898 456.485Z" fill="#FFA172"/>
<path d="M332.301 454.731L326.317 453.697L327.115 476.967L333.099 477.485L332.301 454.731Z" fill="#FFA172"/>
<path d="M318.558 452.878L312.574 451.844L313.771 475.115L319.755 476.149L318.558 452.878Z" fill="#FFA172"/>
<path d="M304.642 449.332L299.057 447.78L300.641 471.051L306.226 473.119L304.642 449.332Z" fill="#FFA172"/>
<path d="M291.078 445.712L285.891 443.126L287.487 467.431L292.673 469.499L291.078 445.712Z" fill="#FFA172"/>
<path d="M279.109 441.057L273.923 437.955L275.918 461.742L280.705 463.811L279.109 441.057Z" fill="#FFA172"/>
<path d="M348.256 446.19H342.027V450.635H348.256L348.256 446.19Z" fill="#FFA172"/>
<path d="M332.705 444.94L326.893 444.131V448.576L332.705 449.385V444.94Z" fill="#FFA172"/>
<path d="M319.462 443.049L313.65 442.073V446.282L319.462 447.494V443.049Z" fill="#FFA172"/>
<path d="M305.063 439.398L299.462 437.955V442.4L305.064 443.612L305.063 439.398Z" fill="#FFA172"/>
<path d="M290.893 434.031L285.494 432.509V437.358L290.893 438.974L290.893 434.031Z" fill="#FFA172"/>
<path d="M278.341 428.65L272.977 426.63L273.424 431.479L278.341 433.5V428.65Z" fill="#FFA172"/>
<path d="M359.053 446.104H365.283V450.549H359.053L359.053 446.104Z" fill="#FFA172"/>
<path d="M375.147 445.296L380.958 444.488V448.933L375.147 449.741V445.296Z" fill="#FFA172"/>
<path d="M389.322 444.078L395.134 443.102V447.311L389.322 448.523V444.078Z" fill="#FFA172"/>
<path d="M404.405 441.457L410.006 440.014L409.322 444.459L403.51 446.075L404.405 441.457Z" fill="#FFA172"/>
<path d="M418.921 437.102L424.32 435.58L423.392 440.447L418.027 442.063L418.921 437.102Z" fill="#FFA172"/>
<path d="M474.577 238.8L462.561 241.477H457.464V253.716L452.366 262.513L447.997 268.25L421.417 477.462H442.171L468.751 273.987L474.577 268.25L476.762 255.629L474.577 238.8Z" fill="#544D4D" fill-opacity="0.22"/>
<path opacity="0.5" d="M270.612 276.841L252.167 268.09V274.267C259.734 279.209 266.04 281.131 268.247 281.474C272.031 291.769 277.749 313.701 297.097 318.02C315.542 322.138 337.298 298.46 347.702 293.827C385.538 295.886 431.257 281.645 448.913 273.238L449.859 265.002C427.914 282.297 371.35 285.935 345.811 285.592C334.933 295.715 309.961 315.035 297.097 311.329C284.233 307.623 274.08 286.793 270.612 276.841Z" fill="#82624A"/>
<path d="M241.606 244.606C246.903 226.076 313.494 219.727 346.128 217.325C391.058 214.018 478.553 221.752 463.419 251.813C460.643 257.327 456.041 262.025 450.176 266.015C424.067 283.777 372.904 287.516 346.128 286.815C338.403 294.536 318.98 310.493 303.089 312.552C287.198 314.611 275.028 290.762 270.929 278.579C258.948 274.976 236.309 263.137 241.606 244.606Z" fill="#FFFAEC"/>
<path d="M450.176 266.015C424.067 283.777 372.904 287.516 346.128 286.815C338.403 294.536 318.98 310.493 303.089 312.552C287.198 314.611 275.028 290.762 270.929 278.579C258.948 274.976 236.309 263.137 241.606 244.606C246.903 226.076 313.494 219.727 346.128 217.325C391.058 214.018 478.553 221.752 463.419 251.813C460.642 257.327 456.041 262.025 450.176 266.015" stroke="#FFFAEC"/>
<path d="M331.622 288.68C317.434 288.68 291.579 285.42 281.017 281.988C284.327 288.336 289.34 302.372 298.043 305.666C306.745 308.96 325.474 296.058 331.622 288.68Z" fill="#3FBFC5"/>
<path d="M414.861 229.999L287.638 270.149C327.681 271.522 414.861 270.561 443.238 255.736C471.615 240.912 436.144 232.401 414.861 229.999Z" fill="#3FBFC5"/>
<path d="M331.622 288.68C317.434 288.68 291.579 285.42 281.017 281.988C284.327 288.336 289.34 302.372 298.043 305.666C306.745 308.96 325.474 296.058 331.622 288.68Z" stroke="#2B8F94"/>
<path d="M414.861 229.999L287.638 270.149C327.681 271.522 414.861 270.561 443.238 255.736C471.615 240.912 436.144 232.401 414.861 229.999Z" stroke="#2B8F94"/>
<path d="M232.077 240.33L220.062 243.007H214.964V255.246L209.866 264.043L205.497 269.78L178.917 478.992H199.671L226.252 275.517L232.077 269.78L234.262 257.158L232.077 240.33Z" fill="#544D4D" fill-opacity="0.22"/>
<path d="M209.861 262.19L181.011 482.71C119.684 517.004 60.5654 495.385 37.2349 482.71L24.0007 373.585L10.7666 264.46C43.6577 278.454 129.524 297.592 209.861 262.19Z" fill="#FFE8D7" stroke="#C8A375"/>
<path d="M208.125 280.738C129.048 319.446 45.2733 296.866 13.2705 280.738V292.577C103.698 330.05 178.645 308.191 204.814 292.577L208.125 280.738Z" fill="#2B8F94" stroke="#2B8F94"/>
<path d="M181.64 471.707C175.965 476.339 94.1446 501.047 35.499 467.589L36.4449 474.795C91.7798 498.473 130.562 494.87 181.64 477.884V471.707Z" fill="#2B8F94" stroke="#2B8F94"/>
<path d="M115.427 325.52L123.095 325.005L122.196 351.451H115.9L115.427 325.52Z" fill="#FFA172"/>
<path d="M133.826 324.096L140.571 322.946L139.672 348.817L132.927 349.391L133.826 324.096Z" fill="#FFA172"/>
<path d="M148.464 322.037L155.209 320.887L153.86 346.758L147.115 347.908L148.464 322.037Z" fill="#FFA172"/>
<path d="M163.567 318.093L169.863 316.368L168.077 342.239L161.781 344.539L163.567 318.093Z" fill="#FFA172"/>
<path d="M178.857 314.068L184.703 311.194L182.904 338.214L177.058 340.514L178.857 314.068Z" fill="#FFA172"/>
<path d="M191.479 308.895L197.325 305.445L195.076 331.891L189.68 334.191L191.479 308.895Z" fill="#FFA172"/>
<path d="M105.495 325.52H97.9282L98.8068 350.421H104.958L105.495 325.52Z" fill="#FFA172"/>
<path d="M87.4924 324.096L80.9021 322.946L81.7808 348.817L88.3711 349.391L87.4924 324.096Z" fill="#FFA172"/>
<path d="M72.3582 322.037L65.768 320.887L67.086 346.758L73.6763 347.908L72.3582 322.037Z" fill="#FFA172"/>
<path d="M57.0326 318.093L50.8817 316.368L52.6263 342.239L58.7773 344.539L57.0326 318.093Z" fill="#FFA172"/>
<path d="M42.0946 314.068L36.3831 311.194L38.1405 338.214L43.8521 340.514L42.0946 314.068Z" fill="#FFA172"/>
<path d="M28.914 308.895L23.2024 305.445L25.3992 331.891L30.6714 334.191L28.914 308.895Z" fill="#FFA172"/>
<path d="M105.465 354.86H98.8743V360.522H105.465L105.465 354.86Z" fill="#FFA172"/>
<path d="M87.9966 354.345L81.8483 353.316V358.978L87.9966 360.008V354.345Z" fill="#FFA172"/>
<path d="M73.8081 351.772L67.6598 350.528V355.89L73.8081 357.434V351.772Z" fill="#FFA172"/>
<path d="M58.9237 348.977L52.9977 347.139V352.801L58.9241 354.345L58.9237 348.977Z" fill="#FFA172"/>
<path d="M44.0483 343.416L38.3368 341.477V347.654L44.0483 349.713L44.0483 343.416Z" fill="#FFA172"/>
<path d="M30.7698 337.874L25.0944 335.3L25.5673 341.477L30.7698 344.05V337.874Z" fill="#FFA172"/>
<path d="M28.9019 331.358L47.5495 335.605L51.6034 376.655L33.3611 373.824L28.9019 331.358Z" fill="#2B8F94"/>
<path d="M115.9 354.86H122.491V360.523H115.9L115.9 354.86Z" fill="#FFA172"/>
<path d="M132.927 353.831L139.075 352.801V358.463L132.927 359.493V353.831Z" fill="#FFA172"/>
<path d="M147.557 351.772L153.705 350.528V355.89L147.557 357.434V351.772Z" fill="#FFA172"/>
<path d="M162.25 348.463L168.176 346.625L167.452 352.287L161.303 354.346L162.25 348.463Z" fill="#FFA172"/>
<path d="M177.384 343.393L183.095 341.454L182.113 347.654L176.438 349.713L177.384 343.393Z" fill="#FFA172"/>
<path d="M189.68 337.874L194.41 335.3L192.991 341.991L188.734 344.05L189.68 337.874Z" fill="#FFA172"/>
<path d="M117.792 453.059L125.016 452.638L124.169 474.279H118.238L117.792 453.059Z" fill="#FFA172"/>
<path d="M135.126 451.894L141.481 450.953L140.634 472.123L134.279 472.594L135.126 451.894Z" fill="#FFA172"/>
<path d="M148.917 450.209L155.272 449.269L154.001 470.439L147.646 471.38L148.917 450.209Z" fill="#FFA172"/>
<path d="M163.146 446.982L169.078 445.57L167.395 466.741L161.464 468.623L163.146 446.982Z" fill="#FFA172"/>
<path d="M177.551 443.688L183.059 441.336L181.364 463.448L175.857 465.33L177.551 443.688Z" fill="#FFA172"/>
<path d="M108.583 452.661H101.712L102.51 475.059H108.095L108.583 452.661Z" fill="#FFA172"/>
<path d="M91.9858 450.906L86.0015 449.872L86.7994 473.143L92.7837 473.66L91.9858 450.906Z" fill="#FFA172"/>
<path d="M78.2431 449.054L72.2588 448.02L73.4557 471.291L79.4399 472.325L78.2431 449.054Z" fill="#FFA172"/>
<path d="M64.3268 445.506L58.7415 443.955L60.3257 467.226L65.9111 469.294L64.3268 445.506Z" fill="#FFA172"/>
<path d="M50.7626 441.887L45.5762 439.301L47.172 463.606L52.3584 465.675L50.7626 441.887Z" fill="#FFA172"/>
<path d="M38.7941 437.233L33.6077 434.13L35.6025 457.918L40.3899 459.986L38.7941 437.233Z" fill="#FFA172"/>
<path d="M107.941 442.365H101.712V446.81H107.941L107.941 442.365Z" fill="#FFA172"/>
<path d="M92.3892 441.114L86.5776 440.306V444.751L92.3892 445.559V441.114Z" fill="#FFA172"/>
<path d="M79.1465 439.224L73.3349 438.248V442.456L79.1465 443.669V439.224Z" fill="#FFA172"/>
<path d="M64.7477 435.573L59.1462 434.129V438.574L64.7481 439.787L64.7477 435.573Z" fill="#FFA172"/>
<path d="M50.5774 430.206L45.1786 428.684V433.533L50.5774 435.149L50.5774 430.206Z" fill="#FFA172"/>
<path d="M38.0259 424.826L32.6613 422.805L33.1084 427.654L38.0259 429.675V424.826Z" fill="#FFA172"/>
<path d="M118.738 442.279H124.968V446.724H118.738L118.738 442.279Z" fill="#FFA172"/>
<path d="M134.832 441.47L140.643 440.662V445.107L134.832 445.915V441.47Z" fill="#FFA172"/>
<path d="M149.007 440.253L154.818 439.276V443.485L149.007 444.698V440.253Z" fill="#FFA172"/>
<path d="M164.09 437.632L169.691 436.188L169.007 440.634L163.195 442.25L164.09 437.632Z" fill="#FFA172"/>
<path d="M178.606 433.276L184.005 431.754L183.077 436.621L177.712 438.238L178.606 433.276Z" fill="#FFA172"/>
<path opacity="0.5" d="M30.2968 273.016L11.8518 264.266V270.443C19.419 275.384 25.7249 277.306 27.932 277.649C31.7156 287.944 37.4338 309.876 56.7819 314.196C75.2268 318.314 96.9825 294.635 107.387 290.003C145.223 292.062 190.941 277.821 208.598 269.413L209.544 261.177C187.599 278.473 131.035 282.11 105.496 281.767C94.6177 291.89 69.6461 311.21 56.7819 307.504C43.9177 303.798 33.7651 282.968 30.2968 273.016Z" fill="#82624A"/>
<path d="M1.2909 240.782C6.58791 222.251 73.179 215.902 105.812 213.5C150.742 210.193 238.238 217.927 223.104 247.988C220.327 253.502 215.726 258.2 209.861 262.19C183.751 279.953 132.588 283.691 105.812 282.99C98.0876 290.712 78.6652 306.669 62.7741 308.728C46.8831 310.786 34.7126 286.937 30.6137 274.755C18.6323 271.151 -4.00612 259.312 1.2909 240.782Z" fill="#FFFAEC"/>
<path d="M209.861 262.19C183.751 279.953 132.588 283.691 105.812 282.99C98.0876 290.712 78.6652 306.669 62.7741 308.728C46.8831 310.786 34.7125 286.937 30.6137 274.755C18.6323 271.151 -4.00612 259.312 1.2909 240.782C6.58791 222.251 73.179 215.902 105.812 213.5C150.742 210.193 238.238 217.927 223.103 247.988C220.327 253.502 215.726 258.2 209.861 262.19" stroke="#FFFAEC"/>
<path d="M91.3071 284.855C77.1187 284.855 51.2642 281.595 40.7017 278.164C44.0123 284.512 49.0255 298.547 57.7278 301.842C66.43 305.136 85.1588 292.233 91.3071 284.855Z" fill="#3FBFC5"/>
<path d="M174.546 226.175L47.3229 266.325C87.3659 267.697 174.546 266.736 202.923 251.912C231.3 237.087 195.829 228.577 174.546 226.175Z" fill="#3FBFC5"/>
<path d="M91.3071 284.855C77.1187 284.855 51.2642 281.595 40.7017 278.164C44.0123 284.512 49.0255 298.547 57.7278 301.842C66.43 305.136 85.1588 292.233 91.3071 284.855Z" stroke="#2B8F94"/>
<path d="M174.546 226.175L47.3229 266.325C87.3659 267.697 174.546 266.736 202.923 251.912C231.3 237.087 195.829 228.577 174.546 226.175Z" stroke="#2B8F94"/>
<defs>
<filter id="filter0_f_846_2" x="386.501" y="0" width="608" height="609" filterUnits="userSpaceOnUse" color-interpolation-filters="sRGB">
<feFlood flood-opacity="0" result="BackgroundImageFix"/>
<feBlend mode="normal" in="SourceGraphic" in2="BackgroundImageFix" result="shape"/>
<feGaussianBlur stdDeviation="75" result="effect1_foregroundBlur_846_2"/>
</filter>
<filter id="filter1_f_846_2" x="50.501" y="57" width="608" height="609" filterUnits="userSpaceOnUse" color-interpolation-filters="sRGB">
<feFlood flood-opacity="0" result="BackgroundImageFix"/>
<feBlend mode="normal" in="SourceGraphic" in2="BackgroundImageFix" result="shape"/>
<feGaussianBlur stdDeviation="75" result="effect1_foregroundBlur_846_2"/>
</filter>
</defs>
</svg>
