<svg width="171" height="81" viewBox="0 0 171 81" fill="none" xmlns="http://www.w3.org/2000/svg">
<rect x="8.4043" width="155" height="81" fill="#BF3C3D"/>
<rect x="8.4043" y="35" width="155" height="38" fill="#E64A4B"/>
<path d="M31.0037 56.1672C29.7381 56.1672 28.6951 55.9504 27.8748 55.5168C27.0662 55.0833 26.4334 54.4622 25.9764 53.6536C25.5193 52.845 25.2029 51.8782 25.0271 50.7532C24.8514 49.6282 24.7635 48.3684 24.7635 46.9739V44.0735H28.6834V47.2024C28.6834 49.1594 28.8299 50.5598 29.1228 51.4036C29.4275 52.2473 30.0545 52.6692 31.0037 52.6692C31.6482 52.6692 32.1287 52.5168 32.4451 52.2122C32.7615 51.9075 32.9666 51.4211 33.0603 50.7532C33.1541 50.0852 33.201 49.2004 33.201 48.0989C33.201 46.8098 32.9549 45.679 32.4627 44.7063C31.9822 43.7219 31.2732 42.7434 30.3357 41.7708L28.1912 39.6262C27.5935 38.9934 27.0193 38.3196 26.4685 37.6047C25.9295 36.8782 25.49 36.0637 25.1502 35.1614C24.8103 34.259 24.6404 33.2336 24.6404 32.0852C24.6404 30.5032 24.8221 29.1438 25.1853 28.0071C25.5486 26.8704 26.1756 26.0032 27.0662 25.4055C27.9685 24.7961 29.2283 24.4915 30.8455 24.4915C32.0994 24.4915 33.1131 24.7024 33.8865 25.1243C34.66 25.5344 35.2517 26.1262 35.6619 26.8997C36.0721 27.6731 36.3533 28.5989 36.5057 29.677C36.658 30.7551 36.7342 31.9622 36.7342 33.2981V35.1614H32.9021V33.0344C32.9021 31.9094 32.8494 30.9778 32.7439 30.2395C32.6502 29.4895 32.4568 28.927 32.1639 28.552C31.8709 28.177 31.4314 27.9895 30.8455 27.9895C30.2947 27.9895 29.8494 28.1184 29.5096 28.3762C29.1697 28.634 28.9236 29.0325 28.7713 29.5715C28.6189 30.0989 28.5428 30.7844 28.5428 31.6282C28.5428 32.3782 28.6307 33.0051 28.8064 33.509C28.9939 34.0129 29.2752 34.4934 29.6502 34.9504C30.0369 35.3958 30.5057 35.9114 31.0564 36.4973L33.3416 38.9407C34.5017 40.1711 35.4275 41.5012 36.1189 42.9309C36.8221 44.3606 37.1736 45.9895 37.1736 47.8176C37.1736 49.5872 36.992 51.093 36.6287 52.3352C36.2654 53.5774 35.6385 54.5266 34.7478 55.1829C33.8572 55.8391 32.6092 56.1672 31.0037 56.1672ZM46.6482 56.1848C45.1482 56.1848 43.9295 55.8274 42.992 55.1125C42.0545 54.3977 41.3689 53.3489 40.9353 51.9661C40.5017 50.5833 40.285 48.9075 40.285 46.9387V33.8079C40.285 32.4133 40.3846 31.1536 40.5838 30.0286C40.783 28.8918 41.1228 27.9133 41.6033 27.093C42.0955 26.2727 42.7576 25.6458 43.5896 25.2122C44.4334 24.7668 45.4939 24.5442 46.7713 24.5442C47.9549 24.5442 48.9392 24.7493 49.7244 25.1594C50.5213 25.5579 51.1482 26.1379 51.6053 26.8997C52.074 27.6614 52.4021 28.5696 52.5896 29.6243C52.7889 30.679 52.8885 31.8508 52.8885 33.1399V36.9192H48.9158V33.2629C48.9158 31.5051 48.781 30.1985 48.5115 29.343C48.242 28.4875 47.6619 28.0598 46.7713 28.0598C45.8221 28.0598 45.1834 28.5051 44.8553 29.3958C44.5389 30.2864 44.3807 31.5696 44.3807 33.2454V47.0793C44.3807 48.4036 44.4451 49.4817 44.574 50.3137C44.7029 51.134 44.9314 51.7375 45.2596 52.1243C45.5877 52.4993 46.0564 52.6868 46.6658 52.6868C47.5682 52.6868 48.1658 52.2473 48.4588 51.3684C48.7635 50.4778 48.9158 49.0364 48.9158 47.0442V43.1946H52.9412V46.9915C52.9412 49.0188 52.742 50.718 52.3435 52.0891C51.9451 53.4485 51.283 54.4739 50.3572 55.1653C49.4432 55.845 48.2068 56.1848 46.6482 56.1848ZM57.1775 55.8157V24.8782H61.2557V37.8157H65.9139V24.8782H69.992V55.8157H65.9139V41.2258H61.2557V55.8157H57.1775ZM74.8963 55.8157V24.8782H84.617V28.3411H78.9744V38.2551H84.3182V41.6829H78.9744V52.3528H84.74V55.8157H74.8963ZM88.5017 55.8157V24.8782H94.7947C96.3885 24.8782 97.6424 25.2063 98.5564 25.8625C99.4822 26.5188 100.138 27.4622 100.525 28.6926C100.924 29.9114 101.123 31.3762 101.123 33.0872L101.14 46.8333C101.14 48.8958 100.924 50.5891 100.49 51.9133C100.068 53.2375 99.3826 54.2219 98.4334 54.8665C97.4842 55.4993 96.2244 55.8157 94.6541 55.8157H88.5017ZM92.5799 52.5813H94.3025C94.9236 52.5813 95.4334 52.4524 95.8318 52.1946C96.242 51.925 96.5467 51.4446 96.7459 50.7532C96.9568 50.0618 97.0623 49.0657 97.0623 47.7649L97.0447 33.0872C97.0447 31.2942 96.8279 30.011 96.3943 29.2375C95.9725 28.4641 95.2576 28.0774 94.2498 28.0774H92.5799V52.5813ZM111.881 56.1848C110.322 56.1848 109.068 55.886 108.119 55.2883C107.181 54.679 106.502 53.759 106.08 52.5286C105.658 51.2981 105.447 49.7454 105.447 47.8704V24.8782H109.543V47.7825C109.543 48.7903 109.578 49.6633 109.648 50.4016C109.73 51.1399 109.935 51.7083 110.263 52.1067C110.592 52.5051 111.131 52.7043 111.881 52.7043C112.631 52.7043 113.164 52.511 113.48 52.1243C113.808 51.7258 114.008 51.1575 114.078 50.4192C114.148 49.6809 114.183 48.8079 114.183 47.8V24.8782H118.262V47.8704C118.262 49.7454 118.056 51.2981 117.646 52.5286C117.236 53.759 116.562 54.679 115.625 55.2883C114.699 55.886 113.451 56.1848 111.881 56.1848ZM122.92 55.8157V24.8782H126.998V52.3879H132.816V55.8157H122.92ZM135.576 55.8157V24.8782H145.297V28.3411H139.654V38.2551H144.998V41.6829H139.654V52.3528H145.42V55.8157H135.576Z" fill="#FFF9EC"/>
</svg>
