<svg width="3578" height="1080" viewBox="0 0 3578 1080" fill="none" xmlns="http://www.w3.org/2000/svg">
<rect width="435" height="1080" fill="url(#paint0_linear_1516_2)"/>
<rect width="118" height="1080" fill="#333638"/>
<rect x="432" y="-14" width="3077" height="1158" fill="#333638"/>
<g filter="url(#filter0_d_1516_2)">
<rect x="375" y="-153.691" width="60" height="1517.69" fill="#51595D"/>
<rect x="375" y="-153.691" width="60" height="1517.69" fill="url(#paint1_linear_1516_2)" fill-opacity="0.2"/>
<path d="M386 1291.1C386 1286.6 389.742 1282.94 394.357 1282.94H416.643C421.258 1282.94 425 1286.6 425 1291.1V1312.85C425 1317.35 421.258 1321 416.643 1321H394.357C389.742 1321 386 1317.35 386 1312.85V1291.1Z" fill="#333638"/>
<path d="M386 1212.27C386 1207.76 389.742 1204.11 394.357 1204.11H416.643C421.258 1204.11 425 1207.76 425 1212.27V1234.01C425 1238.52 421.258 1242.17 416.643 1242.17H394.357C389.742 1242.17 386 1238.52 386 1234.01V1212.27Z" fill="#333638"/>
<path d="M386 1133.44C386 1128.93 389.742 1125.28 394.357 1125.28H416.643C421.258 1125.28 425 1128.93 425 1133.44V1155.18C425 1159.69 421.258 1163.34 416.643 1163.34H394.357C389.742 1163.34 386 1159.69 386 1155.18V1133.44Z" fill="#333638"/>
<path d="M386 1054.61C386 1050.1 389.742 1046.45 394.357 1046.45H416.643C421.258 1046.45 425 1050.1 425 1054.61V1076.35C425 1080.86 421.258 1084.51 416.643 1084.51H394.357C389.742 1084.51 386 1080.86 386 1076.35V1054.61Z" fill="#333638"/>
<path d="M386 975.778C386 971.274 389.742 967.623 394.357 967.623H416.643C421.258 967.623 425 971.274 425 975.778V997.524C425 1002.03 421.258 1005.68 416.643 1005.68H394.357C389.742 1005.68 386 1002.03 386 997.524V975.778Z" fill="#333638"/>
<path d="M386 896.948C386 892.444 389.742 888.793 394.357 888.793H416.643C421.258 888.793 425 892.444 425 896.948V918.694C425 923.198 421.258 926.849 416.643 926.849H394.357C389.742 926.849 386 923.198 386 918.694V896.948Z" fill="#333638"/>
<path d="M386 818.118C386 813.614 389.742 809.963 394.357 809.963H416.643C421.258 809.963 425 813.614 425 818.118V839.864C425 844.368 421.258 848.019 416.643 848.019H394.357C389.742 848.019 386 844.368 386 839.864V818.118Z" fill="#333638"/>
<path d="M386 739.287C386 734.784 389.742 731.132 394.357 731.132H416.643C421.258 731.132 425 734.784 425 739.287V761.034C425 765.537 421.258 769.188 416.643 769.188H394.357C389.742 769.188 386 765.537 386 761.034V739.287Z" fill="#333638"/>
<path d="M386 660.457C386 655.953 389.742 652.302 394.357 652.302H416.643C421.258 652.302 425 655.953 425 660.457V682.203C425 686.707 421.258 690.358 416.643 690.358H394.357C389.742 690.358 386 686.707 386 682.203V660.457Z" fill="#333638"/>
<path d="M386 581.627C386 577.123 389.742 573.472 394.357 573.472H416.643C421.258 573.472 425 577.123 425 581.627V603.373C425 607.877 421.258 611.528 416.643 611.528H394.357C389.742 611.528 386 607.877 386 603.373V581.627Z" fill="#333638"/>
<path d="M386 502.797C386 498.293 389.742 494.642 394.357 494.642H416.643C421.258 494.642 425 498.293 425 502.797V524.543C425 529.047 421.258 532.698 416.643 532.698H394.357C389.742 532.698 386 529.047 386 524.543V502.797Z" fill="#333638"/>
<path d="M386 423.966C386 419.463 389.742 415.812 394.357 415.812H416.643C421.258 415.812 425 419.463 425 423.966V445.713C425 450.216 421.258 453.868 416.643 453.868H394.357C389.742 453.868 386 450.216 386 445.713V423.966Z" fill="#333638"/>
<path d="M386 345.136C386 340.632 389.742 336.981 394.357 336.981H416.643C421.258 336.981 425 340.632 425 345.136V366.882C425 371.386 421.258 375.037 416.643 375.037H394.357C389.742 375.037 386 371.386 386 366.882V345.136Z" fill="#333638"/>
<path d="M386 266.306C386 261.802 389.742 258.151 394.357 258.151H416.643C421.258 258.151 425 261.802 425 266.306V288.052C425 292.556 421.258 296.207 416.643 296.207H394.357C389.742 296.207 386 292.556 386 288.052V266.306Z" fill="#333638"/>
<path d="M386 187.476C386 182.972 389.742 179.321 394.357 179.321H416.643C421.258 179.321 425 182.972 425 187.476V209.222C425 213.726 421.258 217.377 416.643 217.377H394.357C389.742 217.377 386 213.726 386 209.222V187.476Z" fill="#333638"/>
<path d="M386 108.646C386 104.142 389.742 100.491 394.357 100.491H416.643C421.258 100.491 425 104.142 425 108.646V130.392C425 134.896 421.258 138.547 416.643 138.547H394.357C389.742 138.547 386 134.896 386 130.392V108.646Z" fill="#333638"/>
<path d="M386 29.8153C386 25.3115 389.742 21.6604 394.357 21.6604H416.643C421.258 21.6604 425 25.3115 425 29.8153V51.5616C425 56.0654 421.258 59.7164 416.643 59.7164H394.357C389.742 59.7164 386 56.0654 386 51.5616V29.8153Z" fill="#333638"/>
<path d="M386 -49.0149C386 -53.5187 389.742 -57.1698 394.357 -57.1698H416.643C421.258 -57.1698 425 -53.5187 425 -49.0149V-27.2687C425 -22.7649 421.258 -19.1138 416.643 -19.1138H394.357C389.742 -19.1138 386 -22.7649 386 -27.2687V-49.0149Z" fill="#333638"/>
<path d="M386 -127.845C386 -132.349 389.742 -136 394.357 -136H416.643C421.258 -136 425 -132.349 425 -127.845V-106.099C425 -101.595 421.258 -97.944 416.643 -97.944H394.357C389.742 -97.944 386 -101.595 386 -106.099V-127.845Z" fill="#333638"/>
</g>
<g filter="url(#filter1_f_1516_2)">
<path d="M427 992.49L3500 897V1074.77H427V992.49Z" fill="#2B2D2E"/>
</g>
<rect x="187" y="870" width="3097" height="90" fill="#51595D"/>
<path d="M447.5 775H3507L3283.5 874.5H191.5L447.5 775Z" fill="#404649"/>
<path d="M3284 873.5L3505 775.5V873.5L3284 988.5V873.5Z" fill="#333638"/>
<g filter="url(#filter2_f_1516_2)">
<path d="M432 351.49L3505 256V433.768H432V351.49Z" fill="#2B2D2E"/>
</g>
<rect x="192" y="229" width="3097" height="90" fill="#51595D"/>
<path d="M452.5 134H3512L3288.5 233.5H196.5L452.5 134Z" fill="#404649"/>
<path d="M3289 232.5L3510 134.5V221.5L3289 336.5V232.5Z" fill="#333638"/>
<g filter="url(#filter3_d_1516_2)">
<rect x="187" y="-114.691" width="60" height="1517.69" fill="#51595D"/>
<rect x="187" y="-114.691" width="60" height="1517.69" fill="url(#paint2_linear_1516_2)" fill-opacity="0.2"/>
<path d="M197 1329.54C197 1324.96 200.933 1321.24 205.786 1321.24H229.214C234.067 1321.24 238 1324.96 238 1329.54V1351.69C238 1356.28 234.067 1360 229.214 1360H205.786C200.933 1360 197 1356.28 197 1351.69V1329.54Z" fill="#333638"/>
<path d="M197 1249.25C197 1244.67 200.933 1240.95 205.786 1240.95H229.214C234.067 1240.95 238 1244.67 238 1249.25V1271.4C238 1275.99 234.067 1279.71 229.214 1279.71H205.786C200.933 1279.71 197 1275.99 197 1271.4V1249.25Z" fill="#333638"/>
<path d="M197 1168.96C197 1164.38 200.933 1160.66 205.786 1160.66H229.214C234.067 1160.66 238 1164.38 238 1168.96V1191.11C238 1195.7 234.067 1199.42 229.214 1199.42H205.786C200.933 1199.42 197 1195.7 197 1191.11V1168.96Z" fill="#333638"/>
<path d="M197 1088.67C197 1084.08 200.933 1080.37 205.786 1080.37H229.214C234.067 1080.37 238 1084.08 238 1088.67V1110.82C238 1115.41 234.067 1119.13 229.214 1119.13H205.786C200.933 1119.13 197 1115.41 197 1110.82V1088.67Z" fill="#333638"/>
<path d="M197 1008.38C197 1003.79 200.933 1000.07 205.786 1000.07H229.214C234.067 1000.07 238 1003.79 238 1008.38V1030.53C238 1035.12 234.067 1038.84 229.214 1038.84H205.786C200.933 1038.84 197 1035.12 197 1030.53V1008.38Z" fill="#333638"/>
<path d="M197 928.09C197 923.502 200.933 919.784 205.786 919.784H229.214C234.067 919.784 238 923.502 238 928.09V950.239C238 954.826 234.067 958.545 229.214 958.545H205.786C200.933 958.545 197 954.826 197 950.239V928.09Z" fill="#333638"/>
<path d="M197 847.799C197 843.211 200.933 839.493 205.786 839.493H229.214C234.067 839.493 238 843.211 238 847.799V869.948C238 874.535 234.067 878.254 229.214 878.254H205.786C200.933 878.254 197 874.535 197 869.948V847.799Z" fill="#333638"/>
<path d="M197 767.507C197 762.92 200.933 759.201 205.786 759.201H229.214C234.067 759.201 238 762.92 238 767.507V789.657C238 794.244 234.067 797.963 229.214 797.963H205.786C200.933 797.963 197 794.244 197 789.657V767.507Z" fill="#333638"/>
<path d="M197 687.216C197 682.629 200.933 678.91 205.786 678.91H229.214C234.067 678.91 238 682.629 238 687.216V709.366C238 713.953 234.067 717.672 229.214 717.672H205.786C200.933 717.672 197 713.953 197 709.366V687.216Z" fill="#333638"/>
<path d="M197 606.925C197 602.338 200.933 598.619 205.786 598.619H229.214C234.067 598.619 238 602.338 238 606.925V629.075C238 633.662 234.067 637.381 229.214 637.381H205.786C200.933 637.381 197 633.662 197 629.075V606.925Z" fill="#333638"/>
<path d="M197 526.634C197 522.047 200.933 518.328 205.786 518.328H229.214C234.067 518.328 238 522.047 238 526.634V548.784C238 553.371 234.067 557.09 229.214 557.09H205.786C200.933 557.09 197 553.371 197 548.784V526.634Z" fill="#333638"/>
<path d="M197 446.343C197 441.756 200.933 438.037 205.786 438.037H229.214C234.067 438.037 238 441.756 238 446.343V468.493C238 473.08 234.067 476.799 229.214 476.799H205.786C200.933 476.799 197 473.08 197 468.493V446.343Z" fill="#333638"/>
<path d="M197 366.052C197 361.465 200.933 357.746 205.786 357.746H229.214C234.067 357.746 238 361.465 238 366.052V388.201C238 392.789 234.067 396.507 229.214 396.507H205.786C200.933 396.507 197 392.789 197 388.201V366.052Z" fill="#333638"/>
<path d="M197 285.761C197 281.174 200.933 277.455 205.786 277.455H229.214C234.067 277.455 238 281.174 238 285.761V307.91C238 312.498 234.067 316.216 229.214 316.216H205.786C200.933 316.216 197 312.498 197 307.91V285.761Z" fill="#333638"/>
<path d="M197 205.47C197 200.883 200.933 197.164 205.786 197.164H229.214C234.067 197.164 238 200.883 238 205.47V227.619C238 232.207 234.067 235.925 229.214 235.925H205.786C200.933 235.925 197 232.207 197 227.619V205.47Z" fill="#333638"/>
<path d="M197 125.179C197 120.592 200.933 116.873 205.786 116.873H229.214C234.067 116.873 238 120.592 238 125.179V147.328C238 151.916 234.067 155.634 229.214 155.634H205.786C200.933 155.634 197 151.916 197 147.328V125.179Z" fill="#333638"/>
<path d="M197 44.8881C197 40.3008 200.933 36.5821 205.786 36.5821H229.214C234.067 36.5821 238 40.3008 238 44.8881V67.0373C238 71.6246 234.067 75.3433 229.214 75.3433H205.786C200.933 75.3433 197 71.6246 197 67.0373V44.8881Z" fill="#333638"/>
<path d="M197 -35.403C197 -39.9902 200.933 -43.709 205.786 -43.709H229.214C234.067 -43.709 238 -39.9902 238 -35.403V-13.2537C238 -8.66647 234.067 -4.94776 229.214 -4.94776H205.786C200.933 -4.94776 197 -8.66647 197 -13.2537V-35.403Z" fill="#333638"/>
<path d="M197 -115.694C197 -120.281 200.933 -124 205.786 -124H229.214C234.067 -124 238 -120.281 238 -115.694V-93.5448C238 -88.9575 234.067 -85.2388 229.214 -85.2388H205.786C200.933 -85.2388 197 -88.9575 197 -93.5448V-115.694Z" fill="#333638"/>
</g>
<g filter="url(#filter4_d_1516_2)">
<rect x="3464" y="-145.691" width="60" height="1517.69" fill="#51595D"/>
<rect x="3464" y="-145.691" width="60" height="1517.69" fill="url(#paint3_linear_1516_2)" fill-opacity="0.2"/>
<path d="M3473 1299.99C3473 1295.4 3477.03 1291.68 3482 1291.68H3506C3510.97 1291.68 3515 1295.4 3515 1299.99V1322.15C3515 1326.74 3510.97 1330.46 3506 1330.46H3482C3477.03 1330.46 3473 1326.74 3473 1322.15V1299.99Z" fill="#333638"/>
<path d="M3473 1219.68C3473 1215.09 3477.03 1211.37 3482 1211.37H3506C3510.97 1211.37 3515 1215.09 3515 1219.68V1241.83C3515 1246.42 3510.97 1250.14 3506 1250.14H3482C3477.03 1250.14 3473 1246.42 3473 1241.83V1219.68Z" fill="#333638"/>
<path d="M3473 1139.36C3473 1134.77 3477.03 1131.05 3482 1131.05H3506C3510.97 1131.05 3515 1134.77 3515 1139.36V1161.52C3515 1166.11 3510.97 1169.83 3506 1169.83H3482C3477.03 1169.83 3473 1166.11 3473 1161.52V1139.36Z" fill="#333638"/>
<path d="M3473 1059.05C3473 1054.46 3477.03 1050.74 3482 1050.74H3506C3510.97 1050.74 3515 1054.46 3515 1059.05V1081.2C3515 1085.79 3510.97 1089.51 3506 1089.51H3482C3477.03 1089.51 3473 1085.79 3473 1081.2V1059.05Z" fill="#333638"/>
<path d="M3473 978.73C3473 974.141 3477.03 970.421 3482 970.421H3506C3510.97 970.421 3515 974.141 3515 978.73V1000.89C3515 1005.47 3510.97 1009.19 3506 1009.19H3482C3477.03 1009.19 3473 1005.47 3473 1000.89V978.73Z" fill="#333638"/>
<path d="M3473 898.414C3473 893.825 3477.03 890.105 3482 890.105H3506C3510.97 890.105 3515 893.825 3515 898.414V920.57C3515 925.159 3510.97 928.878 3506 928.878H3482C3477.03 928.878 3473 925.159 3473 920.57V898.414Z" fill="#333638"/>
<path d="M3473 818.098C3473 813.509 3477.03 809.789 3482 809.789H3506C3510.97 809.789 3515 813.509 3515 818.098V840.254C3515 844.843 3510.97 848.563 3506 848.563H3482C3477.03 848.563 3473 844.843 3473 840.254V818.098Z" fill="#333638"/>
<path d="M3473 737.782C3473 733.194 3477.03 729.474 3482 729.474H3506C3510.97 729.474 3515 733.194 3515 737.782V759.938C3515 764.527 3510.97 768.247 3506 768.247H3482C3477.03 768.247 3473 764.527 3473 759.938V737.782Z" fill="#333638"/>
<path d="M3473 657.466C3473 652.878 3477.03 649.158 3482 649.158H3506C3510.97 649.158 3515 652.878 3515 657.466V679.622C3515 684.211 3510.97 687.931 3506 687.931H3482C3477.03 687.931 3473 684.211 3473 679.622V657.466Z" fill="#333638"/>
<path d="M3473 577.151C3473 572.562 3477.03 568.842 3482 568.842H3506C3510.97 568.842 3515 572.562 3515 577.151V599.307C3515 603.895 3510.97 607.615 3506 607.615H3482C3477.03 607.615 3473 603.895 3473 599.307V577.151Z" fill="#333638"/>
<path d="M3473 496.835C3473 492.246 3477.03 488.526 3482 488.526H3506C3510.97 488.526 3515 492.246 3515 496.835V518.991C3515 523.58 3510.97 527.299 3506 527.299H3482C3477.03 527.299 3473 523.58 3473 518.991V496.835Z" fill="#333638"/>
<path d="M3473 416.519C3473 411.93 3477.03 408.211 3482 408.211H3506C3510.97 408.211 3515 411.93 3515 416.519V438.675C3515 443.264 3510.97 446.984 3506 446.984H3482C3477.03 446.984 3473 443.264 3473 438.675V416.519Z" fill="#333638"/>
<path d="M3473 336.203C3473 331.615 3477.03 327.895 3482 327.895H3506C3510.97 327.895 3515 331.615 3515 336.203V358.359C3515 362.948 3510.97 366.668 3506 366.668H3482C3477.03 366.668 3473 362.948 3473 358.359V336.203Z" fill="#333638"/>
<path d="M3473 255.887C3473 251.299 3477.03 247.579 3482 247.579H3506C3510.97 247.579 3515 251.299 3515 255.887V278.044C3515 282.632 3510.97 286.352 3506 286.352H3482C3477.03 286.352 3473 282.632 3473 278.044V255.887Z" fill="#333638"/>
<path d="M3473 175.572C3473 170.983 3477.03 167.263 3482 167.263H3506C3510.97 167.263 3515 170.983 3515 175.572V197.728C3515 202.316 3510.97 206.036 3506 206.036H3482C3477.03 206.036 3473 202.316 3473 197.728V175.572Z" fill="#333638"/>
<path d="M3473 95.2559C3473 90.6672 3477.03 86.9474 3482 86.9474H3506C3510.97 86.9474 3515 90.6672 3515 95.2559V117.412C3515 122.001 3510.97 125.721 3506 125.721H3482C3477.03 125.721 3473 122.001 3473 117.412V95.2559Z" fill="#333638"/>
<path d="M3473 14.9401C3473 10.3514 3477.03 6.63158 3482 6.63158H3506C3510.97 6.63158 3515 10.3514 3515 14.9401V37.0962C3515 41.6849 3510.97 45.4047 3506 45.4047H3482C3477.03 45.4047 3473 41.6849 3473 37.0962V14.9401Z" fill="#333638"/>
<path d="M3473 -65.3757C3473 -69.9644 3477.03 -73.6842 3482 -73.6842H3506C3510.97 -73.6842 3515 -69.9644 3515 -65.3757V-43.2196C3515 -38.6309 3510.97 -34.9111 3506 -34.9111H3482C3477.03 -34.9111 3473 -38.6309 3473 -43.2196V-65.3757Z" fill="#333638"/>
<path d="M3473 -145.691C3473 -150.28 3477.03 -154 3482 -154H3506C3510.97 -154 3515 -150.28 3515 -145.691V-123.535C3515 -118.947 3510.97 -115.227 3506 -115.227H3482C3477.03 -115.227 3473 -118.947 3473 -123.535V-145.691Z" fill="#333638"/>
</g>
<g filter="url(#filter5_d_1516_2)">
<rect x="3276" y="-106.691" width="60" height="1517.69" fill="#51595D"/>
<rect x="3276" y="-106.691" width="60" height="1517.69" fill="url(#paint4_linear_1516_2)" fill-opacity="0.2"/>
<path d="M3285 1338.99C3285 1334.4 3289.03 1330.68 3294 1330.68H3318C3322.97 1330.68 3327 1334.4 3327 1338.99V1361.15C3327 1365.74 3322.97 1369.46 3318 1369.46H3294C3289.03 1369.46 3285 1365.74 3285 1361.15V1338.99Z" fill="#333638"/>
<path d="M3285 1258.68C3285 1254.09 3289.03 1250.37 3294 1250.37H3318C3322.97 1250.37 3327 1254.09 3327 1258.68V1280.83C3327 1285.42 3322.97 1289.14 3318 1289.14H3294C3289.03 1289.14 3285 1285.42 3285 1280.83V1258.68Z" fill="#333638"/>
<path d="M3285 1178.36C3285 1173.77 3289.03 1170.05 3294 1170.05H3318C3322.97 1170.05 3327 1173.77 3327 1178.36V1200.52C3327 1205.11 3322.97 1208.83 3318 1208.83H3294C3289.03 1208.83 3285 1205.11 3285 1200.52V1178.36Z" fill="#333638"/>
<path d="M3285 1098.05C3285 1093.46 3289.03 1089.74 3294 1089.74H3318C3322.97 1089.74 3327 1093.46 3327 1098.05V1120.2C3327 1124.79 3322.97 1128.51 3318 1128.51H3294C3289.03 1128.51 3285 1124.79 3285 1120.2V1098.05Z" fill="#333638"/>
<path d="M3285 1017.73C3285 1013.14 3289.03 1009.42 3294 1009.42H3318C3322.97 1009.42 3327 1013.14 3327 1017.73V1039.89C3327 1044.47 3322.97 1048.19 3318 1048.19H3294C3289.03 1048.19 3285 1044.47 3285 1039.89V1017.73Z" fill="#333638"/>
<path d="M3285 937.414C3285 932.825 3289.03 929.105 3294 929.105H3318C3322.97 929.105 3327 932.825 3327 937.414V959.57C3327 964.159 3322.97 967.878 3318 967.878H3294C3289.03 967.878 3285 964.159 3285 959.57V937.414Z" fill="#333638"/>
<path d="M3285 857.098C3285 852.509 3289.03 848.789 3294 848.789H3318C3322.97 848.789 3327 852.509 3327 857.098V879.254C3327 883.843 3322.97 887.563 3318 887.563H3294C3289.03 887.563 3285 883.843 3285 879.254V857.098Z" fill="#333638"/>
<path d="M3285 776.782C3285 772.194 3289.03 768.474 3294 768.474H3318C3322.97 768.474 3327 772.194 3327 776.782V798.938C3327 803.527 3322.97 807.247 3318 807.247H3294C3289.03 807.247 3285 803.527 3285 798.938V776.782Z" fill="#333638"/>
<path d="M3285 696.466C3285 691.878 3289.03 688.158 3294 688.158H3318C3322.97 688.158 3327 691.878 3327 696.466V718.622C3327 723.211 3322.97 726.931 3318 726.931H3294C3289.03 726.931 3285 723.211 3285 718.622V696.466Z" fill="#333638"/>
<path d="M3285 616.151C3285 611.562 3289.03 607.842 3294 607.842H3318C3322.97 607.842 3327 611.562 3327 616.151V638.307C3327 642.895 3322.97 646.615 3318 646.615H3294C3289.03 646.615 3285 642.895 3285 638.307V616.151Z" fill="#333638"/>
<path d="M3285 535.835C3285 531.246 3289.03 527.526 3294 527.526H3318C3322.97 527.526 3327 531.246 3327 535.835V557.991C3327 562.58 3322.97 566.299 3318 566.299H3294C3289.03 566.299 3285 562.58 3285 557.991V535.835Z" fill="#333638"/>
<path d="M3285 455.519C3285 450.93 3289.03 447.211 3294 447.211H3318C3322.97 447.211 3327 450.93 3327 455.519V477.675C3327 482.264 3322.97 485.984 3318 485.984H3294C3289.03 485.984 3285 482.264 3285 477.675V455.519Z" fill="#333638"/>
<path d="M3285 375.203C3285 370.615 3289.03 366.895 3294 366.895H3318C3322.97 366.895 3327 370.615 3327 375.203V397.359C3327 401.948 3322.97 405.668 3318 405.668H3294C3289.03 405.668 3285 401.948 3285 397.359V375.203Z" fill="#333638"/>
<path d="M3285 294.887C3285 290.299 3289.03 286.579 3294 286.579H3318C3322.97 286.579 3327 290.299 3327 294.887V317.044C3327 321.632 3322.97 325.352 3318 325.352H3294C3289.03 325.352 3285 321.632 3285 317.044V294.887Z" fill="#333638"/>
<path d="M3285 214.572C3285 209.983 3289.03 206.263 3294 206.263H3318C3322.97 206.263 3327 209.983 3327 214.572V236.728C3327 241.316 3322.97 245.036 3318 245.036H3294C3289.03 245.036 3285 241.316 3285 236.728V214.572Z" fill="#333638"/>
<path d="M3285 134.256C3285 129.667 3289.03 125.947 3294 125.947H3318C3322.97 125.947 3327 129.667 3327 134.256V156.412C3327 161.001 3322.97 164.721 3318 164.721H3294C3289.03 164.721 3285 161.001 3285 156.412V134.256Z" fill="#333638"/>
<path d="M3285 53.9401C3285 49.3514 3289.03 45.6316 3294 45.6316H3318C3322.97 45.6316 3327 49.3514 3327 53.9401V76.0962C3327 80.6849 3322.97 84.4047 3318 84.4047H3294C3289.03 84.4047 3285 80.6849 3285 76.0962V53.9401Z" fill="#333638"/>
<path d="M3285 -26.3757C3285 -30.9644 3289.03 -34.6842 3294 -34.6842H3318C3322.97 -34.6842 3327 -30.9644 3327 -26.3757V-4.2196C3327 0.369072 3322.97 4.08893 3318 4.08893H3294C3289.03 4.08893 3285 0.369072 3285 -4.2196V-26.3757Z" fill="#333638"/>
<path d="M3285 -106.691C3285 -111.28 3289.03 -115 3294 -115H3318C3322.97 -115 3327 -111.28 3327 -106.691V-84.5354C3327 -79.9467 3322.97 -76.2269 3318 -76.2269H3294C3289.03 -76.2269 3285 -79.9467 3285 -84.5354V-106.691Z" fill="#333638"/>
</g>
<defs>
<filter id="filter0_d_1516_2" x="374" y="-153.691" width="68" height="1525.69" filterUnits="userSpaceOnUse" color-interpolation-filters="sRGB">
<feFlood flood-opacity="0" result="BackgroundImageFix"/>
<feColorMatrix in="SourceAlpha" type="matrix" values="0 0 0 0 0 0 0 0 0 0 0 0 0 0 0 0 0 0 127 0" result="hardAlpha"/>
<feOffset dx="3" dy="4"/>
<feGaussianBlur stdDeviation="2"/>
<feComposite in2="hardAlpha" operator="out"/>
<feColorMatrix type="matrix" values="0 0 0 0 0 0 0 0 0 0 0 0 0 0 0 0 0 0 0.25 0"/>
<feBlend mode="normal" in2="BackgroundImageFix" result="effect1_dropShadow_1516_2"/>
<feBlend mode="normal" in="SourceGraphic" in2="effect1_dropShadow_1516_2" result="shape"/>
</filter>
<filter id="filter1_f_1516_2" x="354.7" y="824.7" width="3217.6" height="322.368" filterUnits="userSpaceOnUse" color-interpolation-filters="sRGB">
<feFlood flood-opacity="0" result="BackgroundImageFix"/>
<feBlend mode="normal" in="SourceGraphic" in2="BackgroundImageFix" result="shape"/>
<feGaussianBlur stdDeviation="36.15" result="effect1_foregroundBlur_1516_2"/>
</filter>
<filter id="filter2_f_1516_2" x="359.7" y="183.7" width="3217.6" height="322.368" filterUnits="userSpaceOnUse" color-interpolation-filters="sRGB">
<feFlood flood-opacity="0" result="BackgroundImageFix"/>
<feBlend mode="normal" in="SourceGraphic" in2="BackgroundImageFix" result="shape"/>
<feGaussianBlur stdDeviation="36.15" result="effect1_foregroundBlur_1516_2"/>
</filter>
<filter id="filter3_d_1516_2" x="186" y="-124" width="68" height="1535" filterUnits="userSpaceOnUse" color-interpolation-filters="sRGB">
<feFlood flood-opacity="0" result="BackgroundImageFix"/>
<feColorMatrix in="SourceAlpha" type="matrix" values="0 0 0 0 0 0 0 0 0 0 0 0 0 0 0 0 0 0 127 0" result="hardAlpha"/>
<feOffset dx="3" dy="4"/>
<feGaussianBlur stdDeviation="2"/>
<feComposite in2="hardAlpha" operator="out"/>
<feColorMatrix type="matrix" values="0 0 0 0 0 0 0 0 0 0 0 0 0 0 0 0 0 0 0.25 0"/>
<feBlend mode="normal" in2="BackgroundImageFix" result="effect1_dropShadow_1516_2"/>
<feBlend mode="normal" in="SourceGraphic" in2="effect1_dropShadow_1516_2" result="shape"/>
</filter>
<filter id="filter4_d_1516_2" x="3463" y="-154" width="68" height="1534" filterUnits="userSpaceOnUse" color-interpolation-filters="sRGB">
<feFlood flood-opacity="0" result="BackgroundImageFix"/>
<feColorMatrix in="SourceAlpha" type="matrix" values="0 0 0 0 0 0 0 0 0 0 0 0 0 0 0 0 0 0 127 0" result="hardAlpha"/>
<feOffset dx="3" dy="4"/>
<feGaussianBlur stdDeviation="2"/>
<feComposite in2="hardAlpha" operator="out"/>
<feColorMatrix type="matrix" values="0 0 0 0 0 0 0 0 0 0 0 0 0 0 0 0 0 0 0.25 0"/>
<feBlend mode="normal" in2="BackgroundImageFix" result="effect1_dropShadow_1516_2"/>
<feBlend mode="normal" in="SourceGraphic" in2="effect1_dropShadow_1516_2" result="shape"/>
</filter>
<filter id="filter5_d_1516_2" x="3275" y="-115" width="68" height="1534" filterUnits="userSpaceOnUse" color-interpolation-filters="sRGB">
<feFlood flood-opacity="0" result="BackgroundImageFix"/>
<feColorMatrix in="SourceAlpha" type="matrix" values="0 0 0 0 0 0 0 0 0 0 0 0 0 0 0 0 0 0 127 0" result="hardAlpha"/>
<feOffset dx="3" dy="4"/>
<feGaussianBlur stdDeviation="2"/>
<feComposite in2="hardAlpha" operator="out"/>
<feColorMatrix type="matrix" values="0 0 0 0 0 0 0 0 0 0 0 0 0 0 0 0 0 0 0.25 0"/>
<feBlend mode="normal" in2="BackgroundImageFix" result="effect1_dropShadow_1516_2"/>
<feBlend mode="normal" in="SourceGraphic" in2="effect1_dropShadow_1516_2" result="shape"/>
</filter>
<linearGradient id="paint0_linear_1516_2" x1="0" y1="540" x2="555" y2="540" gradientUnits="userSpaceOnUse">
<stop offset="0.541575" stop-color="#2B2D2E"/>
<stop offset="1" stop-color="#3C4145"/>
</linearGradient>
<linearGradient id="paint1_linear_1516_2" x1="435" y1="393.287" x2="409.43" y2="1364.12" gradientUnits="userSpaceOnUse">
<stop stop-opacity="0"/>
<stop offset="1"/>
</linearGradient>
<linearGradient id="paint2_linear_1516_2" x1="247" y1="432.287" x2="221.43" y2="1403.12" gradientUnits="userSpaceOnUse">
<stop stop-opacity="0"/>
<stop offset="1"/>
</linearGradient>
<linearGradient id="paint3_linear_1516_2" x1="3524" y1="401.287" x2="3498.43" y2="1372.12" gradientUnits="userSpaceOnUse">
<stop stop-opacity="0"/>
<stop offset="1"/>
</linearGradient>
<linearGradient id="paint4_linear_1516_2" x1="3336" y1="440.287" x2="3310.43" y2="1411.12" gradientUnits="userSpaceOnUse">
<stop stop-opacity="0"/>
<stop offset="1"/>
</linearGradient>
</defs>
</svg>
