<svg width="1058" height="699" viewBox="0 0 1058 699" fill="none" xmlns="http://www.w3.org/2000/svg">
<path d="M807.194 133.467L489.719 91.4148L471.356 294.996L430.623 450.283L745.258 504.254C748.822 464.218 764.08 342.618 764.39 331.248C764.699 319.877 791.287 207.697 807.194 133.467Z" fill="#F6E8CF"/>
<path d="M494.306 62.6451L489.571 92.3431L806.75 136.251L815.446 105.281L802.201 111.735L801.7 103.09L789.372 109.689L782.013 102.806L770.129 106.621L764.602 100.03L752.274 106.629L746.719 94.3238L733.031 103.561L727.652 96.0421L717.897 98.2934L712.074 93.5584L698.653 95.2253L691.738 85.5578L680.798 95.2336L671.578 82.3436L664.748 89.8196L658.925 85.0846L650.559 90.4123L643.347 82.6009L634.537 90.7128L630.843 84.4139L621.708 88.6674L617.689 78.5101L607.962 86.4759L604.268 80.177L598.799 85.0149L592.356 78.2777L583.221 82.5312L578.61 76.0862L570.392 80.4858L563.624 69.8903L553.897 77.856L545.622 70.8266L541.512 73.0264L534.625 69.0734L524.574 73.1808L518.131 66.4436L506.247 70.2588L494.306 62.6451Z" fill="#E7584C"/>
<path d="M495.513 90.4354L801.695 132.59" stroke="#543A1B" stroke-width="0.4"/>
<path d="M496.104 86.723L802.287 128.878" stroke="#543A1B" stroke-width="0.4"/>
<path d="M499.713 75.8784L498.529 83.3029" stroke="#543A1B" stroke-width="0.6"/>
<path d="M512.689 76.9961L511.506 84.4206" stroke="#543A1B" stroke-width="0.6"/>
<path d="M525.519 79.0415L524.335 86.466" stroke="#543A1B" stroke-width="0.6"/>
<path d="M540.18 81.3789L538.996 88.8034" stroke="#543A1B" stroke-width="0.6"/>
<path d="M554.842 83.7168L553.658 91.1413" stroke="#543A1B" stroke-width="0.6"/>
<path d="M567.967 83.9053L566.784 91.3298" stroke="#543A1B" stroke-width="0.6"/>
<path d="M580.796 85.9507L579.613 93.3752" stroke="#543A1B" stroke-width="0.6"/>
<path d="M593.625 87.9961L592.441 95.4206" stroke="#543A1B" stroke-width="0.6"/>
<path d="M606.454 90.0415L605.27 97.466" stroke="#543A1B" stroke-width="0.6"/>
<path d="M621.116 92.3789L619.932 99.8034" stroke="#543A1B" stroke-width="0.6"/>
<path d="M633.945 94.4243L632.761 101.849" stroke="#543A1B" stroke-width="0.6"/>
<path d="M646.774 96.4697L645.59 103.894" stroke="#543A1B" stroke-width="0.6"/>
<path d="M659.898 96.6592L658.715 104.084" stroke="#543A1B" stroke-width="0.6"/>
<path d="M674.56 98.9971L673.376 106.422" stroke="#543A1B" stroke-width="0.6"/>
<path d="M689.222 101.334L688.038 108.759" stroke="#543A1B" stroke-width="0.6"/>
<path d="M702.051 103.38L700.868 110.804" stroke="#543A1B" stroke-width="0.6"/>
<path d="M716.713 105.718L715.529 113.142" stroke="#543A1B" stroke-width="0.6"/>
<path d="M731.374 108.055L730.19 115.48" stroke="#543A1B" stroke-width="0.6"/>
<path d="M744.203 110.101L743.019 117.525" stroke="#543A1B" stroke-width="0.6"/>
<path d="M758.865 112.438L757.682 119.862" stroke="#543A1B" stroke-width="0.6"/>
<path d="M771.694 114.483L770.51 121.908" stroke="#543A1B" stroke-width="0.6"/>
<path d="M784.523 116.529L783.34 123.953" stroke="#543A1B" stroke-width="0.6"/>
<path d="M797.353 118.574L796.169 125.999" stroke="#543A1B" stroke-width="0.6"/>
<path d="M426.481 476.268L431.216 446.57L746.323 503.471L744.957 535.609L734.377 525.358L731.212 533.418L721.548 523.312L712.413 527.566L702.304 520.244L695.002 524.79L685.337 514.684L676.231 524.652L666.094 511.616L658.643 517.09L650.072 511.916L643.065 514.606L630.828 508.848L621.249 515.886L613.861 503.288L601.089 512.672L596.923 503.443L589.917 506.132L583.622 498.467L574.339 503.648L568.487 493.199L563.018 498.037L555.658 491.154L548.681 499.558L541.913 488.962L536.443 493.8L532.749 487.501L524.531 491.901L517.171 485.017L510.785 489.709L504.342 482.972L494.616 490.938L487.848 480.342L477.797 484.45L474.575 481.081L466.8 482.696L458.525 475.667L450.306 480.067L440.197 472.745L426.481 476.268Z" fill="#E7584C"/>
<path d="M436.27 450.231L740.381 505.378" stroke="#543A1B" stroke-width="0.4"/>
<path d="M435.678 453.943L739.789 509.091" stroke="#543A1B" stroke-width="0.4"/>
<path d="M435.735 465.372L436.919 457.948" stroke="#543A1B" stroke-width="0.6"/>
<path d="M448.417 468.345L449.6 460.921" stroke="#543A1B" stroke-width="0.6"/>
<path d="M461.246 470.391L462.429 462.966" stroke="#543A1B" stroke-width="0.6"/>
<path d="M475.907 472.729L477.091 465.304" stroke="#543A1B" stroke-width="0.6"/>
<path d="M490.569 475.066L491.753 467.641" stroke="#543A1B" stroke-width="0.6"/>
<path d="M503.102 478.968L504.286 471.543" stroke="#543A1B" stroke-width="0.6"/>
<path d="M515.931 481.013L517.115 473.589" stroke="#543A1B" stroke-width="0.6"/>
<path d="M528.76 483.059L529.944 475.634" stroke="#543A1B" stroke-width="0.6"/>
<path d="M541.589 485.104L542.773 477.679" stroke="#543A1B" stroke-width="0.6"/>
<path d="M556.25 487.441L557.434 480.017" stroke="#543A1B" stroke-width="0.6"/>
<path d="M569.08 489.487L570.263 482.062" stroke="#543A1B" stroke-width="0.6"/>
<path d="M581.909 491.532L583.092 484.108" stroke="#543A1B" stroke-width="0.6"/>
<path d="M594.441 495.434L595.625 488.009" stroke="#543A1B" stroke-width="0.6"/>
<path d="M609.103 497.771L610.287 490.346" stroke="#543A1B" stroke-width="0.6"/>
<path d="M623.765 500.109L624.949 492.684" stroke="#543A1B" stroke-width="0.6"/>
<path d="M636.594 502.154L637.778 494.73" stroke="#543A1B" stroke-width="0.6"/>
<path d="M651.256 504.492L652.44 497.067" stroke="#543A1B" stroke-width="0.6"/>
<path d="M665.917 506.829L667.101 499.405" stroke="#543A1B" stroke-width="0.6"/>
<path d="M678.747 508.875L679.93 501.45" stroke="#543A1B" stroke-width="0.6"/>
<path d="M693.409 511.212L694.592 503.788" stroke="#543A1B" stroke-width="0.6"/>
<path d="M706.237 513.258L707.421 505.833" stroke="#543A1B" stroke-width="0.6"/>
<path d="M719.066 515.303L720.25 507.879" stroke="#543A1B" stroke-width="0.6"/>
<path d="M731.896 517.349L733.079 509.924" stroke="#543A1B" stroke-width="0.6"/>
<path d="M794.502 189.494C723.064 161.356 550.352 233.679 472.925 273.359L470.29 295.778L430.918 448.427L747.09 504.546L763.94 334.031L794.502 189.494Z" fill="#FFAD61"/>
<path d="M530.049 383.216C530.719 382.645 532.606 381.657 534.798 382.272C534.672 381.159 535.9 378.796 541.814 378.251C543.858 376.269 548.482 372.671 550.628 374.136C552.259 371.798 555.948 367.196 557.663 367.485C558.108 365.733 559.598 362.111 561.997 361.634C561.779 359.577 561.941 355.342 564.341 354.865C564.378 351.882 565.103 345.785 567.702 345.268C570.301 344.752 571.393 343.309 571.614 342.653C573.168 341.731 576.507 341.102 577.431 345.961C578.356 350.819 576.82 357.287 575.936 359.914C576.27 362.123 576.275 367.147 573.622 369.565C572.768 372.52 570.337 378.423 567.263 379.233C565.818 381.359 562.128 385.769 558.929 386.404C558.186 387.953 555.423 390.883 550.316 390.217C550.541 391.398 549.781 393.948 544.944 394.699C541.576 395.631 534.526 396.928 533.264 394.657C532.002 392.387 532.064 390.169 532.253 389.343C530.762 388.327 528.235 385.677 530.049 383.216Z" fill="#F6E8CF"/>
<path d="M687.824 375.467C688.494 374.896 690.381 373.908 692.573 374.523C692.448 373.41 693.676 371.047 699.59 370.502C701.633 368.52 706.258 364.922 708.404 366.387C710.034 364.049 713.724 359.447 715.439 359.736C715.884 357.984 717.373 354.362 719.772 353.885C719.554 351.828 719.717 347.593 722.116 347.116C722.153 344.133 722.878 338.036 725.478 337.519C728.077 337.003 729.168 335.56 729.389 334.904C730.943 333.982 734.282 333.353 735.207 338.212C736.131 343.07 734.595 349.538 733.711 352.165C734.045 354.374 734.05 359.398 731.398 361.816C730.543 364.771 728.112 370.674 725.038 371.484C723.593 373.61 719.903 378.02 716.704 378.655C715.961 380.204 713.199 383.134 708.092 382.468C708.316 383.649 707.557 386.199 702.719 386.95C699.352 387.882 692.301 389.178 691.039 386.908C689.777 384.638 689.839 382.42 690.028 381.594C688.538 380.577 686.01 377.928 687.824 375.467Z" fill="#F6E8CF"/>
<path d="M475.264 252.795C533.986 226.311 648.534 173.835 723.737 167.743C771.592 163.867 789.479 171.881 797.785 174.791" stroke="#FFAD61" stroke-width="2"/>
<path d="M595.428 367.832C596.249 367.528 598.354 367.254 600.202 368.593C600.462 367.503 602.414 365.707 608.146 367.248C610.735 366.093 616.292 364.315 617.808 366.437C620.13 364.805 625.15 361.756 626.661 362.624C627.672 361.131 630.297 358.241 632.709 358.625C633.202 356.614 634.79 352.688 637.202 353.072C638.248 350.279 640.995 344.795 643.608 345.212C646.221 345.629 647.734 344.651 648.164 344.11C649.934 343.782 653.278 344.351 652.499 349.242C651.719 354.133 648.085 359.684 646.366 361.848C645.931 364.042 644.232 368.769 640.925 370.123C639.121 372.605 634.84 377.314 631.682 377.008C629.607 378.506 624.651 381.373 621.435 380.86C620.213 382.059 616.629 383.856 612.064 381.456C611.875 382.645 610.298 384.779 605.506 383.806C602.031 383.514 594.979 382.285 594.565 379.711C594.151 377.137 594.961 375.072 595.418 374.361C594.364 372.887 592.892 369.518 595.428 367.832Z" fill="#F6E8CF"/>
<path d="M667.654 294.394C668.504 294.593 670.41 295.528 671.23 297.675C672.036 296.903 674.637 296.476 678.592 300.941C681.377 301.404 686.979 302.986 687.099 305.607C689.92 305.521 695.759 305.74 696.552 307.304C698.203 306.61 701.957 305.636 703.764 307.294C705.261 305.878 708.708 303.46 710.515 305.118C712.898 303.351 718.153 300.268 720.111 302.064C722.068 303.859 723.86 303.876 724.511 303.659C726.166 304.364 728.653 306.691 725.36 310.366C722.066 314.041 716.034 316.69 713.429 317.556C711.88 319.157 707.908 322.185 704.415 321.491C701.568 322.578 695.449 324.162 692.977 322.158C690.434 322.267 684.747 321.932 682.337 319.721C680.67 320.052 676.706 319.577 674.19 315.037C673.389 315.93 670.919 316.849 667.443 313.381C664.699 311.213 659.473 306.279 660.517 303.889C661.561 301.499 663.353 300.214 664.119 299.87C664.035 298.049 664.625 294.406 667.654 294.394Z" fill="#F6E8CF"/>
<path d="M656.144 400.628C656.998 401.373 658.622 403.602 658.286 406.563C659.664 406.166 662.889 407.255 664.762 414.779C667.671 417.001 673.134 422.216 671.719 425.297C674.993 426.91 681.535 430.706 681.514 432.983C683.812 433.188 688.678 434.35 689.76 437.348C692.311 436.633 697.682 435.951 698.764 438.95C702.534 438.37 710.366 438.022 711.538 441.271C712.711 444.519 714.748 445.626 715.621 445.773C717.094 447.586 718.556 451.766 712.616 453.983C706.676 456.2 698.213 455.578 694.724 454.99C692.005 455.886 685.672 456.95 682.091 454.033C678.195 453.552 670.264 451.655 668.627 447.855C665.657 446.436 659.357 442.599 657.914 438.601C655.813 437.967 651.565 435.016 651.38 428.28C649.936 428.819 646.569 428.374 644.652 422.284C642.802 418.131 639.754 409.297 642.363 407.189C644.972 405.081 647.782 404.694 648.86 404.764C649.843 402.625 652.677 398.803 656.144 400.628Z" fill="#F6E8CF"/>
<path d="M532.996 414.673C534.112 414.845 536.659 415.861 537.923 418.546C538.888 417.472 542.199 416.664 547.729 422.026C551.366 422.347 558.74 423.831 559.148 427.196C562.776 426.806 570.326 426.511 571.5 428.448C573.561 427.391 578.306 425.765 580.796 427.722C582.59 425.749 586.8 422.293 589.29 424.25C592.192 421.739 598.67 417.246 601.367 419.366C604.064 421.486 606.375 421.33 607.194 420.987C609.395 421.731 612.826 424.484 608.935 429.544C605.044 434.605 597.522 438.615 594.248 439.988C592.405 442.204 587.577 446.499 583.006 445.951C579.441 447.632 571.705 450.279 568.324 447.941C565.056 448.333 557.691 448.463 554.372 445.854C552.254 446.444 547.097 446.224 543.415 440.624C542.47 441.854 539.374 443.282 534.557 439.158C530.81 436.635 523.596 430.795 524.711 427.612C525.827 424.43 528.013 422.596 528.967 422.077C528.684 419.74 529.093 414.987 532.996 414.673Z" fill="#F6E8CF"/>
<path d="M524.588 197.428L542.265 200.247L555.63 211.924L571.067 237.883" stroke="#E7584C" stroke-width="2"/>
<path d="M529.628 193.092L545.853 195.679L557.832 208.195L571.295 236.451" stroke="#E7584C" stroke-width="2"/>
<path d="M548.46 250.067C544.446 247.958 539.262 235.749 537.172 229.909C537.016 236.346 539.713 243.532 541.081 246.32C539.53 246.954 536.437 239.827 535.084 236.185C534.832 244.589 543.007 254.705 542.322 259.001C541.774 262.439 538.392 257.885 536.769 255.179C534.703 265.864 547.872 285.588 547.916 294.406C547.951 301.462 560.003 309.551 566.024 312.714C558.972 306.009 552.012 285.391 549.413 275.92C550.768 268.181 552.474 252.175 548.46 250.067Z" fill="#E7584C" stroke="#E7584C"/>
<path d="M528.143 213.783L538.488 210.292L558.547 218.631L574.967 240.708" stroke="#E7584C" stroke-width="2"/>
<path d="M529.905 209.554L539.795 204.994L558.369 214.093L572.96 239.654" stroke="#E7584C" stroke-width="2"/>
<path d="M531.141 224.542L544.578 215.302L561.559 220.212L574.032 242.028" stroke="#E7584C" stroke-width="2"/>
<path d="M543.318 175.448C537.41 175.362 526.934 172.248 532.292 160.472C537.65 148.696 572.585 164.693 586.828 175.408C607.221 190.751 648.436 236.487 649.975 252.3" stroke="#E7584C"/>
<path d="M542.656 172.772C537.867 168.704 528.036 161.97 528.838 152.578C529.672 142.798 571.196 157.125 585.439 167.841C605.832 183.183 644.573 217.513 646.112 233.326" stroke="#E7584C"/>
<path d="M554.28 165.813L545.889 147.953L569.836 168.293C601.939 192.504 629.81 242.353 639.732 264.252C642.942 278.226 641.038 308.813 607.743 319.366C566.124 332.557 560.256 301.147 550.369 290.392C540.483 279.637 544.005 230.264 551.416 240.625C557.345 248.913 558.954 268.385 559.017 277.084L585.634 289.773C591.893 281.591 600.536 262.702 585.036 252.594C565.661 239.959 559.644 214.032 557.011 205.535C554.904 198.737 552.334 188.634 551.312 184.432C544.186 181.828 542.862 178.312 543.09 176.88C543.525 169.606 535.52 158.416 533.674 154.083C532.196 150.616 535.165 150.037 536.833 150.181L554.28 165.813Z" fill="url(#paint0_linear_1327_300)"/>
<ellipse cx="560.358" cy="168.618" rx="2.14806" ry="2.1755" transform="rotate(9.05873 560.358 168.618)" fill="#491507"/>
<path d="M559.355 168.09C559.393 167.852 559.67 167.48 560.473 167.901" stroke="#F3C9BE"/>
<path d="M600.385 215.387C591.207 207.462 582.144 194.121 578.994 188.111C575.536 184.329 572.156 178.699 571.982 175.244C575.418 179.464 591.188 198.941 612.324 224.634C638.744 256.751 626.185 265.029 626.928 260.374C627.67 255.719 611.856 225.294 600.385 215.387Z" fill="#FFB773"/>
<path d="M640.999 272.164C632.366 279.013 618.592 273.243 612.783 269.502C618.484 279.223 637.94 284.527 640.05 282.661C641.739 281.168 641.169 274.884 640.999 272.164Z" fill="#B6310C"/>
<path d="M638.088 290.425C628.795 295.905 614.558 287.111 609.666 282.566C613.482 292.99 632.179 300.926 634.482 299.397C636.324 298.173 637.806 293.132 638.088 290.425Z" fill="#B6310C"/>
<path d="M627.808 307.145C618.516 312.624 607.498 299.226 602.605 294.682C606.422 305.105 616.357 316.027 618.66 314.498C620.503 313.275 627.527 309.851 627.808 307.145Z" fill="#B6310C"/>
<path d="M704.296 308.419L805.833 136.105L765.745 328.609L744.809 536.538L704.296 308.419Z" fill="#543A1B" fill-opacity="0.3"/>
<path d="M459.65 103.032L152.061 139.311L183.226 332.015L181.947 485.335L489.706 460.756C483.533 422.87 468.938 306.752 466.526 296.158C464.114 285.565 462.379 175.478 459.65 103.032Z" fill="#F6E8CF"/>
<path d="M149.524 111.606L152.143 140.205L459.895 105.713L460.687 74.9999L449.806 84.1072L447.282 76.2276L437.294 85.2529L428.76 80.6274L418.526 86.9716L411.779 82.1824L401.792 91.2077L393.66 81.1381L383.024 92.9264L376.195 87.2435L367.586 91.6367L361.002 88.6348L348.818 93.3554L340.038 86.0487L332.083 97.5915L320.377 87.8492L315.751 96.3835L309.168 93.3816L302.591 100.292L293.975 94.773L287.644 104.365L282.684 99.4117L275.132 105.51L268.952 97.0646L261.727 106.738L256.767 101.785L252.79 107.557L245.149 102.849L237.597 108.948L231.744 104.077L225.085 110.094L216.224 101.893L208.999 111.567L199.571 107.023L196.241 110.032L188.846 108.005L180.4 114.186L172.76 109.478L162.526 115.823L149.524 111.606Z" fill="#E7584C"/>
<path d="M157.259 137.033L454.287 103.523" stroke="#543A1B" stroke-width="0.4"/>
<path d="M156.932 133.458L453.96 99.9481" stroke="#543A1B" stroke-width="0.4"/>
<path d="M157.737 122.569L158.392 129.719" stroke="#543A1B" stroke-width="0.6"/>
<path d="M170.167 120.53L170.822 127.679" stroke="#543A1B" stroke-width="0.6"/>
<path d="M182.679 119.384L183.334 126.534" stroke="#543A1B" stroke-width="0.6"/>
<path d="M196.978 118.075L197.633 125.224" stroke="#543A1B" stroke-width="0.6"/>
<path d="M211.277 116.765L211.932 123.915" stroke="#543A1B" stroke-width="0.6"/>
<path d="M223.625 113.832L224.28 120.981" stroke="#543A1B" stroke-width="0.6"/>
<path d="M236.137 112.686L236.792 119.836" stroke="#543A1B" stroke-width="0.6"/>
<path d="M248.649 111.54L249.304 118.69" stroke="#543A1B" stroke-width="0.6"/>
<path d="M261.161 110.395L261.815 117.544" stroke="#543A1B" stroke-width="0.6"/>
<path d="M275.459 109.085L276.114 116.235" stroke="#543A1B" stroke-width="0.6"/>
<path d="M287.972 107.939L288.626 115.089" stroke="#543A1B" stroke-width="0.6"/>
<path d="M300.483 106.793L301.138 113.943" stroke="#543A1B" stroke-width="0.6"/>
<path d="M312.831 103.86L313.486 111.01" stroke="#543A1B" stroke-width="0.6"/>
<path d="M327.13 102.551L327.785 109.7" stroke="#543A1B" stroke-width="0.6"/>
<path d="M341.43 101.241L342.084 108.391" stroke="#543A1B" stroke-width="0.6"/>
<path d="M353.941 100.095L354.596 107.245" stroke="#543A1B" stroke-width="0.6"/>
<path d="M368.24 98.7861L368.895 105.936" stroke="#543A1B" stroke-width="0.6"/>
<path d="M382.54 97.4766L383.194 104.626" stroke="#543A1B" stroke-width="0.6"/>
<path d="M395.051 96.3306L395.706 103.48" stroke="#543A1B" stroke-width="0.6"/>
<path d="M409.351 95.021L410.005 102.171" stroke="#543A1B" stroke-width="0.6"/>
<path d="M421.862 93.8755L422.517 101.025" stroke="#543A1B" stroke-width="0.6"/>
<path d="M434.374 92.7295L435.029 99.8791" stroke="#543A1B" stroke-width="0.6"/>
<path d="M446.886 91.584L447.54 98.7336" stroke="#543A1B" stroke-width="0.6"/>
<path d="M184.239 510.359L181.62 481.76L490.518 459.78L496.875 489.839L484.52 482.859L483.47 491.066L472.009 484.005L464.456 490.104L453.241 485.724L447.476 491.659L436.015 484.598L429.848 495.977L417.248 486.317L411.565 493.145L402.3 490.389L396.372 494.537L383.533 492.108L376.226 500.888L366.307 490.982L356.565 502.688L350.466 495.136L344.538 499.284L336.815 493.682L329.345 500.675L321.377 492.393L317.399 498.164L308.865 493.538L304.321 502.966L295.459 494.766L291.482 500.537L286.523 495.585L279.864 501.601L271.33 496.976L266.459 502.829L258.818 498.122L251.593 507.795L242.731 499.595L234.286 505.775L230.465 503.422L223.561 506.758L214.133 502.214L207.475 508.231L196.259 503.851L184.239 510.359Z" fill="#E7584C"/>
<path d="M187.227 483.95L485.401 462.952" stroke="#543A1B" stroke-width="0.4"/>
<path d="M187.555 487.525L485.728 466.527" stroke="#543A1B" stroke-width="0.4"/>
<path d="M190.324 498.085L189.669 490.935" stroke="#543A1B" stroke-width="0.6"/>
<path d="M202.917 497.833L202.263 490.683" stroke="#543A1B" stroke-width="0.6"/>
<path d="M215.429 496.688L214.774 489.538" stroke="#543A1B" stroke-width="0.6"/>
<path d="M229.728 495.378L229.073 488.228" stroke="#543A1B" stroke-width="0.6"/>
<path d="M244.027 494.068L243.373 486.919" stroke="#543A1B" stroke-width="0.6"/>
<path d="M256.703 494.71L256.048 487.56" stroke="#543A1B" stroke-width="0.6"/>
<path d="M269.215 493.564L268.56 486.414" stroke="#543A1B" stroke-width="0.6"/>
<path d="M281.727 492.418L281.072 485.269" stroke="#543A1B" stroke-width="0.6"/>
<path d="M294.238 491.272L293.584 484.123" stroke="#543A1B" stroke-width="0.6"/>
<path d="M308.537 489.963L307.882 482.813" stroke="#543A1B" stroke-width="0.6"/>
<path d="M321.049 488.817L320.395 481.668" stroke="#543A1B" stroke-width="0.6"/>
<path d="M333.561 487.671L332.906 480.522" stroke="#543A1B" stroke-width="0.6"/>
<path d="M346.236 488.313L345.582 481.163" stroke="#543A1B" stroke-width="0.6"/>
<path d="M360.535 487.003L359.88 479.854" stroke="#543A1B" stroke-width="0.6"/>
<path d="M374.834 485.694L374.18 478.544" stroke="#543A1B" stroke-width="0.6"/>
<path d="M387.346 484.548L386.691 477.398" stroke="#543A1B" stroke-width="0.6"/>
<path d="M401.646 483.239L400.991 476.089" stroke="#543A1B" stroke-width="0.6"/>
<path d="M415.944 481.929L415.29 474.78" stroke="#543A1B" stroke-width="0.6"/>
<path d="M428.456 480.783L427.801 473.634" stroke="#543A1B" stroke-width="0.6"/>
<path d="M442.756 479.474L442.101 472.324" stroke="#543A1B" stroke-width="0.6"/>
<path d="M455.268 478.328L454.613 471.179" stroke="#543A1B" stroke-width="0.6"/>
<path d="M467.779 477.182L467.125 470.033" stroke="#543A1B" stroke-width="0.6"/>
<path d="M480.291 476.037L479.636 468.887" stroke="#543A1B" stroke-width="0.6"/>
<path d="M461.067 157.875C387.416 148.759 242.706 256.576 179.557 311.624L182.415 332.991L181.783 483.548L491.493 460.592L466.767 298.84L461.067 157.875Z" fill="#FFAD61"/>
<path d="M259.21 399.737C259.702 399.05 261.236 397.689 263.437 397.739C263.055 396.739 263.645 394.262 269.059 392.357C270.503 390.039 273.983 385.615 276.343 386.462C277.316 383.913 279.68 378.781 281.357 378.643C281.358 376.917 281.893 373.212 284.029 372.203C283.335 370.351 282.481 366.395 284.617 365.386C283.943 362.616 283.174 356.804 285.488 355.71C287.801 354.617 288.482 353.023 288.533 352.363C289.77 351.143 292.751 349.77 294.772 354.047C296.793 358.323 296.89 364.671 296.686 367.31C297.524 369.276 298.723 373.922 296.811 376.788C296.712 379.724 295.836 385.761 293.147 387.239C292.297 389.547 289.887 394.501 287.039 395.847C286.711 397.456 284.817 400.821 279.872 401.415C280.363 402.454 280.257 404.993 275.901 406.834C272.966 408.493 266.665 411.363 264.942 409.561C263.22 407.76 262.751 405.692 262.732 404.884C261.093 404.296 258.094 402.444 259.21 399.737Z" fill="#F6E8CF"/>
<path d="M405.265 355.202C405.757 354.515 407.291 353.154 409.492 353.204C409.11 352.204 409.699 349.727 415.113 347.822C416.558 345.505 420.038 341.081 422.398 341.927C423.37 339.378 425.735 334.246 427.411 334.108C427.412 332.382 427.948 328.678 430.083 327.668C429.39 325.816 428.536 321.86 430.672 320.851C429.998 318.081 429.228 312.269 431.542 311.175C433.856 310.082 434.536 308.489 434.587 307.829C435.825 306.608 438.805 305.236 440.826 309.512C442.848 313.788 442.945 320.136 442.741 322.776C443.579 324.741 444.777 329.388 442.865 332.253C442.766 335.189 441.891 341.227 439.202 342.704C438.352 345.013 435.941 349.967 433.094 351.313C432.765 352.921 430.872 356.286 425.927 356.88C426.418 357.919 426.311 360.458 421.956 362.299C419.02 363.959 412.719 366.828 410.997 365.026C409.274 363.225 408.805 361.158 408.786 360.349C407.148 359.762 404.149 357.909 405.265 355.202Z" fill="#F6E8CF"/>
<path d="M176.862 292.044C225.614 253.635 320.518 177.955 389.565 154.509C433.502 139.59 452.174 142.768 460.652 143.493" stroke="#FFAD61" stroke-width="2"/>
<path d="M316.839 370.02C317.537 369.544 319.445 368.792 321.495 369.594C321.48 368.523 322.883 366.399 328.622 366.467C330.774 364.786 335.561 361.824 337.487 363.429C339.275 361.369 343.257 357.36 344.879 357.805C345.472 356.184 347.246 352.888 349.598 352.673C349.582 350.695 350.137 346.686 352.49 346.471C352.807 343.638 354.078 337.915 356.627 337.681C359.175 337.448 360.361 336.185 360.636 335.583C362.217 334.861 365.487 334.594 365.918 339.304C366.35 344.014 364.263 350.01 363.166 352.42C363.279 354.553 362.81 359.329 360.031 361.365C358.931 364.088 356.037 369.459 353.004 369.924C351.414 371.801 347.45 375.627 344.314 375.915C343.453 377.313 340.52 379.824 335.671 378.685C335.776 379.83 334.805 382.178 330.082 382.413C326.756 382.965 319.853 383.498 318.853 381.215C317.853 378.932 318.122 376.829 318.381 376.063C317.044 374.949 314.863 372.18 316.839 370.02Z" fill="#F6E8CF"/>
<path d="M367.091 284.969C367.936 284.952 369.944 285.366 371.223 287.158C371.795 286.253 374.131 285.241 378.9 288.436C381.621 288.205 387.248 288.341 387.983 290.738C390.607 289.991 396.133 288.81 397.248 290.07C398.63 289.037 401.917 287.247 404.005 288.352C405.072 286.688 407.729 283.634 409.817 284.74C411.631 282.542 415.824 278.444 418.086 279.642C420.347 280.84 422.031 280.431 422.59 280.076C424.309 280.336 427.193 281.901 424.979 286.08C422.765 290.26 417.74 294.14 415.504 295.558C414.432 297.406 411.429 301.149 407.989 301.334C405.579 303.013 400.22 305.928 397.426 304.66C395.068 305.362 389.657 306.399 386.874 304.925C385.389 305.625 381.56 306.125 378.123 302.52C377.585 303.536 375.488 304.972 371.405 302.586C368.318 301.23 362.246 297.902 362.657 295.444C363.068 292.986 364.443 291.372 365.078 290.872C364.568 289.208 364.255 285.697 367.091 284.969Z" fill="#F6E8CF"/>
<path d="M381.547 385.984C382.524 386.471 384.576 388.149 384.965 390.968C386.163 390.275 389.445 390.518 392.989 397.035C396.243 398.403 402.604 401.934 402.009 405.119C405.461 405.837 412.496 407.8 413.017 409.911C415.22 409.557 420.057 409.479 421.785 411.997C424.005 410.731 428.878 408.828 430.605 411.346C434.001 409.917 441.26 407.741 443.131 410.469C445.002 413.196 447.175 413.737 448.028 413.667C449.84 414.995 452.204 418.517 447.162 421.975C442.121 425.433 434.04 426.861 430.629 427.144C428.294 428.617 422.61 431.101 418.561 429.25C414.794 429.727 406.909 429.851 404.471 426.723C401.35 426.113 394.533 424.055 392.23 420.698C390.11 420.609 385.426 418.885 383.652 412.696C382.427 413.537 379.165 413.923 375.921 408.742C373.2 405.338 368.243 397.887 370.188 395.318C372.133 392.75 374.675 391.727 375.702 391.536C376.116 389.324 377.863 385.117 381.547 385.984Z" fill="#F6E8CF"/>
<path d="M269.448 428.143C270.535 428.038 273.164 428.375 274.987 430.56C275.636 429.337 278.549 427.806 285.007 431.457C288.491 430.893 295.757 430.519 296.939 433.536C300.248 432.316 307.254 430.255 308.815 431.77C310.496 430.303 314.557 427.675 317.356 428.896C318.569 426.646 321.695 422.451 324.493 423.672C326.617 420.661 331.621 414.97 334.653 416.293C337.685 417.616 339.815 416.924 340.5 416.413C342.741 416.58 346.611 418.314 344.166 423.918C341.722 429.521 335.624 435.013 332.881 437.059C331.68 439.546 328.175 444.663 323.76 445.238C320.817 447.638 314.195 451.919 310.47 450.557C307.5 451.693 300.627 453.558 296.896 451.93C295.051 452.977 290.165 453.995 285.382 449.685C284.788 451.047 282.226 453.102 276.73 450.427C272.619 448.98 264.468 445.285 264.757 442.077C265.047 438.868 266.66 436.654 267.431 435.948C266.61 433.853 265.864 429.358 269.448 428.143Z" fill="#F6E8CF"/>
<path d="M209.94 229.138L227.18 227.559L242.483 235.198L263.123 255.56" stroke="#E7584C" stroke-width="2"/>
<path d="M213.635 223.932L229.458 222.483L243.662 231.226L262.996 254.181" stroke="#E7584C" stroke-width="2"/>
<path d="M244.827 272.186C240.563 271.185 232.803 261.117 229.456 256.208C230.839 262.201 235.075 268.211 237.02 270.467C235.717 271.42 231.123 265.559 228.99 262.51C230.75 270.345 240.818 277.768 241.197 281.906C241.5 285.216 237.247 281.804 235.083 279.684C235.685 290.06 252.717 305.189 254.854 313.338C256.563 319.857 269.783 324.488 276.178 325.988C267.975 321.455 256.551 304.027 251.864 295.88C251.295 288.398 249.091 273.186 244.827 272.186Z" fill="#E7584C" stroke="#E7584C"/>
<path d="M217.159 243.427L226.026 237.748L246.812 240.712L267.449 257.25" stroke="#E7584C" stroke-width="2"/>
<path d="M217.806 239.097L225.993 232.535L245.566 236.555L265.318 256.75" stroke="#E7584C" stroke-width="2"/>
<path d="M222.526 252.672L232.926 240.941L250.011 241.462L266.887 258.692" stroke="#E7584C" stroke-width="2"/>
<path d="M222.274 204.365C216.716 205.685 206.156 205.285 208.38 193.12C210.604 180.956 247.153 187.483 263.05 194.024C285.812 203.39 335.315 235.945 340.516 250.21" stroke="#E7584C"/>
<path d="M221.018 202.046C215.562 199.416 204.747 195.514 203.266 186.634C201.723 177.388 244.052 180.811 259.95 187.352C282.712 196.717 327.185 219.305 332.386 233.57" stroke="#E7584C"/>
<path d="M230.261 192.855L218.151 178.318L245.432 191.466C281.278 206.263 319.249 245.784 333.754 263.694C340.084 275.863 345.568 304.614 316.865 322.263C280.987 344.324 268.022 316.652 256.199 309.043C244.376 301.433 235.944 254.919 245.354 262.75C252.881 269.014 259.016 286.648 261.143 294.682L289.108 300.118C293.031 291.067 296.644 271.543 279.713 265.862C258.548 258.76 246.747 236.198 242.259 228.959C238.669 223.169 233.859 214.43 231.903 210.785C224.604 210.062 222.527 207.123 222.401 205.744C221.08 198.911 210.918 190.454 208.157 186.882C205.948 184.025 208.593 182.786 210.191 182.524L230.261 192.855Z" fill="url(#paint1_linear_1327_300)"/>
<circle cx="236.625" cy="194.011" r="2.07746" transform="rotate(-5.23242 236.625 194.011)" fill="#491507"/>
<path d="M235.558 193.76C235.537 193.531 235.708 193.121 236.561 193.321" stroke="#F3C9BE"/>
<path d="M285.259 227.803C274.772 222.644 263.107 212.447 258.725 207.633C254.586 204.952 250.079 200.544 249.095 197.389C253.318 200.479 272.73 214.765 298.648 233.531C331.045 256.989 321.24 267.622 320.83 263.139C320.419 258.657 298.366 234.252 285.259 227.803Z" fill="#FFB773"/>
<path d="M336.822 270.715C330.357 279.095 316.074 277.019 309.74 274.933C317.394 282.577 336.893 282.878 338.427 280.651C339.655 278.87 337.628 273.191 336.822 270.715Z" fill="#B6310C"/>
<path d="M338.432 288.3C331.024 295.57 315.589 290.805 309.923 287.76C315.977 296.5 335.389 299.415 337.185 297.454C338.621 295.886 338.812 290.871 338.432 288.3Z" fill="#B6310C"/>
<path d="M332.77 306.203C325.362 313.473 311.85 303.686 306.184 300.641C312.238 309.381 324.147 317.133 325.943 315.173C327.379 313.605 333.15 308.774 332.77 306.203Z" fill="#B6310C"/>
<path d="M404.771 289.268L459.001 105.795L467.17 293.396L496.957 490.732L404.771 289.268Z" fill="#543A1B" fill-opacity="0.3"/>
<g filter="url(#filter0_f_1327_300)">
<ellipse cx="709" cy="349.5" rx="199" ry="199.5" fill="#323537" fill-opacity="0.2"/>
</g>
<path d="M331.182 107.587L1.90883 116.177L16.2251 323.285L0 485.536L328.319 489.353C325.456 448.632 321.262 324.239 319.735 312.786C318.207 301.333 327.047 184.576 331.182 107.587Z" fill="#F6E8CF"/>
<path d="M1.90869 86.5897V117.131L331.182 110.45L335 78L322.592 86.5897L320.684 78L309.231 86.5897L300.641 80.8632L289.188 86.5897L282.507 80.8632L271.054 89.453L263.419 78L251.011 89.453L244.33 82.7721L234.786 86.5897L228.105 82.7721L214.743 86.5897L206.154 78L196.61 89.453L185.157 78L179.43 86.5897L172.749 82.7721L165.114 89.453L156.524 82.7721L148.889 92.3162L144.117 86.5897L135.527 92.3162L129.8 82.7721L121.211 92.3162L116.439 86.5897L111.667 92.3162L104.031 86.5897L95.4415 92.3162L89.715 86.5897L82.0796 92.3162L73.4899 82.7721L64.9002 92.3162L55.356 86.5897L51.5383 89.453L43.903 86.5897L34.3588 92.3162L26.7235 86.5897L15.2705 92.3162L1.90869 86.5897Z" fill="#E7584C"/>
<path d="M7.63525 114.268L325.456 107.587" stroke="#543A1B" stroke-width="0.4"/>
<path d="M7.63525 110.45L325.456 103.769" stroke="#543A1B" stroke-width="0.4"/>
<path d="M9.54395 98.9971V106.632" stroke="#543A1B" stroke-width="0.6"/>
<path d="M22.9058 98.043V105.678" stroke="#543A1B" stroke-width="0.6"/>
<path d="M36.2676 98.043V105.678" stroke="#543A1B" stroke-width="0.6"/>
<path d="M51.5381 98.043V105.678" stroke="#543A1B" stroke-width="0.6"/>
<path d="M66.8091 98.043V105.678" stroke="#543A1B" stroke-width="0.6"/>
<path d="M80.1709 96.1338V103.769" stroke="#543A1B" stroke-width="0.6"/>
<path d="M93.5327 96.1338V103.769" stroke="#543A1B" stroke-width="0.6"/>
<path d="M106.895 96.1338V103.769" stroke="#543A1B" stroke-width="0.6"/>
<path d="M120.256 96.1338V103.769" stroke="#543A1B" stroke-width="0.6"/>
<path d="M135.527 96.1338V103.769" stroke="#543A1B" stroke-width="0.6"/>
<path d="M148.889 96.1338V103.769" stroke="#543A1B" stroke-width="0.6"/>
<path d="M162.25 96.1338V103.769" stroke="#543A1B" stroke-width="0.6"/>
<path d="M175.612 94.2251V101.86" stroke="#543A1B" stroke-width="0.6"/>
<path d="M190.883 94.2251V101.86" stroke="#543A1B" stroke-width="0.6"/>
<path d="M206.154 94.2251V101.86" stroke="#543A1B" stroke-width="0.6"/>
<path d="M219.516 94.2251V101.86" stroke="#543A1B" stroke-width="0.6"/>
<path d="M234.786 94.2251V101.86" stroke="#543A1B" stroke-width="0.6"/>
<path d="M250.057 94.2251V101.86" stroke="#543A1B" stroke-width="0.6"/>
<path d="M263.418 94.2251V101.86" stroke="#543A1B" stroke-width="0.6"/>
<path d="M278.689 94.2251V101.86" stroke="#543A1B" stroke-width="0.6"/>
<path d="M292.051 94.2251V101.86" stroke="#543A1B" stroke-width="0.6"/>
<path d="M305.413 94.2251V101.86" stroke="#543A1B" stroke-width="0.6"/>
<path d="M318.775 94.2251V101.86" stroke="#543A1B" stroke-width="0.6"/>
<path d="M0 512.259V481.718L329.274 488.399L333.091 520.849L320.684 512.259L318.775 520.849L307.322 512.259L298.732 517.986L287.279 512.259L280.598 517.986L269.145 509.396L261.51 520.849L249.103 509.396L242.422 516.077L232.878 512.259L226.197 516.077L212.835 512.259L204.245 520.849L194.701 509.396L183.248 520.849L177.521 512.259L170.84 516.077L163.205 509.396L154.615 516.077L146.98 506.533L142.208 512.259L133.618 506.533L127.892 516.077L119.302 506.533L114.53 512.259L109.758 506.533L102.123 512.259L93.5328 506.533L87.8063 512.259L80.171 506.533L71.5812 516.077L62.9915 506.533L53.4473 512.259L49.6296 509.396L41.9943 512.259L32.4501 506.533L24.8148 512.259L13.3618 506.533L0 512.259Z" fill="#E7584C"/>
<path d="M5.72656 484.581L323.547 491.262" stroke="#543A1B" stroke-width="0.4"/>
<path d="M5.72656 488.399L323.547 495.08" stroke="#543A1B" stroke-width="0.4"/>
<path d="M7.63525 499.852V492.217" stroke="#543A1B" stroke-width="0.6"/>
<path d="M20.9971 500.807V493.171" stroke="#543A1B" stroke-width="0.6"/>
<path d="M34.3589 500.807V493.171" stroke="#543A1B" stroke-width="0.6"/>
<path d="M49.6294 500.807V493.171" stroke="#543A1B" stroke-width="0.6"/>
<path d="M64.8999 500.807V493.171" stroke="#543A1B" stroke-width="0.6"/>
<path d="M78.2622 502.715V495.08" stroke="#543A1B" stroke-width="0.6"/>
<path d="M91.624 502.715V495.08" stroke="#543A1B" stroke-width="0.6"/>
<path d="M104.986 502.715V495.08" stroke="#543A1B" stroke-width="0.6"/>
<path d="M118.348 502.715V495.08" stroke="#543A1B" stroke-width="0.6"/>
<path d="M133.618 502.715V495.08" stroke="#543A1B" stroke-width="0.6"/>
<path d="M146.98 502.715V495.08" stroke="#543A1B" stroke-width="0.6"/>
<path d="M160.342 502.715V495.08" stroke="#543A1B" stroke-width="0.6"/>
<path d="M173.704 504.624V496.989" stroke="#543A1B" stroke-width="0.6"/>
<path d="M188.974 504.624V496.989" stroke="#543A1B" stroke-width="0.6"/>
<path d="M204.245 504.624V496.989" stroke="#543A1B" stroke-width="0.6"/>
<path d="M217.607 504.624V496.989" stroke="#543A1B" stroke-width="0.6"/>
<path d="M232.877 504.624V496.989" stroke="#543A1B" stroke-width="0.6"/>
<path d="M248.148 504.624V496.989" stroke="#543A1B" stroke-width="0.6"/>
<path d="M261.51 504.624V496.989" stroke="#543A1B" stroke-width="0.6"/>
<path d="M276.781 504.624V496.989" stroke="#543A1B" stroke-width="0.6"/>
<path d="M290.143 504.624V496.989" stroke="#543A1B" stroke-width="0.6"/>
<path d="M303.504 504.624V496.989" stroke="#543A1B" stroke-width="0.6"/>
<path d="M316.866 504.624V496.989" stroke="#543A1B" stroke-width="0.6"/>
<path d="M327.365 165.806C250.248 149.009 86.5337 249.159 14.3162 301.334L15.2707 324.239L0 483.627L330.228 489.353L319.729 315.65L327.365 165.806Z" fill="#FFAD61"/>
<path d="M90.1279 402.376C90.7156 401.696 92.4724 400.404 94.7984 400.67C94.4908 399.574 95.3554 397.008 101.274 395.515C103.029 393.201 107.143 388.853 109.56 389.979C110.838 387.374 113.84 382.168 115.629 382.184C115.797 380.356 116.723 376.485 119.083 375.623C118.528 373.594 118.007 369.322 120.367 368.46C119.922 365.462 119.671 359.231 122.227 358.298C124.784 357.364 125.659 355.743 125.777 355.049C127.206 353.876 130.496 352.712 132.221 357.436C133.947 362.161 133.434 368.893 132.962 371.669C133.659 373.832 134.478 378.869 132.175 381.718C131.785 384.818 130.273 391.127 127.281 392.431C126.158 394.794 123.124 399.807 119.978 400.956C119.474 402.627 117.142 406.008 111.848 406.157C112.267 407.305 111.908 409.984 107.116 411.511C103.847 412.984 96.8953 415.411 95.2458 413.336C93.5963 411.261 93.3002 409.027 93.3583 408.169C91.6798 407.387 88.6838 405.135 90.1279 402.376Z" fill="#F6E8CF"/>
<path d="M249.128 369.376C249.716 368.696 251.472 367.404 253.798 367.67C253.491 366.574 254.355 364.008 260.274 362.515C262.029 360.201 266.143 355.853 268.56 356.979C269.838 354.374 272.84 349.168 274.629 349.184C274.797 347.356 275.723 343.485 278.083 342.623C277.528 340.594 277.007 336.322 279.367 335.46C278.922 332.462 278.671 326.231 281.227 325.298C283.784 324.364 284.659 322.743 284.777 322.049C286.206 320.876 289.496 319.712 291.221 324.436C292.947 329.161 292.434 335.893 291.962 338.669C292.659 340.832 293.478 345.869 291.175 348.718C290.785 351.818 289.273 358.127 286.281 359.431C285.158 361.794 282.124 366.807 278.978 367.956C278.474 369.627 276.142 373.008 270.848 373.157C271.267 374.305 270.908 376.984 266.116 378.511C262.847 379.984 255.895 382.411 254.246 380.336C252.596 378.261 252.3 376.027 252.358 375.169C250.68 374.387 247.684 372.135 249.128 369.376Z" fill="#F6E8CF"/>
<path d="M13.3618 280.336C68.7179 244.386 176.567 173.441 251.966 155.308C299.945 143.768 319.411 148.945 328.319 150.535" stroke="#FFAD61" stroke-width="2"/>
<path d="M154.043 376.493C154.828 376.056 156.922 375.445 159.015 376.493C159.103 375.358 160.795 373.245 166.866 373.873C169.309 372.301 174.665 369.629 176.549 371.515C178.643 369.507 183.249 365.647 184.924 366.276C185.709 364.617 187.907 361.298 190.419 361.298C190.594 359.202 191.571 355.011 194.083 355.011C194.694 352.042 196.595 346.103 199.317 346.103C202.039 346.103 203.417 344.881 203.766 344.269C205.511 343.658 209 343.693 209 348.723C209 353.753 206.209 359.901 204.813 362.346C204.726 364.617 203.766 369.629 200.626 371.515C199.196 374.293 195.61 379.701 192.353 379.899C190.487 381.733 185.918 385.401 182.568 385.401C181.522 386.798 178.172 389.173 173.147 387.496C173.147 388.719 171.891 391.112 166.866 390.902C163.29 391.164 155.927 391.059 155.09 388.544C154.253 386.029 154.741 383.829 155.09 383.043C153.781 381.733 151.74 378.589 154.043 376.493Z" fill="#F6E8CF"/>
<path d="M215.511 291.293C216.408 291.357 218.495 291.989 219.675 294.011C220.369 293.109 222.941 292.264 227.681 296.11C230.586 296.129 236.531 296.819 237.078 299.429C239.929 298.892 245.896 298.178 246.955 299.62C248.519 298.66 252.174 297.083 254.278 298.456C255.569 296.797 258.679 293.821 260.783 295.194C262.917 293.042 267.756 289.109 270.035 290.597C272.314 292.085 274.136 291.815 274.763 291.494C276.558 291.935 279.46 293.872 276.71 298.084C273.961 302.296 268.262 305.918 265.757 307.202C264.443 309.056 260.899 312.728 257.238 312.591C254.522 314.136 248.564 316.703 245.728 315.088C243.163 315.604 237.332 316.177 234.527 314.346C232.887 314.944 228.784 315.101 225.493 310.951C224.824 311.974 222.465 313.291 218.372 310.369C215.234 308.633 209.126 304.52 209.8 301.956C210.474 299.393 212.086 297.817 212.807 297.35C212.428 295.538 212.437 291.789 215.511 291.293Z" fill="#F6E8CF"/>
<path d="M221.024 399.676C222.012 400.286 224.022 402.263 224.161 405.286C225.497 404.668 228.949 405.244 232.07 412.49C235.384 414.254 241.778 418.61 240.838 421.926C244.425 423.021 251.685 425.782 252.033 428.068C254.4 427.907 259.53 428.293 261.115 431.128C263.59 430.002 268.935 428.46 270.52 431.294C274.255 430.11 282.154 428.509 283.871 431.579C285.588 434.65 287.836 435.434 288.746 435.442C290.536 437.024 292.698 440.983 287.024 444.156C281.349 447.329 272.652 448.059 269.013 448.027C266.397 449.361 260.137 451.44 256.028 449.088C251.992 449.227 243.63 448.594 241.351 445.044C238.105 444.096 231.084 441.255 228.971 437.476C226.734 437.177 221.942 434.896 220.663 428.17C219.284 428.941 215.792 429.034 212.859 423.233C210.307 419.363 205.78 410.991 208.089 408.46C210.398 405.928 213.189 405.091 214.296 404.989C214.948 402.686 217.207 398.4 221.024 399.676Z" fill="#F6E8CF"/>
<path d="M98.2158 433.453C99.377 433.447 102.129 434.059 103.848 436.549C104.653 435.318 107.886 433.978 114.372 438.471C118.117 438.212 125.848 438.521 126.807 441.831C130.429 440.86 138.05 439.356 139.555 441.112C141.478 439.721 146.034 437.332 148.88 438.896C150.383 436.631 154.1 432.492 156.945 434.057C159.486 431.074 165.338 425.532 168.421 427.227C171.504 428.922 173.826 428.396 174.602 427.921C176.959 428.315 180.889 430.528 177.757 436.225C174.624 441.922 167.634 447.147 164.53 449.047C163.017 451.564 158.809 456.644 154.077 456.825C150.728 459.081 143.299 462.972 139.487 461.169C136.231 462.084 128.772 463.392 124.977 461.306C122.922 462.237 117.648 462.841 113.001 457.813C112.24 459.198 109.327 461.126 103.766 457.759C99.5524 455.828 91.2786 451.124 91.8963 447.754C92.5141 444.384 94.4379 442.196 95.3226 441.523C94.6563 439.224 94.3021 434.392 98.2158 433.453Z" fill="#F6E8CF"/>
<path d="M54.4941 216.922H72.9055L88.3711 226.496L108.255 250.063" stroke="#E7584C" stroke-width="2"/>
<path d="M58.9121 211.767H75.8102L90.0047 222.405L108.255 248.59" stroke="#E7584C" stroke-width="2"/>
<path d="M87.2659 265.896C82.8472 264.423 75.6054 253.008 72.5368 247.485C73.4206 253.966 77.3238 260.741 79.1649 263.319C77.692 264.202 73.396 257.55 71.4321 254.113C72.5368 262.582 82.479 271.42 82.479 275.838C82.479 279.373 78.3057 275.347 76.2191 272.893C75.8509 283.939 92.4211 301.614 93.894 310.452C95.0723 317.522 108.623 323.708 115.251 325.917C107.003 320.32 96.5944 300.755 92.4211 291.672C92.5438 283.694 91.6847 267.369 87.2659 265.896Z" fill="#E7584C" stroke="#E7584C"/>
<path d="M60.7534 232.756L70.6956 227.601L92.421 232.756L112.674 252.272" stroke="#E7584C" stroke-width="2"/>
<path d="M61.8584 228.233L71.1659 222.078L91.5046 228.233L110.464 251.536" stroke="#E7584C" stroke-width="2"/>
<path d="M65.541 243.067L77.6925 231.652L95.7357 233.861L111.938 253.746" stroke="#E7584C" stroke-width="2"/>
<path d="M69.9592 191.882C63.9448 192.742 52.7998 191.293 56.3348 178.626C59.8698 165.959 97.9445 176.417 114.147 184.886C137.345 197.012 186.614 236.291 190.738 251.904" stroke="#E7584C"/>
<path d="M68.8539 189.304C63.3306 185.99 52.2549 180.809 51.5476 171.262C50.8111 161.32 95.3078 169.049 111.51 177.519C134.708 189.645 179.617 217.88 183.741 233.492" stroke="#E7584C"/>
<path d="M79.5335 180.468L68.1184 163.897L95.7356 180.468C132.264 199.616 168.645 245.153 182.269 265.528C187.793 279.03 190.812 310.01 158.703 325.918C118.566 345.802 107.519 315.239 95.7356 306.033C83.9523 296.828 79.5335 246.749 88.7393 255.954C96.1039 263.319 100.891 282.59 102.364 291.304L131.454 299.773C136.486 290.568 142.206 270.242 124.826 262.582C103.1 253.009 92.7898 227.969 88.7393 219.868C85.4988 213.387 81.2519 203.666 79.5335 199.616C71.8743 198.143 69.9596 194.829 69.9596 193.356C69.2232 185.991 59.281 176.049 56.7034 171.998C54.6413 168.758 57.5626 167.702 59.281 167.58L79.5335 180.468Z" fill="url(#paint2_linear_1327_300)"/>
<circle cx="86.1615" cy="182.309" r="2.20937" fill="#491507"/>
<path d="M85.0566 181.94C85.0566 181.695 85.2776 181.277 86.1613 181.572" stroke="#F3C9BE"/>
<path d="M134.39 222.814C123.785 216.333 112.419 204.402 108.246 198.879C104.122 195.639 99.777 190.532 99.0405 187.096C103.214 190.778 122.386 207.79 148.015 230.178C180.051 258.164 168.636 268.474 168.636 263.687C168.636 258.9 147.647 230.915 134.39 222.814Z" fill="#FFB773"/>
<path d="M184.837 273.261C177.178 281.51 162.252 277.925 155.747 275.102C163.112 283.94 183.732 286.149 185.574 283.94C187.046 282.172 185.451 275.962 184.837 273.261Z" fill="#B6310C"/>
<path d="M184.837 292.041C176.286 299.022 160.402 292.479 154.697 288.704C160.261 298.548 180.537 303.517 182.628 301.615C184.301 300.093 184.99 294.8 184.837 292.041Z" fill="#B6310C"/>
<path d="M177.104 310.452C168.553 317.433 155.192 305.758 149.487 301.983C155.052 311.827 166.912 321.192 169.003 319.29C170.677 317.768 177.257 313.212 177.104 310.452Z" fill="#B6310C"/>
<path d="M255 299.5L330.228 110.45L320.684 309.923L333.091 521.804L255 299.5Z" fill="#543A1B" fill-opacity="0.3"/>
<defs>
<filter id="filter0_f_1327_300" x="360" y="0" width="698" height="699" filterUnits="userSpaceOnUse" color-interpolation-filters="sRGB">
<feFlood flood-opacity="0" result="BackgroundImageFix"/>
<feBlend mode="normal" in="SourceGraphic" in2="BackgroundImageFix" result="shape"/>
<feGaussianBlur stdDeviation="75" result="effect1_foregroundBlur_1327_300"/>
</filter>
<linearGradient id="paint0_linear_1327_300" x1="596.541" y1="156.029" x2="570.4" y2="319.986" gradientUnits="userSpaceOnUse">
<stop stop-color="#FF825F"/>
<stop offset="1" stop-color="#B82C05"/>
</linearGradient>
<linearGradient id="paint1_linear_1327_300" x1="267.549" y1="173.794" x2="282.008" y2="331.68" gradientUnits="userSpaceOnUse">
<stop stop-color="#FF825F"/>
<stop offset="1" stop-color="#B82C05"/>
</linearGradient>
<linearGradient id="paint2_linear_1327_300" x1="120.873" y1="163.897" x2="120.873" y2="332.511" gradientUnits="userSpaceOnUse">
<stop stop-color="#FF825F"/>
<stop offset="1" stop-color="#B82C05"/>
</linearGradient>
</defs>
</svg>
