<svg width="171" height="81" viewBox="0 0 171 81" fill="none" xmlns="http://www.w3.org/2000/svg">
<rect x="7.98584" width="155" height="81" fill="#BF3C3D"/>
<rect x="7.98584" y="35" width="155" height="38" fill="#E64A4B"/>
<path d="M38.1053 56.1418V28.6672H34.5896V25.2043H45.4705V28.6672H42.1658V56.1418H38.1053ZM50.1006 56.1418V25.2043H57.1318C58.7607 25.2043 59.9678 25.509 60.7529 26.1184C61.5498 26.7161 62.0713 27.6125 62.3174 28.8079C62.5635 29.9915 62.6865 31.4622 62.6865 33.22C62.6865 35.095 62.4932 36.5774 62.1064 37.6672C61.7314 38.7454 60.9814 39.4543 59.8564 39.7942C60.4072 39.8879 60.8642 40.1223 61.2275 40.4973C61.6025 40.8606 61.8955 41.4231 62.1064 42.1848C62.3291 42.9348 62.4873 43.9309 62.581 45.1731C62.6748 46.4036 62.7217 47.9387 62.7217 49.7786C62.7217 49.9426 62.7217 50.2473 62.7217 50.6926C62.7217 51.1379 62.7217 51.6418 62.7217 52.2043C62.7334 52.7668 62.7451 53.3293 62.7568 53.8918C62.7803 54.4426 62.8037 54.9231 62.8271 55.3333C62.8623 55.7434 62.9033 56.0129 62.9502 56.1418H58.8721C58.8369 56.0598 58.8017 55.802 58.7666 55.3684C58.7432 54.9231 58.7197 54.3489 58.6963 53.6458C58.6728 52.9426 58.6553 52.1516 58.6435 51.2727C58.6435 50.3821 58.6435 49.4446 58.6435 48.4602C58.6435 47.4641 58.6435 46.4563 58.6435 45.4368C58.6435 44.3704 58.5849 43.5618 58.4678 43.011C58.3506 42.4485 58.1103 42.0618 57.7471 41.8508C57.3838 41.6282 56.8271 41.4934 56.0771 41.4465L54.1787 41.3411V56.1418H50.1006ZM54.1963 38.2649H56.3232C56.956 38.2649 57.4365 38.136 57.7646 37.8782C58.1045 37.6086 58.333 37.0989 58.4502 36.3489C58.5791 35.5989 58.6435 34.4915 58.6435 33.0266V32.8333C58.6435 31.6028 58.5849 30.6711 58.4678 30.0383C58.3506 29.4055 58.1162 28.9778 57.7646 28.7551C57.4248 28.5208 56.9033 28.4036 56.2002 28.4036H54.1963V38.2649ZM67.0881 56.1418L71.6584 25.2043H76.8088L81.7482 56.1418H77.9162L77.09 50.3938H71.7463L70.9904 56.1418H67.0881ZM72.1682 47.1067H76.6154L74.3303 31.093H74.2775L72.1682 47.1067ZM92.7064 56.511C91.2064 56.511 89.9877 56.1536 89.0502 55.4387C88.1127 54.7239 87.4271 53.675 86.9935 52.2922C86.56 50.9094 86.3432 49.2336 86.3432 47.2649V34.134C86.3432 32.7395 86.4428 31.4797 86.642 30.3547C86.8412 29.218 87.181 28.2395 87.6615 27.4192C88.1537 26.5989 88.8158 25.9719 89.6478 25.5383C90.4916 25.093 91.5521 24.8704 92.8295 24.8704C94.0131 24.8704 94.9975 25.0754 95.7826 25.4856C96.5795 25.884 97.2064 26.4641 97.6635 27.2258C98.1322 27.9875 98.4603 28.8958 98.6478 29.9504C98.8471 31.0051 98.9467 32.177 98.9467 33.4661V37.2454H94.974V33.5891C94.974 31.8313 94.8392 30.5247 94.5697 29.6692C94.3002 28.8137 93.7201 28.386 92.8295 28.386C91.8803 28.386 91.2416 28.8313 90.9135 29.7219C90.5971 30.6125 90.4389 31.8958 90.4389 33.5715V47.4055C90.4389 48.7297 90.5033 49.8079 90.6322 50.6399C90.7611 51.4602 90.9896 52.0637 91.3178 52.4504C91.6459 52.8254 92.1146 53.0129 92.724 53.0129C93.6264 53.0129 94.224 52.5735 94.517 51.6946C94.8217 50.804 94.974 49.3625 94.974 47.3704V43.5208H98.9994V47.3176C98.9994 49.345 98.8002 51.0442 98.4017 52.4153C98.0033 53.7747 97.3412 54.8 96.4154 55.4915C95.5014 56.1711 94.265 56.511 92.7064 56.511ZM105.036 56.1418V25.2043H109.114V39.7415L114.299 25.2043H118.448L112.946 40.4797L118.852 56.1418H114.581L109.149 41.4817V56.1418H105.036ZM128.615 56.4934C127.349 56.4934 126.306 56.2766 125.486 55.843C124.678 55.4094 124.045 54.7883 123.588 53.9797C123.131 53.1711 122.814 52.2043 122.638 51.0793C122.463 49.9543 122.375 48.6946 122.375 47.3V44.3997H126.295V47.5286C126.295 49.4856 126.441 50.886 126.734 51.7297C127.039 52.5735 127.666 52.9954 128.615 52.9954C129.26 52.9954 129.74 52.843 130.056 52.5383C130.373 52.2336 130.578 51.7473 130.672 51.0793C130.765 50.4114 130.812 49.5266 130.812 48.425C130.812 47.136 130.566 46.0051 130.074 45.0325C129.594 44.0481 128.885 43.0696 127.947 42.0969L125.803 39.9524C125.205 39.3196 124.631 38.6458 124.08 37.9309C123.541 37.2043 123.101 36.3899 122.762 35.4875C122.422 34.5852 122.252 33.5598 122.252 32.4114C122.252 30.8293 122.433 29.47 122.797 28.3333C123.16 27.1965 123.787 26.3293 124.678 25.7317C125.58 25.1223 126.84 24.8176 128.457 24.8176C129.711 24.8176 130.724 25.0286 131.498 25.4504C132.271 25.8606 132.863 26.4524 133.273 27.2258C133.683 27.9993 133.965 28.925 134.117 30.0032C134.269 31.0813 134.345 32.2883 134.345 33.6243V35.4875H130.513V33.3606C130.513 32.2356 130.461 31.304 130.355 30.5657C130.262 29.8157 130.068 29.2532 129.775 28.8782C129.482 28.5032 129.043 28.3157 128.457 28.3157C127.906 28.3157 127.461 28.4446 127.121 28.7024C126.781 28.9602 126.535 29.3586 126.383 29.8977C126.23 30.425 126.154 31.1106 126.154 31.9543C126.154 32.7043 126.242 33.3313 126.418 33.8352C126.605 34.3391 126.887 34.8196 127.262 35.2766C127.648 35.7219 128.117 36.2375 128.668 36.8235L130.953 39.2668C132.113 40.4973 133.039 41.8274 133.73 43.2571C134.433 44.6868 134.785 46.3157 134.785 48.1438C134.785 49.9133 134.603 51.4192 134.24 52.6614C133.877 53.9036 133.25 54.8528 132.359 55.509C131.469 56.1653 130.22 56.4934 128.615 56.4934Z" fill="#FFF9EC"/>
</svg>
